%TF.GenerationSoftware,KiCad,Pcbnew,10.0.6*%
%TF.CreationDate,2026-09-30T17:50:58+03:00*%
%TF.ProjectId,STM32F4_REV2,53544d33-3246-4345-9f52-4556322e6b69,vSETP 2026*%
%TF.SameCoordinates,Original*%
%TF.FileFunction,Copper,L3,Inr*%
%TF.FilePolarity,Positive*%
%FSLAX46Y46*%
G04 Gerber Fmt 4.6, Leading zero omitted, Abs format (unit mm)*
G04 Created by KiCad (PCBNEW 10.0.6) date 2026-09-30 17:50:58*
%MOMM*%
%LPD*%
G01*
G04 APERTURE LIST*
G04 Aperture macros list*
%AMRoundRect*
0 Rectangle with rounded corners*
0 $1 Rounding radius*
0 $2 $3 $4 $5 $6 $7 $8 $9 X,Y pos of 4 corners*
0 Add a 4 corners polygon primitive as box body*
4,1,4,$2,$3,$4,$5,$6,$7,$8,$9,$2,$3,0*
0 Add four circle primitives for the rounded corners*
1,1,$1+$1,$2,$3*
1,1,$1+$1,$4,$5*
1,1,$1+$1,$6,$7*
1,1,$1+$1,$8,$9*
0 Add four rect primitives between the rounded corners*
20,1,$1+$1,$2,$3,$4,$5,0*
20,1,$1+$1,$4,$5,$6,$7,0*
20,1,$1+$1,$6,$7,$8,$9,0*
20,1,$1+$1,$8,$9,$2,$3,0*%
G04 Aperture macros list end*
%TA.AperFunction,ComponentPad*%
%ADD10RoundRect,0.250001X0.949999X-0.949999X0.949999X0.949999X-0.949999X0.949999X-0.949999X-0.949999X0*%
%TD*%
%TA.AperFunction,ComponentPad*%
%ADD11C,2.400000*%
%TD*%
%TA.AperFunction,ComponentPad*%
%ADD12RoundRect,0.200000X-0.200000X-0.450000X0.200000X-0.450000X0.200000X0.450000X-0.200000X0.450000X0*%
%TD*%
%TA.AperFunction,ComponentPad*%
%ADD13O,0.800000X1.300000*%
%TD*%
%TA.AperFunction,ComponentPad*%
%ADD14C,0.900000*%
%TD*%
%TA.AperFunction,ComponentPad*%
%ADD15C,8.600000*%
%TD*%
%TA.AperFunction,ComponentPad*%
%ADD16RoundRect,0.200000X0.200000X0.450000X-0.200000X0.450000X-0.200000X-0.450000X0.200000X-0.450000X0*%
%TD*%
%TA.AperFunction,ComponentPad*%
%ADD17C,1.950000*%
%TD*%
%TA.AperFunction,ViaPad*%
%ADD18C,0.800000*%
%TD*%
%TA.AperFunction,ViaPad*%
%ADD19C,0.600000*%
%TD*%
G04 APERTURE END LIST*
D10*
%TO.N,+12V*%
%TO.C,J1*%
X163142500Y-105219581D03*
D11*
%TO.N,GND*%
X163142500Y-101719581D03*
%TD*%
D12*
%TO.N,+3.3V*%
%TO.C,J4*%
X137850000Y-116269581D03*
D13*
%TO.N,UART3_TX*%
X139100000Y-116269581D03*
%TO.N,UART3_RX*%
X140350000Y-116269581D03*
%TO.N,GND*%
X141600000Y-116269581D03*
%TD*%
D14*
%TO.N,GND*%
%TO.C,H2*%
X123000000Y-79500000D03*
X123944581Y-77219581D03*
X123944581Y-81780419D03*
X126225000Y-76275000D03*
D15*
X126225000Y-79500000D03*
D14*
X126225000Y-82725000D03*
X128505419Y-77219581D03*
X128505419Y-81780419D03*
X129450000Y-79500000D03*
%TD*%
%TO.N,GND*%
%TO.C,H4*%
X161250000Y-115969581D03*
X162194581Y-113689162D03*
X162194581Y-118250000D03*
X164475000Y-112744581D03*
D15*
X164475000Y-115969581D03*
D14*
X164475000Y-119194581D03*
X166755419Y-113689162D03*
X166755419Y-118250000D03*
X167700000Y-115969581D03*
%TD*%
%TO.N,GND*%
%TO.C,H3*%
X123000000Y-116219581D03*
X123944581Y-113939162D03*
X123944581Y-118500000D03*
X126225000Y-112994581D03*
D15*
X126225000Y-116219581D03*
D14*
X126225000Y-119444581D03*
X128505419Y-113939162D03*
X128505419Y-118500000D03*
X129450000Y-116219581D03*
%TD*%
D16*
%TO.N,+3.3V*%
%TO.C,J3*%
X141600000Y-79169581D03*
D13*
%TO.N,I2C1_SCL*%
X140350000Y-79169581D03*
%TO.N,I2C1_SDA*%
X139100000Y-79169581D03*
%TO.N,GND*%
X137850000Y-79169581D03*
%TD*%
D14*
%TO.N,GND*%
%TO.C,H1*%
X161250000Y-79500000D03*
X162194581Y-77219581D03*
X162194581Y-81780419D03*
X164475000Y-76275000D03*
D15*
X164475000Y-79500000D03*
D14*
X164475000Y-82725000D03*
X166755419Y-77219581D03*
X166755419Y-81780419D03*
X167700000Y-79500000D03*
%TD*%
D17*
%TO.N,N/C*%
%TO.C,J5*%
X164225000Y-96219581D03*
X164225000Y-89619581D03*
%TD*%
D18*
%TO.N,+3.3V*%
X127130000Y-86730000D03*
X156460000Y-115430000D03*
X146110000Y-115350000D03*
X136830000Y-116280000D03*
X155390000Y-113810000D03*
X157380000Y-116730000D03*
X149200000Y-112700000D03*
X131090000Y-94690000D03*
X141600000Y-77900000D03*
X137850000Y-115000000D03*
X136220000Y-89580000D03*
X145620000Y-112940000D03*
X139510000Y-87200000D03*
X142630000Y-79170000D03*
X145910000Y-104770000D03*
X155340000Y-116890000D03*
X158440000Y-82820000D03*
X129990000Y-99580000D03*
X147260000Y-116850000D03*
X146450000Y-87820000D03*
X137500000Y-108100000D03*
X137850000Y-117580000D03*
X132230000Y-95860000D03*
X141580000Y-80580000D03*
X147390000Y-86280000D03*
X145570000Y-111450000D03*
X146000000Y-92900000D03*
X147450000Y-89750000D03*
X147390000Y-110970000D03*
D19*
%TO.N,NRST*%
X143580000Y-98040000D03*
X148790000Y-94010000D03*
%TO.N,SWO*%
X142270000Y-88120000D03*
X136220000Y-102150000D03*
D18*
%TO.N,Net-(C11-Pad1)*%
X131020000Y-98510000D03*
X124440000Y-99270000D03*
%TO.N,GND*%
X150000000Y-94050000D03*
X152400000Y-116910000D03*
X158470000Y-87140000D03*
X160340000Y-91580000D03*
X145040000Y-106690000D03*
X160860000Y-101830000D03*
X153240000Y-114020000D03*
X152280000Y-104520000D03*
X137370000Y-89570000D03*
X159840000Y-90850000D03*
X152510000Y-110590000D03*
X136440000Y-108240000D03*
X157210000Y-107460000D03*
X161610000Y-109720000D03*
X152480000Y-108310000D03*
X129280000Y-93810000D03*
X159380000Y-108670000D03*
X127810000Y-101000000D03*
X137870000Y-77910000D03*
X160500000Y-108640000D03*
X159520000Y-107550000D03*
X149940000Y-89800000D03*
X148600000Y-89750000D03*
X148670000Y-86220000D03*
X149220000Y-115270000D03*
X150300000Y-113970000D03*
X131210000Y-99560000D03*
X150230000Y-116850000D03*
X165350000Y-101680000D03*
X150060000Y-104530000D03*
X125790000Y-96410000D03*
X133300000Y-107410000D03*
X153550000Y-115370000D03*
X125820000Y-94690000D03*
X158380000Y-106040000D03*
X159270000Y-103100000D03*
X153240000Y-87840000D03*
X158420000Y-101750000D03*
X127160000Y-91180000D03*
X153650000Y-92780000D03*
X137860000Y-80460000D03*
X132460000Y-99590000D03*
X142680000Y-116280000D03*
X143530000Y-108460000D03*
X131110000Y-93220000D03*
X130750000Y-97500000D03*
X141660000Y-117580000D03*
X136790000Y-79180000D03*
X141620000Y-115010000D03*
X147110000Y-92770000D03*
X151200000Y-102890000D03*
X159390000Y-91580000D03*
X163160000Y-99490000D03*
%TD*%
%TA.AperFunction,Conductor*%
%TO.N,+3.3V*%
G36*
X164477562Y-74224186D02*
G01*
X164903061Y-74241785D01*
X164913234Y-74242628D01*
X165333307Y-74294990D01*
X165343387Y-74296672D01*
X165757689Y-74383542D01*
X165767597Y-74386051D01*
X166173312Y-74506838D01*
X166182980Y-74510157D01*
X166469026Y-74621773D01*
X166577318Y-74664029D01*
X166586703Y-74668146D01*
X166966963Y-74854044D01*
X166975977Y-74858921D01*
X167339619Y-75075605D01*
X167348198Y-75081211D01*
X167692683Y-75327167D01*
X167700765Y-75333458D01*
X168023766Y-75607027D01*
X168031306Y-75613968D01*
X168330612Y-75913274D01*
X168337553Y-75920814D01*
X168611122Y-76243815D01*
X168617415Y-76251901D01*
X168630399Y-76270086D01*
X168863369Y-76596382D01*
X168868975Y-76604961D01*
X169085659Y-76968603D01*
X169090536Y-76977617D01*
X169276434Y-77357877D01*
X169280551Y-77367262D01*
X169434418Y-77761588D01*
X169437746Y-77771281D01*
X169558525Y-78176970D01*
X169561041Y-78186905D01*
X169647905Y-78601179D01*
X169649592Y-78611288D01*
X169701950Y-79031325D01*
X169702796Y-79041539D01*
X169720394Y-79467018D01*
X169720500Y-79472142D01*
X169720500Y-115967019D01*
X169720394Y-115972143D01*
X169702796Y-116397622D01*
X169701950Y-116407836D01*
X169649592Y-116827873D01*
X169647905Y-116837982D01*
X169561041Y-117252256D01*
X169558525Y-117262191D01*
X169437746Y-117667880D01*
X169434418Y-117677573D01*
X169280551Y-118071899D01*
X169276434Y-118081284D01*
X169090536Y-118461544D01*
X169085659Y-118470558D01*
X168868975Y-118834200D01*
X168863369Y-118842779D01*
X168617417Y-119187258D01*
X168611122Y-119195346D01*
X168337553Y-119518347D01*
X168330612Y-119525887D01*
X168031306Y-119825193D01*
X168023766Y-119832134D01*
X167700765Y-120105703D01*
X167692677Y-120111998D01*
X167348198Y-120357950D01*
X167339619Y-120363556D01*
X166975977Y-120580240D01*
X166966963Y-120585117D01*
X166586703Y-120771015D01*
X166577318Y-120775132D01*
X166182992Y-120928999D01*
X166173299Y-120932327D01*
X165767610Y-121053106D01*
X165757675Y-121055622D01*
X165343401Y-121142486D01*
X165333292Y-121144173D01*
X164913255Y-121196531D01*
X164903041Y-121197377D01*
X164477561Y-121214975D01*
X164472437Y-121215081D01*
X164422059Y-121215081D01*
X164418008Y-121215447D01*
X126227853Y-121465056D01*
X126221919Y-121464953D01*
X125796958Y-121447377D01*
X125786744Y-121446531D01*
X125366707Y-121394173D01*
X125356598Y-121392486D01*
X124942324Y-121305622D01*
X124932389Y-121303106D01*
X124526700Y-121182327D01*
X124517007Y-121178999D01*
X124122681Y-121025132D01*
X124113296Y-121021015D01*
X123733036Y-120835117D01*
X123724022Y-120830240D01*
X123360380Y-120613556D01*
X123351801Y-120607950D01*
X123007322Y-120361998D01*
X122999234Y-120355703D01*
X122852863Y-120231733D01*
X122837733Y-120218918D01*
X122676233Y-120082134D01*
X122668693Y-120075193D01*
X122369387Y-119775887D01*
X122362446Y-119768347D01*
X122199959Y-119576500D01*
X122088873Y-119445341D01*
X122082582Y-119437258D01*
X122069600Y-119419076D01*
X121891105Y-119169076D01*
X121836630Y-119092779D01*
X121831024Y-119084200D01*
X121614340Y-118720558D01*
X121609463Y-118711544D01*
X121423565Y-118331284D01*
X121419448Y-118321899D01*
X121335991Y-118108018D01*
X121265576Y-117927561D01*
X121262257Y-117917893D01*
X121141470Y-117512178D01*
X121138961Y-117502270D01*
X121052091Y-117087968D01*
X121050409Y-117077888D01*
X120998047Y-116657815D01*
X120997204Y-116647642D01*
X120979606Y-116222143D01*
X120979500Y-116217019D01*
X120979500Y-116009983D01*
X121424500Y-116009983D01*
X121424500Y-116429178D01*
X121461035Y-116846771D01*
X121461035Y-116846775D01*
X121526677Y-117219045D01*
X121533826Y-117259589D01*
X121539029Y-117279007D01*
X121642316Y-117664483D01*
X121642319Y-117664493D01*
X121642320Y-117664494D01*
X121785691Y-118058403D01*
X121785694Y-118058410D01*
X121785695Y-118058412D01*
X121785698Y-118058420D01*
X121962843Y-118438307D01*
X121962851Y-118438323D01*
X122073873Y-118630617D01*
X122172443Y-118801345D01*
X122172447Y-118801351D01*
X122172454Y-118801362D01*
X122412879Y-119144725D01*
X122607640Y-119376830D01*
X122682329Y-119465841D01*
X122978740Y-119762252D01*
X123062022Y-119832134D01*
X123299855Y-120031701D01*
X123643218Y-120272126D01*
X123643225Y-120272130D01*
X123643236Y-120272138D01*
X124006264Y-120481733D01*
X124006273Y-120481737D01*
X124386160Y-120658882D01*
X124386164Y-120658883D01*
X124386178Y-120658890D01*
X124780087Y-120802261D01*
X124780093Y-120802262D01*
X124780097Y-120802264D01*
X124884506Y-120830240D01*
X125184992Y-120910755D01*
X125597812Y-120983546D01*
X126015404Y-121020080D01*
X126015405Y-121020081D01*
X126015406Y-121020081D01*
X126434595Y-121020081D01*
X126434595Y-121020080D01*
X126852188Y-120983546D01*
X127265008Y-120910755D01*
X127669913Y-120802261D01*
X128063822Y-120658890D01*
X128443736Y-120481733D01*
X128806764Y-120272138D01*
X129150143Y-120031702D01*
X129471260Y-119762252D01*
X129767671Y-119465841D01*
X130037121Y-119144724D01*
X130277557Y-118801345D01*
X130354202Y-118668592D01*
X132423500Y-118668592D01*
X132423500Y-118831407D01*
X132455259Y-118991073D01*
X132455262Y-118991082D01*
X132517562Y-119141490D01*
X132517563Y-119141492D01*
X132608015Y-119276862D01*
X132608018Y-119276866D01*
X132723133Y-119391981D01*
X132723137Y-119391984D01*
X132858505Y-119482435D01*
X132858506Y-119482435D01*
X132858507Y-119482436D01*
X132858509Y-119482437D01*
X132930483Y-119512249D01*
X133008919Y-119544738D01*
X133008921Y-119544738D01*
X133008926Y-119544740D01*
X133168592Y-119576499D01*
X133168595Y-119576500D01*
X133168597Y-119576500D01*
X133331405Y-119576500D01*
X133331406Y-119576499D01*
X133384629Y-119565912D01*
X133491073Y-119544740D01*
X133491076Y-119544738D01*
X133491081Y-119544738D01*
X133641495Y-119482435D01*
X133776863Y-119391984D01*
X133891984Y-119276863D01*
X133982435Y-119141495D01*
X134044738Y-118991081D01*
X134076500Y-118831403D01*
X134076500Y-118668597D01*
X134076500Y-118668594D01*
X134076499Y-118668592D01*
X156673500Y-118668592D01*
X156673500Y-118831407D01*
X156705259Y-118991073D01*
X156705262Y-118991082D01*
X156767562Y-119141490D01*
X156767563Y-119141492D01*
X156858015Y-119276862D01*
X156858018Y-119276866D01*
X156973133Y-119391981D01*
X156973137Y-119391984D01*
X157108505Y-119482435D01*
X157108506Y-119482435D01*
X157108507Y-119482436D01*
X157108509Y-119482437D01*
X157180483Y-119512249D01*
X157258919Y-119544738D01*
X157258921Y-119544738D01*
X157258926Y-119544740D01*
X157418592Y-119576499D01*
X157418595Y-119576500D01*
X157418597Y-119576500D01*
X157581405Y-119576500D01*
X157581406Y-119576499D01*
X157634629Y-119565912D01*
X157741073Y-119544740D01*
X157741076Y-119544738D01*
X157741081Y-119544738D01*
X157891495Y-119482435D01*
X158026863Y-119391984D01*
X158141984Y-119276863D01*
X158232435Y-119141495D01*
X158294738Y-118991081D01*
X158326500Y-118831403D01*
X158326500Y-118668597D01*
X158326500Y-118668594D01*
X158326499Y-118668592D01*
X158294740Y-118508926D01*
X158294737Y-118508917D01*
X158282966Y-118480500D01*
X158240517Y-118378016D01*
X158232437Y-118358509D01*
X158232436Y-118358507D01*
X158141984Y-118223137D01*
X158141981Y-118223133D01*
X158026866Y-118108018D01*
X158026862Y-118108015D01*
X157891492Y-118017563D01*
X157891490Y-118017562D01*
X157741082Y-117955262D01*
X157741073Y-117955259D01*
X157581406Y-117923500D01*
X157581403Y-117923500D01*
X157418597Y-117923500D01*
X157418594Y-117923500D01*
X157258926Y-117955259D01*
X157258917Y-117955262D01*
X157108509Y-118017562D01*
X157108507Y-118017563D01*
X156973137Y-118108015D01*
X156973133Y-118108018D01*
X156858018Y-118223133D01*
X156858015Y-118223137D01*
X156767563Y-118358507D01*
X156767562Y-118358509D01*
X156705262Y-118508917D01*
X156705259Y-118508926D01*
X156673500Y-118668592D01*
X134076499Y-118668592D01*
X134044740Y-118508926D01*
X134044737Y-118508917D01*
X134032966Y-118480500D01*
X133990517Y-118378016D01*
X133982437Y-118358509D01*
X133982436Y-118358507D01*
X133891984Y-118223137D01*
X133891981Y-118223133D01*
X133776866Y-118108018D01*
X133776862Y-118108015D01*
X133641492Y-118017563D01*
X133641490Y-118017562D01*
X133491082Y-117955262D01*
X133491073Y-117955259D01*
X133331406Y-117923500D01*
X133331403Y-117923500D01*
X133168597Y-117923500D01*
X133168594Y-117923500D01*
X133008926Y-117955259D01*
X133008917Y-117955262D01*
X132858509Y-118017562D01*
X132858507Y-118017563D01*
X132723137Y-118108015D01*
X132723133Y-118108018D01*
X132608018Y-118223133D01*
X132608015Y-118223137D01*
X132517563Y-118358507D01*
X132517562Y-118358509D01*
X132455262Y-118508917D01*
X132455259Y-118508926D01*
X132423500Y-118668592D01*
X130354202Y-118668592D01*
X130487152Y-118438317D01*
X130664309Y-118058403D01*
X130807680Y-117664494D01*
X130916174Y-117259589D01*
X130988965Y-116846769D01*
X130995142Y-116776163D01*
X136950001Y-116776163D01*
X136956408Y-116846683D01*
X136956409Y-116846688D01*
X137006981Y-117008977D01*
X137094927Y-117154458D01*
X137215122Y-117274653D01*
X137360604Y-117362600D01*
X137360603Y-117362600D01*
X137474999Y-117398247D01*
X137475000Y-117398247D01*
X137475000Y-116644581D01*
X136950001Y-116644581D01*
X136950001Y-116776163D01*
X130995142Y-116776163D01*
X131009831Y-116608274D01*
X138199499Y-116608274D01*
X138222617Y-116724487D01*
X138225000Y-116748679D01*
X138225000Y-117398247D01*
X138339396Y-117362600D01*
X138339398Y-117362599D01*
X138482662Y-117275992D01*
X138550217Y-117258155D01*
X138615702Y-117279006D01*
X138673453Y-117317594D01*
X138673455Y-117317595D01*
X138673457Y-117317596D01*
X138735016Y-117343094D01*
X138837334Y-117385475D01*
X138837336Y-117385475D01*
X138837341Y-117385477D01*
X139011304Y-117420080D01*
X139011307Y-117420081D01*
X139011309Y-117420081D01*
X139188693Y-117420081D01*
X139188694Y-117420080D01*
X139246682Y-117408545D01*
X139362658Y-117385477D01*
X139362661Y-117385475D01*
X139362666Y-117385475D01*
X139526547Y-117317594D01*
X139656109Y-117231023D01*
X139722786Y-117210145D01*
X139790166Y-117228629D01*
X139793891Y-117231023D01*
X139923453Y-117317594D01*
X139923455Y-117317595D01*
X139923459Y-117317597D01*
X140032106Y-117362599D01*
X140087334Y-117385475D01*
X140087336Y-117385475D01*
X140087341Y-117385477D01*
X140261304Y-117420080D01*
X140261307Y-117420081D01*
X140261309Y-117420081D01*
X140438693Y-117420081D01*
X140570109Y-117393940D01*
X140611308Y-117385745D01*
X140680900Y-117391972D01*
X140736077Y-117434835D01*
X140759322Y-117500724D01*
X140759500Y-117507362D01*
X140759500Y-117668695D01*
X140794103Y-117842658D01*
X140794106Y-117842667D01*
X140861983Y-118006540D01*
X140861990Y-118006553D01*
X140960535Y-118154034D01*
X140960538Y-118154038D01*
X141085961Y-118279461D01*
X141085965Y-118279464D01*
X141233446Y-118378009D01*
X141233459Y-118378016D01*
X141356363Y-118428923D01*
X141397334Y-118445894D01*
X141397336Y-118445894D01*
X141397341Y-118445896D01*
X141571304Y-118480499D01*
X141571307Y-118480500D01*
X141571309Y-118480500D01*
X141748693Y-118480500D01*
X141748694Y-118480499D01*
X141843989Y-118461544D01*
X141922658Y-118445896D01*
X141922661Y-118445894D01*
X141922666Y-118445894D01*
X142086547Y-118378013D01*
X142234035Y-118279464D01*
X142359464Y-118154035D01*
X142458013Y-118006547D01*
X142525894Y-117842666D01*
X142532293Y-117810500D01*
X142560499Y-117668695D01*
X142560500Y-117668693D01*
X142560500Y-117491306D01*
X142560499Y-117491304D01*
X142528154Y-117328691D01*
X142534381Y-117259100D01*
X142577244Y-117203922D01*
X142643134Y-117180678D01*
X142649771Y-117180500D01*
X142768693Y-117180500D01*
X142768694Y-117180499D01*
X142831130Y-117168080D01*
X142942658Y-117145896D01*
X142942661Y-117145894D01*
X142942666Y-117145894D01*
X143106547Y-117078013D01*
X143254035Y-116979464D01*
X143379464Y-116854035D01*
X143478013Y-116706547D01*
X143545894Y-116542666D01*
X143557673Y-116483452D01*
X143572045Y-116411195D01*
X143580500Y-116368691D01*
X143580500Y-116191309D01*
X143580500Y-116191306D01*
X143580499Y-116191304D01*
X143545896Y-116017341D01*
X143545893Y-116017332D01*
X143478016Y-115853459D01*
X143478009Y-115853446D01*
X143379464Y-115705965D01*
X143379461Y-115705961D01*
X143254038Y-115580538D01*
X143254034Y-115580535D01*
X143106553Y-115481990D01*
X143106540Y-115481983D01*
X142942667Y-115414106D01*
X142942658Y-115414103D01*
X142768694Y-115379500D01*
X142768691Y-115379500D01*
X142615738Y-115379500D01*
X142595524Y-115373564D01*
X142574485Y-115372437D01*
X142562670Y-115363917D01*
X142548699Y-115359815D01*
X142534905Y-115343896D01*
X142517813Y-115331571D01*
X142512479Y-115318015D01*
X142502944Y-115307011D01*
X142499945Y-115286158D01*
X142492232Y-115266553D01*
X142493561Y-115241755D01*
X142493000Y-115237853D01*
X142494121Y-115231309D01*
X142504067Y-115181304D01*
X148319500Y-115181304D01*
X148319500Y-115358695D01*
X148354103Y-115532658D01*
X148354106Y-115532667D01*
X148421983Y-115696540D01*
X148421990Y-115696553D01*
X148520535Y-115844034D01*
X148520538Y-115844038D01*
X148645961Y-115969461D01*
X148645965Y-115969464D01*
X148793446Y-116068009D01*
X148793459Y-116068016D01*
X148899607Y-116111983D01*
X148957334Y-116135894D01*
X148957336Y-116135894D01*
X148957341Y-116135896D01*
X149131304Y-116170499D01*
X149131307Y-116170500D01*
X149131309Y-116170500D01*
X149308691Y-116170500D01*
X149352200Y-116161845D01*
X149421789Y-116168071D01*
X149476967Y-116210933D01*
X149500213Y-116276822D01*
X149484147Y-116344819D01*
X149479494Y-116352352D01*
X149431989Y-116423448D01*
X149431983Y-116423459D01*
X149364106Y-116587332D01*
X149364103Y-116587341D01*
X149329500Y-116761304D01*
X149329500Y-116938695D01*
X149364103Y-117112658D01*
X149364106Y-117112667D01*
X149431983Y-117276540D01*
X149431990Y-117276553D01*
X149530535Y-117424034D01*
X149530538Y-117424038D01*
X149655961Y-117549461D01*
X149655965Y-117549464D01*
X149803446Y-117648009D01*
X149803459Y-117648016D01*
X149926363Y-117698923D01*
X149967334Y-117715894D01*
X149967336Y-117715894D01*
X149967341Y-117715896D01*
X150141304Y-117750499D01*
X150141307Y-117750500D01*
X150141309Y-117750500D01*
X150318693Y-117750500D01*
X150318694Y-117750499D01*
X150376682Y-117738964D01*
X150492658Y-117715896D01*
X150492661Y-117715894D01*
X150492666Y-117715894D01*
X150656547Y-117648013D01*
X150804035Y-117549464D01*
X150929464Y-117424035D01*
X151028013Y-117276547D01*
X151095894Y-117112666D01*
X151099684Y-117093616D01*
X151130499Y-116938695D01*
X151130500Y-116938693D01*
X151130500Y-116821304D01*
X151499500Y-116821304D01*
X151499500Y-116998695D01*
X151534103Y-117172658D01*
X151534106Y-117172667D01*
X151601983Y-117336540D01*
X151601990Y-117336553D01*
X151700535Y-117484034D01*
X151700538Y-117484038D01*
X151825961Y-117609461D01*
X151825965Y-117609464D01*
X151973446Y-117708009D01*
X151973459Y-117708016D01*
X152076024Y-117750499D01*
X152137334Y-117775894D01*
X152137336Y-117775894D01*
X152137341Y-117775896D01*
X152311304Y-117810499D01*
X152311307Y-117810500D01*
X152311309Y-117810500D01*
X152488693Y-117810500D01*
X152488694Y-117810499D01*
X152546682Y-117798964D01*
X152662658Y-117775896D01*
X152662661Y-117775894D01*
X152662666Y-117775894D01*
X152826547Y-117708013D01*
X152974035Y-117609464D01*
X153099464Y-117484035D01*
X153198013Y-117336547D01*
X153265894Y-117172666D01*
X153266807Y-117168080D01*
X153300499Y-116998695D01*
X153300500Y-116998693D01*
X153300500Y-116821306D01*
X153300499Y-116821304D01*
X153265896Y-116647341D01*
X153265893Y-116647332D01*
X153198016Y-116483459D01*
X153198012Y-116483452D01*
X153159870Y-116426369D01*
X153138992Y-116359691D01*
X153157476Y-116292311D01*
X153209455Y-116245620D01*
X153278425Y-116234444D01*
X153287164Y-116235860D01*
X153287333Y-116235893D01*
X153287334Y-116235894D01*
X153328320Y-116244046D01*
X153461306Y-116270500D01*
X153461309Y-116270500D01*
X153638693Y-116270500D01*
X153638694Y-116270499D01*
X153696682Y-116258964D01*
X153812658Y-116235896D01*
X153812661Y-116235894D01*
X153812666Y-116235894D01*
X153952535Y-116177958D01*
X153976540Y-116168016D01*
X153976540Y-116168015D01*
X153976547Y-116168013D01*
X154124035Y-116069464D01*
X154249464Y-115944035D01*
X154348013Y-115796547D01*
X154363158Y-115759983D01*
X159674500Y-115759983D01*
X159674500Y-116179178D01*
X159711035Y-116596771D01*
X159711035Y-116596775D01*
X159783824Y-117009579D01*
X159783828Y-117009596D01*
X159892316Y-117414483D01*
X159892319Y-117414493D01*
X159892320Y-117414494D01*
X160035691Y-117808403D01*
X160035694Y-117808410D01*
X160035695Y-117808412D01*
X160035698Y-117808420D01*
X160212843Y-118188307D01*
X160212851Y-118188323D01*
X160360169Y-118443485D01*
X160422443Y-118551345D01*
X160422447Y-118551351D01*
X160422454Y-118551362D01*
X160662879Y-118894725D01*
X160743732Y-118991081D01*
X160932329Y-119215841D01*
X161228740Y-119512252D01*
X161305308Y-119576500D01*
X161549855Y-119781701D01*
X161893218Y-120022126D01*
X161893225Y-120022130D01*
X161893236Y-120022138D01*
X162256264Y-120231733D01*
X162256273Y-120231737D01*
X162636160Y-120408882D01*
X162636164Y-120408883D01*
X162636178Y-120408890D01*
X163030087Y-120552261D01*
X163030093Y-120552262D01*
X163030097Y-120552264D01*
X163134506Y-120580240D01*
X163434992Y-120660755D01*
X163847812Y-120733546D01*
X164265404Y-120770080D01*
X164265405Y-120770081D01*
X164265406Y-120770081D01*
X164684595Y-120770081D01*
X164684595Y-120770080D01*
X165102188Y-120733546D01*
X165515008Y-120660755D01*
X165919913Y-120552261D01*
X166313822Y-120408890D01*
X166693736Y-120231733D01*
X167056764Y-120022138D01*
X167400143Y-119781702D01*
X167721260Y-119512252D01*
X168017671Y-119215841D01*
X168287121Y-118894724D01*
X168527557Y-118551345D01*
X168737152Y-118188317D01*
X168914309Y-117808403D01*
X169057680Y-117414494D01*
X169166174Y-117009589D01*
X169238965Y-116596769D01*
X169275500Y-116179175D01*
X169275500Y-115759987D01*
X169238965Y-115342393D01*
X169228193Y-115281304D01*
X169210257Y-115179582D01*
X169166174Y-114929573D01*
X169073433Y-114583459D01*
X169057683Y-114524678D01*
X169057681Y-114524674D01*
X169057680Y-114524668D01*
X168914309Y-114130759D01*
X168904020Y-114108695D01*
X168737156Y-113750854D01*
X168737148Y-113750838D01*
X168712030Y-113707332D01*
X168527557Y-113387817D01*
X168527549Y-113387806D01*
X168527545Y-113387799D01*
X168287120Y-113044436D01*
X168017668Y-112723318D01*
X167721262Y-112426912D01*
X167400144Y-112157460D01*
X167056781Y-111917035D01*
X167056770Y-111917028D01*
X167056764Y-111917024D01*
X166948904Y-111854750D01*
X166693742Y-111707432D01*
X166693726Y-111707424D01*
X166313839Y-111530279D01*
X166313831Y-111530276D01*
X166313829Y-111530275D01*
X166313822Y-111530272D01*
X165919913Y-111386901D01*
X165919912Y-111386900D01*
X165919902Y-111386897D01*
X165515015Y-111278409D01*
X165515018Y-111278409D01*
X165515008Y-111278407D01*
X165515002Y-111278405D01*
X165514998Y-111278405D01*
X165102192Y-111205616D01*
X164684597Y-111169081D01*
X164684594Y-111169081D01*
X164265406Y-111169081D01*
X164265402Y-111169081D01*
X163847809Y-111205616D01*
X163847805Y-111205616D01*
X163435001Y-111278405D01*
X163434984Y-111278409D01*
X163030097Y-111386897D01*
X162941673Y-111419081D01*
X162636178Y-111530272D01*
X162636174Y-111530273D01*
X162636168Y-111530276D01*
X162636160Y-111530279D01*
X162256273Y-111707424D01*
X162256257Y-111707432D01*
X161893244Y-111917019D01*
X161893218Y-111917035D01*
X161549855Y-112157460D01*
X161228737Y-112426912D01*
X160932331Y-112723318D01*
X160662879Y-113044436D01*
X160422454Y-113387799D01*
X160422438Y-113387825D01*
X160212851Y-113750838D01*
X160212843Y-113750854D01*
X160035698Y-114130741D01*
X160035695Y-114130749D01*
X160035692Y-114130755D01*
X160035691Y-114130759D01*
X159980401Y-114282667D01*
X159892316Y-114524678D01*
X159783828Y-114929565D01*
X159783824Y-114929582D01*
X159711035Y-115342386D01*
X159711035Y-115342390D01*
X159674500Y-115759983D01*
X154363158Y-115759983D01*
X154415894Y-115632666D01*
X154423778Y-115593034D01*
X154438964Y-115516682D01*
X154450500Y-115458691D01*
X154450500Y-115281309D01*
X154450500Y-115281306D01*
X154450499Y-115281304D01*
X154415896Y-115107341D01*
X154415893Y-115107332D01*
X154348016Y-114943459D01*
X154348009Y-114943446D01*
X154249464Y-114795965D01*
X154249461Y-114795961D01*
X154124038Y-114670538D01*
X154124034Y-114670535D01*
X154064196Y-114630552D01*
X154019391Y-114576939D01*
X154010684Y-114507614D01*
X154029986Y-114458559D01*
X154038013Y-114446547D01*
X154105894Y-114282666D01*
X154115840Y-114232667D01*
X154140499Y-114108695D01*
X154140500Y-114108693D01*
X154140500Y-113931306D01*
X154140499Y-113931304D01*
X154105896Y-113757341D01*
X154105893Y-113757332D01*
X154038016Y-113593459D01*
X154038009Y-113593446D01*
X153939464Y-113445965D01*
X153939461Y-113445961D01*
X153814038Y-113320538D01*
X153814034Y-113320535D01*
X153666553Y-113221990D01*
X153666540Y-113221983D01*
X153502667Y-113154106D01*
X153502658Y-113154103D01*
X153328694Y-113119500D01*
X153328691Y-113119500D01*
X153151309Y-113119500D01*
X153151306Y-113119500D01*
X152977341Y-113154103D01*
X152977332Y-113154106D01*
X152813459Y-113221983D01*
X152813446Y-113221990D01*
X152665965Y-113320535D01*
X152665961Y-113320538D01*
X152540538Y-113445961D01*
X152540535Y-113445965D01*
X152441990Y-113593446D01*
X152441983Y-113593459D01*
X152374106Y-113757332D01*
X152374103Y-113757341D01*
X152339500Y-113931304D01*
X152339500Y-114108695D01*
X152374103Y-114282658D01*
X152374106Y-114282667D01*
X152441983Y-114446540D01*
X152441990Y-114446553D01*
X152540535Y-114594034D01*
X152540538Y-114594038D01*
X152665964Y-114719464D01*
X152725802Y-114759446D01*
X152770607Y-114813058D01*
X152779314Y-114882383D01*
X152760017Y-114931432D01*
X152751994Y-114943439D01*
X152751983Y-114943460D01*
X152684106Y-115107332D01*
X152684103Y-115107341D01*
X152649500Y-115281304D01*
X152649500Y-115458695D01*
X152684103Y-115632658D01*
X152684106Y-115632667D01*
X152751983Y-115796540D01*
X152751990Y-115796553D01*
X152790129Y-115853631D01*
X152811007Y-115920308D01*
X152792523Y-115987688D01*
X152740544Y-116034379D01*
X152671574Y-116045555D01*
X152662836Y-116044139D01*
X152488694Y-116009500D01*
X152488691Y-116009500D01*
X152311309Y-116009500D01*
X152311306Y-116009500D01*
X152137341Y-116044103D01*
X152137332Y-116044106D01*
X151973459Y-116111983D01*
X151973446Y-116111990D01*
X151825965Y-116210535D01*
X151825961Y-116210538D01*
X151700538Y-116335961D01*
X151700535Y-116335965D01*
X151601990Y-116483446D01*
X151601983Y-116483459D01*
X151534106Y-116647332D01*
X151534103Y-116647341D01*
X151499500Y-116821304D01*
X151130500Y-116821304D01*
X151130500Y-116761306D01*
X151130499Y-116761304D01*
X151095896Y-116587341D01*
X151095893Y-116587332D01*
X151028016Y-116423459D01*
X151028009Y-116423446D01*
X150929464Y-116275965D01*
X150929461Y-116275961D01*
X150804038Y-116150538D01*
X150804034Y-116150535D01*
X150656553Y-116051990D01*
X150656540Y-116051983D01*
X150492667Y-115984106D01*
X150492658Y-115984103D01*
X150318694Y-115949500D01*
X150318691Y-115949500D01*
X150141309Y-115949500D01*
X150141306Y-115949500D01*
X150097799Y-115958154D01*
X150028208Y-115951927D01*
X149973030Y-115909064D01*
X149949786Y-115843174D01*
X149965854Y-115775177D01*
X149970506Y-115767646D01*
X149979574Y-115754074D01*
X150018013Y-115696547D01*
X150085894Y-115532666D01*
X150120500Y-115358691D01*
X150120500Y-115181309D01*
X150120500Y-115181306D01*
X150120499Y-115181304D01*
X150088154Y-115018691D01*
X150094381Y-114949100D01*
X150137244Y-114893922D01*
X150203134Y-114870678D01*
X150209771Y-114870500D01*
X150388693Y-114870500D01*
X150388694Y-114870499D01*
X150446682Y-114858964D01*
X150562658Y-114835896D01*
X150562661Y-114835894D01*
X150562666Y-114835894D01*
X150726547Y-114768013D01*
X150874035Y-114669464D01*
X150999464Y-114544035D01*
X151098013Y-114396547D01*
X151165894Y-114232666D01*
X151170008Y-114211987D01*
X151190393Y-114109500D01*
X151200500Y-114058691D01*
X151200500Y-113881309D01*
X151200500Y-113881306D01*
X151200499Y-113881304D01*
X151165896Y-113707341D01*
X151165893Y-113707332D01*
X151098016Y-113543459D01*
X151098009Y-113543446D01*
X150999464Y-113395965D01*
X150999461Y-113395961D01*
X150874038Y-113270538D01*
X150874034Y-113270535D01*
X150726553Y-113171990D01*
X150726540Y-113171983D01*
X150562667Y-113104106D01*
X150562658Y-113104103D01*
X150388694Y-113069500D01*
X150388691Y-113069500D01*
X150211309Y-113069500D01*
X150211306Y-113069500D01*
X150037341Y-113104103D01*
X150037332Y-113104106D01*
X149873459Y-113171983D01*
X149873446Y-113171990D01*
X149725965Y-113270535D01*
X149725961Y-113270538D01*
X149600538Y-113395961D01*
X149600535Y-113395965D01*
X149501990Y-113543446D01*
X149501983Y-113543459D01*
X149434106Y-113707332D01*
X149434103Y-113707341D01*
X149399500Y-113881304D01*
X149399500Y-114058695D01*
X149431846Y-114221309D01*
X149425619Y-114290900D01*
X149382756Y-114346078D01*
X149316866Y-114369322D01*
X149310229Y-114369500D01*
X149131306Y-114369500D01*
X148957341Y-114404103D01*
X148957332Y-114404106D01*
X148793459Y-114471983D01*
X148793446Y-114471990D01*
X148645965Y-114570535D01*
X148645961Y-114570538D01*
X148520538Y-114695961D01*
X148520535Y-114695965D01*
X148421990Y-114843446D01*
X148421983Y-114843459D01*
X148354106Y-115007332D01*
X148354103Y-115007341D01*
X148319500Y-115181304D01*
X142504067Y-115181304D01*
X142510090Y-115151026D01*
X142510090Y-115151025D01*
X142520500Y-115098693D01*
X142520500Y-114921306D01*
X142520499Y-114921304D01*
X142485896Y-114747341D01*
X142485893Y-114747332D01*
X142418016Y-114583459D01*
X142418009Y-114583446D01*
X142319464Y-114435965D01*
X142319461Y-114435961D01*
X142194038Y-114310538D01*
X142194034Y-114310535D01*
X142046553Y-114211990D01*
X142046540Y-114211983D01*
X141882667Y-114144106D01*
X141882658Y-114144103D01*
X141708694Y-114109500D01*
X141708691Y-114109500D01*
X141531309Y-114109500D01*
X141531306Y-114109500D01*
X141357341Y-114144103D01*
X141357332Y-114144106D01*
X141193459Y-114211983D01*
X141193446Y-114211990D01*
X141045965Y-114310535D01*
X141045961Y-114310538D01*
X140920538Y-114435961D01*
X140920535Y-114435965D01*
X140821990Y-114583446D01*
X140821983Y-114583459D01*
X140754106Y-114747332D01*
X140754103Y-114747341D01*
X140719500Y-114921304D01*
X140719500Y-115023842D01*
X140699815Y-115090881D01*
X140647011Y-115136636D01*
X140577853Y-115146580D01*
X140571309Y-115145459D01*
X140438695Y-115119081D01*
X140438691Y-115119081D01*
X140261309Y-115119081D01*
X140261306Y-115119081D01*
X140087341Y-115153684D01*
X140087332Y-115153687D01*
X139923459Y-115221564D01*
X139923446Y-115221571D01*
X139793891Y-115308138D01*
X139727213Y-115329016D01*
X139659833Y-115310531D01*
X139656109Y-115308138D01*
X139526553Y-115221571D01*
X139526540Y-115221564D01*
X139362667Y-115153687D01*
X139362658Y-115153684D01*
X139188694Y-115119081D01*
X139188691Y-115119081D01*
X139011309Y-115119081D01*
X139011306Y-115119081D01*
X138837341Y-115153684D01*
X138837332Y-115153687D01*
X138673459Y-115221564D01*
X138673448Y-115221570D01*
X138615702Y-115260155D01*
X138549024Y-115281032D01*
X138482662Y-115263169D01*
X138339396Y-115176562D01*
X138339394Y-115176561D01*
X138225000Y-115140913D01*
X138225000Y-115790481D01*
X138222909Y-115811704D01*
X138222824Y-115813609D01*
X138222723Y-115814137D01*
X138199500Y-115930890D01*
X138199500Y-116608272D01*
X138199500Y-116608274D01*
X138199499Y-116608274D01*
X131009831Y-116608274D01*
X131025500Y-116429175D01*
X131025500Y-116219853D01*
X137600000Y-116219853D01*
X137600000Y-116319309D01*
X137638060Y-116411195D01*
X137708386Y-116481521D01*
X137800272Y-116519581D01*
X137899728Y-116519581D01*
X137991614Y-116481521D01*
X138061940Y-116411195D01*
X138100000Y-116319309D01*
X138100000Y-116219853D01*
X138061940Y-116127967D01*
X137991614Y-116057641D01*
X137899728Y-116019581D01*
X137800272Y-116019581D01*
X137708386Y-116057641D01*
X137638060Y-116127967D01*
X137600000Y-116219853D01*
X131025500Y-116219853D01*
X131025500Y-116009987D01*
X131003892Y-115763008D01*
X136950000Y-115763008D01*
X136950000Y-115894581D01*
X137475000Y-115894581D01*
X137475000Y-115140914D01*
X137474999Y-115140913D01*
X137360605Y-115176561D01*
X137360603Y-115176562D01*
X137215122Y-115264508D01*
X137094927Y-115384703D01*
X137006980Y-115530185D01*
X136956409Y-115692474D01*
X136950000Y-115763008D01*
X131003892Y-115763008D01*
X130988965Y-115592393D01*
X130986874Y-115580536D01*
X130949942Y-115371082D01*
X130916174Y-115179573D01*
X130833358Y-114870499D01*
X130807683Y-114774678D01*
X130807681Y-114774674D01*
X130807680Y-114774668D01*
X130664309Y-114380759D01*
X130631564Y-114310538D01*
X130487156Y-114000854D01*
X130487148Y-114000838D01*
X130447005Y-113931309D01*
X130277557Y-113637817D01*
X130277549Y-113637806D01*
X130277545Y-113637799D01*
X130037120Y-113294436D01*
X129767668Y-112973318D01*
X129471262Y-112676912D01*
X129150144Y-112407460D01*
X128806781Y-112167035D01*
X128806770Y-112167028D01*
X128806764Y-112167024D01*
X128698904Y-112104750D01*
X128443742Y-111957432D01*
X128443726Y-111957424D01*
X128063839Y-111780279D01*
X128063831Y-111780276D01*
X128063829Y-111780275D01*
X128063822Y-111780272D01*
X127669913Y-111636901D01*
X127669912Y-111636900D01*
X127669902Y-111636897D01*
X127265015Y-111528409D01*
X127265018Y-111528409D01*
X127265008Y-111528407D01*
X127265002Y-111528405D01*
X127264998Y-111528405D01*
X126852192Y-111455616D01*
X126434597Y-111419081D01*
X126434594Y-111419081D01*
X126015406Y-111419081D01*
X126015402Y-111419081D01*
X125597809Y-111455616D01*
X125597805Y-111455616D01*
X125185001Y-111528405D01*
X125184984Y-111528409D01*
X124780097Y-111636897D01*
X124586326Y-111707424D01*
X124386178Y-111780272D01*
X124386174Y-111780273D01*
X124386168Y-111780276D01*
X124386160Y-111780279D01*
X124006273Y-111957424D01*
X124006257Y-111957432D01*
X123643244Y-112167019D01*
X123643218Y-112167035D01*
X123299855Y-112407460D01*
X122978737Y-112676912D01*
X122682331Y-112973318D01*
X122412879Y-113294436D01*
X122172454Y-113637799D01*
X122172438Y-113637825D01*
X121962851Y-114000838D01*
X121962843Y-114000854D01*
X121785698Y-114380741D01*
X121785695Y-114380749D01*
X121785692Y-114380755D01*
X121785691Y-114380759D01*
X121726262Y-114544038D01*
X121642316Y-114774678D01*
X121533828Y-115179565D01*
X121533824Y-115179582D01*
X121461035Y-115592386D01*
X121461035Y-115592390D01*
X121424500Y-116009983D01*
X120979500Y-116009983D01*
X120979500Y-110501304D01*
X151609500Y-110501304D01*
X151609500Y-110678695D01*
X151644103Y-110852658D01*
X151644106Y-110852667D01*
X151711983Y-111016540D01*
X151711990Y-111016553D01*
X151810535Y-111164034D01*
X151810538Y-111164038D01*
X151935961Y-111289461D01*
X151935965Y-111289464D01*
X152083446Y-111388009D01*
X152083459Y-111388016D01*
X152206363Y-111438923D01*
X152247334Y-111455894D01*
X152247336Y-111455894D01*
X152247341Y-111455896D01*
X152421304Y-111490499D01*
X152421307Y-111490500D01*
X152421309Y-111490500D01*
X152598693Y-111490500D01*
X152598694Y-111490499D01*
X152656682Y-111478964D01*
X152772658Y-111455896D01*
X152772661Y-111455894D01*
X152772666Y-111455894D01*
X152936547Y-111388013D01*
X153084035Y-111289464D01*
X153209464Y-111164035D01*
X153308013Y-111016547D01*
X153375894Y-110852666D01*
X153410500Y-110678691D01*
X153410500Y-110501309D01*
X153410500Y-110501306D01*
X153410499Y-110501304D01*
X153375896Y-110327341D01*
X153375893Y-110327332D01*
X153308016Y-110163459D01*
X153308009Y-110163446D01*
X153209464Y-110015965D01*
X153209461Y-110015961D01*
X153084038Y-109890538D01*
X153084034Y-109890535D01*
X152936553Y-109791990D01*
X152936540Y-109791983D01*
X152772667Y-109724106D01*
X152772658Y-109724103D01*
X152598694Y-109689500D01*
X152598691Y-109689500D01*
X152421309Y-109689500D01*
X152421306Y-109689500D01*
X152247341Y-109724103D01*
X152247332Y-109724106D01*
X152083459Y-109791983D01*
X152083446Y-109791990D01*
X151935965Y-109890535D01*
X151935961Y-109890538D01*
X151810538Y-110015961D01*
X151810535Y-110015965D01*
X151711990Y-110163446D01*
X151711983Y-110163459D01*
X151644106Y-110327332D01*
X151644103Y-110327341D01*
X151609500Y-110501304D01*
X120979500Y-110501304D01*
X120979500Y-107321304D01*
X132399500Y-107321304D01*
X132399500Y-107498695D01*
X132434103Y-107672658D01*
X132434106Y-107672667D01*
X132501983Y-107836540D01*
X132501990Y-107836553D01*
X132600535Y-107984034D01*
X132600538Y-107984038D01*
X132725961Y-108109461D01*
X132725965Y-108109464D01*
X132873446Y-108208009D01*
X132873459Y-108208016D01*
X132959028Y-108243459D01*
X133037334Y-108275894D01*
X133037336Y-108275894D01*
X133037341Y-108275896D01*
X133211304Y-108310499D01*
X133211307Y-108310500D01*
X133211309Y-108310500D01*
X133388693Y-108310500D01*
X133388694Y-108310499D01*
X133446682Y-108298964D01*
X133562658Y-108275896D01*
X133562661Y-108275894D01*
X133562666Y-108275894D01*
X133713414Y-108213453D01*
X133726540Y-108208016D01*
X133726540Y-108208015D01*
X133726547Y-108208013D01*
X133811417Y-108151304D01*
X135539500Y-108151304D01*
X135539500Y-108328695D01*
X135574103Y-108502658D01*
X135574106Y-108502667D01*
X135641983Y-108666540D01*
X135641990Y-108666553D01*
X135740535Y-108814034D01*
X135740538Y-108814038D01*
X135865961Y-108939461D01*
X135865965Y-108939464D01*
X136013446Y-109038009D01*
X136013459Y-109038016D01*
X136136363Y-109088923D01*
X136177334Y-109105894D01*
X136177336Y-109105894D01*
X136177341Y-109105896D01*
X136351304Y-109140499D01*
X136351307Y-109140500D01*
X136351309Y-109140500D01*
X136528693Y-109140500D01*
X136528694Y-109140499D01*
X136586682Y-109128964D01*
X136702658Y-109105896D01*
X136702661Y-109105894D01*
X136702666Y-109105894D01*
X136866547Y-109038013D01*
X137014035Y-108939464D01*
X137139464Y-108814035D01*
X137238013Y-108666547D01*
X137305894Y-108502666D01*
X137305896Y-108502658D01*
X137332024Y-108371304D01*
X142629500Y-108371304D01*
X142629500Y-108548695D01*
X142664103Y-108722658D01*
X142664106Y-108722667D01*
X142731983Y-108886540D01*
X142731990Y-108886553D01*
X142830535Y-109034034D01*
X142830538Y-109034038D01*
X142955961Y-109159461D01*
X142955965Y-109159464D01*
X143103446Y-109258009D01*
X143103459Y-109258016D01*
X143189028Y-109293459D01*
X143267334Y-109325894D01*
X143267336Y-109325894D01*
X143267341Y-109325896D01*
X143441304Y-109360499D01*
X143441307Y-109360500D01*
X143441309Y-109360500D01*
X143618693Y-109360500D01*
X143618694Y-109360499D01*
X143676682Y-109348964D01*
X143792658Y-109325896D01*
X143792661Y-109325894D01*
X143792666Y-109325894D01*
X143956547Y-109258013D01*
X144104035Y-109159464D01*
X144229464Y-109034035D01*
X144328013Y-108886547D01*
X144329054Y-108884035D01*
X144358048Y-108814035D01*
X144395894Y-108722666D01*
X144430500Y-108548691D01*
X144430500Y-108371309D01*
X144430500Y-108371306D01*
X144430499Y-108371304D01*
X144404264Y-108239408D01*
X144400662Y-108221304D01*
X151579500Y-108221304D01*
X151579500Y-108398695D01*
X151614103Y-108572658D01*
X151614106Y-108572667D01*
X151681983Y-108736540D01*
X151681990Y-108736553D01*
X151780535Y-108884034D01*
X151780538Y-108884038D01*
X151905961Y-109009461D01*
X151905965Y-109009464D01*
X152053446Y-109108009D01*
X152053459Y-109108016D01*
X152145078Y-109145965D01*
X152217334Y-109175894D01*
X152217336Y-109175894D01*
X152217341Y-109175896D01*
X152391304Y-109210499D01*
X152391307Y-109210500D01*
X152391309Y-109210500D01*
X152568693Y-109210500D01*
X152568694Y-109210499D01*
X152626682Y-109198964D01*
X152742658Y-109175896D01*
X152742661Y-109175894D01*
X152742666Y-109175894D01*
X152906547Y-109108013D01*
X153054035Y-109009464D01*
X153179464Y-108884035D01*
X153278013Y-108736547D01*
X153345894Y-108572666D01*
X153350143Y-108551309D01*
X153380499Y-108398695D01*
X153380500Y-108398693D01*
X153380500Y-108221306D01*
X153380499Y-108221304D01*
X153345896Y-108047341D01*
X153345893Y-108047332D01*
X153278016Y-107883459D01*
X153278009Y-107883446D01*
X153179464Y-107735965D01*
X153179461Y-107735961D01*
X153054038Y-107610538D01*
X153054034Y-107610535D01*
X152906553Y-107511990D01*
X152906541Y-107511983D01*
X152828787Y-107479778D01*
X152742667Y-107444106D01*
X152742658Y-107444103D01*
X152568694Y-107409500D01*
X152568691Y-107409500D01*
X152391309Y-107409500D01*
X152391306Y-107409500D01*
X152217341Y-107444103D01*
X152217332Y-107444106D01*
X152053459Y-107511983D01*
X152053446Y-107511990D01*
X151905965Y-107610535D01*
X151905961Y-107610538D01*
X151780538Y-107735961D01*
X151780535Y-107735965D01*
X151681990Y-107883446D01*
X151681983Y-107883459D01*
X151614106Y-108047332D01*
X151614103Y-108047341D01*
X151579500Y-108221304D01*
X144400662Y-108221304D01*
X144395895Y-108197340D01*
X144395894Y-108197334D01*
X144376828Y-108151304D01*
X144328016Y-108033459D01*
X144328009Y-108033446D01*
X144229464Y-107885965D01*
X144229461Y-107885961D01*
X144104038Y-107760538D01*
X144104034Y-107760535D01*
X143956553Y-107661990D01*
X143956540Y-107661983D01*
X143792667Y-107594106D01*
X143792658Y-107594103D01*
X143618694Y-107559500D01*
X143618691Y-107559500D01*
X143441309Y-107559500D01*
X143441306Y-107559500D01*
X143267341Y-107594103D01*
X143267332Y-107594106D01*
X143103459Y-107661983D01*
X143103446Y-107661990D01*
X142955965Y-107760535D01*
X142955961Y-107760538D01*
X142830538Y-107885961D01*
X142830535Y-107885965D01*
X142731990Y-108033446D01*
X142731983Y-108033459D01*
X142664106Y-108197332D01*
X142664103Y-108197341D01*
X142629500Y-108371304D01*
X137332024Y-108371304D01*
X137338047Y-108341026D01*
X137338047Y-108341025D01*
X137340500Y-108328693D01*
X137340500Y-108151306D01*
X137340499Y-108151304D01*
X137305896Y-107977341D01*
X137305893Y-107977332D01*
X137238016Y-107813459D01*
X137238009Y-107813446D01*
X137139464Y-107665965D01*
X137139461Y-107665961D01*
X137014038Y-107540538D01*
X137014034Y-107540535D01*
X136866553Y-107441990D01*
X136866540Y-107441983D01*
X136702667Y-107374106D01*
X136702658Y-107374103D01*
X136528694Y-107339500D01*
X136528691Y-107339500D01*
X136351309Y-107339500D01*
X136351306Y-107339500D01*
X136177341Y-107374103D01*
X136177332Y-107374106D01*
X136013459Y-107441983D01*
X136013446Y-107441990D01*
X135865965Y-107540535D01*
X135865961Y-107540538D01*
X135740538Y-107665961D01*
X135740535Y-107665965D01*
X135641990Y-107813446D01*
X135641983Y-107813459D01*
X135574106Y-107977332D01*
X135574103Y-107977341D01*
X135539500Y-108151304D01*
X133811417Y-108151304D01*
X133874035Y-108109464D01*
X133896420Y-108087079D01*
X133925964Y-108057536D01*
X133999461Y-107984038D01*
X133999464Y-107984035D01*
X134098013Y-107836547D01*
X134165894Y-107672666D01*
X134168019Y-107661987D01*
X134189122Y-107555893D01*
X134200500Y-107498691D01*
X134200500Y-107321309D01*
X134200500Y-107321306D01*
X134200499Y-107321304D01*
X134165896Y-107147341D01*
X134165893Y-107147332D01*
X134098016Y-106983459D01*
X134098009Y-106983446D01*
X133999464Y-106835965D01*
X133999461Y-106835961D01*
X133874038Y-106710538D01*
X133874032Y-106710533D01*
X133855751Y-106698318D01*
X133726553Y-106611990D01*
X133726540Y-106611983D01*
X133700758Y-106601304D01*
X144139500Y-106601304D01*
X144139500Y-106778695D01*
X144174103Y-106952658D01*
X144174106Y-106952667D01*
X144241983Y-107116540D01*
X144241990Y-107116553D01*
X144340535Y-107264034D01*
X144340538Y-107264038D01*
X144465961Y-107389461D01*
X144465965Y-107389464D01*
X144613446Y-107488009D01*
X144613459Y-107488016D01*
X144671339Y-107511990D01*
X144777334Y-107555894D01*
X144777336Y-107555894D01*
X144777341Y-107555896D01*
X144951304Y-107590499D01*
X144951307Y-107590500D01*
X144951309Y-107590500D01*
X145128693Y-107590500D01*
X145128694Y-107590499D01*
X145186682Y-107578964D01*
X145302658Y-107555896D01*
X145302661Y-107555894D01*
X145302666Y-107555894D01*
X145466547Y-107488013D01*
X145614035Y-107389464D01*
X145632195Y-107371304D01*
X156309500Y-107371304D01*
X156309500Y-107548695D01*
X156344103Y-107722658D01*
X156344106Y-107722667D01*
X156411983Y-107886540D01*
X156411990Y-107886553D01*
X156510535Y-108034034D01*
X156510538Y-108034038D01*
X156635961Y-108159461D01*
X156635965Y-108159464D01*
X156783446Y-108258009D01*
X156783459Y-108258016D01*
X156906363Y-108308923D01*
X156947334Y-108325894D01*
X156947336Y-108325894D01*
X156947341Y-108325896D01*
X157121304Y-108360499D01*
X157121307Y-108360500D01*
X157121309Y-108360500D01*
X157298693Y-108360500D01*
X157298694Y-108360499D01*
X157396593Y-108341026D01*
X157472658Y-108325896D01*
X157472661Y-108325894D01*
X157472666Y-108325894D01*
X157636547Y-108258013D01*
X157784035Y-108159464D01*
X157909464Y-108034035D01*
X158008013Y-107886547D01*
X158009298Y-107883446D01*
X158060207Y-107760538D01*
X158075894Y-107722666D01*
X158076462Y-107719815D01*
X158110499Y-107548695D01*
X158110500Y-107548693D01*
X158110500Y-107371306D01*
X158110499Y-107371304D01*
X158075896Y-107197341D01*
X158075893Y-107197332D01*
X158055186Y-107147341D01*
X158029392Y-107085069D01*
X158021924Y-107015601D01*
X158053199Y-106953122D01*
X158113288Y-106917470D01*
X158168145Y-106916001D01*
X158199029Y-106922144D01*
X158291306Y-106940500D01*
X158291309Y-106940500D01*
X158468693Y-106940500D01*
X158608184Y-106912753D01*
X158677776Y-106918980D01*
X158732953Y-106961843D01*
X158756198Y-107027732D01*
X158740130Y-107095730D01*
X158735479Y-107103260D01*
X158721989Y-107123448D01*
X158721983Y-107123459D01*
X158654106Y-107287332D01*
X158654103Y-107287341D01*
X158619500Y-107461304D01*
X158619500Y-107638695D01*
X158654103Y-107812658D01*
X158654106Y-107812667D01*
X158713116Y-107955131D01*
X158720585Y-108024600D01*
X158689309Y-108087079D01*
X158686241Y-108090260D01*
X158680533Y-108095968D01*
X158581990Y-108243446D01*
X158581983Y-108243459D01*
X158514106Y-108407332D01*
X158514103Y-108407341D01*
X158479500Y-108581304D01*
X158479500Y-108758695D01*
X158514103Y-108932658D01*
X158514106Y-108932667D01*
X158581983Y-109096540D01*
X158581990Y-109096553D01*
X158680535Y-109244034D01*
X158680538Y-109244038D01*
X158805961Y-109369461D01*
X158805965Y-109369464D01*
X158953446Y-109468009D01*
X158953459Y-109468016D01*
X159076363Y-109518923D01*
X159117334Y-109535894D01*
X159117336Y-109535894D01*
X159117341Y-109535896D01*
X159291304Y-109570499D01*
X159291307Y-109570500D01*
X159291309Y-109570500D01*
X159468693Y-109570500D01*
X159468694Y-109570499D01*
X159526682Y-109558964D01*
X159642658Y-109535896D01*
X159642661Y-109535894D01*
X159642666Y-109535894D01*
X159806547Y-109468013D01*
X159806552Y-109468009D01*
X159806555Y-109468008D01*
X159851445Y-109438013D01*
X159893558Y-109409873D01*
X159960234Y-109388995D01*
X160027614Y-109407479D01*
X160031290Y-109409840D01*
X160073453Y-109438013D01*
X160073456Y-109438014D01*
X160073459Y-109438016D01*
X160145880Y-109468013D01*
X160237334Y-109505894D01*
X160237336Y-109505894D01*
X160237341Y-109505896D01*
X160411304Y-109540499D01*
X160411307Y-109540500D01*
X160585500Y-109540500D01*
X160652539Y-109560185D01*
X160698294Y-109612989D01*
X160709500Y-109664500D01*
X160709500Y-109808695D01*
X160744103Y-109982658D01*
X160744106Y-109982667D01*
X160811983Y-110146540D01*
X160811990Y-110146553D01*
X160910535Y-110294034D01*
X160910538Y-110294038D01*
X161035961Y-110419461D01*
X161035965Y-110419464D01*
X161183446Y-110518009D01*
X161183459Y-110518016D01*
X161306363Y-110568923D01*
X161347334Y-110585894D01*
X161347336Y-110585894D01*
X161347341Y-110585896D01*
X161521304Y-110620499D01*
X161521307Y-110620500D01*
X161521309Y-110620500D01*
X161698693Y-110620500D01*
X161698694Y-110620499D01*
X161756682Y-110608964D01*
X161872658Y-110585896D01*
X161872661Y-110585894D01*
X161872666Y-110585894D01*
X162036547Y-110518013D01*
X162184035Y-110419464D01*
X162309464Y-110294035D01*
X162408013Y-110146547D01*
X162475894Y-109982666D01*
X162510500Y-109808691D01*
X162510500Y-109631309D01*
X162510500Y-109631306D01*
X162510499Y-109631304D01*
X162475896Y-109457341D01*
X162475893Y-109457332D01*
X162408016Y-109293459D01*
X162408009Y-109293446D01*
X162309464Y-109145965D01*
X162309461Y-109145961D01*
X162184038Y-109020538D01*
X162184034Y-109020535D01*
X162036553Y-108921990D01*
X162036540Y-108921983D01*
X161872667Y-108854106D01*
X161872658Y-108854103D01*
X161698694Y-108819500D01*
X161698691Y-108819500D01*
X161524500Y-108819500D01*
X161457461Y-108799815D01*
X161411706Y-108747011D01*
X161400500Y-108695500D01*
X161400500Y-108551306D01*
X161400499Y-108551304D01*
X161365896Y-108377341D01*
X161365893Y-108377332D01*
X161298016Y-108213459D01*
X161298009Y-108213446D01*
X161199464Y-108065965D01*
X161199461Y-108065961D01*
X161074038Y-107940538D01*
X161074034Y-107940535D01*
X160926553Y-107841990D01*
X160926540Y-107841983D01*
X160762667Y-107774106D01*
X160762658Y-107774103D01*
X160588694Y-107739500D01*
X160588691Y-107739500D01*
X160544500Y-107739500D01*
X160477461Y-107719815D01*
X160431706Y-107667011D01*
X160420500Y-107615500D01*
X160420500Y-107461306D01*
X160420499Y-107461304D01*
X160385896Y-107287341D01*
X160385893Y-107287332D01*
X160318016Y-107123459D01*
X160318009Y-107123446D01*
X160219464Y-106975965D01*
X160219461Y-106975961D01*
X160094038Y-106850538D01*
X160094034Y-106850535D01*
X159946553Y-106751990D01*
X159946540Y-106751983D01*
X159782667Y-106684106D01*
X159782658Y-106684103D01*
X159608694Y-106649500D01*
X159608691Y-106649500D01*
X159431309Y-106649500D01*
X159431304Y-106649500D01*
X159291814Y-106677246D01*
X159222222Y-106671019D01*
X159167045Y-106628155D01*
X159143801Y-106562266D01*
X159159869Y-106494269D01*
X159164524Y-106486734D01*
X159166085Y-106484399D01*
X159178013Y-106466547D01*
X159245894Y-106302666D01*
X159253696Y-106263446D01*
X159280499Y-106128695D01*
X159280500Y-106128693D01*
X159280500Y-105951306D01*
X159280499Y-105951304D01*
X159245896Y-105777341D01*
X159245893Y-105777332D01*
X159178016Y-105613459D01*
X159178009Y-105613446D01*
X159079464Y-105465965D01*
X159079461Y-105465961D01*
X158954038Y-105340538D01*
X158954034Y-105340535D01*
X158806553Y-105241990D01*
X158806540Y-105241983D01*
X158642667Y-105174106D01*
X158642658Y-105174103D01*
X158468694Y-105139500D01*
X158468691Y-105139500D01*
X158291309Y-105139500D01*
X158291306Y-105139500D01*
X158117341Y-105174103D01*
X158117332Y-105174106D01*
X157953459Y-105241983D01*
X157953446Y-105241990D01*
X157805965Y-105340535D01*
X157805961Y-105340538D01*
X157680538Y-105465961D01*
X157680535Y-105465965D01*
X157581990Y-105613446D01*
X157581983Y-105613459D01*
X157514106Y-105777332D01*
X157514103Y-105777341D01*
X157479500Y-105951304D01*
X157479500Y-106128695D01*
X157514103Y-106302658D01*
X157514106Y-106302667D01*
X157560606Y-106414929D01*
X157568075Y-106484399D01*
X157536799Y-106546878D01*
X157476710Y-106582529D01*
X157421854Y-106583998D01*
X157298694Y-106559500D01*
X157298691Y-106559500D01*
X157121309Y-106559500D01*
X157121306Y-106559500D01*
X156947341Y-106594103D01*
X156947332Y-106594106D01*
X156783459Y-106661983D01*
X156783446Y-106661990D01*
X156635965Y-106760535D01*
X156635961Y-106760538D01*
X156510538Y-106885961D01*
X156510535Y-106885965D01*
X156411990Y-107033446D01*
X156411983Y-107033459D01*
X156344106Y-107197332D01*
X156344103Y-107197341D01*
X156309500Y-107371304D01*
X145632195Y-107371304D01*
X145739464Y-107264035D01*
X145838013Y-107116547D01*
X145905894Y-106952666D01*
X145913834Y-106912753D01*
X145940499Y-106778695D01*
X145940500Y-106778693D01*
X145940500Y-106601306D01*
X145940499Y-106601304D01*
X145905896Y-106427341D01*
X145905893Y-106427332D01*
X145838016Y-106263459D01*
X145838009Y-106263446D01*
X145739464Y-106115965D01*
X145739461Y-106115961D01*
X145614038Y-105990538D01*
X145614034Y-105990535D01*
X145466553Y-105891990D01*
X145466540Y-105891983D01*
X145302667Y-105824106D01*
X145302658Y-105824103D01*
X145128694Y-105789500D01*
X145128691Y-105789500D01*
X144951309Y-105789500D01*
X144951306Y-105789500D01*
X144777341Y-105824103D01*
X144777332Y-105824106D01*
X144613459Y-105891983D01*
X144613446Y-105891990D01*
X144465965Y-105990535D01*
X144465961Y-105990538D01*
X144340538Y-106115961D01*
X144340535Y-106115965D01*
X144241990Y-106263446D01*
X144241983Y-106263459D01*
X144174106Y-106427332D01*
X144174103Y-106427341D01*
X144139500Y-106601304D01*
X133700758Y-106601304D01*
X133562667Y-106544106D01*
X133562658Y-106544103D01*
X133388694Y-106509500D01*
X133388691Y-106509500D01*
X133211309Y-106509500D01*
X133211306Y-106509500D01*
X133037341Y-106544103D01*
X133037332Y-106544106D01*
X132873459Y-106611983D01*
X132873446Y-106611990D01*
X132725965Y-106710535D01*
X132725961Y-106710538D01*
X132600538Y-106835961D01*
X132600535Y-106835965D01*
X132501990Y-106983446D01*
X132501983Y-106983459D01*
X132434106Y-107147332D01*
X132434103Y-107147341D01*
X132399500Y-107321304D01*
X120979500Y-107321304D01*
X120979500Y-104441304D01*
X149159500Y-104441304D01*
X149159500Y-104618695D01*
X149194103Y-104792658D01*
X149194106Y-104792667D01*
X149261983Y-104956540D01*
X149261990Y-104956553D01*
X149360535Y-105104034D01*
X149360538Y-105104038D01*
X149485961Y-105229461D01*
X149485965Y-105229464D01*
X149633446Y-105328009D01*
X149633459Y-105328016D01*
X149756363Y-105378923D01*
X149797334Y-105395894D01*
X149797336Y-105395894D01*
X149797341Y-105395896D01*
X149971304Y-105430499D01*
X149971307Y-105430500D01*
X149971309Y-105430500D01*
X150148693Y-105430500D01*
X150148694Y-105430499D01*
X150206682Y-105418964D01*
X150322658Y-105395896D01*
X150322661Y-105395894D01*
X150322666Y-105395894D01*
X150486547Y-105328013D01*
X150634035Y-105229464D01*
X150759464Y-105104035D01*
X150858013Y-104956547D01*
X150925894Y-104792666D01*
X150927884Y-104782666D01*
X150960499Y-104618695D01*
X150960500Y-104618693D01*
X150960500Y-104441306D01*
X150960499Y-104441304D01*
X150925896Y-104267341D01*
X150925893Y-104267332D01*
X150858016Y-104103459D01*
X150858009Y-104103446D01*
X150759464Y-103955965D01*
X150759461Y-103955961D01*
X150732953Y-103929453D01*
X150699468Y-103868130D01*
X150704452Y-103798438D01*
X150746324Y-103742505D01*
X150811788Y-103718088D01*
X150868086Y-103727211D01*
X150937334Y-103755894D01*
X150937336Y-103755894D01*
X150937341Y-103755896D01*
X151111304Y-103790499D01*
X151111307Y-103790500D01*
X151111309Y-103790500D01*
X151288693Y-103790500D01*
X151451460Y-103758123D01*
X151521052Y-103764350D01*
X151576229Y-103807213D01*
X151599474Y-103873102D01*
X151583406Y-103941100D01*
X151578754Y-103948631D01*
X151481990Y-104093446D01*
X151481983Y-104093459D01*
X151414106Y-104257332D01*
X151414103Y-104257341D01*
X151379500Y-104431304D01*
X151379500Y-104608695D01*
X151414103Y-104782658D01*
X151414106Y-104782667D01*
X151481983Y-104946540D01*
X151481990Y-104946553D01*
X151580535Y-105094034D01*
X151580538Y-105094038D01*
X151705961Y-105219461D01*
X151705965Y-105219464D01*
X151853446Y-105318009D01*
X151853459Y-105318016D01*
X151976363Y-105368923D01*
X152017334Y-105385894D01*
X152017336Y-105385894D01*
X152017341Y-105385896D01*
X152191304Y-105420499D01*
X152191307Y-105420500D01*
X152191309Y-105420500D01*
X152368693Y-105420500D01*
X152368694Y-105420499D01*
X152426682Y-105408964D01*
X152542658Y-105385896D01*
X152542661Y-105385894D01*
X152542666Y-105385894D01*
X152706547Y-105318013D01*
X152854035Y-105219464D01*
X152979464Y-105094035D01*
X153078013Y-104946547D01*
X153145894Y-104782666D01*
X153180500Y-104608691D01*
X153180500Y-104431309D01*
X153180500Y-104431306D01*
X153180499Y-104431304D01*
X153145896Y-104257341D01*
X153145893Y-104257332D01*
X153078016Y-104093459D01*
X153078009Y-104093446D01*
X152979464Y-103945965D01*
X152979461Y-103945961D01*
X152854038Y-103820538D01*
X152854034Y-103820535D01*
X152706553Y-103721990D01*
X152706540Y-103721983D01*
X152542667Y-103654106D01*
X152542658Y-103654103D01*
X152368694Y-103619500D01*
X152368691Y-103619500D01*
X152191309Y-103619500D01*
X152191304Y-103619500D01*
X152028538Y-103651876D01*
X151958946Y-103645649D01*
X151903769Y-103602786D01*
X151880525Y-103536896D01*
X151896593Y-103468899D01*
X151901237Y-103461381D01*
X151998013Y-103316547D01*
X152065894Y-103152666D01*
X152069106Y-103136522D01*
X152100499Y-102978695D01*
X152100500Y-102978693D01*
X152100500Y-102801306D01*
X152100499Y-102801304D01*
X152065896Y-102627341D01*
X152065893Y-102627332D01*
X151998016Y-102463459D01*
X151998009Y-102463446D01*
X151899464Y-102315965D01*
X151899461Y-102315961D01*
X151774038Y-102190538D01*
X151774034Y-102190535D01*
X151626553Y-102091990D01*
X151626540Y-102091983D01*
X151462667Y-102024106D01*
X151462658Y-102024103D01*
X151288694Y-101989500D01*
X151288691Y-101989500D01*
X151111309Y-101989500D01*
X151111306Y-101989500D01*
X150937341Y-102024103D01*
X150937332Y-102024106D01*
X150773459Y-102091983D01*
X150773446Y-102091990D01*
X150625965Y-102190535D01*
X150625961Y-102190538D01*
X150500538Y-102315961D01*
X150500535Y-102315965D01*
X150401990Y-102463446D01*
X150401983Y-102463459D01*
X150334106Y-102627332D01*
X150334103Y-102627341D01*
X150299500Y-102801304D01*
X150299500Y-102978695D01*
X150334103Y-103152658D01*
X150334106Y-103152667D01*
X150401983Y-103316540D01*
X150401990Y-103316553D01*
X150500535Y-103464034D01*
X150500538Y-103464038D01*
X150527046Y-103490546D01*
X150560531Y-103551869D01*
X150555547Y-103621561D01*
X150513675Y-103677494D01*
X150448211Y-103701911D01*
X150391914Y-103692789D01*
X150378961Y-103687424D01*
X150322666Y-103664106D01*
X150322662Y-103664105D01*
X150322658Y-103664103D01*
X150148694Y-103629500D01*
X150148691Y-103629500D01*
X149971309Y-103629500D01*
X149971306Y-103629500D01*
X149797341Y-103664103D01*
X149797332Y-103664106D01*
X149633459Y-103731983D01*
X149633446Y-103731990D01*
X149485965Y-103830535D01*
X149485961Y-103830538D01*
X149360538Y-103955961D01*
X149360535Y-103955965D01*
X149261990Y-104103446D01*
X149261983Y-104103459D01*
X149194106Y-104267332D01*
X149194103Y-104267341D01*
X149159500Y-104441304D01*
X120979500Y-104441304D01*
X120979500Y-102071153D01*
X135419500Y-102071153D01*
X135419500Y-102228846D01*
X135450261Y-102383489D01*
X135450264Y-102383501D01*
X135510602Y-102529172D01*
X135510609Y-102529185D01*
X135598210Y-102660288D01*
X135598213Y-102660292D01*
X135709707Y-102771786D01*
X135709711Y-102771789D01*
X135840814Y-102859390D01*
X135840827Y-102859397D01*
X135986498Y-102919735D01*
X135986503Y-102919737D01*
X136141153Y-102950499D01*
X136141156Y-102950500D01*
X136141158Y-102950500D01*
X136298844Y-102950500D01*
X136298845Y-102950499D01*
X136453497Y-102919737D01*
X136599179Y-102859394D01*
X136730289Y-102771789D01*
X136841789Y-102660289D01*
X136929394Y-102529179D01*
X136989737Y-102383497D01*
X137020500Y-102228842D01*
X137020500Y-102071158D01*
X137020500Y-102071155D01*
X137020499Y-102071153D01*
X137008864Y-102012659D01*
X136989737Y-101916503D01*
X136989735Y-101916498D01*
X136929397Y-101770827D01*
X136929390Y-101770814D01*
X136898182Y-101724108D01*
X136856217Y-101661304D01*
X157519500Y-101661304D01*
X157519500Y-101838695D01*
X157554103Y-102012658D01*
X157554106Y-102012667D01*
X157621983Y-102176540D01*
X157621990Y-102176553D01*
X157720535Y-102324034D01*
X157720538Y-102324038D01*
X157845961Y-102449461D01*
X157845965Y-102449464D01*
X157993446Y-102548009D01*
X157993459Y-102548016D01*
X158071882Y-102580499D01*
X158157334Y-102615894D01*
X158157336Y-102615894D01*
X158157341Y-102615896D01*
X158321871Y-102648623D01*
X158383782Y-102681008D01*
X158418356Y-102741723D01*
X158414617Y-102811493D01*
X158412243Y-102817688D01*
X158404106Y-102837333D01*
X158404103Y-102837341D01*
X158369500Y-103011304D01*
X158369500Y-103188695D01*
X158404103Y-103362658D01*
X158404106Y-103362667D01*
X158471983Y-103526540D01*
X158471990Y-103526553D01*
X158570535Y-103674034D01*
X158570538Y-103674038D01*
X158695961Y-103799461D01*
X158695965Y-103799464D01*
X158843446Y-103898009D01*
X158843459Y-103898016D01*
X158947475Y-103941100D01*
X159007334Y-103965894D01*
X159007336Y-103965894D01*
X159007341Y-103965896D01*
X159181304Y-104000499D01*
X159181307Y-104000500D01*
X159181309Y-104000500D01*
X159358693Y-104000500D01*
X159358694Y-104000499D01*
X159416682Y-103988964D01*
X159532658Y-103965896D01*
X159532661Y-103965894D01*
X159532666Y-103965894D01*
X159696547Y-103898013D01*
X159844035Y-103799464D01*
X159969464Y-103674035D01*
X160068013Y-103526547D01*
X160071106Y-103519081D01*
X160124164Y-103390985D01*
X160135894Y-103362666D01*
X160143514Y-103324361D01*
X160170499Y-103188695D01*
X160170500Y-103188693D01*
X160170500Y-103011306D01*
X160170499Y-103011304D01*
X160135896Y-102837341D01*
X160135893Y-102837333D01*
X160108745Y-102771789D01*
X160068016Y-102673459D01*
X160068012Y-102673452D01*
X159969464Y-102525965D01*
X159895793Y-102452294D01*
X159895789Y-102452289D01*
X159844038Y-102400538D01*
X159844034Y-102400535D01*
X159696553Y-102301990D01*
X159696540Y-102301983D01*
X159532667Y-102234106D01*
X159532659Y-102234104D01*
X159368127Y-102201376D01*
X159306216Y-102168991D01*
X159271642Y-102108275D01*
X159275382Y-102038506D01*
X159277741Y-102032348D01*
X159285894Y-102012666D01*
X159320500Y-101838691D01*
X159320500Y-101741304D01*
X159959500Y-101741304D01*
X159959500Y-101918695D01*
X159994103Y-102092658D01*
X159994106Y-102092667D01*
X160061983Y-102256540D01*
X160061990Y-102256553D01*
X160088347Y-102295999D01*
X160088353Y-102296007D01*
X160160536Y-102404035D01*
X160234204Y-102477703D01*
X160234209Y-102477709D01*
X160285961Y-102529461D01*
X160285965Y-102529464D01*
X160433446Y-102628009D01*
X160433459Y-102628016D01*
X160556363Y-102678923D01*
X160597334Y-102695894D01*
X160597336Y-102695894D01*
X160597341Y-102695896D01*
X160771304Y-102730499D01*
X160771307Y-102730500D01*
X160771309Y-102730500D01*
X160948693Y-102730500D01*
X160948694Y-102730499D01*
X161006682Y-102718964D01*
X161122658Y-102695896D01*
X161122661Y-102695894D01*
X161122666Y-102695894D01*
X161286547Y-102628013D01*
X161434035Y-102529464D01*
X161454473Y-102509026D01*
X161515795Y-102475539D01*
X161585487Y-102480522D01*
X161641422Y-102522393D01*
X161649541Y-102534701D01*
X161725552Y-102666355D01*
X161725557Y-102666361D01*
X161725558Y-102666363D01*
X161861251Y-102843203D01*
X161861257Y-102843210D01*
X162018870Y-103000823D01*
X162018877Y-103000829D01*
X162032531Y-103011306D01*
X162195726Y-103136529D01*
X162388774Y-103247986D01*
X162388777Y-103247987D01*
X162388782Y-103247990D01*
X162467317Y-103280520D01*
X162521721Y-103324361D01*
X162543786Y-103390655D01*
X162526507Y-103458354D01*
X162475370Y-103505965D01*
X162419865Y-103519081D01*
X162142484Y-103519081D01*
X162039704Y-103529581D01*
X162039703Y-103529582D01*
X161873164Y-103584767D01*
X161873162Y-103584768D01*
X161723848Y-103676867D01*
X161723844Y-103676870D01*
X161599789Y-103800925D01*
X161599786Y-103800929D01*
X161507687Y-103950243D01*
X161507686Y-103950245D01*
X161452501Y-104116784D01*
X161452500Y-104116785D01*
X161442000Y-104219565D01*
X161442000Y-106219596D01*
X161452500Y-106322376D01*
X161452501Y-106322377D01*
X161507686Y-106488916D01*
X161507687Y-106488918D01*
X161599786Y-106638232D01*
X161599789Y-106638236D01*
X161723844Y-106762291D01*
X161723848Y-106762294D01*
X161873162Y-106854393D01*
X161873164Y-106854394D01*
X161873166Y-106854395D01*
X162039703Y-106909580D01*
X162142492Y-106920081D01*
X162142497Y-106920081D01*
X164142503Y-106920081D01*
X164142508Y-106920081D01*
X164245297Y-106909580D01*
X164411834Y-106854395D01*
X164561155Y-106762292D01*
X164685211Y-106638236D01*
X164777314Y-106488915D01*
X164832499Y-106322378D01*
X164843000Y-106219589D01*
X164843000Y-104219573D01*
X164832499Y-104116784D01*
X164777314Y-103950247D01*
X164776317Y-103948631D01*
X164685213Y-103800929D01*
X164685210Y-103800925D01*
X164561155Y-103676870D01*
X164561151Y-103676867D01*
X164411837Y-103584768D01*
X164411835Y-103584767D01*
X164328565Y-103557174D01*
X164245297Y-103529582D01*
X164245295Y-103529581D01*
X164142515Y-103519081D01*
X164142508Y-103519081D01*
X163865135Y-103519081D01*
X163798096Y-103499396D01*
X163752341Y-103446592D01*
X163742397Y-103377434D01*
X163771422Y-103313878D01*
X163817683Y-103280520D01*
X163896217Y-103247990D01*
X163896218Y-103247988D01*
X163896226Y-103247986D01*
X164089274Y-103136529D01*
X164266124Y-103000828D01*
X164423747Y-102843205D01*
X164559448Y-102666355D01*
X164670905Y-102473307D01*
X164670905Y-102473306D01*
X164672935Y-102469791D01*
X164674769Y-102470850D01*
X164716101Y-102425568D01*
X164783627Y-102407620D01*
X164849317Y-102428477D01*
X164911148Y-102469791D01*
X164923453Y-102478013D01*
X164923455Y-102478014D01*
X164923459Y-102478016D01*
X165030597Y-102522393D01*
X165087334Y-102545894D01*
X165087336Y-102545894D01*
X165087341Y-102545896D01*
X165261304Y-102580499D01*
X165261307Y-102580500D01*
X165261309Y-102580500D01*
X165438693Y-102580500D01*
X165438694Y-102580499D01*
X165496682Y-102568964D01*
X165612658Y-102545896D01*
X165612661Y-102545894D01*
X165612666Y-102545894D01*
X165776547Y-102478013D01*
X165924035Y-102379464D01*
X166049464Y-102254035D01*
X166148013Y-102106547D01*
X166215894Y-101942666D01*
X166224282Y-101900500D01*
X166250499Y-101768695D01*
X166250500Y-101768693D01*
X166250500Y-101591306D01*
X166250499Y-101591304D01*
X166215896Y-101417341D01*
X166215893Y-101417332D01*
X166148016Y-101253459D01*
X166148009Y-101253446D01*
X166049464Y-101105965D01*
X166049461Y-101105961D01*
X165924038Y-100980538D01*
X165924034Y-100980535D01*
X165776553Y-100881990D01*
X165776540Y-100881983D01*
X165612667Y-100814106D01*
X165612658Y-100814103D01*
X165438694Y-100779500D01*
X165438691Y-100779500D01*
X165261309Y-100779500D01*
X165261306Y-100779500D01*
X165087341Y-100814103D01*
X165087332Y-100814106D01*
X164923459Y-100881983D01*
X164923446Y-100881990D01*
X164816349Y-100953551D01*
X164749671Y-100974429D01*
X164682291Y-100955944D01*
X164640071Y-100912449D01*
X164559452Y-100772814D01*
X164559448Y-100772807D01*
X164423747Y-100595957D01*
X164423742Y-100595951D01*
X164266129Y-100438338D01*
X164266122Y-100438332D01*
X164089282Y-100302639D01*
X164089280Y-100302638D01*
X164089274Y-100302633D01*
X163952211Y-100223499D01*
X163923049Y-100206662D01*
X163874834Y-100156094D01*
X163861612Y-100087487D01*
X163881948Y-100030385D01*
X163958013Y-99916547D01*
X164025894Y-99752666D01*
X164060500Y-99578691D01*
X164060500Y-99401309D01*
X164060500Y-99401306D01*
X164060499Y-99401304D01*
X164025896Y-99227341D01*
X164025893Y-99227332D01*
X163958016Y-99063459D01*
X163958009Y-99063446D01*
X163859464Y-98915965D01*
X163859461Y-98915961D01*
X163734038Y-98790538D01*
X163734034Y-98790535D01*
X163586553Y-98691990D01*
X163586540Y-98691983D01*
X163422667Y-98624106D01*
X163422658Y-98624103D01*
X163248694Y-98589500D01*
X163248691Y-98589500D01*
X163071309Y-98589500D01*
X163071306Y-98589500D01*
X162897341Y-98624103D01*
X162897332Y-98624106D01*
X162733459Y-98691983D01*
X162733446Y-98691990D01*
X162585965Y-98790535D01*
X162585961Y-98790538D01*
X162460538Y-98915961D01*
X162460535Y-98915965D01*
X162361990Y-99063446D01*
X162361983Y-99063459D01*
X162294106Y-99227332D01*
X162294103Y-99227341D01*
X162259500Y-99401304D01*
X162259500Y-99578695D01*
X162294103Y-99752658D01*
X162294106Y-99752667D01*
X162361983Y-99916540D01*
X162361990Y-99916553D01*
X162428307Y-100015802D01*
X162449185Y-100082479D01*
X162430701Y-100149859D01*
X162387206Y-100192080D01*
X162195727Y-100302632D01*
X162195717Y-100302639D01*
X162018877Y-100438332D01*
X162018870Y-100438338D01*
X161861257Y-100595951D01*
X161861251Y-100595958D01*
X161725558Y-100772798D01*
X161725552Y-100772807D01*
X161614095Y-100965854D01*
X161579457Y-101049477D01*
X161535615Y-101103880D01*
X161469321Y-101125944D01*
X161401622Y-101108664D01*
X161396005Y-101105125D01*
X161286552Y-101031990D01*
X161286540Y-101031983D01*
X161122667Y-100964106D01*
X161122658Y-100964103D01*
X160948694Y-100929500D01*
X160948691Y-100929500D01*
X160771309Y-100929500D01*
X160771306Y-100929500D01*
X160597341Y-100964103D01*
X160597332Y-100964106D01*
X160433459Y-101031983D01*
X160433446Y-101031990D01*
X160285965Y-101130535D01*
X160285961Y-101130538D01*
X160160538Y-101255961D01*
X160160535Y-101255965D01*
X160061990Y-101403446D01*
X160061983Y-101403459D01*
X159994106Y-101567332D01*
X159994103Y-101567341D01*
X159959500Y-101741304D01*
X159320500Y-101741304D01*
X159320500Y-101661309D01*
X159320500Y-101661306D01*
X159320499Y-101661304D01*
X159285896Y-101487341D01*
X159285893Y-101487332D01*
X159218016Y-101323459D01*
X159218009Y-101323446D01*
X159119464Y-101175965D01*
X159119461Y-101175961D01*
X158994038Y-101050538D01*
X158994034Y-101050535D01*
X158846553Y-100951990D01*
X158846540Y-100951983D01*
X158682667Y-100884106D01*
X158682658Y-100884103D01*
X158508694Y-100849500D01*
X158508691Y-100849500D01*
X158331309Y-100849500D01*
X158331306Y-100849500D01*
X158157341Y-100884103D01*
X158157332Y-100884106D01*
X157993459Y-100951983D01*
X157993446Y-100951990D01*
X157845965Y-101050535D01*
X157845961Y-101050538D01*
X157720538Y-101175961D01*
X157720535Y-101175965D01*
X157621990Y-101323446D01*
X157621983Y-101323459D01*
X157554106Y-101487332D01*
X157554103Y-101487341D01*
X157519500Y-101661304D01*
X136856217Y-101661304D01*
X136841789Y-101639711D01*
X136841786Y-101639707D01*
X136730292Y-101528213D01*
X136730288Y-101528210D01*
X136599185Y-101440609D01*
X136599172Y-101440602D01*
X136453501Y-101380264D01*
X136453489Y-101380261D01*
X136298845Y-101349500D01*
X136298842Y-101349500D01*
X136141158Y-101349500D01*
X136141155Y-101349500D01*
X135986510Y-101380261D01*
X135986498Y-101380264D01*
X135840827Y-101440602D01*
X135840814Y-101440609D01*
X135709711Y-101528210D01*
X135709707Y-101528213D01*
X135598213Y-101639707D01*
X135598210Y-101639711D01*
X135510609Y-101770814D01*
X135510602Y-101770827D01*
X135450264Y-101916498D01*
X135450261Y-101916510D01*
X135419500Y-102071153D01*
X120979500Y-102071153D01*
X120979500Y-100911304D01*
X126909500Y-100911304D01*
X126909500Y-101088695D01*
X126944103Y-101262658D01*
X126944106Y-101262667D01*
X127011983Y-101426540D01*
X127011990Y-101426553D01*
X127110535Y-101574034D01*
X127110538Y-101574038D01*
X127235961Y-101699461D01*
X127235965Y-101699464D01*
X127383446Y-101798009D01*
X127383459Y-101798016D01*
X127481659Y-101838691D01*
X127547334Y-101865894D01*
X127547336Y-101865894D01*
X127547341Y-101865896D01*
X127721304Y-101900499D01*
X127721307Y-101900500D01*
X127721309Y-101900500D01*
X127898693Y-101900500D01*
X127898694Y-101900499D01*
X127956682Y-101888964D01*
X128072658Y-101865896D01*
X128072661Y-101865894D01*
X128072666Y-101865894D01*
X128236547Y-101798013D01*
X128384035Y-101699464D01*
X128509464Y-101574035D01*
X128608013Y-101426547D01*
X128675894Y-101262666D01*
X128677726Y-101253459D01*
X128710499Y-101088695D01*
X128710500Y-101088693D01*
X128710500Y-100911306D01*
X128710499Y-100911304D01*
X128675896Y-100737341D01*
X128675893Y-100737332D01*
X128608016Y-100573459D01*
X128608009Y-100573446D01*
X128509464Y-100425965D01*
X128509461Y-100425961D01*
X128384038Y-100300538D01*
X128384034Y-100300535D01*
X128236553Y-100201990D01*
X128236540Y-100201983D01*
X128072667Y-100134106D01*
X128072658Y-100134103D01*
X127898694Y-100099500D01*
X127898691Y-100099500D01*
X127721309Y-100099500D01*
X127721306Y-100099500D01*
X127547341Y-100134103D01*
X127547332Y-100134106D01*
X127383459Y-100201983D01*
X127383446Y-100201990D01*
X127235965Y-100300535D01*
X127235961Y-100300538D01*
X127110538Y-100425961D01*
X127110535Y-100425965D01*
X127011990Y-100573446D01*
X127011983Y-100573459D01*
X126944106Y-100737332D01*
X126944103Y-100737341D01*
X126909500Y-100911304D01*
X120979500Y-100911304D01*
X120979500Y-99181304D01*
X123539500Y-99181304D01*
X123539500Y-99358695D01*
X123574103Y-99532658D01*
X123574106Y-99532667D01*
X123641983Y-99696540D01*
X123641990Y-99696553D01*
X123740535Y-99844034D01*
X123740538Y-99844038D01*
X123865961Y-99969461D01*
X123865965Y-99969464D01*
X124013446Y-100068009D01*
X124013459Y-100068016D01*
X124089470Y-100099500D01*
X124177334Y-100135894D01*
X124177336Y-100135894D01*
X124177341Y-100135896D01*
X124351304Y-100170499D01*
X124351307Y-100170500D01*
X124351309Y-100170500D01*
X124528693Y-100170500D01*
X124528694Y-100170499D01*
X124586682Y-100158964D01*
X124702658Y-100135896D01*
X124702661Y-100135894D01*
X124702666Y-100135894D01*
X124866547Y-100068013D01*
X125014035Y-99969464D01*
X125139464Y-99844035D01*
X125238013Y-99696547D01*
X125305894Y-99532666D01*
X125312132Y-99501309D01*
X125340499Y-99358695D01*
X125340500Y-99358693D01*
X125340500Y-99181306D01*
X125340499Y-99181304D01*
X125305896Y-99007341D01*
X125305893Y-99007332D01*
X125238016Y-98843459D01*
X125238009Y-98843446D01*
X125139464Y-98695965D01*
X125139461Y-98695961D01*
X125014038Y-98570538D01*
X125014034Y-98570535D01*
X124866553Y-98471990D01*
X124866540Y-98471983D01*
X124702667Y-98404106D01*
X124702658Y-98404103D01*
X124528694Y-98369500D01*
X124528691Y-98369500D01*
X124351309Y-98369500D01*
X124351306Y-98369500D01*
X124177341Y-98404103D01*
X124177332Y-98404106D01*
X124013459Y-98471983D01*
X124013446Y-98471990D01*
X123865965Y-98570535D01*
X123865961Y-98570538D01*
X123740538Y-98695961D01*
X123740535Y-98695965D01*
X123641990Y-98843446D01*
X123641983Y-98843459D01*
X123574106Y-99007332D01*
X123574103Y-99007341D01*
X123539500Y-99181304D01*
X120979500Y-99181304D01*
X120979500Y-97411304D01*
X129849500Y-97411304D01*
X129849500Y-97588695D01*
X129884103Y-97762658D01*
X129884106Y-97762667D01*
X129951983Y-97926540D01*
X129951990Y-97926553D01*
X130050534Y-98074033D01*
X130050535Y-98074034D01*
X130050536Y-98074035D01*
X130118809Y-98142308D01*
X130152293Y-98203629D01*
X130152744Y-98254180D01*
X130119500Y-98421306D01*
X130119500Y-98598695D01*
X130154103Y-98772658D01*
X130154106Y-98772667D01*
X130221983Y-98936540D01*
X130221990Y-98936553D01*
X130320535Y-99084034D01*
X130320538Y-99084038D01*
X130341088Y-99104588D01*
X130374573Y-99165911D01*
X130369589Y-99235603D01*
X130367969Y-99239720D01*
X130344106Y-99297332D01*
X130344104Y-99297336D01*
X130309500Y-99471304D01*
X130309500Y-99648695D01*
X130344103Y-99822658D01*
X130344106Y-99822667D01*
X130411983Y-99986540D01*
X130411990Y-99986553D01*
X130510535Y-100134034D01*
X130510538Y-100134038D01*
X130635961Y-100259461D01*
X130635965Y-100259464D01*
X130783446Y-100358009D01*
X130783459Y-100358016D01*
X130855880Y-100388013D01*
X130947334Y-100425894D01*
X130947336Y-100425894D01*
X130947341Y-100425896D01*
X131121304Y-100460499D01*
X131121307Y-100460500D01*
X131121309Y-100460500D01*
X131298693Y-100460500D01*
X131298694Y-100460499D01*
X131356682Y-100448964D01*
X131472658Y-100425896D01*
X131472661Y-100425894D01*
X131472666Y-100425894D01*
X131636547Y-100358013D01*
X131743660Y-100286442D01*
X131810337Y-100265564D01*
X131877717Y-100284048D01*
X131881442Y-100286442D01*
X131988549Y-100358009D01*
X132033453Y-100388013D01*
X132033455Y-100388014D01*
X132033459Y-100388016D01*
X132125078Y-100425965D01*
X132197334Y-100455894D01*
X132197336Y-100455894D01*
X132197341Y-100455896D01*
X132371304Y-100490499D01*
X132371307Y-100490500D01*
X132371309Y-100490500D01*
X132548693Y-100490500D01*
X132548694Y-100490499D01*
X132606682Y-100478964D01*
X132722658Y-100455896D01*
X132722661Y-100455894D01*
X132722666Y-100455894D01*
X132886547Y-100388013D01*
X133034035Y-100289464D01*
X133159464Y-100164035D01*
X133258013Y-100016547D01*
X133325894Y-99852666D01*
X133327611Y-99844038D01*
X133356948Y-99696547D01*
X133360500Y-99678691D01*
X133360500Y-99501309D01*
X133360500Y-99501306D01*
X133360499Y-99501304D01*
X133325896Y-99327341D01*
X133325893Y-99327332D01*
X133258016Y-99163459D01*
X133258009Y-99163446D01*
X133159464Y-99015965D01*
X133159461Y-99015961D01*
X133034038Y-98890538D01*
X133034034Y-98890535D01*
X132886553Y-98791990D01*
X132886540Y-98791983D01*
X132722667Y-98724106D01*
X132722658Y-98724103D01*
X132548694Y-98689500D01*
X132548691Y-98689500D01*
X132371309Y-98689500D01*
X132371306Y-98689500D01*
X132197341Y-98724103D01*
X132197341Y-98724104D01*
X132197338Y-98724105D01*
X132197334Y-98724106D01*
X132082782Y-98771554D01*
X132013314Y-98779022D01*
X131950835Y-98747746D01*
X131915183Y-98687657D01*
X131913715Y-98632800D01*
X131920500Y-98598691D01*
X131920500Y-98421309D01*
X131920500Y-98421306D01*
X131920499Y-98421304D01*
X131885896Y-98247341D01*
X131885893Y-98247332D01*
X131818016Y-98083459D01*
X131818012Y-98083452D01*
X131811718Y-98074033D01*
X131736294Y-97961153D01*
X142779500Y-97961153D01*
X142779500Y-98118846D01*
X142810261Y-98273489D01*
X142810264Y-98273501D01*
X142870602Y-98419172D01*
X142870609Y-98419185D01*
X142958210Y-98550288D01*
X142958213Y-98550292D01*
X143069707Y-98661786D01*
X143069711Y-98661789D01*
X143200814Y-98749390D01*
X143200827Y-98749397D01*
X143346498Y-98809735D01*
X143346503Y-98809737D01*
X143501153Y-98840499D01*
X143501156Y-98840500D01*
X143501158Y-98840500D01*
X143658844Y-98840500D01*
X143658845Y-98840499D01*
X143813497Y-98809737D01*
X143959179Y-98749394D01*
X144090289Y-98661789D01*
X144201789Y-98550289D01*
X144289394Y-98419179D01*
X144349737Y-98273497D01*
X144380500Y-98118842D01*
X144380500Y-97961158D01*
X144380500Y-97961155D01*
X144380499Y-97961153D01*
X144375489Y-97935965D01*
X144349737Y-97806503D01*
X144349735Y-97806498D01*
X144289397Y-97660827D01*
X144289390Y-97660814D01*
X144201789Y-97529711D01*
X144201786Y-97529707D01*
X144090292Y-97418213D01*
X144090288Y-97418210D01*
X143959185Y-97330609D01*
X143959172Y-97330602D01*
X143813501Y-97270264D01*
X143813489Y-97270261D01*
X143658845Y-97239500D01*
X143658842Y-97239500D01*
X143501158Y-97239500D01*
X143501155Y-97239500D01*
X143346510Y-97270261D01*
X143346498Y-97270264D01*
X143200827Y-97330602D01*
X143200814Y-97330609D01*
X143069711Y-97418210D01*
X143069707Y-97418213D01*
X142958213Y-97529707D01*
X142958210Y-97529711D01*
X142870609Y-97660814D01*
X142870602Y-97660827D01*
X142810264Y-97806498D01*
X142810261Y-97806510D01*
X142779500Y-97961153D01*
X131736294Y-97961153D01*
X131719464Y-97935965D01*
X131646711Y-97863212D01*
X131642704Y-97858289D01*
X131631532Y-97831689D01*
X131617707Y-97806369D01*
X131617637Y-97798602D01*
X131615650Y-97793870D01*
X131617501Y-97783313D01*
X131617256Y-97755819D01*
X131650500Y-97588693D01*
X131650500Y-97411306D01*
X131650499Y-97411304D01*
X131615896Y-97237341D01*
X131615893Y-97237332D01*
X131548016Y-97073459D01*
X131548009Y-97073446D01*
X131449464Y-96925965D01*
X131449461Y-96925961D01*
X131324038Y-96800538D01*
X131324034Y-96800535D01*
X131176553Y-96701990D01*
X131176540Y-96701983D01*
X131012667Y-96634106D01*
X131012658Y-96634103D01*
X130838694Y-96599500D01*
X130838691Y-96599500D01*
X130661309Y-96599500D01*
X130661306Y-96599500D01*
X130487341Y-96634103D01*
X130487332Y-96634106D01*
X130323459Y-96701983D01*
X130323446Y-96701990D01*
X130175965Y-96800535D01*
X130175961Y-96800538D01*
X130050538Y-96925961D01*
X130050535Y-96925965D01*
X129951990Y-97073446D01*
X129951983Y-97073459D01*
X129884106Y-97237332D01*
X129884103Y-97237341D01*
X129849500Y-97411304D01*
X120979500Y-97411304D01*
X120979500Y-96321304D01*
X124889500Y-96321304D01*
X124889500Y-96498695D01*
X124924103Y-96672658D01*
X124924106Y-96672667D01*
X124991983Y-96836540D01*
X124991990Y-96836553D01*
X125090535Y-96984034D01*
X125090538Y-96984038D01*
X125215961Y-97109461D01*
X125215965Y-97109464D01*
X125363446Y-97208009D01*
X125363459Y-97208016D01*
X125439470Y-97239500D01*
X125527334Y-97275894D01*
X125527336Y-97275894D01*
X125527341Y-97275896D01*
X125701304Y-97310499D01*
X125701307Y-97310500D01*
X125701309Y-97310500D01*
X125878693Y-97310500D01*
X126013927Y-97283600D01*
X126013927Y-97283599D01*
X126035548Y-97279298D01*
X126052658Y-97275896D01*
X126052661Y-97275894D01*
X126052666Y-97275894D01*
X126216547Y-97208013D01*
X126364035Y-97109464D01*
X126489464Y-96984035D01*
X126588013Y-96836547D01*
X126655894Y-96672666D01*
X126690500Y-96498691D01*
X126690500Y-96321309D01*
X126690500Y-96321306D01*
X126690499Y-96321304D01*
X126655896Y-96147341D01*
X126655895Y-96147339D01*
X126655894Y-96147334D01*
X126637717Y-96103451D01*
X162749500Y-96103451D01*
X162749500Y-96335710D01*
X162785831Y-96565095D01*
X162857601Y-96785981D01*
X162958515Y-96984034D01*
X162963039Y-96992912D01*
X163099551Y-97180805D01*
X163263776Y-97345030D01*
X163451669Y-97481542D01*
X163546198Y-97529707D01*
X163658599Y-97586979D01*
X163658601Y-97586979D01*
X163658604Y-97586981D01*
X163879486Y-97658750D01*
X163997668Y-97677467D01*
X164108871Y-97695081D01*
X164108876Y-97695081D01*
X164341129Y-97695081D01*
X164442502Y-97679024D01*
X164570514Y-97658750D01*
X164791396Y-97586981D01*
X164998331Y-97481542D01*
X165186224Y-97345030D01*
X165350449Y-97180805D01*
X165486961Y-96992912D01*
X165592400Y-96785977D01*
X165664169Y-96565095D01*
X165684443Y-96437083D01*
X165700500Y-96335710D01*
X165700500Y-96103451D01*
X165681232Y-95981803D01*
X165664169Y-95874067D01*
X165592400Y-95653185D01*
X165592398Y-95653182D01*
X165592398Y-95653180D01*
X165502710Y-95477159D01*
X165486961Y-95446250D01*
X165350449Y-95258357D01*
X165186224Y-95094132D01*
X164998331Y-94957620D01*
X164984355Y-94950499D01*
X164791400Y-94852182D01*
X164570514Y-94780412D01*
X164341129Y-94744081D01*
X164341124Y-94744081D01*
X164108876Y-94744081D01*
X164108871Y-94744081D01*
X163879485Y-94780412D01*
X163658599Y-94852182D01*
X163451668Y-94957620D01*
X163263773Y-95094134D01*
X163099553Y-95258354D01*
X162963039Y-95446249D01*
X162857601Y-95653180D01*
X162785831Y-95874066D01*
X162749500Y-96103451D01*
X126637717Y-96103451D01*
X126588016Y-95983459D01*
X126588009Y-95983446D01*
X126489464Y-95835965D01*
X126489461Y-95835961D01*
X126364038Y-95710538D01*
X126293079Y-95663124D01*
X126248275Y-95609511D01*
X126239568Y-95540186D01*
X126269723Y-95477159D01*
X126293077Y-95456921D01*
X126394035Y-95389464D01*
X126519464Y-95264035D01*
X126618013Y-95116547D01*
X126627298Y-95094132D01*
X126627958Y-95092535D01*
X126685894Y-94952666D01*
X126693209Y-94915894D01*
X126714173Y-94810499D01*
X126720500Y-94778691D01*
X126720500Y-94601309D01*
X126720500Y-94601306D01*
X126720499Y-94601304D01*
X126685896Y-94427341D01*
X126685893Y-94427332D01*
X126618016Y-94263459D01*
X126618009Y-94263446D01*
X126519464Y-94115965D01*
X126519461Y-94115961D01*
X126394038Y-93990538D01*
X126394034Y-93990535D01*
X126246553Y-93891990D01*
X126246541Y-93891983D01*
X126114725Y-93837385D01*
X126082666Y-93824106D01*
X126082664Y-93824105D01*
X126082663Y-93824105D01*
X126082658Y-93824103D01*
X125908694Y-93789500D01*
X125908691Y-93789500D01*
X125731309Y-93789500D01*
X125731306Y-93789500D01*
X125557341Y-93824103D01*
X125557332Y-93824106D01*
X125393459Y-93891983D01*
X125393446Y-93891990D01*
X125245965Y-93990535D01*
X125245961Y-93990538D01*
X125120538Y-94115961D01*
X125120535Y-94115965D01*
X125021990Y-94263446D01*
X125021983Y-94263459D01*
X124954106Y-94427332D01*
X124954103Y-94427341D01*
X124919500Y-94601304D01*
X124919500Y-94778695D01*
X124954103Y-94952658D01*
X124954106Y-94952667D01*
X125021983Y-95116540D01*
X125021990Y-95116553D01*
X125120535Y-95264034D01*
X125120538Y-95264038D01*
X125245961Y-95389461D01*
X125245965Y-95389464D01*
X125316919Y-95436875D01*
X125361724Y-95490488D01*
X125370431Y-95559813D01*
X125340276Y-95622840D01*
X125316920Y-95643079D01*
X125215961Y-95710538D01*
X125090538Y-95835961D01*
X125090535Y-95835965D01*
X124991990Y-95983446D01*
X124991983Y-95983459D01*
X124924106Y-96147332D01*
X124924103Y-96147341D01*
X124889500Y-96321304D01*
X120979500Y-96321304D01*
X120979500Y-93721304D01*
X128379500Y-93721304D01*
X128379500Y-93898695D01*
X128414103Y-94072658D01*
X128414106Y-94072667D01*
X128481983Y-94236540D01*
X128481990Y-94236553D01*
X128580535Y-94384034D01*
X128580538Y-94384038D01*
X128705961Y-94509461D01*
X128705965Y-94509464D01*
X128853446Y-94608009D01*
X128853459Y-94608016D01*
X128976363Y-94658923D01*
X129017334Y-94675894D01*
X129017336Y-94675894D01*
X129017341Y-94675896D01*
X129191304Y-94710499D01*
X129191307Y-94710500D01*
X129191309Y-94710500D01*
X129368693Y-94710500D01*
X129368694Y-94710499D01*
X129426682Y-94698964D01*
X129542658Y-94675896D01*
X129542661Y-94675894D01*
X129542666Y-94675894D01*
X129706547Y-94608013D01*
X129854035Y-94509464D01*
X129979464Y-94384035D01*
X130078013Y-94236547D01*
X130145894Y-94072666D01*
X130180500Y-93898691D01*
X130180500Y-93858535D01*
X130200185Y-93791496D01*
X130252989Y-93745741D01*
X130322147Y-93735797D01*
X130385703Y-93764822D01*
X130407604Y-93789647D01*
X130410536Y-93794035D01*
X130410538Y-93794038D01*
X130535961Y-93919461D01*
X130535965Y-93919464D01*
X130683446Y-94018009D01*
X130683459Y-94018016D01*
X130806363Y-94068923D01*
X130847334Y-94085894D01*
X130847336Y-94085894D01*
X130847341Y-94085896D01*
X131021304Y-94120499D01*
X131021307Y-94120500D01*
X131021309Y-94120500D01*
X131198693Y-94120500D01*
X131198694Y-94120499D01*
X131256682Y-94108964D01*
X131372658Y-94085896D01*
X131372661Y-94085894D01*
X131372666Y-94085894D01*
X131536547Y-94018013D01*
X131666541Y-93931153D01*
X147989500Y-93931153D01*
X147989500Y-94088846D01*
X148020261Y-94243489D01*
X148020264Y-94243501D01*
X148080602Y-94389172D01*
X148080609Y-94389185D01*
X148168210Y-94520288D01*
X148168213Y-94520292D01*
X148279707Y-94631786D01*
X148279711Y-94631789D01*
X148410814Y-94719390D01*
X148410827Y-94719397D01*
X148553987Y-94778695D01*
X148556503Y-94779737D01*
X148711153Y-94810499D01*
X148711156Y-94810500D01*
X148711158Y-94810500D01*
X148868844Y-94810500D01*
X148868845Y-94810499D01*
X149023497Y-94779737D01*
X149169179Y-94719394D01*
X149220472Y-94685121D01*
X149287147Y-94664243D01*
X149354527Y-94682726D01*
X149377044Y-94700543D01*
X149425961Y-94749461D01*
X149425965Y-94749464D01*
X149573446Y-94848009D01*
X149573459Y-94848016D01*
X149696363Y-94898923D01*
X149737334Y-94915894D01*
X149737336Y-94915894D01*
X149737341Y-94915896D01*
X149911304Y-94950499D01*
X149911307Y-94950500D01*
X149911309Y-94950500D01*
X150088693Y-94950500D01*
X150088694Y-94950499D01*
X150146682Y-94938964D01*
X150262658Y-94915896D01*
X150262661Y-94915894D01*
X150262666Y-94915894D01*
X150416482Y-94852182D01*
X150426540Y-94848016D01*
X150426540Y-94848015D01*
X150426547Y-94848013D01*
X150574035Y-94749464D01*
X150699464Y-94624035D01*
X150798013Y-94476547D01*
X150865894Y-94312666D01*
X150881037Y-94236540D01*
X150900499Y-94138695D01*
X150900500Y-94138693D01*
X150900500Y-93961306D01*
X150900499Y-93961304D01*
X150865896Y-93787341D01*
X150865893Y-93787332D01*
X150861410Y-93776510D01*
X150838544Y-93721304D01*
X150798016Y-93623459D01*
X150798009Y-93623446D01*
X150699464Y-93475965D01*
X150699461Y-93475961D01*
X150574038Y-93350538D01*
X150574034Y-93350535D01*
X150426553Y-93251990D01*
X150426540Y-93251983D01*
X150262667Y-93184106D01*
X150262658Y-93184103D01*
X150088694Y-93149500D01*
X150088691Y-93149500D01*
X149911309Y-93149500D01*
X149911306Y-93149500D01*
X149737341Y-93184103D01*
X149737332Y-93184106D01*
X149573459Y-93251983D01*
X149573446Y-93251990D01*
X149425968Y-93350533D01*
X149425964Y-93350536D01*
X149424992Y-93351509D01*
X149424358Y-93351855D01*
X149421261Y-93354397D01*
X149420778Y-93353809D01*
X149363666Y-93384988D01*
X149293974Y-93379997D01*
X149268429Y-93366921D01*
X149169190Y-93300612D01*
X149169172Y-93300602D01*
X149023501Y-93240264D01*
X149023489Y-93240261D01*
X148868845Y-93209500D01*
X148868842Y-93209500D01*
X148711158Y-93209500D01*
X148711155Y-93209500D01*
X148556510Y-93240261D01*
X148556498Y-93240264D01*
X148410827Y-93300602D01*
X148410814Y-93300609D01*
X148279711Y-93388210D01*
X148279707Y-93388213D01*
X148168213Y-93499707D01*
X148168210Y-93499711D01*
X148080609Y-93630814D01*
X148080602Y-93630827D01*
X148020264Y-93776498D01*
X148020261Y-93776510D01*
X147989500Y-93931153D01*
X131666541Y-93931153D01*
X131684035Y-93919464D01*
X131711516Y-93891983D01*
X131766115Y-93837385D01*
X131809461Y-93794038D01*
X131809464Y-93794035D01*
X131908013Y-93646547D01*
X131908284Y-93645894D01*
X131949108Y-93547334D01*
X131975894Y-93482666D01*
X131995324Y-93384988D01*
X132010499Y-93308695D01*
X132010500Y-93308693D01*
X132010500Y-93131306D01*
X132010499Y-93131304D01*
X131975896Y-92957341D01*
X131975893Y-92957332D01*
X131970413Y-92944103D01*
X131935035Y-92858691D01*
X131908016Y-92793459D01*
X131908014Y-92793455D01*
X131908013Y-92793453D01*
X131833077Y-92681304D01*
X146209500Y-92681304D01*
X146209500Y-92858695D01*
X146244103Y-93032658D01*
X146244106Y-93032667D01*
X146311983Y-93196540D01*
X146311990Y-93196553D01*
X146410535Y-93344034D01*
X146410538Y-93344038D01*
X146535961Y-93469461D01*
X146535965Y-93469464D01*
X146683446Y-93568009D01*
X146683459Y-93568016D01*
X146806363Y-93618923D01*
X146847334Y-93635894D01*
X146847336Y-93635894D01*
X146847341Y-93635896D01*
X147021304Y-93670499D01*
X147021307Y-93670500D01*
X147021309Y-93670500D01*
X147198693Y-93670500D01*
X147198694Y-93670499D01*
X147256682Y-93658964D01*
X147372658Y-93635896D01*
X147372661Y-93635894D01*
X147372666Y-93635894D01*
X147536547Y-93568013D01*
X147684035Y-93469464D01*
X147809464Y-93344035D01*
X147908013Y-93196547D01*
X147975894Y-93032666D01*
X147980008Y-93011987D01*
X148010499Y-92858695D01*
X148010500Y-92858693D01*
X148010500Y-92691304D01*
X152749500Y-92691304D01*
X152749500Y-92868695D01*
X152784103Y-93042658D01*
X152784106Y-93042667D01*
X152851983Y-93206540D01*
X152851990Y-93206553D01*
X152950535Y-93354034D01*
X152950538Y-93354038D01*
X153075961Y-93479461D01*
X153075965Y-93479464D01*
X153223446Y-93578009D01*
X153223459Y-93578016D01*
X153346363Y-93628923D01*
X153387334Y-93645894D01*
X153387336Y-93645894D01*
X153387341Y-93645896D01*
X153561304Y-93680499D01*
X153561307Y-93680500D01*
X153561309Y-93680500D01*
X153738693Y-93680500D01*
X153738694Y-93680499D01*
X153796682Y-93668964D01*
X153912658Y-93645896D01*
X153912661Y-93645894D01*
X153912666Y-93645894D01*
X154076547Y-93578013D01*
X154224035Y-93479464D01*
X154349464Y-93354035D01*
X154448013Y-93206547D01*
X154515894Y-93042666D01*
X154517884Y-93032666D01*
X154538964Y-92926682D01*
X154550500Y-92868691D01*
X154550500Y-92691309D01*
X154550500Y-92691306D01*
X154550499Y-92691304D01*
X154515896Y-92517341D01*
X154515893Y-92517332D01*
X154448016Y-92353459D01*
X154448009Y-92353446D01*
X154349464Y-92205965D01*
X154349461Y-92205961D01*
X154224038Y-92080538D01*
X154224034Y-92080535D01*
X154076553Y-91981990D01*
X154076540Y-91981983D01*
X153912667Y-91914106D01*
X153912658Y-91914103D01*
X153738694Y-91879500D01*
X153738691Y-91879500D01*
X153561309Y-91879500D01*
X153561306Y-91879500D01*
X153387341Y-91914103D01*
X153387332Y-91914106D01*
X153223459Y-91981983D01*
X153223446Y-91981990D01*
X153075965Y-92080535D01*
X153075961Y-92080538D01*
X152950538Y-92205961D01*
X152950535Y-92205965D01*
X152851990Y-92353446D01*
X152851983Y-92353459D01*
X152784106Y-92517332D01*
X152784103Y-92517341D01*
X152749500Y-92691304D01*
X148010500Y-92691304D01*
X148010500Y-92681306D01*
X148010499Y-92681304D01*
X147975896Y-92507341D01*
X147975893Y-92507332D01*
X147908016Y-92343459D01*
X147908009Y-92343446D01*
X147809464Y-92195965D01*
X147809461Y-92195961D01*
X147684038Y-92070538D01*
X147684034Y-92070535D01*
X147536553Y-91971990D01*
X147536540Y-91971983D01*
X147372667Y-91904106D01*
X147372658Y-91904103D01*
X147198694Y-91869500D01*
X147198691Y-91869500D01*
X147021309Y-91869500D01*
X147021306Y-91869500D01*
X146847341Y-91904103D01*
X146847332Y-91904106D01*
X146683459Y-91971983D01*
X146683446Y-91971990D01*
X146535965Y-92070535D01*
X146535961Y-92070538D01*
X146410538Y-92195961D01*
X146410535Y-92195965D01*
X146311990Y-92343446D01*
X146311983Y-92343459D01*
X146244106Y-92507332D01*
X146244103Y-92507341D01*
X146209500Y-92681304D01*
X131833077Y-92681304D01*
X131809464Y-92645965D01*
X131809461Y-92645961D01*
X131684038Y-92520538D01*
X131684034Y-92520535D01*
X131536553Y-92421990D01*
X131536540Y-92421983D01*
X131372667Y-92354106D01*
X131372658Y-92354103D01*
X131198694Y-92319500D01*
X131198691Y-92319500D01*
X131021309Y-92319500D01*
X131021306Y-92319500D01*
X130847341Y-92354103D01*
X130847332Y-92354106D01*
X130683459Y-92421983D01*
X130683446Y-92421990D01*
X130535965Y-92520535D01*
X130535961Y-92520538D01*
X130410538Y-92645961D01*
X130410535Y-92645965D01*
X130311990Y-92793446D01*
X130311983Y-92793459D01*
X130244106Y-92957332D01*
X130244103Y-92957341D01*
X130209500Y-93131304D01*
X130209500Y-93171464D01*
X130189815Y-93238503D01*
X130137011Y-93284258D01*
X130067853Y-93294202D01*
X130004297Y-93265177D01*
X129982400Y-93240358D01*
X129979465Y-93235966D01*
X129979461Y-93235961D01*
X129854038Y-93110538D01*
X129854034Y-93110535D01*
X129706553Y-93011990D01*
X129706540Y-93011983D01*
X129542667Y-92944106D01*
X129542658Y-92944103D01*
X129368694Y-92909500D01*
X129368691Y-92909500D01*
X129191309Y-92909500D01*
X129191306Y-92909500D01*
X129017341Y-92944103D01*
X129017332Y-92944106D01*
X128853459Y-93011983D01*
X128853446Y-93011990D01*
X128705965Y-93110535D01*
X128705961Y-93110538D01*
X128580538Y-93235961D01*
X128580535Y-93235965D01*
X128481990Y-93383446D01*
X128481983Y-93383459D01*
X128414106Y-93547332D01*
X128414103Y-93547341D01*
X128379500Y-93721304D01*
X120979500Y-93721304D01*
X120979500Y-90538576D01*
X123169499Y-90538576D01*
X123196418Y-90673903D01*
X123196421Y-90673913D01*
X123249221Y-90801385D01*
X123249228Y-90801398D01*
X123325885Y-90916122D01*
X123325888Y-90916126D01*
X123423454Y-91013692D01*
X123423458Y-91013695D01*
X123538182Y-91090352D01*
X123538195Y-91090359D01*
X123665667Y-91143159D01*
X123665672Y-91143161D01*
X123665676Y-91143161D01*
X123665677Y-91143162D01*
X123801004Y-91170081D01*
X123801007Y-91170081D01*
X123938995Y-91170081D01*
X124030041Y-91151970D01*
X124074328Y-91143161D01*
X124199510Y-91091309D01*
X124199522Y-91091304D01*
X126259500Y-91091304D01*
X126259500Y-91268695D01*
X126294103Y-91442658D01*
X126294106Y-91442667D01*
X126361983Y-91606540D01*
X126361990Y-91606553D01*
X126460535Y-91754034D01*
X126460538Y-91754038D01*
X126585961Y-91879461D01*
X126585965Y-91879464D01*
X126733446Y-91978009D01*
X126733459Y-91978016D01*
X126802355Y-92006553D01*
X126897334Y-92045894D01*
X126897336Y-92045894D01*
X126897341Y-92045896D01*
X127071304Y-92080499D01*
X127071307Y-92080500D01*
X127071309Y-92080500D01*
X127248693Y-92080500D01*
X127248694Y-92080499D01*
X127306682Y-92068964D01*
X127422658Y-92045896D01*
X127422661Y-92045894D01*
X127422666Y-92045894D01*
X127576953Y-91981987D01*
X127586540Y-91978016D01*
X127586540Y-91978015D01*
X127586547Y-91978013D01*
X127734035Y-91879464D01*
X127859464Y-91754035D01*
X127958013Y-91606547D01*
X128005748Y-91491304D01*
X158489500Y-91491304D01*
X158489500Y-91668695D01*
X158524103Y-91842658D01*
X158524106Y-91842667D01*
X158591983Y-92006540D01*
X158591990Y-92006553D01*
X158690535Y-92154034D01*
X158690538Y-92154038D01*
X158815961Y-92279461D01*
X158815965Y-92279464D01*
X158963446Y-92378009D01*
X158963459Y-92378016D01*
X159069607Y-92421983D01*
X159127334Y-92445894D01*
X159127336Y-92445894D01*
X159127341Y-92445896D01*
X159301304Y-92480499D01*
X159301307Y-92480500D01*
X159301309Y-92480500D01*
X159478693Y-92480500D01*
X159478694Y-92480499D01*
X159536682Y-92468964D01*
X159652658Y-92445896D01*
X159652661Y-92445894D01*
X159652666Y-92445894D01*
X159816547Y-92378013D01*
X159816548Y-92378012D01*
X159817548Y-92377598D01*
X159887017Y-92370129D01*
X159912452Y-92377598D01*
X159913451Y-92378012D01*
X159913453Y-92378013D01*
X160077334Y-92445894D01*
X160077336Y-92445894D01*
X160077341Y-92445896D01*
X160251304Y-92480499D01*
X160251307Y-92480500D01*
X160251309Y-92480500D01*
X160428693Y-92480500D01*
X160428694Y-92480499D01*
X160486682Y-92468964D01*
X160602658Y-92445896D01*
X160602661Y-92445894D01*
X160602666Y-92445894D01*
X160766547Y-92378013D01*
X160914035Y-92279464D01*
X161039464Y-92154035D01*
X161138013Y-92006547D01*
X161205894Y-91842666D01*
X161240500Y-91668691D01*
X161240500Y-91491309D01*
X161240500Y-91491306D01*
X161240499Y-91491304D01*
X161205896Y-91317341D01*
X161205893Y-91317332D01*
X161138016Y-91153459D01*
X161138009Y-91153446D01*
X161039464Y-91005965D01*
X161039461Y-91005961D01*
X160914038Y-90880538D01*
X160914034Y-90880535D01*
X160783957Y-90793620D01*
X160739152Y-90740008D01*
X160731231Y-90714709D01*
X160705896Y-90587341D01*
X160705893Y-90587332D01*
X160703189Y-90580805D01*
X160685697Y-90538574D01*
X160638016Y-90423459D01*
X160638009Y-90423446D01*
X160539464Y-90275965D01*
X160539461Y-90275961D01*
X160414038Y-90150538D01*
X160414034Y-90150535D01*
X160266553Y-90051990D01*
X160266540Y-90051983D01*
X160102667Y-89984106D01*
X160102658Y-89984103D01*
X159928694Y-89949500D01*
X159928691Y-89949500D01*
X159751309Y-89949500D01*
X159751306Y-89949500D01*
X159577341Y-89984103D01*
X159577332Y-89984106D01*
X159413459Y-90051983D01*
X159413446Y-90051990D01*
X159265965Y-90150535D01*
X159265961Y-90150538D01*
X159140538Y-90275961D01*
X159140535Y-90275965D01*
X159041990Y-90423446D01*
X159041983Y-90423459D01*
X158974106Y-90587332D01*
X158974104Y-90587340D01*
X158941104Y-90753239D01*
X158908719Y-90815150D01*
X158888380Y-90832147D01*
X158815967Y-90880533D01*
X158815958Y-90880542D01*
X158690538Y-91005961D01*
X158690535Y-91005965D01*
X158591990Y-91153446D01*
X158591983Y-91153459D01*
X158524106Y-91317332D01*
X158524103Y-91317341D01*
X158489500Y-91491304D01*
X128005748Y-91491304D01*
X128025894Y-91442666D01*
X128060500Y-91268691D01*
X128060500Y-91091309D01*
X128060500Y-91091306D01*
X128060499Y-91091304D01*
X128025896Y-90917341D01*
X128025893Y-90917332D01*
X128025393Y-90916126D01*
X127990609Y-90832147D01*
X127958016Y-90753459D01*
X127958009Y-90753446D01*
X127859464Y-90605965D01*
X127859461Y-90605961D01*
X127734038Y-90480538D01*
X127734034Y-90480535D01*
X127586553Y-90381990D01*
X127586540Y-90381983D01*
X127422667Y-90314106D01*
X127422658Y-90314103D01*
X127248694Y-90279500D01*
X127248691Y-90279500D01*
X127071309Y-90279500D01*
X127071306Y-90279500D01*
X126897341Y-90314103D01*
X126897332Y-90314106D01*
X126733459Y-90381983D01*
X126733446Y-90381990D01*
X126585965Y-90480535D01*
X126585961Y-90480538D01*
X126460538Y-90605961D01*
X126460535Y-90605965D01*
X126361990Y-90753446D01*
X126361983Y-90753459D01*
X126294106Y-90917332D01*
X126294103Y-90917341D01*
X126259500Y-91091304D01*
X124199522Y-91091304D01*
X124201804Y-91090359D01*
X124201804Y-91090358D01*
X124201811Y-91090356D01*
X124316542Y-91013695D01*
X124324276Y-91005961D01*
X124332702Y-90997536D01*
X124414111Y-90916126D01*
X124414114Y-90916123D01*
X124490775Y-90801392D01*
X124543580Y-90673909D01*
X124560801Y-90587334D01*
X124570500Y-90538576D01*
X124570500Y-90400585D01*
X124543581Y-90265258D01*
X124543580Y-90265257D01*
X124543580Y-90265253D01*
X124510743Y-90185977D01*
X124490778Y-90137776D01*
X124490771Y-90137763D01*
X124414114Y-90023039D01*
X124414111Y-90023035D01*
X124316545Y-89925469D01*
X124316541Y-89925466D01*
X124201817Y-89848809D01*
X124201804Y-89848802D01*
X124074332Y-89796002D01*
X124074322Y-89795999D01*
X123938995Y-89769081D01*
X123938993Y-89769081D01*
X123801007Y-89769081D01*
X123801005Y-89769081D01*
X123665677Y-89795999D01*
X123665667Y-89796002D01*
X123538195Y-89848802D01*
X123538182Y-89848809D01*
X123423458Y-89925466D01*
X123423454Y-89925469D01*
X123325888Y-90023035D01*
X123325885Y-90023039D01*
X123249228Y-90137763D01*
X123249221Y-90137776D01*
X123196421Y-90265248D01*
X123196418Y-90265258D01*
X123169500Y-90400585D01*
X123169500Y-90400588D01*
X123169500Y-90538574D01*
X123169500Y-90538576D01*
X123169499Y-90538576D01*
X120979500Y-90538576D01*
X120979500Y-89481304D01*
X136469500Y-89481304D01*
X136469500Y-89658695D01*
X136504103Y-89832658D01*
X136504106Y-89832667D01*
X136571983Y-89996540D01*
X136571990Y-89996553D01*
X136670535Y-90144034D01*
X136670538Y-90144038D01*
X136795961Y-90269461D01*
X136795965Y-90269464D01*
X136943446Y-90368009D01*
X136943459Y-90368016D01*
X137066363Y-90418923D01*
X137107334Y-90435894D01*
X137107336Y-90435894D01*
X137107341Y-90435896D01*
X137281304Y-90470499D01*
X137281307Y-90470500D01*
X137281309Y-90470500D01*
X137458693Y-90470500D01*
X137458694Y-90470499D01*
X137516682Y-90458964D01*
X137632658Y-90435896D01*
X137632661Y-90435894D01*
X137632666Y-90435894D01*
X137782001Y-90374038D01*
X137796540Y-90368016D01*
X137796540Y-90368015D01*
X137796547Y-90368013D01*
X137944035Y-90269464D01*
X138069464Y-90144035D01*
X138168013Y-89996547D01*
X138235894Y-89832666D01*
X138269980Y-89661304D01*
X147699500Y-89661304D01*
X147699500Y-89838695D01*
X147734103Y-90012658D01*
X147734106Y-90012667D01*
X147801983Y-90176540D01*
X147801990Y-90176553D01*
X147900535Y-90324034D01*
X147900538Y-90324038D01*
X148025961Y-90449461D01*
X148025965Y-90449464D01*
X148173446Y-90548009D01*
X148173459Y-90548016D01*
X148268378Y-90587332D01*
X148337334Y-90615894D01*
X148337336Y-90615894D01*
X148337341Y-90615896D01*
X148511304Y-90650499D01*
X148511307Y-90650500D01*
X148511309Y-90650500D01*
X148688693Y-90650500D01*
X148688694Y-90650499D01*
X148746682Y-90638964D01*
X148862658Y-90615896D01*
X148862661Y-90615894D01*
X148862666Y-90615894D01*
X149026547Y-90548013D01*
X149174035Y-90449464D01*
X149174038Y-90449460D01*
X149174500Y-90449152D01*
X149241178Y-90428274D01*
X149308558Y-90446758D01*
X149331073Y-90464573D01*
X149365961Y-90499461D01*
X149365965Y-90499464D01*
X149513446Y-90598009D01*
X149513459Y-90598016D01*
X149636363Y-90648923D01*
X149677334Y-90665894D01*
X149677336Y-90665894D01*
X149677341Y-90665896D01*
X149851304Y-90700499D01*
X149851307Y-90700500D01*
X149851309Y-90700500D01*
X150028693Y-90700500D01*
X150028694Y-90700499D01*
X150086682Y-90688964D01*
X150202658Y-90665896D01*
X150202661Y-90665894D01*
X150202666Y-90665894D01*
X150366547Y-90598013D01*
X150514035Y-90499464D01*
X150639464Y-90374035D01*
X150738013Y-90226547D01*
X150805894Y-90062666D01*
X150808019Y-90051987D01*
X150840499Y-89888695D01*
X150840500Y-89888693D01*
X150840500Y-89711306D01*
X150840499Y-89711304D01*
X150805895Y-89537338D01*
X150805894Y-89537335D01*
X150791859Y-89503451D01*
X162749500Y-89503451D01*
X162749500Y-89735710D01*
X162785831Y-89965095D01*
X162857601Y-90185981D01*
X162950350Y-90368009D01*
X162963039Y-90392912D01*
X163099551Y-90580805D01*
X163263776Y-90745030D01*
X163451669Y-90881542D01*
X163549436Y-90931357D01*
X163658599Y-90986979D01*
X163658601Y-90986979D01*
X163658604Y-90986981D01*
X163879486Y-91058750D01*
X163997668Y-91077467D01*
X164108871Y-91095081D01*
X164108876Y-91095081D01*
X164341129Y-91095081D01*
X164442502Y-91079024D01*
X164570514Y-91058750D01*
X164791396Y-90986981D01*
X164998331Y-90881542D01*
X165186224Y-90745030D01*
X165350449Y-90580805D01*
X165486961Y-90392912D01*
X165592400Y-90185977D01*
X165664169Y-89965095D01*
X165685143Y-89832666D01*
X165700500Y-89735710D01*
X165700500Y-89503451D01*
X165679909Y-89373446D01*
X165664169Y-89274067D01*
X165592400Y-89053185D01*
X165592398Y-89053182D01*
X165592398Y-89053180D01*
X165509118Y-88889735D01*
X165486961Y-88846250D01*
X165350449Y-88658357D01*
X165186224Y-88494132D01*
X164998331Y-88357620D01*
X164990239Y-88353497D01*
X164791400Y-88252182D01*
X164570514Y-88180412D01*
X164341129Y-88144081D01*
X164341124Y-88144081D01*
X164108876Y-88144081D01*
X164108871Y-88144081D01*
X163879485Y-88180412D01*
X163658599Y-88252182D01*
X163451668Y-88357620D01*
X163263773Y-88494134D01*
X163099553Y-88658354D01*
X162963039Y-88846249D01*
X162857601Y-89053180D01*
X162785831Y-89274066D01*
X162749500Y-89503451D01*
X150791859Y-89503451D01*
X150785183Y-89487334D01*
X150775628Y-89464264D01*
X150738016Y-89373459D01*
X150738009Y-89373446D01*
X150639464Y-89225965D01*
X150639461Y-89225961D01*
X150514038Y-89100538D01*
X150514034Y-89100535D01*
X150366553Y-89001990D01*
X150366540Y-89001983D01*
X150202667Y-88934106D01*
X150202658Y-88934103D01*
X150028694Y-88899500D01*
X150028691Y-88899500D01*
X149851309Y-88899500D01*
X149851306Y-88899500D01*
X149677341Y-88934103D01*
X149677332Y-88934106D01*
X149513459Y-89001983D01*
X149513446Y-89001990D01*
X149365498Y-89100847D01*
X149298820Y-89121725D01*
X149231440Y-89103240D01*
X149208926Y-89085426D01*
X149174038Y-89050538D01*
X149174034Y-89050535D01*
X149026553Y-88951990D01*
X149026540Y-88951983D01*
X148862667Y-88884106D01*
X148862658Y-88884103D01*
X148688694Y-88849500D01*
X148688691Y-88849500D01*
X148511309Y-88849500D01*
X148511306Y-88849500D01*
X148337341Y-88884103D01*
X148337332Y-88884106D01*
X148173459Y-88951983D01*
X148173446Y-88951990D01*
X148025965Y-89050535D01*
X148025961Y-89050538D01*
X147900538Y-89175961D01*
X147900535Y-89175965D01*
X147801990Y-89323446D01*
X147801983Y-89323459D01*
X147734106Y-89487332D01*
X147734103Y-89487341D01*
X147699500Y-89661304D01*
X138269980Y-89661304D01*
X138270500Y-89658691D01*
X138270500Y-89481309D01*
X138270500Y-89481306D01*
X138270499Y-89481304D01*
X138235896Y-89307341D01*
X138235893Y-89307332D01*
X138222114Y-89274067D01*
X138179631Y-89171501D01*
X138168016Y-89143459D01*
X138168009Y-89143446D01*
X138069464Y-88995965D01*
X138069461Y-88995961D01*
X137944038Y-88870538D01*
X137944034Y-88870535D01*
X137796553Y-88771990D01*
X137796540Y-88771983D01*
X137632667Y-88704106D01*
X137632658Y-88704103D01*
X137458694Y-88669500D01*
X137458691Y-88669500D01*
X137281309Y-88669500D01*
X137281306Y-88669500D01*
X137107341Y-88704103D01*
X137107332Y-88704106D01*
X136943459Y-88771983D01*
X136943446Y-88771990D01*
X136795965Y-88870535D01*
X136795961Y-88870538D01*
X136670538Y-88995961D01*
X136670535Y-88995965D01*
X136571990Y-89143446D01*
X136571983Y-89143459D01*
X136504106Y-89307332D01*
X136504103Y-89307341D01*
X136469500Y-89481304D01*
X120979500Y-89481304D01*
X120979500Y-87538576D01*
X123169499Y-87538576D01*
X123196418Y-87673903D01*
X123196421Y-87673913D01*
X123249221Y-87801385D01*
X123249228Y-87801398D01*
X123325885Y-87916122D01*
X123325888Y-87916126D01*
X123423454Y-88013692D01*
X123423458Y-88013695D01*
X123538182Y-88090352D01*
X123538195Y-88090359D01*
X123665667Y-88143159D01*
X123665672Y-88143161D01*
X123665676Y-88143161D01*
X123665677Y-88143162D01*
X123801004Y-88170081D01*
X123801007Y-88170081D01*
X123938995Y-88170081D01*
X124030041Y-88151970D01*
X124074328Y-88143161D01*
X124201811Y-88090356D01*
X124275448Y-88041153D01*
X141469500Y-88041153D01*
X141469500Y-88198846D01*
X141500261Y-88353489D01*
X141500264Y-88353501D01*
X141560602Y-88499172D01*
X141560609Y-88499185D01*
X141648210Y-88630288D01*
X141648213Y-88630292D01*
X141759707Y-88741786D01*
X141759711Y-88741789D01*
X141890814Y-88829390D01*
X141890827Y-88829397D01*
X141990147Y-88870536D01*
X142036503Y-88889737D01*
X142191153Y-88920499D01*
X142191156Y-88920500D01*
X142191158Y-88920500D01*
X142348844Y-88920500D01*
X142348845Y-88920499D01*
X142503497Y-88889737D01*
X142649179Y-88829394D01*
X142780289Y-88741789D01*
X142891789Y-88630289D01*
X142979394Y-88499179D01*
X143039737Y-88353497D01*
X143070500Y-88198842D01*
X143070500Y-88041158D01*
X143070500Y-88041155D01*
X143070499Y-88041153D01*
X143063486Y-88005896D01*
X143039737Y-87886503D01*
X142983736Y-87751304D01*
X152339500Y-87751304D01*
X152339500Y-87928695D01*
X152374103Y-88102658D01*
X152374106Y-88102667D01*
X152441983Y-88266540D01*
X152441990Y-88266553D01*
X152540535Y-88414034D01*
X152540538Y-88414038D01*
X152665961Y-88539461D01*
X152665965Y-88539464D01*
X152813446Y-88638009D01*
X152813459Y-88638016D01*
X152862568Y-88658357D01*
X152977334Y-88705894D01*
X152977336Y-88705894D01*
X152977341Y-88705896D01*
X153151304Y-88740499D01*
X153151307Y-88740500D01*
X153151309Y-88740500D01*
X153328693Y-88740500D01*
X153328694Y-88740499D01*
X153386682Y-88728964D01*
X153502658Y-88705896D01*
X153502661Y-88705894D01*
X153502666Y-88705894D01*
X153666547Y-88638013D01*
X153814035Y-88539464D01*
X153939464Y-88414035D01*
X154038013Y-88266547D01*
X154105894Y-88102666D01*
X154108344Y-88090352D01*
X154128964Y-87986682D01*
X154140500Y-87928691D01*
X154140500Y-87751309D01*
X154140500Y-87751306D01*
X154140499Y-87751304D01*
X154105896Y-87577341D01*
X154105893Y-87577332D01*
X154038016Y-87413459D01*
X154038009Y-87413446D01*
X153939464Y-87265965D01*
X153939461Y-87265961D01*
X153814038Y-87140538D01*
X153814035Y-87140536D01*
X153680492Y-87051304D01*
X157569500Y-87051304D01*
X157569500Y-87228695D01*
X157604103Y-87402658D01*
X157604106Y-87402667D01*
X157671983Y-87566540D01*
X157671990Y-87566553D01*
X157770535Y-87714034D01*
X157770538Y-87714038D01*
X157895961Y-87839461D01*
X157895965Y-87839464D01*
X158043446Y-87938009D01*
X158043459Y-87938016D01*
X158166363Y-87988923D01*
X158207334Y-88005894D01*
X158207336Y-88005894D01*
X158207341Y-88005896D01*
X158381304Y-88040499D01*
X158381307Y-88040500D01*
X158381309Y-88040500D01*
X158558693Y-88040500D01*
X158558694Y-88040499D01*
X158616682Y-88028964D01*
X158732658Y-88005896D01*
X158732661Y-88005894D01*
X158732666Y-88005894D01*
X158896547Y-87938013D01*
X159044035Y-87839464D01*
X159169464Y-87714035D01*
X159268013Y-87566547D01*
X159335894Y-87402666D01*
X159336308Y-87400588D01*
X159370499Y-87228695D01*
X159370500Y-87228693D01*
X159370500Y-87051306D01*
X159370499Y-87051304D01*
X159335896Y-86877341D01*
X159335893Y-86877332D01*
X159268016Y-86713459D01*
X159268009Y-86713446D01*
X159169464Y-86565965D01*
X159169461Y-86565961D01*
X159044038Y-86440538D01*
X159044034Y-86440535D01*
X158896553Y-86341990D01*
X158896540Y-86341983D01*
X158732667Y-86274106D01*
X158732658Y-86274103D01*
X158558694Y-86239500D01*
X158558691Y-86239500D01*
X158381309Y-86239500D01*
X158381306Y-86239500D01*
X158207341Y-86274103D01*
X158207332Y-86274106D01*
X158043459Y-86341983D01*
X158043446Y-86341990D01*
X157895965Y-86440535D01*
X157895961Y-86440538D01*
X157770538Y-86565961D01*
X157770535Y-86565965D01*
X157671990Y-86713446D01*
X157671983Y-86713459D01*
X157604106Y-86877332D01*
X157604103Y-86877341D01*
X157569500Y-87051304D01*
X153680492Y-87051304D01*
X153666553Y-87041990D01*
X153666540Y-87041983D01*
X153502667Y-86974106D01*
X153502658Y-86974103D01*
X153328694Y-86939500D01*
X153328691Y-86939500D01*
X153151309Y-86939500D01*
X153151306Y-86939500D01*
X152977341Y-86974103D01*
X152977332Y-86974106D01*
X152813459Y-87041983D01*
X152813446Y-87041990D01*
X152665965Y-87140535D01*
X152665961Y-87140538D01*
X152540538Y-87265961D01*
X152540535Y-87265965D01*
X152441990Y-87413446D01*
X152441983Y-87413459D01*
X152374106Y-87577332D01*
X152374103Y-87577341D01*
X152339500Y-87751304D01*
X142983736Y-87751304D01*
X142979394Y-87740821D01*
X142979390Y-87740814D01*
X142891789Y-87609711D01*
X142891786Y-87609707D01*
X142780292Y-87498213D01*
X142780288Y-87498210D01*
X142649185Y-87410609D01*
X142649172Y-87410602D01*
X142503501Y-87350264D01*
X142503489Y-87350261D01*
X142348845Y-87319500D01*
X142348842Y-87319500D01*
X142191158Y-87319500D01*
X142191155Y-87319500D01*
X142036510Y-87350261D01*
X142036498Y-87350264D01*
X141890827Y-87410602D01*
X141890814Y-87410609D01*
X141759711Y-87498210D01*
X141759707Y-87498213D01*
X141648213Y-87609707D01*
X141648210Y-87609711D01*
X141560609Y-87740814D01*
X141560602Y-87740827D01*
X141500264Y-87886498D01*
X141500261Y-87886510D01*
X141469500Y-88041153D01*
X124275448Y-88041153D01*
X124316542Y-88013695D01*
X124324344Y-88005893D01*
X124382853Y-87947385D01*
X124414111Y-87916126D01*
X124414114Y-87916123D01*
X124490775Y-87801392D01*
X124543580Y-87673909D01*
X124562790Y-87577334D01*
X124570500Y-87538576D01*
X124570500Y-87400585D01*
X124543581Y-87265258D01*
X124543580Y-87265257D01*
X124543580Y-87265253D01*
X124528437Y-87228695D01*
X124490778Y-87137776D01*
X124490771Y-87137763D01*
X124414114Y-87023039D01*
X124414111Y-87023035D01*
X124316545Y-86925469D01*
X124316541Y-86925466D01*
X124201817Y-86848809D01*
X124201804Y-86848802D01*
X124074332Y-86796002D01*
X124074322Y-86795999D01*
X123938995Y-86769081D01*
X123938993Y-86769081D01*
X123801007Y-86769081D01*
X123801005Y-86769081D01*
X123665677Y-86795999D01*
X123665667Y-86796002D01*
X123538195Y-86848802D01*
X123538182Y-86848809D01*
X123423458Y-86925466D01*
X123423454Y-86925469D01*
X123325888Y-87023035D01*
X123325885Y-87023039D01*
X123249228Y-87137763D01*
X123249221Y-87137776D01*
X123196421Y-87265248D01*
X123196418Y-87265258D01*
X123169500Y-87400585D01*
X123169500Y-87400588D01*
X123169500Y-87538574D01*
X123169500Y-87538576D01*
X123169499Y-87538576D01*
X120979500Y-87538576D01*
X120979500Y-86131304D01*
X147769500Y-86131304D01*
X147769500Y-86308695D01*
X147804103Y-86482658D01*
X147804106Y-86482667D01*
X147871983Y-86646540D01*
X147871990Y-86646553D01*
X147970535Y-86794034D01*
X147970538Y-86794038D01*
X148095961Y-86919461D01*
X148095965Y-86919464D01*
X148243446Y-87018009D01*
X148243459Y-87018016D01*
X148366363Y-87068923D01*
X148407334Y-87085894D01*
X148407336Y-87085894D01*
X148407341Y-87085896D01*
X148581304Y-87120499D01*
X148581307Y-87120500D01*
X148581309Y-87120500D01*
X148758693Y-87120500D01*
X148758694Y-87120499D01*
X148816682Y-87108964D01*
X148932658Y-87085896D01*
X148932661Y-87085894D01*
X148932666Y-87085894D01*
X149096547Y-87018013D01*
X149244035Y-86919464D01*
X149369464Y-86794035D01*
X149468013Y-86646547D01*
X149535894Y-86482666D01*
X149544275Y-86440535D01*
X149570499Y-86308695D01*
X149570500Y-86308693D01*
X149570500Y-86131306D01*
X149570499Y-86131304D01*
X149535896Y-85957341D01*
X149535893Y-85957332D01*
X149468016Y-85793459D01*
X149468009Y-85793446D01*
X149369464Y-85645965D01*
X149369461Y-85645961D01*
X149244038Y-85520538D01*
X149244034Y-85520535D01*
X149096553Y-85421990D01*
X149096540Y-85421983D01*
X148932667Y-85354106D01*
X148932658Y-85354103D01*
X148758694Y-85319500D01*
X148758691Y-85319500D01*
X148581309Y-85319500D01*
X148581306Y-85319500D01*
X148407341Y-85354103D01*
X148407332Y-85354106D01*
X148243459Y-85421983D01*
X148243446Y-85421990D01*
X148095965Y-85520535D01*
X148095961Y-85520538D01*
X147970538Y-85645961D01*
X147970535Y-85645965D01*
X147871990Y-85793446D01*
X147871983Y-85793459D01*
X147804106Y-85957332D01*
X147804103Y-85957341D01*
X147769500Y-86131304D01*
X120979500Y-86131304D01*
X120979500Y-79472142D01*
X120979606Y-79467018D01*
X120980613Y-79442666D01*
X120986910Y-79290402D01*
X121424500Y-79290402D01*
X121424500Y-79709597D01*
X121461035Y-80127190D01*
X121461035Y-80127194D01*
X121533824Y-80539998D01*
X121533826Y-80540008D01*
X121535094Y-80544740D01*
X121642316Y-80944902D01*
X121642319Y-80944912D01*
X121642320Y-80944913D01*
X121785691Y-81338822D01*
X121785694Y-81338829D01*
X121785695Y-81338831D01*
X121785698Y-81338839D01*
X121962843Y-81718726D01*
X121962848Y-81718736D01*
X122172443Y-82081764D01*
X122172447Y-82081770D01*
X122172454Y-82081781D01*
X122412879Y-82425144D01*
X122607640Y-82657249D01*
X122682329Y-82746260D01*
X122978740Y-83042671D01*
X123112255Y-83154704D01*
X123299855Y-83312120D01*
X123643218Y-83552545D01*
X123643225Y-83552549D01*
X123643236Y-83552557D01*
X124006264Y-83762152D01*
X124006273Y-83762156D01*
X124386160Y-83939301D01*
X124386164Y-83939302D01*
X124386178Y-83939309D01*
X124780087Y-84082680D01*
X124780093Y-84082681D01*
X124780097Y-84082683D01*
X124890359Y-84112227D01*
X125184992Y-84191174D01*
X125597812Y-84263965D01*
X126015404Y-84300499D01*
X126015405Y-84300500D01*
X126015406Y-84300500D01*
X126434595Y-84300500D01*
X126434595Y-84300499D01*
X126852188Y-84263965D01*
X127265008Y-84191174D01*
X127669913Y-84082680D01*
X128063822Y-83939309D01*
X128443736Y-83762152D01*
X128806764Y-83552557D01*
X129150143Y-83312121D01*
X129471260Y-83042671D01*
X129767671Y-82746260D01*
X130037121Y-82425143D01*
X130277557Y-82081764D01*
X130487152Y-81718736D01*
X130664309Y-81338822D01*
X130807680Y-80944913D01*
X130916174Y-80540008D01*
X130988965Y-80127188D01*
X131025500Y-79709594D01*
X131025500Y-79668592D01*
X132423500Y-79668592D01*
X132423500Y-79831407D01*
X132455259Y-79991073D01*
X132455262Y-79991082D01*
X132517562Y-80141490D01*
X132517563Y-80141492D01*
X132608015Y-80276862D01*
X132608018Y-80276866D01*
X132723133Y-80391981D01*
X132723137Y-80391984D01*
X132858505Y-80482435D01*
X132858506Y-80482435D01*
X132858507Y-80482436D01*
X132858509Y-80482437D01*
X132958781Y-80523970D01*
X133008919Y-80544738D01*
X133008921Y-80544738D01*
X133008926Y-80544740D01*
X133168592Y-80576499D01*
X133168595Y-80576500D01*
X133168597Y-80576500D01*
X133331405Y-80576500D01*
X133331406Y-80576499D01*
X133384629Y-80565912D01*
X133491073Y-80544740D01*
X133491076Y-80544738D01*
X133491081Y-80544738D01*
X133641495Y-80482435D01*
X133776863Y-80391984D01*
X133891984Y-80276863D01*
X133982435Y-80141495D01*
X134044738Y-79991081D01*
X134047338Y-79978013D01*
X134076499Y-79831407D01*
X134076500Y-79831405D01*
X134076500Y-79668594D01*
X134076499Y-79668592D01*
X134044740Y-79508926D01*
X134044737Y-79508917D01*
X133982437Y-79358509D01*
X133982436Y-79358507D01*
X133936931Y-79290405D01*
X133891984Y-79223137D01*
X133891981Y-79223133D01*
X133776866Y-79108018D01*
X133776862Y-79108015D01*
X133751852Y-79091304D01*
X135889500Y-79091304D01*
X135889500Y-79268695D01*
X135924103Y-79442658D01*
X135924106Y-79442667D01*
X135991983Y-79606540D01*
X135991990Y-79606553D01*
X136090535Y-79754034D01*
X136090538Y-79754038D01*
X136215961Y-79879461D01*
X136215965Y-79879464D01*
X136363446Y-79978009D01*
X136363459Y-79978016D01*
X136401122Y-79993616D01*
X136527334Y-80045894D01*
X136527336Y-80045894D01*
X136527341Y-80045896D01*
X136701304Y-80080499D01*
X136701307Y-80080500D01*
X136866251Y-80080500D01*
X136933290Y-80100185D01*
X136979045Y-80152989D01*
X136988989Y-80222147D01*
X136987868Y-80228691D01*
X136959500Y-80371304D01*
X136959500Y-80548695D01*
X136994103Y-80722658D01*
X136994106Y-80722667D01*
X137061983Y-80886540D01*
X137061990Y-80886553D01*
X137160535Y-81034034D01*
X137160538Y-81034038D01*
X137285961Y-81159461D01*
X137285965Y-81159464D01*
X137433446Y-81258009D01*
X137433459Y-81258016D01*
X137556363Y-81308923D01*
X137597334Y-81325894D01*
X137597336Y-81325894D01*
X137597341Y-81325896D01*
X137771304Y-81360499D01*
X137771307Y-81360500D01*
X137771309Y-81360500D01*
X137948693Y-81360500D01*
X137948694Y-81360499D01*
X138057588Y-81338839D01*
X138122658Y-81325896D01*
X138122661Y-81325894D01*
X138122666Y-81325894D01*
X138286547Y-81258013D01*
X138434035Y-81159464D01*
X138559464Y-81034035D01*
X138658013Y-80886547D01*
X138725894Y-80722666D01*
X138760500Y-80548691D01*
X138760500Y-80421286D01*
X138780185Y-80354247D01*
X138832989Y-80308492D01*
X138902147Y-80298548D01*
X138908692Y-80299669D01*
X139011306Y-80320081D01*
X139011309Y-80320081D01*
X139188693Y-80320081D01*
X139188694Y-80320080D01*
X139246952Y-80308492D01*
X139362658Y-80285477D01*
X139362661Y-80285475D01*
X139362666Y-80285475D01*
X139526547Y-80217594D01*
X139632296Y-80146933D01*
X139656109Y-80131023D01*
X139722786Y-80110145D01*
X139790166Y-80128629D01*
X139793891Y-80131023D01*
X139826765Y-80152989D01*
X139923453Y-80217594D01*
X139923455Y-80217595D01*
X139923459Y-80217597D01*
X139984994Y-80243085D01*
X140087334Y-80285475D01*
X140087336Y-80285475D01*
X140087341Y-80285477D01*
X140261304Y-80320080D01*
X140261307Y-80320081D01*
X140261309Y-80320081D01*
X140438693Y-80320081D01*
X140438694Y-80320080D01*
X140496952Y-80308492D01*
X140612658Y-80285477D01*
X140612661Y-80285475D01*
X140612666Y-80285475D01*
X140776547Y-80217594D01*
X140834298Y-80179005D01*
X140900970Y-80158128D01*
X140967336Y-80175991D01*
X141110604Y-80262600D01*
X141110603Y-80262600D01*
X141224999Y-80298247D01*
X141225000Y-80298247D01*
X141975000Y-80298247D01*
X142089395Y-80262600D01*
X142234877Y-80174653D01*
X142355072Y-80054458D01*
X142443019Y-79908976D01*
X142493590Y-79746687D01*
X142500000Y-79676153D01*
X142500000Y-79668592D01*
X156673500Y-79668592D01*
X156673500Y-79831407D01*
X156705259Y-79991073D01*
X156705262Y-79991082D01*
X156767562Y-80141490D01*
X156767563Y-80141492D01*
X156858015Y-80276862D01*
X156858018Y-80276866D01*
X156973133Y-80391981D01*
X156973137Y-80391984D01*
X157108505Y-80482435D01*
X157108506Y-80482435D01*
X157108507Y-80482436D01*
X157108509Y-80482437D01*
X157208781Y-80523970D01*
X157258919Y-80544738D01*
X157258921Y-80544738D01*
X157258926Y-80544740D01*
X157418592Y-80576499D01*
X157418595Y-80576500D01*
X157418597Y-80576500D01*
X157581405Y-80576500D01*
X157581406Y-80576499D01*
X157634629Y-80565912D01*
X157741073Y-80544740D01*
X157741076Y-80544738D01*
X157741081Y-80544738D01*
X157891495Y-80482435D01*
X158026863Y-80391984D01*
X158141984Y-80276863D01*
X158232435Y-80141495D01*
X158294738Y-79991081D01*
X158297338Y-79978013D01*
X158326499Y-79831407D01*
X158326500Y-79831405D01*
X158326500Y-79668594D01*
X158326499Y-79668592D01*
X158294740Y-79508926D01*
X158294737Y-79508917D01*
X158232437Y-79358509D01*
X158232435Y-79358506D01*
X158232435Y-79358505D01*
X158186930Y-79290402D01*
X159674500Y-79290402D01*
X159674500Y-79709597D01*
X159711035Y-80127190D01*
X159711035Y-80127194D01*
X159783824Y-80539998D01*
X159783826Y-80540008D01*
X159785094Y-80544740D01*
X159892316Y-80944902D01*
X159892319Y-80944912D01*
X159892320Y-80944913D01*
X160035691Y-81338822D01*
X160035694Y-81338829D01*
X160035695Y-81338831D01*
X160035698Y-81338839D01*
X160212843Y-81718726D01*
X160212848Y-81718736D01*
X160422443Y-82081764D01*
X160422447Y-82081770D01*
X160422454Y-82081781D01*
X160662879Y-82425144D01*
X160857640Y-82657249D01*
X160932329Y-82746260D01*
X161228740Y-83042671D01*
X161362255Y-83154704D01*
X161549855Y-83312120D01*
X161893218Y-83552545D01*
X161893225Y-83552549D01*
X161893236Y-83552557D01*
X162256264Y-83762152D01*
X162256273Y-83762156D01*
X162636160Y-83939301D01*
X162636164Y-83939302D01*
X162636178Y-83939309D01*
X163030087Y-84082680D01*
X163030093Y-84082681D01*
X163030097Y-84082683D01*
X163140359Y-84112227D01*
X163434992Y-84191174D01*
X163847812Y-84263965D01*
X164265404Y-84300499D01*
X164265405Y-84300500D01*
X164265406Y-84300500D01*
X164684595Y-84300500D01*
X164684595Y-84300499D01*
X165102188Y-84263965D01*
X165515008Y-84191174D01*
X165919913Y-84082680D01*
X166313822Y-83939309D01*
X166693736Y-83762152D01*
X167056764Y-83552557D01*
X167400143Y-83312121D01*
X167721260Y-83042671D01*
X168017671Y-82746260D01*
X168287121Y-82425143D01*
X168527557Y-82081764D01*
X168737152Y-81718736D01*
X168914309Y-81338822D01*
X169057680Y-80944913D01*
X169166174Y-80540008D01*
X169238965Y-80127188D01*
X169275500Y-79709594D01*
X169275500Y-79290406D01*
X169238965Y-78872812D01*
X169166174Y-78459992D01*
X169075493Y-78121565D01*
X169057683Y-78055097D01*
X169057681Y-78055093D01*
X169057680Y-78055087D01*
X168914309Y-77661178D01*
X168907853Y-77647334D01*
X168772877Y-77357877D01*
X168737152Y-77281264D01*
X168527557Y-76918236D01*
X168527549Y-76918225D01*
X168527545Y-76918218D01*
X168287120Y-76574855D01*
X168017668Y-76253737D01*
X167721262Y-75957331D01*
X167400144Y-75687879D01*
X167056781Y-75447454D01*
X167056770Y-75447447D01*
X167056764Y-75447443D01*
X166848434Y-75327163D01*
X166693742Y-75237851D01*
X166693726Y-75237843D01*
X166313839Y-75060698D01*
X166313831Y-75060695D01*
X166313829Y-75060694D01*
X166313822Y-75060691D01*
X165919913Y-74917320D01*
X165919912Y-74917319D01*
X165919902Y-74917316D01*
X165515015Y-74808828D01*
X165515018Y-74808828D01*
X165515008Y-74808826D01*
X165515002Y-74808824D01*
X165514998Y-74808824D01*
X165102192Y-74736035D01*
X164684597Y-74699500D01*
X164684594Y-74699500D01*
X164265406Y-74699500D01*
X164265402Y-74699500D01*
X163847809Y-74736035D01*
X163847805Y-74736035D01*
X163435001Y-74808824D01*
X163434984Y-74808828D01*
X163030097Y-74917316D01*
X162833132Y-74989005D01*
X162636178Y-75060691D01*
X162636174Y-75060692D01*
X162636168Y-75060695D01*
X162636160Y-75060698D01*
X162256273Y-75237843D01*
X162256257Y-75237851D01*
X161893244Y-75447438D01*
X161893218Y-75447454D01*
X161549855Y-75687879D01*
X161228737Y-75957331D01*
X160932331Y-76253737D01*
X160662879Y-76574855D01*
X160422454Y-76918218D01*
X160422438Y-76918244D01*
X160212851Y-77281257D01*
X160212843Y-77281273D01*
X160035698Y-77661160D01*
X160035695Y-77661168D01*
X159892316Y-78055097D01*
X159783828Y-78459984D01*
X159783824Y-78460001D01*
X159711035Y-78872805D01*
X159711035Y-78872809D01*
X159674500Y-79290402D01*
X158186930Y-79290402D01*
X158141984Y-79223137D01*
X158141981Y-79223133D01*
X158026866Y-79108018D01*
X158026862Y-79108015D01*
X157891492Y-79017563D01*
X157891490Y-79017562D01*
X157741082Y-78955262D01*
X157741073Y-78955259D01*
X157581406Y-78923500D01*
X157581403Y-78923500D01*
X157418597Y-78923500D01*
X157418594Y-78923500D01*
X157258926Y-78955259D01*
X157258917Y-78955262D01*
X157108509Y-79017562D01*
X157108507Y-79017563D01*
X156973137Y-79108015D01*
X156973133Y-79108018D01*
X156858018Y-79223133D01*
X156858015Y-79223137D01*
X156767563Y-79358507D01*
X156767562Y-79358509D01*
X156705262Y-79508917D01*
X156705259Y-79508926D01*
X156673500Y-79668592D01*
X142500000Y-79668592D01*
X142500000Y-79544581D01*
X141975000Y-79544581D01*
X141975000Y-80298247D01*
X141225000Y-80298247D01*
X141225000Y-79648679D01*
X141226635Y-79628608D01*
X141226971Y-79626559D01*
X141250500Y-79508272D01*
X141250500Y-79119853D01*
X141350000Y-79119853D01*
X141350000Y-79219309D01*
X141388060Y-79311195D01*
X141458386Y-79381521D01*
X141550272Y-79419581D01*
X141649728Y-79419581D01*
X141741614Y-79381521D01*
X141811940Y-79311195D01*
X141850000Y-79219309D01*
X141850000Y-79119853D01*
X141811940Y-79027967D01*
X141741614Y-78957641D01*
X141649728Y-78919581D01*
X141550272Y-78919581D01*
X141458386Y-78957641D01*
X141388060Y-79027967D01*
X141350000Y-79119853D01*
X141250500Y-79119853D01*
X141250500Y-78830890D01*
X141250500Y-78830887D01*
X141243278Y-78794581D01*
X141975000Y-78794581D01*
X142499999Y-78794581D01*
X142499999Y-78662998D01*
X142493591Y-78592478D01*
X142493590Y-78592473D01*
X142443018Y-78430184D01*
X142355072Y-78284703D01*
X142234877Y-78164508D01*
X142089396Y-78076562D01*
X142089394Y-78076561D01*
X141975000Y-78040913D01*
X141975000Y-78794581D01*
X141243278Y-78794581D01*
X141227383Y-78714673D01*
X141225000Y-78690481D01*
X141225000Y-78040914D01*
X141224999Y-78040913D01*
X141110605Y-78076561D01*
X141110598Y-78076564D01*
X140967334Y-78163169D01*
X140899779Y-78181005D01*
X140834295Y-78160154D01*
X140776547Y-78121568D01*
X140776544Y-78121566D01*
X140776543Y-78121566D01*
X140776542Y-78121565D01*
X140612667Y-78053687D01*
X140612658Y-78053684D01*
X140438694Y-78019081D01*
X140438691Y-78019081D01*
X140261309Y-78019081D01*
X140261306Y-78019081D01*
X140087341Y-78053684D01*
X140087332Y-78053687D01*
X139923459Y-78121564D01*
X139923446Y-78121571D01*
X139793891Y-78208138D01*
X139727213Y-78229016D01*
X139659833Y-78210531D01*
X139656109Y-78208138D01*
X139526553Y-78121571D01*
X139526540Y-78121564D01*
X139362667Y-78053687D01*
X139362658Y-78053684D01*
X139188694Y-78019081D01*
X139188691Y-78019081D01*
X139011309Y-78019081D01*
X139011304Y-78019081D01*
X138918691Y-78037503D01*
X138849099Y-78031276D01*
X138793922Y-77988413D01*
X138770678Y-77922523D01*
X138770500Y-77915886D01*
X138770500Y-77821306D01*
X138770499Y-77821304D01*
X138735896Y-77647341D01*
X138735893Y-77647332D01*
X138668016Y-77483459D01*
X138668009Y-77483446D01*
X138569464Y-77335965D01*
X138569461Y-77335961D01*
X138444038Y-77210538D01*
X138444034Y-77210535D01*
X138296553Y-77111990D01*
X138296540Y-77111983D01*
X138132667Y-77044106D01*
X138132658Y-77044103D01*
X137958694Y-77009500D01*
X137958691Y-77009500D01*
X137781309Y-77009500D01*
X137781306Y-77009500D01*
X137607341Y-77044103D01*
X137607332Y-77044106D01*
X137443459Y-77111983D01*
X137443446Y-77111990D01*
X137295965Y-77210535D01*
X137295961Y-77210538D01*
X137170538Y-77335961D01*
X137170535Y-77335965D01*
X137071990Y-77483446D01*
X137071983Y-77483459D01*
X137004106Y-77647332D01*
X137004103Y-77647341D01*
X136969500Y-77821304D01*
X136969500Y-77998695D01*
X136995879Y-78131309D01*
X136989652Y-78200900D01*
X136946789Y-78256077D01*
X136880899Y-78279322D01*
X136874262Y-78279500D01*
X136701306Y-78279500D01*
X136527341Y-78314103D01*
X136527332Y-78314106D01*
X136363459Y-78381983D01*
X136363446Y-78381990D01*
X136215965Y-78480535D01*
X136215961Y-78480538D01*
X136090538Y-78605961D01*
X136090535Y-78605965D01*
X135991990Y-78753446D01*
X135991983Y-78753459D01*
X135924106Y-78917332D01*
X135924103Y-78917341D01*
X135889500Y-79091304D01*
X133751852Y-79091304D01*
X133641492Y-79017563D01*
X133641490Y-79017562D01*
X133491082Y-78955262D01*
X133491073Y-78955259D01*
X133331406Y-78923500D01*
X133331403Y-78923500D01*
X133168597Y-78923500D01*
X133168594Y-78923500D01*
X133008926Y-78955259D01*
X133008917Y-78955262D01*
X132858509Y-79017562D01*
X132858507Y-79017563D01*
X132723137Y-79108015D01*
X132723133Y-79108018D01*
X132608018Y-79223133D01*
X132608015Y-79223137D01*
X132517563Y-79358507D01*
X132517562Y-79358509D01*
X132455262Y-79508917D01*
X132455259Y-79508926D01*
X132423500Y-79668592D01*
X131025500Y-79668592D01*
X131025500Y-79290406D01*
X130988965Y-78872812D01*
X130916174Y-78459992D01*
X130825493Y-78121565D01*
X130807683Y-78055097D01*
X130807681Y-78055093D01*
X130807680Y-78055087D01*
X130664309Y-77661178D01*
X130657853Y-77647334D01*
X130522877Y-77357877D01*
X130487152Y-77281264D01*
X130277557Y-76918236D01*
X130277549Y-76918225D01*
X130277545Y-76918218D01*
X130037120Y-76574855D01*
X129767668Y-76253737D01*
X129471262Y-75957331D01*
X129150144Y-75687879D01*
X128806781Y-75447454D01*
X128806770Y-75447447D01*
X128806764Y-75447443D01*
X128598434Y-75327163D01*
X128443742Y-75237851D01*
X128443726Y-75237843D01*
X128063839Y-75060698D01*
X128063831Y-75060695D01*
X128063829Y-75060694D01*
X128063822Y-75060691D01*
X127669913Y-74917320D01*
X127669912Y-74917319D01*
X127669902Y-74917316D01*
X127265015Y-74808828D01*
X127265018Y-74808828D01*
X127265008Y-74808826D01*
X127265002Y-74808824D01*
X127264998Y-74808824D01*
X126852192Y-74736035D01*
X126434597Y-74699500D01*
X126434594Y-74699500D01*
X126015406Y-74699500D01*
X126015402Y-74699500D01*
X125597809Y-74736035D01*
X125597805Y-74736035D01*
X125185001Y-74808824D01*
X125184984Y-74808828D01*
X124780097Y-74917316D01*
X124583132Y-74989005D01*
X124386178Y-75060691D01*
X124386174Y-75060692D01*
X124386168Y-75060695D01*
X124386160Y-75060698D01*
X124006273Y-75237843D01*
X124006257Y-75237851D01*
X123643244Y-75447438D01*
X123643218Y-75447454D01*
X123299855Y-75687879D01*
X122978737Y-75957331D01*
X122682331Y-76253737D01*
X122412879Y-76574855D01*
X122172454Y-76918218D01*
X122172438Y-76918244D01*
X121962851Y-77281257D01*
X121962843Y-77281273D01*
X121785698Y-77661160D01*
X121785695Y-77661168D01*
X121642316Y-78055097D01*
X121533828Y-78459984D01*
X121533824Y-78460001D01*
X121461035Y-78872805D01*
X121461035Y-78872809D01*
X121424500Y-79290402D01*
X120986910Y-79290402D01*
X120997204Y-79041517D01*
X120998047Y-79031348D01*
X121050410Y-78611269D01*
X121052090Y-78601197D01*
X121138962Y-78186885D01*
X121141469Y-78176989D01*
X121262259Y-77771260D01*
X121265574Y-77761608D01*
X121419449Y-77367258D01*
X121423565Y-77357877D01*
X121434279Y-77335961D01*
X121609467Y-76977609D01*
X121614340Y-76968603D01*
X121644348Y-76918244D01*
X121831030Y-76604951D01*
X121836623Y-76596391D01*
X122082595Y-76251885D01*
X122088863Y-76243831D01*
X122362456Y-75920802D01*
X122369375Y-75913286D01*
X122668705Y-75613956D01*
X122676221Y-75607037D01*
X122999250Y-75333444D01*
X123007304Y-75327176D01*
X123351810Y-75081204D01*
X123360370Y-75075611D01*
X123724030Y-74858916D01*
X123733028Y-74854048D01*
X124113299Y-74668144D01*
X124122681Y-74664029D01*
X124517027Y-74510155D01*
X124526679Y-74506840D01*
X124932408Y-74386050D01*
X124942304Y-74383543D01*
X125356616Y-74296671D01*
X125366688Y-74294991D01*
X125786767Y-74242628D01*
X125796936Y-74241785D01*
X126222437Y-74224186D01*
X126227561Y-74224081D01*
X126269875Y-74224081D01*
X164430125Y-74224081D01*
X164472439Y-74224081D01*
X164477562Y-74224186D01*
G37*
%TD.AperFunction*%
%TD*%
M02*
