%TF.GenerationSoftware,KiCad,Pcbnew,10.0.6*%
%TF.CreationDate,2026-09-30T17:50:58+03:00*%
%TF.ProjectId,STM32F4_REV2,53544d33-3246-4345-9f52-4556322e6b69,vSETP 2026*%
%TF.SameCoordinates,Original*%
%TF.FileFunction,Legend,Top*%
%TF.FilePolarity,Positive*%
%FSLAX46Y46*%
G04 Gerber Fmt 4.6, Leading zero omitted, Abs format (unit mm)*
G04 Created by KiCad (PCBNEW 10.0.6) date 2026-09-30 17:50:58*
%MOMM*%
%LPD*%
G01*
G04 APERTURE LIST*
%ADD10C,0.100000*%
%ADD11C,0.127000*%
%ADD12C,0.130000*%
%ADD13C,0.150000*%
%ADD14C,0.000000*%
%ADD15C,0.120000*%
%ADD16C,0.200000*%
G04 APERTURE END LIST*
D10*
X143950074Y-120546834D02*
X144035789Y-120575405D01*
X144035789Y-120575405D02*
X144178646Y-120575405D01*
X144178646Y-120575405D02*
X144235789Y-120546834D01*
X144235789Y-120546834D02*
X144264360Y-120518262D01*
X144264360Y-120518262D02*
X144292931Y-120461119D01*
X144292931Y-120461119D02*
X144292931Y-120403976D01*
X144292931Y-120403976D02*
X144264360Y-120346834D01*
X144264360Y-120346834D02*
X144235789Y-120318262D01*
X144235789Y-120318262D02*
X144178646Y-120289691D01*
X144178646Y-120289691D02*
X144064360Y-120261119D01*
X144064360Y-120261119D02*
X144007217Y-120232548D01*
X144007217Y-120232548D02*
X143978646Y-120203976D01*
X143978646Y-120203976D02*
X143950074Y-120146834D01*
X143950074Y-120146834D02*
X143950074Y-120089691D01*
X143950074Y-120089691D02*
X143978646Y-120032548D01*
X143978646Y-120032548D02*
X144007217Y-120003976D01*
X144007217Y-120003976D02*
X144064360Y-119975405D01*
X144064360Y-119975405D02*
X144207217Y-119975405D01*
X144207217Y-119975405D02*
X144292931Y-120003976D01*
X144464360Y-119975405D02*
X144807218Y-119975405D01*
X144635789Y-120575405D02*
X144635789Y-119975405D01*
X145007218Y-120575405D02*
X145007218Y-119975405D01*
X145007218Y-119975405D02*
X145207218Y-120403976D01*
X145207218Y-120403976D02*
X145407218Y-119975405D01*
X145407218Y-119975405D02*
X145407218Y-120575405D01*
X145635789Y-119975405D02*
X146007217Y-119975405D01*
X146007217Y-119975405D02*
X145807217Y-120203976D01*
X145807217Y-120203976D02*
X145892932Y-120203976D01*
X145892932Y-120203976D02*
X145950075Y-120232548D01*
X145950075Y-120232548D02*
X145978646Y-120261119D01*
X145978646Y-120261119D02*
X146007217Y-120318262D01*
X146007217Y-120318262D02*
X146007217Y-120461119D01*
X146007217Y-120461119D02*
X145978646Y-120518262D01*
X145978646Y-120518262D02*
X145950075Y-120546834D01*
X145950075Y-120546834D02*
X145892932Y-120575405D01*
X145892932Y-120575405D02*
X145721503Y-120575405D01*
X145721503Y-120575405D02*
X145664360Y-120546834D01*
X145664360Y-120546834D02*
X145635789Y-120518262D01*
X146235789Y-120032548D02*
X146264361Y-120003976D01*
X146264361Y-120003976D02*
X146321504Y-119975405D01*
X146321504Y-119975405D02*
X146464361Y-119975405D01*
X146464361Y-119975405D02*
X146521504Y-120003976D01*
X146521504Y-120003976D02*
X146550075Y-120032548D01*
X146550075Y-120032548D02*
X146578646Y-120089691D01*
X146578646Y-120089691D02*
X146578646Y-120146834D01*
X146578646Y-120146834D02*
X146550075Y-120232548D01*
X146550075Y-120232548D02*
X146207218Y-120575405D01*
X146207218Y-120575405D02*
X146578646Y-120575405D01*
X147035790Y-120261119D02*
X146835790Y-120261119D01*
X146835790Y-120575405D02*
X146835790Y-119975405D01*
X146835790Y-119975405D02*
X147121504Y-119975405D01*
X147607219Y-120175405D02*
X147607219Y-120575405D01*
X147464361Y-119946834D02*
X147321504Y-120375405D01*
X147321504Y-120375405D02*
X147692933Y-120375405D01*
X148378648Y-120575405D02*
X148378648Y-119975405D01*
X148378648Y-119975405D02*
X148607219Y-119975405D01*
X148607219Y-119975405D02*
X148664362Y-120003976D01*
X148664362Y-120003976D02*
X148692933Y-120032548D01*
X148692933Y-120032548D02*
X148721505Y-120089691D01*
X148721505Y-120089691D02*
X148721505Y-120175405D01*
X148721505Y-120175405D02*
X148692933Y-120232548D01*
X148692933Y-120232548D02*
X148664362Y-120261119D01*
X148664362Y-120261119D02*
X148607219Y-120289691D01*
X148607219Y-120289691D02*
X148378648Y-120289691D01*
X148978648Y-120575405D02*
X148978648Y-120175405D01*
X148978648Y-120289691D02*
X149007219Y-120232548D01*
X149007219Y-120232548D02*
X149035791Y-120203976D01*
X149035791Y-120203976D02*
X149092933Y-120175405D01*
X149092933Y-120175405D02*
X149150076Y-120175405D01*
X149435791Y-120575405D02*
X149378648Y-120546834D01*
X149378648Y-120546834D02*
X149350077Y-120518262D01*
X149350077Y-120518262D02*
X149321505Y-120461119D01*
X149321505Y-120461119D02*
X149321505Y-120289691D01*
X149321505Y-120289691D02*
X149350077Y-120232548D01*
X149350077Y-120232548D02*
X149378648Y-120203976D01*
X149378648Y-120203976D02*
X149435791Y-120175405D01*
X149435791Y-120175405D02*
X149521505Y-120175405D01*
X149521505Y-120175405D02*
X149578648Y-120203976D01*
X149578648Y-120203976D02*
X149607220Y-120232548D01*
X149607220Y-120232548D02*
X149635791Y-120289691D01*
X149635791Y-120289691D02*
X149635791Y-120461119D01*
X149635791Y-120461119D02*
X149607220Y-120518262D01*
X149607220Y-120518262D02*
X149578648Y-120546834D01*
X149578648Y-120546834D02*
X149521505Y-120575405D01*
X149521505Y-120575405D02*
X149435791Y-120575405D01*
X149892934Y-120175405D02*
X149892934Y-120689691D01*
X149892934Y-120689691D02*
X149864362Y-120746834D01*
X149864362Y-120746834D02*
X149807219Y-120775405D01*
X149807219Y-120775405D02*
X149778648Y-120775405D01*
X149892934Y-119975405D02*
X149864362Y-120003976D01*
X149864362Y-120003976D02*
X149892934Y-120032548D01*
X149892934Y-120032548D02*
X149921505Y-120003976D01*
X149921505Y-120003976D02*
X149892934Y-119975405D01*
X149892934Y-119975405D02*
X149892934Y-120032548D01*
X150407219Y-120546834D02*
X150350076Y-120575405D01*
X150350076Y-120575405D02*
X150235791Y-120575405D01*
X150235791Y-120575405D02*
X150178648Y-120546834D01*
X150178648Y-120546834D02*
X150150076Y-120489691D01*
X150150076Y-120489691D02*
X150150076Y-120261119D01*
X150150076Y-120261119D02*
X150178648Y-120203976D01*
X150178648Y-120203976D02*
X150235791Y-120175405D01*
X150235791Y-120175405D02*
X150350076Y-120175405D01*
X150350076Y-120175405D02*
X150407219Y-120203976D01*
X150407219Y-120203976D02*
X150435791Y-120261119D01*
X150435791Y-120261119D02*
X150435791Y-120318262D01*
X150435791Y-120318262D02*
X150150076Y-120375405D01*
X150950077Y-120546834D02*
X150892934Y-120575405D01*
X150892934Y-120575405D02*
X150778648Y-120575405D01*
X150778648Y-120575405D02*
X150721505Y-120546834D01*
X150721505Y-120546834D02*
X150692934Y-120518262D01*
X150692934Y-120518262D02*
X150664362Y-120461119D01*
X150664362Y-120461119D02*
X150664362Y-120289691D01*
X150664362Y-120289691D02*
X150692934Y-120232548D01*
X150692934Y-120232548D02*
X150721505Y-120203976D01*
X150721505Y-120203976D02*
X150778648Y-120175405D01*
X150778648Y-120175405D02*
X150892934Y-120175405D01*
X150892934Y-120175405D02*
X150950077Y-120203976D01*
X151121505Y-120175405D02*
X151350077Y-120175405D01*
X151207220Y-119975405D02*
X151207220Y-120489691D01*
X151207220Y-120489691D02*
X151235791Y-120546834D01*
X151235791Y-120546834D02*
X151292934Y-120575405D01*
X151292934Y-120575405D02*
X151350077Y-120575405D01*
X152321505Y-120575405D02*
X151978648Y-120575405D01*
X152150077Y-120575405D02*
X152150077Y-119975405D01*
X152150077Y-119975405D02*
X152092934Y-120061119D01*
X152092934Y-120061119D02*
X152035791Y-120118262D01*
X152035791Y-120118262D02*
X151978648Y-120146834D01*
X153235792Y-120261119D02*
X153321506Y-120289691D01*
X153321506Y-120289691D02*
X153350077Y-120318262D01*
X153350077Y-120318262D02*
X153378649Y-120375405D01*
X153378649Y-120375405D02*
X153378649Y-120461119D01*
X153378649Y-120461119D02*
X153350077Y-120518262D01*
X153350077Y-120518262D02*
X153321506Y-120546834D01*
X153321506Y-120546834D02*
X153264363Y-120575405D01*
X153264363Y-120575405D02*
X153035792Y-120575405D01*
X153035792Y-120575405D02*
X153035792Y-119975405D01*
X153035792Y-119975405D02*
X153235792Y-119975405D01*
X153235792Y-119975405D02*
X153292935Y-120003976D01*
X153292935Y-120003976D02*
X153321506Y-120032548D01*
X153321506Y-120032548D02*
X153350077Y-120089691D01*
X153350077Y-120089691D02*
X153350077Y-120146834D01*
X153350077Y-120146834D02*
X153321506Y-120203976D01*
X153321506Y-120203976D02*
X153292935Y-120232548D01*
X153292935Y-120232548D02*
X153235792Y-120261119D01*
X153235792Y-120261119D02*
X153035792Y-120261119D01*
X153721506Y-120575405D02*
X153664363Y-120546834D01*
X153664363Y-120546834D02*
X153635792Y-120518262D01*
X153635792Y-120518262D02*
X153607220Y-120461119D01*
X153607220Y-120461119D02*
X153607220Y-120289691D01*
X153607220Y-120289691D02*
X153635792Y-120232548D01*
X153635792Y-120232548D02*
X153664363Y-120203976D01*
X153664363Y-120203976D02*
X153721506Y-120175405D01*
X153721506Y-120175405D02*
X153807220Y-120175405D01*
X153807220Y-120175405D02*
X153864363Y-120203976D01*
X153864363Y-120203976D02*
X153892935Y-120232548D01*
X153892935Y-120232548D02*
X153921506Y-120289691D01*
X153921506Y-120289691D02*
X153921506Y-120461119D01*
X153921506Y-120461119D02*
X153892935Y-120518262D01*
X153892935Y-120518262D02*
X153864363Y-120546834D01*
X153864363Y-120546834D02*
X153807220Y-120575405D01*
X153807220Y-120575405D02*
X153721506Y-120575405D01*
X154435792Y-120575405D02*
X154435792Y-120261119D01*
X154435792Y-120261119D02*
X154407220Y-120203976D01*
X154407220Y-120203976D02*
X154350077Y-120175405D01*
X154350077Y-120175405D02*
X154235792Y-120175405D01*
X154235792Y-120175405D02*
X154178649Y-120203976D01*
X154435792Y-120546834D02*
X154378649Y-120575405D01*
X154378649Y-120575405D02*
X154235792Y-120575405D01*
X154235792Y-120575405D02*
X154178649Y-120546834D01*
X154178649Y-120546834D02*
X154150077Y-120489691D01*
X154150077Y-120489691D02*
X154150077Y-120432548D01*
X154150077Y-120432548D02*
X154178649Y-120375405D01*
X154178649Y-120375405D02*
X154235792Y-120346834D01*
X154235792Y-120346834D02*
X154378649Y-120346834D01*
X154378649Y-120346834D02*
X154435792Y-120318262D01*
X154721506Y-120575405D02*
X154721506Y-120175405D01*
X154721506Y-120289691D02*
X154750077Y-120232548D01*
X154750077Y-120232548D02*
X154778649Y-120203976D01*
X154778649Y-120203976D02*
X154835791Y-120175405D01*
X154835791Y-120175405D02*
X154892934Y-120175405D01*
X155350078Y-120575405D02*
X155350078Y-119975405D01*
X155350078Y-120546834D02*
X155292935Y-120575405D01*
X155292935Y-120575405D02*
X155178649Y-120575405D01*
X155178649Y-120575405D02*
X155121506Y-120546834D01*
X155121506Y-120546834D02*
X155092935Y-120518262D01*
X155092935Y-120518262D02*
X155064363Y-120461119D01*
X155064363Y-120461119D02*
X155064363Y-120289691D01*
X155064363Y-120289691D02*
X155092935Y-120232548D01*
X155092935Y-120232548D02*
X155121506Y-120203976D01*
X155121506Y-120203976D02*
X155178649Y-120175405D01*
X155178649Y-120175405D02*
X155292935Y-120175405D01*
X155292935Y-120175405D02*
X155350078Y-120203976D01*
X156235792Y-120775405D02*
X156235792Y-119918262D01*
X157064364Y-120175405D02*
X157207221Y-120575405D01*
X157207221Y-120575405D02*
X157350078Y-120175405D01*
X157550078Y-120546834D02*
X157635793Y-120575405D01*
X157635793Y-120575405D02*
X157778650Y-120575405D01*
X157778650Y-120575405D02*
X157835793Y-120546834D01*
X157835793Y-120546834D02*
X157864364Y-120518262D01*
X157864364Y-120518262D02*
X157892935Y-120461119D01*
X157892935Y-120461119D02*
X157892935Y-120403976D01*
X157892935Y-120403976D02*
X157864364Y-120346834D01*
X157864364Y-120346834D02*
X157835793Y-120318262D01*
X157835793Y-120318262D02*
X157778650Y-120289691D01*
X157778650Y-120289691D02*
X157664364Y-120261119D01*
X157664364Y-120261119D02*
X157607221Y-120232548D01*
X157607221Y-120232548D02*
X157578650Y-120203976D01*
X157578650Y-120203976D02*
X157550078Y-120146834D01*
X157550078Y-120146834D02*
X157550078Y-120089691D01*
X157550078Y-120089691D02*
X157578650Y-120032548D01*
X157578650Y-120032548D02*
X157607221Y-120003976D01*
X157607221Y-120003976D02*
X157664364Y-119975405D01*
X157664364Y-119975405D02*
X157807221Y-119975405D01*
X157807221Y-119975405D02*
X157892935Y-120003976D01*
X158150079Y-120261119D02*
X158350079Y-120261119D01*
X158435793Y-120575405D02*
X158150079Y-120575405D01*
X158150079Y-120575405D02*
X158150079Y-119975405D01*
X158150079Y-119975405D02*
X158435793Y-119975405D01*
X158692936Y-120575405D02*
X158692936Y-119975405D01*
X158692936Y-119975405D02*
X158921507Y-119975405D01*
X158921507Y-119975405D02*
X158978650Y-120003976D01*
X158978650Y-120003976D02*
X159007221Y-120032548D01*
X159007221Y-120032548D02*
X159035793Y-120089691D01*
X159035793Y-120089691D02*
X159035793Y-120175405D01*
X159035793Y-120175405D02*
X159007221Y-120232548D01*
X159007221Y-120232548D02*
X158978650Y-120261119D01*
X158978650Y-120261119D02*
X158921507Y-120289691D01*
X158921507Y-120289691D02*
X158692936Y-120289691D01*
X159721507Y-120032548D02*
X159750079Y-120003976D01*
X159750079Y-120003976D02*
X159807222Y-119975405D01*
X159807222Y-119975405D02*
X159950079Y-119975405D01*
X159950079Y-119975405D02*
X160007222Y-120003976D01*
X160007222Y-120003976D02*
X160035793Y-120032548D01*
X160035793Y-120032548D02*
X160064364Y-120089691D01*
X160064364Y-120089691D02*
X160064364Y-120146834D01*
X160064364Y-120146834D02*
X160035793Y-120232548D01*
X160035793Y-120232548D02*
X159692936Y-120575405D01*
X159692936Y-120575405D02*
X160064364Y-120575405D01*
X160435793Y-119975405D02*
X160492936Y-119975405D01*
X160492936Y-119975405D02*
X160550079Y-120003976D01*
X160550079Y-120003976D02*
X160578651Y-120032548D01*
X160578651Y-120032548D02*
X160607222Y-120089691D01*
X160607222Y-120089691D02*
X160635793Y-120203976D01*
X160635793Y-120203976D02*
X160635793Y-120346834D01*
X160635793Y-120346834D02*
X160607222Y-120461119D01*
X160607222Y-120461119D02*
X160578651Y-120518262D01*
X160578651Y-120518262D02*
X160550079Y-120546834D01*
X160550079Y-120546834D02*
X160492936Y-120575405D01*
X160492936Y-120575405D02*
X160435793Y-120575405D01*
X160435793Y-120575405D02*
X160378651Y-120546834D01*
X160378651Y-120546834D02*
X160350079Y-120518262D01*
X160350079Y-120518262D02*
X160321508Y-120461119D01*
X160321508Y-120461119D02*
X160292936Y-120346834D01*
X160292936Y-120346834D02*
X160292936Y-120203976D01*
X160292936Y-120203976D02*
X160321508Y-120089691D01*
X160321508Y-120089691D02*
X160350079Y-120032548D01*
X160350079Y-120032548D02*
X160378651Y-120003976D01*
X160378651Y-120003976D02*
X160435793Y-119975405D01*
X160864365Y-120032548D02*
X160892937Y-120003976D01*
X160892937Y-120003976D02*
X160950080Y-119975405D01*
X160950080Y-119975405D02*
X161092937Y-119975405D01*
X161092937Y-119975405D02*
X161150080Y-120003976D01*
X161150080Y-120003976D02*
X161178651Y-120032548D01*
X161178651Y-120032548D02*
X161207222Y-120089691D01*
X161207222Y-120089691D02*
X161207222Y-120146834D01*
X161207222Y-120146834D02*
X161178651Y-120232548D01*
X161178651Y-120232548D02*
X160835794Y-120575405D01*
X160835794Y-120575405D02*
X161207222Y-120575405D01*
X161721509Y-119975405D02*
X161607223Y-119975405D01*
X161607223Y-119975405D02*
X161550080Y-120003976D01*
X161550080Y-120003976D02*
X161521509Y-120032548D01*
X161521509Y-120032548D02*
X161464366Y-120118262D01*
X161464366Y-120118262D02*
X161435794Y-120232548D01*
X161435794Y-120232548D02*
X161435794Y-120461119D01*
X161435794Y-120461119D02*
X161464366Y-120518262D01*
X161464366Y-120518262D02*
X161492937Y-120546834D01*
X161492937Y-120546834D02*
X161550080Y-120575405D01*
X161550080Y-120575405D02*
X161664366Y-120575405D01*
X161664366Y-120575405D02*
X161721509Y-120546834D01*
X161721509Y-120546834D02*
X161750080Y-120518262D01*
X161750080Y-120518262D02*
X161778651Y-120461119D01*
X161778651Y-120461119D02*
X161778651Y-120318262D01*
X161778651Y-120318262D02*
X161750080Y-120261119D01*
X161750080Y-120261119D02*
X161721509Y-120232548D01*
X161721509Y-120232548D02*
X161664366Y-120203976D01*
X161664366Y-120203976D02*
X161550080Y-120203976D01*
X161550080Y-120203976D02*
X161492937Y-120232548D01*
X161492937Y-120232548D02*
X161464366Y-120261119D01*
X161464366Y-120261119D02*
X161435794Y-120318262D01*
D11*
X127377571Y-93105911D02*
X127123571Y-92743054D01*
X126942142Y-93105911D02*
X126942142Y-92343911D01*
X126942142Y-92343911D02*
X127232428Y-92343911D01*
X127232428Y-92343911D02*
X127304999Y-92380197D01*
X127304999Y-92380197D02*
X127341285Y-92416483D01*
X127341285Y-92416483D02*
X127377571Y-92489054D01*
X127377571Y-92489054D02*
X127377571Y-92597911D01*
X127377571Y-92597911D02*
X127341285Y-92670483D01*
X127341285Y-92670483D02*
X127304999Y-92706768D01*
X127304999Y-92706768D02*
X127232428Y-92743054D01*
X127232428Y-92743054D02*
X126942142Y-92743054D01*
X127704142Y-92343911D02*
X127704142Y-92960768D01*
X127704142Y-92960768D02*
X127740428Y-93033340D01*
X127740428Y-93033340D02*
X127776714Y-93069626D01*
X127776714Y-93069626D02*
X127849285Y-93105911D01*
X127849285Y-93105911D02*
X127994428Y-93105911D01*
X127994428Y-93105911D02*
X128066999Y-93069626D01*
X128066999Y-93069626D02*
X128103285Y-93033340D01*
X128103285Y-93033340D02*
X128139571Y-92960768D01*
X128139571Y-92960768D02*
X128139571Y-92343911D01*
X128502428Y-93105911D02*
X128502428Y-92343911D01*
X128502428Y-92343911D02*
X128937857Y-93105911D01*
X128937857Y-93105911D02*
X128937857Y-92343911D01*
D10*
X133856265Y-105112133D02*
X134465789Y-105112133D01*
X134161027Y-105416895D02*
X134161027Y-104807371D01*
X137536265Y-118832133D02*
X138145789Y-118832133D01*
X137841027Y-119136895D02*
X137841027Y-118527371D01*
X137586265Y-76662133D02*
X138195789Y-76662133D01*
X141296265Y-76742133D02*
X141905789Y-76742133D01*
X141601027Y-77046895D02*
X141601027Y-76437371D01*
X141376265Y-118882133D02*
X141985789Y-118882133D01*
X155315789Y-83763561D02*
X154706265Y-83992133D01*
X154706265Y-83992133D02*
X155315789Y-84220704D01*
X157816265Y-96232133D02*
X158425789Y-96232133D01*
X158121027Y-96536895D02*
X158121027Y-95927371D01*
X159236265Y-84052133D02*
X159845789Y-84052133D01*
X159541027Y-84356895D02*
X159541027Y-83747371D01*
D12*
X146096002Y-106100573D02*
X146705526Y-106100573D01*
X146400764Y-106405335D02*
X146400764Y-105795811D01*
X148429335Y-78001525D02*
X148353145Y-77963430D01*
X148353145Y-77963430D02*
X148276954Y-77887240D01*
X148276954Y-77887240D02*
X148162668Y-77772954D01*
X148162668Y-77772954D02*
X148086478Y-77734859D01*
X148086478Y-77734859D02*
X148010287Y-77734859D01*
X148048383Y-77925335D02*
X147972192Y-77887240D01*
X147972192Y-77887240D02*
X147896002Y-77811049D01*
X147896002Y-77811049D02*
X147857906Y-77658668D01*
X147857906Y-77658668D02*
X147857906Y-77392001D01*
X147857906Y-77392001D02*
X147896002Y-77239620D01*
X147896002Y-77239620D02*
X147972192Y-77163430D01*
X147972192Y-77163430D02*
X148048383Y-77125335D01*
X148048383Y-77125335D02*
X148200764Y-77125335D01*
X148200764Y-77125335D02*
X148276954Y-77163430D01*
X148276954Y-77163430D02*
X148353145Y-77239620D01*
X148353145Y-77239620D02*
X148391240Y-77392001D01*
X148391240Y-77392001D02*
X148391240Y-77658668D01*
X148391240Y-77658668D02*
X148353145Y-77811049D01*
X148353145Y-77811049D02*
X148276954Y-77887240D01*
X148276954Y-77887240D02*
X148200764Y-77925335D01*
X148200764Y-77925335D02*
X148048383Y-77925335D01*
X149076954Y-77392001D02*
X149076954Y-77925335D01*
X148734097Y-77392001D02*
X148734097Y-77811049D01*
X148734097Y-77811049D02*
X148772192Y-77887240D01*
X148772192Y-77887240D02*
X148848382Y-77925335D01*
X148848382Y-77925335D02*
X148962668Y-77925335D01*
X148962668Y-77925335D02*
X149038859Y-77887240D01*
X149038859Y-77887240D02*
X149076954Y-77849144D01*
X149800764Y-77925335D02*
X149800764Y-77506287D01*
X149800764Y-77506287D02*
X149762669Y-77430097D01*
X149762669Y-77430097D02*
X149686478Y-77392001D01*
X149686478Y-77392001D02*
X149534097Y-77392001D01*
X149534097Y-77392001D02*
X149457907Y-77430097D01*
X149800764Y-77887240D02*
X149724573Y-77925335D01*
X149724573Y-77925335D02*
X149534097Y-77925335D01*
X149534097Y-77925335D02*
X149457907Y-77887240D01*
X149457907Y-77887240D02*
X149419811Y-77811049D01*
X149419811Y-77811049D02*
X149419811Y-77734859D01*
X149419811Y-77734859D02*
X149457907Y-77658668D01*
X149457907Y-77658668D02*
X149534097Y-77620573D01*
X149534097Y-77620573D02*
X149724573Y-77620573D01*
X149724573Y-77620573D02*
X149800764Y-77582478D01*
X150181717Y-77392001D02*
X150181717Y-77925335D01*
X150181717Y-77468192D02*
X150219812Y-77430097D01*
X150219812Y-77430097D02*
X150296002Y-77392001D01*
X150296002Y-77392001D02*
X150410288Y-77392001D01*
X150410288Y-77392001D02*
X150486479Y-77430097D01*
X150486479Y-77430097D02*
X150524574Y-77506287D01*
X150524574Y-77506287D02*
X150524574Y-77925335D01*
X150791241Y-77392001D02*
X151096003Y-77392001D01*
X150905527Y-77125335D02*
X150905527Y-77811049D01*
X150905527Y-77811049D02*
X150943622Y-77887240D01*
X150943622Y-77887240D02*
X151019812Y-77925335D01*
X151019812Y-77925335D02*
X151096003Y-77925335D01*
X151248384Y-77392001D02*
X151553146Y-77392001D01*
X151362670Y-77125335D02*
X151362670Y-77811049D01*
X151362670Y-77811049D02*
X151400765Y-77887240D01*
X151400765Y-77887240D02*
X151476955Y-77925335D01*
X151476955Y-77925335D02*
X151553146Y-77925335D01*
X151819813Y-77925335D02*
X151819813Y-77392001D01*
X151819813Y-77544382D02*
X151857908Y-77468192D01*
X151857908Y-77468192D02*
X151896003Y-77430097D01*
X151896003Y-77430097D02*
X151972194Y-77392001D01*
X151972194Y-77392001D02*
X152048384Y-77392001D01*
X152429336Y-77925335D02*
X152353146Y-77887240D01*
X152353146Y-77887240D02*
X152315051Y-77849144D01*
X152315051Y-77849144D02*
X152276955Y-77772954D01*
X152276955Y-77772954D02*
X152276955Y-77544382D01*
X152276955Y-77544382D02*
X152315051Y-77468192D01*
X152315051Y-77468192D02*
X152353146Y-77430097D01*
X152353146Y-77430097D02*
X152429336Y-77392001D01*
X152429336Y-77392001D02*
X152543622Y-77392001D01*
X152543622Y-77392001D02*
X152619813Y-77430097D01*
X152619813Y-77430097D02*
X152657908Y-77468192D01*
X152657908Y-77468192D02*
X152696003Y-77544382D01*
X152696003Y-77544382D02*
X152696003Y-77772954D01*
X152696003Y-77772954D02*
X152657908Y-77849144D01*
X152657908Y-77849144D02*
X152619813Y-77887240D01*
X152619813Y-77887240D02*
X152543622Y-77925335D01*
X152543622Y-77925335D02*
X152429336Y-77925335D01*
X153038861Y-77392001D02*
X153038861Y-77925335D01*
X153038861Y-77468192D02*
X153076956Y-77430097D01*
X153076956Y-77430097D02*
X153153146Y-77392001D01*
X153153146Y-77392001D02*
X153267432Y-77392001D01*
X153267432Y-77392001D02*
X153343623Y-77430097D01*
X153343623Y-77430097D02*
X153381718Y-77506287D01*
X153381718Y-77506287D02*
X153381718Y-77925335D01*
X153762671Y-77925335D02*
X153762671Y-77392001D01*
X153762671Y-77125335D02*
X153724575Y-77163430D01*
X153724575Y-77163430D02*
X153762671Y-77201525D01*
X153762671Y-77201525D02*
X153800766Y-77163430D01*
X153800766Y-77163430D02*
X153762671Y-77125335D01*
X153762671Y-77125335D02*
X153762671Y-77201525D01*
X154067432Y-77925335D02*
X154486480Y-77392001D01*
X154067432Y-77392001D02*
X154486480Y-77925335D01*
D10*
X149502931Y-77054085D02*
X149360074Y-76982657D01*
X149360074Y-76982657D02*
X149217217Y-76839800D01*
X149217217Y-76839800D02*
X149002931Y-76625514D01*
X149002931Y-76625514D02*
X148860074Y-76554085D01*
X148860074Y-76554085D02*
X148717217Y-76554085D01*
X148788646Y-76911228D02*
X148645789Y-76839800D01*
X148645789Y-76839800D02*
X148502931Y-76696942D01*
X148502931Y-76696942D02*
X148431503Y-76411228D01*
X148431503Y-76411228D02*
X148431503Y-75911228D01*
X148431503Y-75911228D02*
X148502931Y-75625514D01*
X148502931Y-75625514D02*
X148645789Y-75482657D01*
X148645789Y-75482657D02*
X148788646Y-75411228D01*
X148788646Y-75411228D02*
X149074360Y-75411228D01*
X149074360Y-75411228D02*
X149217217Y-75482657D01*
X149217217Y-75482657D02*
X149360074Y-75625514D01*
X149360074Y-75625514D02*
X149431503Y-75911228D01*
X149431503Y-75911228D02*
X149431503Y-76411228D01*
X149431503Y-76411228D02*
X149360074Y-76696942D01*
X149360074Y-76696942D02*
X149217217Y-76839800D01*
X149217217Y-76839800D02*
X149074360Y-76911228D01*
X149074360Y-76911228D02*
X148788646Y-76911228D01*
X149931503Y-76911228D02*
X150717218Y-75911228D01*
X149931503Y-75911228D02*
X150717218Y-76911228D01*
D13*
X162675826Y-107867200D02*
X163818684Y-107867200D01*
X163247255Y-108438628D02*
X163247255Y-107295771D01*
D14*
G36*
X129560904Y-110553450D02*
G01*
X129573190Y-110579387D01*
X129571052Y-110593862D01*
X129428195Y-110993863D01*
X129427828Y-110994474D01*
X129427698Y-110995177D01*
X129370555Y-111138034D01*
X129370382Y-111138298D01*
X129370383Y-111138457D01*
X129366418Y-111144389D01*
X129362574Y-111150298D01*
X129362429Y-111150359D01*
X129362254Y-111150623D01*
X129333683Y-111179195D01*
X129328686Y-111182533D01*
X129323937Y-111186220D01*
X129266793Y-111214791D01*
X129252681Y-111218655D01*
X129225453Y-111209579D01*
X129212618Y-111183908D01*
X129221694Y-111156680D01*
X129233253Y-111147709D01*
X129284951Y-111121860D01*
X129303777Y-111103033D01*
X129352791Y-110980498D01*
X129214708Y-110593863D01*
X129212570Y-110579387D01*
X129224856Y-110553450D01*
X129251886Y-110543797D01*
X129277823Y-110556083D01*
X129285338Y-110568637D01*
X129392879Y-110869755D01*
X129500422Y-110568637D01*
X129507937Y-110556082D01*
X129533875Y-110543796D01*
X129560904Y-110553450D01*
G37*
G36*
X122823296Y-110544116D02*
G01*
X122824111Y-110543845D01*
X122829904Y-110545431D01*
X122835804Y-110546605D01*
X122836412Y-110547213D01*
X122838223Y-110547709D01*
X122895367Y-110576280D01*
X122900113Y-110579963D01*
X122905113Y-110583304D01*
X122933685Y-110611877D01*
X122937024Y-110616875D01*
X122940709Y-110621623D01*
X122969280Y-110678766D01*
X122969775Y-110680576D01*
X122970384Y-110681185D01*
X122971556Y-110687078D01*
X122973145Y-110692879D01*
X122972872Y-110693695D01*
X122973239Y-110695536D01*
X122973239Y-110866964D01*
X122972872Y-110868804D01*
X122973145Y-110869621D01*
X122971556Y-110875421D01*
X122970384Y-110881315D01*
X122969775Y-110881923D01*
X122969280Y-110883734D01*
X122940709Y-110940877D01*
X122937024Y-110945624D01*
X122933685Y-110950623D01*
X122905113Y-110979196D01*
X122900113Y-110982536D01*
X122895367Y-110986220D01*
X122838223Y-111014791D01*
X122836412Y-111015286D01*
X122835804Y-111015895D01*
X122829904Y-111017068D01*
X122824111Y-111018655D01*
X122823296Y-111018383D01*
X122821453Y-111018750D01*
X122735739Y-111018750D01*
X122733898Y-111018383D01*
X122733082Y-111018656D01*
X122727281Y-111017067D01*
X122721388Y-111015895D01*
X122720779Y-111015286D01*
X122718969Y-111014791D01*
X122661826Y-110986220D01*
X122657079Y-110982536D01*
X122652079Y-110979195D01*
X122623508Y-110950623D01*
X122620169Y-110945626D01*
X122616484Y-110940878D01*
X122587912Y-110883735D01*
X122587415Y-110881922D01*
X122586808Y-110881315D01*
X122585634Y-110875417D01*
X122584048Y-110869622D01*
X122584319Y-110868806D01*
X122583953Y-110866964D01*
X122583953Y-110858110D01*
X122658953Y-110858110D01*
X122680845Y-110901894D01*
X122700810Y-110921859D01*
X122744592Y-110943750D01*
X122812601Y-110943750D01*
X122856380Y-110921860D01*
X122876348Y-110901892D01*
X122898239Y-110858111D01*
X122898239Y-110704388D01*
X122876348Y-110660607D01*
X122856380Y-110640639D01*
X122812601Y-110618750D01*
X122744592Y-110618750D01*
X122700810Y-110640640D01*
X122680845Y-110660605D01*
X122658953Y-110704389D01*
X122658953Y-110858110D01*
X122583953Y-110858110D01*
X122583953Y-110704389D01*
X122583953Y-110695536D01*
X122584319Y-110693693D01*
X122584048Y-110692878D01*
X122585634Y-110687082D01*
X122586808Y-110681185D01*
X122587415Y-110680577D01*
X122587912Y-110678765D01*
X122616484Y-110621622D01*
X122620169Y-110616873D01*
X122623508Y-110611877D01*
X122652079Y-110583305D01*
X122657079Y-110579963D01*
X122661826Y-110576280D01*
X122718969Y-110547709D01*
X122720779Y-110547213D01*
X122721388Y-110546605D01*
X122727281Y-110545432D01*
X122733082Y-110543844D01*
X122733898Y-110544116D01*
X122735739Y-110543750D01*
X122821453Y-110543750D01*
X122823296Y-110544116D01*
G37*
G36*
X123227527Y-110566899D02*
G01*
X123230382Y-110581250D01*
X123230382Y-110886684D01*
X123249403Y-110924728D01*
X123287449Y-110943750D01*
X123355458Y-110943750D01*
X123399237Y-110921860D01*
X123412525Y-110908573D01*
X123412525Y-110581250D01*
X123415380Y-110566899D01*
X123435674Y-110546605D01*
X123464376Y-110546605D01*
X123484670Y-110566899D01*
X123487525Y-110581250D01*
X123487525Y-110981250D01*
X123484670Y-110995601D01*
X123464376Y-111015895D01*
X123435674Y-111015895D01*
X123416740Y-110996961D01*
X123381080Y-111014791D01*
X123379269Y-111015286D01*
X123378661Y-111015895D01*
X123372761Y-111017068D01*
X123366968Y-111018655D01*
X123366153Y-111018383D01*
X123364310Y-111018750D01*
X123278596Y-111018750D01*
X123276755Y-111018383D01*
X123275939Y-111018656D01*
X123270138Y-111017067D01*
X123264245Y-111015895D01*
X123263636Y-111015286D01*
X123261826Y-111014791D01*
X123204683Y-110986220D01*
X123198785Y-110981642D01*
X123196884Y-110981009D01*
X123195240Y-110978891D01*
X123193124Y-110977249D01*
X123192490Y-110975348D01*
X123187912Y-110969450D01*
X123159341Y-110912306D01*
X123158845Y-110910495D01*
X123158237Y-110909887D01*
X123157063Y-110903987D01*
X123155477Y-110898194D01*
X123155748Y-110897379D01*
X123155382Y-110895536D01*
X123155382Y-110581250D01*
X123158237Y-110566899D01*
X123178531Y-110546605D01*
X123207233Y-110546605D01*
X123227527Y-110566899D01*
G37*
G36*
X123880439Y-110544116D02*
G01*
X123881254Y-110543845D01*
X123887047Y-110545431D01*
X123892947Y-110546605D01*
X123893555Y-110547213D01*
X123895366Y-110547709D01*
X123952510Y-110576280D01*
X123964069Y-110585252D01*
X123973145Y-110612479D01*
X123960309Y-110638151D01*
X123933082Y-110647227D01*
X123918969Y-110643362D01*
X123869744Y-110618750D01*
X123801735Y-110618750D01*
X123763690Y-110637771D01*
X123744667Y-110675817D01*
X123744667Y-110686682D01*
X123763690Y-110724728D01*
X123801735Y-110743750D01*
X123878596Y-110743750D01*
X123880439Y-110744116D01*
X123881254Y-110743845D01*
X123887047Y-110745431D01*
X123892947Y-110746605D01*
X123893555Y-110747213D01*
X123895366Y-110747709D01*
X123952510Y-110776280D01*
X123958408Y-110780858D01*
X123960309Y-110781492D01*
X123961951Y-110783608D01*
X123964069Y-110785252D01*
X123964702Y-110787153D01*
X123969280Y-110793051D01*
X123997851Y-110850194D01*
X123998346Y-110852004D01*
X123998955Y-110852613D01*
X124000127Y-110858506D01*
X124001716Y-110864307D01*
X124001443Y-110865123D01*
X124001810Y-110866964D01*
X124001810Y-110895536D01*
X124001443Y-110897376D01*
X124001716Y-110898193D01*
X124000127Y-110903993D01*
X123998955Y-110909887D01*
X123998346Y-110910495D01*
X123997851Y-110912306D01*
X123969280Y-110969449D01*
X123964702Y-110975346D01*
X123964069Y-110977248D01*
X123961951Y-110978891D01*
X123960309Y-110981008D01*
X123958408Y-110981641D01*
X123952510Y-110986220D01*
X123895366Y-111014791D01*
X123893555Y-111015286D01*
X123892947Y-111015895D01*
X123887047Y-111017068D01*
X123881254Y-111018655D01*
X123880439Y-111018383D01*
X123878596Y-111018750D01*
X123764310Y-111018750D01*
X123762469Y-111018383D01*
X123761653Y-111018656D01*
X123755852Y-111017067D01*
X123749959Y-111015895D01*
X123749350Y-111015286D01*
X123747540Y-111014791D01*
X123690397Y-110986220D01*
X123678838Y-110977249D01*
X123669762Y-110950021D01*
X123682597Y-110924350D01*
X123709825Y-110915274D01*
X123723937Y-110919138D01*
X123773163Y-110943750D01*
X123869744Y-110943750D01*
X123907788Y-110924728D01*
X123926810Y-110886683D01*
X123926810Y-110875816D01*
X123907788Y-110837771D01*
X123869744Y-110818750D01*
X123792882Y-110818750D01*
X123791041Y-110818383D01*
X123790225Y-110818656D01*
X123784424Y-110817067D01*
X123778531Y-110815895D01*
X123777922Y-110815286D01*
X123776112Y-110814791D01*
X123718969Y-110786220D01*
X123713071Y-110781642D01*
X123711170Y-110781009D01*
X123709526Y-110778891D01*
X123707410Y-110777249D01*
X123706776Y-110775348D01*
X123702198Y-110769450D01*
X123673626Y-110712307D01*
X123673129Y-110710494D01*
X123672522Y-110709887D01*
X123671348Y-110703989D01*
X123669762Y-110698194D01*
X123670033Y-110697378D01*
X123669667Y-110695536D01*
X123669667Y-110666964D01*
X123670033Y-110665121D01*
X123669762Y-110664306D01*
X123671348Y-110658510D01*
X123672522Y-110652613D01*
X123673129Y-110652005D01*
X123673626Y-110650193D01*
X123702198Y-110593050D01*
X123706776Y-110587151D01*
X123707410Y-110585251D01*
X123709526Y-110583608D01*
X123711170Y-110581491D01*
X123713071Y-110580857D01*
X123718969Y-110576280D01*
X123776112Y-110547709D01*
X123777922Y-110547213D01*
X123778531Y-110546605D01*
X123784424Y-110545432D01*
X123790225Y-110543844D01*
X123791041Y-110544116D01*
X123792882Y-110543750D01*
X123878596Y-110543750D01*
X123880439Y-110544116D01*
G37*
G36*
X124256098Y-110366899D02*
G01*
X124258953Y-110381250D01*
X124258953Y-110543750D01*
X124364310Y-110543750D01*
X124378661Y-110546605D01*
X124398955Y-110566899D01*
X124398955Y-110595601D01*
X124378661Y-110615895D01*
X124364310Y-110618750D01*
X124258953Y-110618750D01*
X124258953Y-110886684D01*
X124277974Y-110924728D01*
X124316020Y-110943750D01*
X124364310Y-110943750D01*
X124378661Y-110946605D01*
X124398955Y-110966899D01*
X124398955Y-110995601D01*
X124378661Y-111015895D01*
X124364310Y-111018750D01*
X124307167Y-111018750D01*
X124305326Y-111018383D01*
X124304510Y-111018656D01*
X124298709Y-111017067D01*
X124292816Y-111015895D01*
X124292207Y-111015286D01*
X124290397Y-111014791D01*
X124233254Y-110986220D01*
X124227356Y-110981642D01*
X124225455Y-110981009D01*
X124223811Y-110978891D01*
X124221695Y-110977249D01*
X124221061Y-110975348D01*
X124216483Y-110969450D01*
X124187912Y-110912306D01*
X124187416Y-110910495D01*
X124186808Y-110909887D01*
X124185634Y-110903987D01*
X124184048Y-110898194D01*
X124184319Y-110897379D01*
X124183953Y-110895536D01*
X124183953Y-110618750D01*
X124135738Y-110618750D01*
X124121387Y-110615895D01*
X124101093Y-110595601D01*
X124101093Y-110566899D01*
X124121387Y-110546605D01*
X124135738Y-110543750D01*
X124183953Y-110543750D01*
X124183953Y-110381250D01*
X124186808Y-110366899D01*
X124207102Y-110346605D01*
X124235804Y-110346605D01*
X124256098Y-110366899D01*
G37*
G36*
X124737581Y-110544116D02*
G01*
X124738396Y-110543845D01*
X124744189Y-110545431D01*
X124750089Y-110546605D01*
X124750697Y-110547213D01*
X124752508Y-110547709D01*
X124809652Y-110576280D01*
X124815549Y-110580857D01*
X124817450Y-110581491D01*
X124819093Y-110583608D01*
X124821211Y-110585252D01*
X124821844Y-110587152D01*
X124826422Y-110593050D01*
X124854994Y-110650193D01*
X124855490Y-110652005D01*
X124856098Y-110652613D01*
X124857271Y-110658510D01*
X124858858Y-110664306D01*
X124858586Y-110665121D01*
X124858953Y-110666964D01*
X124858953Y-110981250D01*
X124856098Y-110995601D01*
X124835804Y-111015895D01*
X124807102Y-111015895D01*
X124797692Y-111006485D01*
X124781080Y-111014791D01*
X124779269Y-111015286D01*
X124778661Y-111015895D01*
X124772761Y-111017068D01*
X124766968Y-111018655D01*
X124766153Y-111018383D01*
X124764310Y-111018750D01*
X124621453Y-111018750D01*
X124619612Y-111018383D01*
X124618796Y-111018656D01*
X124612995Y-111017067D01*
X124607102Y-111015895D01*
X124606493Y-111015286D01*
X124604683Y-111014791D01*
X124547540Y-110986220D01*
X124541642Y-110981642D01*
X124539741Y-110981009D01*
X124538097Y-110978891D01*
X124535981Y-110977249D01*
X124535347Y-110975348D01*
X124530769Y-110969450D01*
X124502197Y-110912307D01*
X124501700Y-110910494D01*
X124501093Y-110909887D01*
X124499919Y-110903989D01*
X124498333Y-110898194D01*
X124498604Y-110897378D01*
X124498238Y-110895536D01*
X124498238Y-110886682D01*
X124573238Y-110886682D01*
X124592261Y-110924728D01*
X124630306Y-110943750D01*
X124755458Y-110943750D01*
X124783953Y-110929502D01*
X124783953Y-110784783D01*
X124781081Y-110786220D01*
X124779268Y-110786716D01*
X124778661Y-110787324D01*
X124772763Y-110788497D01*
X124766968Y-110790084D01*
X124766152Y-110789812D01*
X124764310Y-110790179D01*
X124630306Y-110790179D01*
X124592261Y-110809200D01*
X124573238Y-110847246D01*
X124573238Y-110886682D01*
X124498238Y-110886682D01*
X124498238Y-110847246D01*
X124498238Y-110838393D01*
X124498604Y-110836550D01*
X124498333Y-110835735D01*
X124499919Y-110829939D01*
X124501093Y-110824042D01*
X124501700Y-110823434D01*
X124502197Y-110821622D01*
X124530769Y-110764479D01*
X124535347Y-110758580D01*
X124535981Y-110756680D01*
X124538097Y-110755037D01*
X124539741Y-110752920D01*
X124541642Y-110752286D01*
X124547540Y-110747709D01*
X124604683Y-110719138D01*
X124606493Y-110718642D01*
X124607102Y-110718034D01*
X124612995Y-110716861D01*
X124618796Y-110715273D01*
X124619612Y-110715545D01*
X124621453Y-110715179D01*
X124755457Y-110715179D01*
X124783953Y-110700930D01*
X124783953Y-110675817D01*
X124764929Y-110637771D01*
X124726886Y-110618750D01*
X124630306Y-110618750D01*
X124581080Y-110643362D01*
X124566968Y-110647226D01*
X124539740Y-110638150D01*
X124526905Y-110612479D01*
X124535981Y-110585251D01*
X124547540Y-110576280D01*
X124604683Y-110547709D01*
X124606493Y-110547213D01*
X124607102Y-110546605D01*
X124612995Y-110545432D01*
X124618796Y-110543844D01*
X124619612Y-110544116D01*
X124621453Y-110543750D01*
X124735738Y-110543750D01*
X124737581Y-110544116D01*
G37*
G36*
X125623295Y-110544116D02*
G01*
X125624110Y-110543845D01*
X125629903Y-110545431D01*
X125635803Y-110546605D01*
X125636411Y-110547213D01*
X125638222Y-110547709D01*
X125695366Y-110576280D01*
X125701263Y-110580857D01*
X125703164Y-110581491D01*
X125704807Y-110583608D01*
X125706925Y-110585252D01*
X125707558Y-110587152D01*
X125712136Y-110593050D01*
X125740708Y-110650193D01*
X125741204Y-110652005D01*
X125741812Y-110652613D01*
X125742985Y-110658510D01*
X125744572Y-110664306D01*
X125744300Y-110665121D01*
X125744667Y-110666964D01*
X125744667Y-110981250D01*
X125741812Y-110995601D01*
X125721518Y-111015895D01*
X125692816Y-111015895D01*
X125683406Y-111006485D01*
X125666794Y-111014791D01*
X125664983Y-111015286D01*
X125664375Y-111015895D01*
X125658475Y-111017068D01*
X125652682Y-111018655D01*
X125651867Y-111018383D01*
X125650024Y-111018750D01*
X125507167Y-111018750D01*
X125505326Y-111018383D01*
X125504510Y-111018656D01*
X125498709Y-111017067D01*
X125492816Y-111015895D01*
X125492207Y-111015286D01*
X125490397Y-111014791D01*
X125433254Y-110986220D01*
X125427356Y-110981642D01*
X125425455Y-110981009D01*
X125423811Y-110978891D01*
X125421695Y-110977249D01*
X125421061Y-110975348D01*
X125416483Y-110969450D01*
X125387911Y-110912307D01*
X125387414Y-110910494D01*
X125386807Y-110909887D01*
X125385633Y-110903989D01*
X125384047Y-110898194D01*
X125384318Y-110897378D01*
X125383952Y-110895536D01*
X125383952Y-110886682D01*
X125458952Y-110886682D01*
X125477975Y-110924728D01*
X125516020Y-110943750D01*
X125641172Y-110943750D01*
X125669667Y-110929502D01*
X125669667Y-110784783D01*
X125666795Y-110786220D01*
X125664982Y-110786716D01*
X125664375Y-110787324D01*
X125658477Y-110788497D01*
X125652682Y-110790084D01*
X125651866Y-110789812D01*
X125650024Y-110790179D01*
X125516020Y-110790179D01*
X125477975Y-110809200D01*
X125458952Y-110847246D01*
X125458952Y-110886682D01*
X125383952Y-110886682D01*
X125383952Y-110847246D01*
X125383952Y-110838393D01*
X125384318Y-110836550D01*
X125384047Y-110835735D01*
X125385633Y-110829939D01*
X125386807Y-110824042D01*
X125387414Y-110823434D01*
X125387911Y-110821622D01*
X125416483Y-110764479D01*
X125421061Y-110758580D01*
X125421695Y-110756680D01*
X125423811Y-110755037D01*
X125425455Y-110752920D01*
X125427356Y-110752286D01*
X125433254Y-110747709D01*
X125490397Y-110719138D01*
X125492207Y-110718642D01*
X125492816Y-110718034D01*
X125498709Y-110716861D01*
X125504510Y-110715273D01*
X125505326Y-110715545D01*
X125507167Y-110715179D01*
X125641171Y-110715179D01*
X125669667Y-110700930D01*
X125669667Y-110675817D01*
X125650643Y-110637771D01*
X125612600Y-110618750D01*
X125516020Y-110618750D01*
X125466794Y-110643362D01*
X125452682Y-110647226D01*
X125425454Y-110638150D01*
X125412619Y-110612479D01*
X125421695Y-110585251D01*
X125433254Y-110576280D01*
X125490397Y-110547709D01*
X125492207Y-110547213D01*
X125492816Y-110546605D01*
X125498709Y-110545432D01*
X125504510Y-110543844D01*
X125505326Y-110544116D01*
X125507167Y-110543750D01*
X125621452Y-110543750D01*
X125623295Y-110544116D01*
G37*
G36*
X127309009Y-110544116D02*
G01*
X127309824Y-110543845D01*
X127315617Y-110545431D01*
X127321517Y-110546605D01*
X127322125Y-110547213D01*
X127323936Y-110547709D01*
X127381080Y-110576280D01*
X127386977Y-110580857D01*
X127388878Y-110581491D01*
X127390521Y-110583608D01*
X127392639Y-110585252D01*
X127393272Y-110587152D01*
X127397850Y-110593050D01*
X127426422Y-110650193D01*
X127426918Y-110652005D01*
X127427526Y-110652613D01*
X127428699Y-110658510D01*
X127430286Y-110664306D01*
X127430014Y-110665121D01*
X127430381Y-110666964D01*
X127430381Y-110724107D01*
X127429299Y-110729545D01*
X127429667Y-110731385D01*
X127428620Y-110732954D01*
X127427526Y-110738458D01*
X127419803Y-110746181D01*
X127413747Y-110755265D01*
X127408566Y-110757417D01*
X127407232Y-110758752D01*
X127405354Y-110758752D01*
X127400235Y-110760879D01*
X127144666Y-110811992D01*
X127144666Y-110886682D01*
X127163689Y-110924728D01*
X127201734Y-110943750D01*
X127298314Y-110943750D01*
X127347539Y-110919138D01*
X127361652Y-110915273D01*
X127388879Y-110924349D01*
X127401715Y-110950021D01*
X127392639Y-110977248D01*
X127381080Y-110986220D01*
X127323936Y-111014791D01*
X127322125Y-111015286D01*
X127321517Y-111015895D01*
X127315617Y-111017068D01*
X127309824Y-111018655D01*
X127309009Y-111018383D01*
X127307166Y-111018750D01*
X127192881Y-111018750D01*
X127191040Y-111018383D01*
X127190224Y-111018656D01*
X127184423Y-111017067D01*
X127178530Y-111015895D01*
X127177921Y-111015286D01*
X127176111Y-111014791D01*
X127118968Y-110986220D01*
X127113070Y-110981642D01*
X127111169Y-110981009D01*
X127109525Y-110978891D01*
X127107409Y-110977249D01*
X127106775Y-110975348D01*
X127102197Y-110969450D01*
X127073625Y-110912307D01*
X127073128Y-110910494D01*
X127072521Y-110909887D01*
X127071347Y-110903989D01*
X127069761Y-110898194D01*
X127070032Y-110897378D01*
X127069666Y-110895536D01*
X127069666Y-110735507D01*
X127144666Y-110735507D01*
X127355381Y-110693364D01*
X127355381Y-110675817D01*
X127336357Y-110637771D01*
X127298314Y-110618750D01*
X127201734Y-110618750D01*
X127163689Y-110637771D01*
X127144666Y-110675817D01*
X127144666Y-110735507D01*
X127069666Y-110735507D01*
X127069666Y-110675817D01*
X127069666Y-110666964D01*
X127070032Y-110665121D01*
X127069761Y-110664306D01*
X127071347Y-110658510D01*
X127072521Y-110652613D01*
X127073128Y-110652005D01*
X127073625Y-110650193D01*
X127102197Y-110593050D01*
X127106775Y-110587151D01*
X127107409Y-110585251D01*
X127109525Y-110583608D01*
X127111169Y-110581491D01*
X127113070Y-110580857D01*
X127118968Y-110576280D01*
X127176111Y-110547709D01*
X127177921Y-110547213D01*
X127178530Y-110546605D01*
X127184423Y-110545432D01*
X127190224Y-110543844D01*
X127191040Y-110544116D01*
X127192881Y-110543750D01*
X127307166Y-110543750D01*
X127309009Y-110544116D01*
G37*
G36*
X128309009Y-110544116D02*
G01*
X128309824Y-110543845D01*
X128315617Y-110545431D01*
X128321517Y-110546605D01*
X128322125Y-110547213D01*
X128323936Y-110547709D01*
X128381080Y-110576280D01*
X128386977Y-110580857D01*
X128388878Y-110581491D01*
X128390521Y-110583608D01*
X128392639Y-110585252D01*
X128393272Y-110587152D01*
X128397850Y-110593050D01*
X128426422Y-110650193D01*
X128426918Y-110652005D01*
X128427526Y-110652613D01*
X128428699Y-110658510D01*
X128430286Y-110664306D01*
X128430014Y-110665121D01*
X128430381Y-110666964D01*
X128430381Y-110981250D01*
X128427526Y-110995601D01*
X128407232Y-111015895D01*
X128378530Y-111015895D01*
X128369120Y-111006485D01*
X128352508Y-111014791D01*
X128350697Y-111015286D01*
X128350089Y-111015895D01*
X128344189Y-111017068D01*
X128338396Y-111018655D01*
X128337581Y-111018383D01*
X128335738Y-111018750D01*
X128192881Y-111018750D01*
X128191040Y-111018383D01*
X128190224Y-111018656D01*
X128184423Y-111017067D01*
X128178530Y-111015895D01*
X128177921Y-111015286D01*
X128176111Y-111014791D01*
X128118968Y-110986220D01*
X128113070Y-110981642D01*
X128111169Y-110981009D01*
X128109525Y-110978891D01*
X128107409Y-110977249D01*
X128106775Y-110975348D01*
X128102197Y-110969450D01*
X128073625Y-110912307D01*
X128073128Y-110910494D01*
X128072521Y-110909887D01*
X128071347Y-110903989D01*
X128069761Y-110898194D01*
X128070032Y-110897378D01*
X128069666Y-110895536D01*
X128069666Y-110886682D01*
X128144666Y-110886682D01*
X128163689Y-110924728D01*
X128201734Y-110943750D01*
X128326886Y-110943750D01*
X128355381Y-110929502D01*
X128355381Y-110784783D01*
X128352509Y-110786220D01*
X128350696Y-110786716D01*
X128350089Y-110787324D01*
X128344191Y-110788497D01*
X128338396Y-110790084D01*
X128337580Y-110789812D01*
X128335738Y-110790179D01*
X128201734Y-110790179D01*
X128163689Y-110809200D01*
X128144666Y-110847246D01*
X128144666Y-110886682D01*
X128069666Y-110886682D01*
X128069666Y-110847246D01*
X128069666Y-110838393D01*
X128070032Y-110836550D01*
X128069761Y-110835735D01*
X128071347Y-110829939D01*
X128072521Y-110824042D01*
X128073128Y-110823434D01*
X128073625Y-110821622D01*
X128102197Y-110764479D01*
X128106775Y-110758580D01*
X128107409Y-110756680D01*
X128109525Y-110755037D01*
X128111169Y-110752920D01*
X128113070Y-110752286D01*
X128118968Y-110747709D01*
X128176111Y-110719138D01*
X128177921Y-110718642D01*
X128178530Y-110718034D01*
X128184423Y-110716861D01*
X128190224Y-110715273D01*
X128191040Y-110715545D01*
X128192881Y-110715179D01*
X128326885Y-110715179D01*
X128355381Y-110700930D01*
X128355381Y-110675817D01*
X128336357Y-110637771D01*
X128298314Y-110618750D01*
X128201734Y-110618750D01*
X128152508Y-110643362D01*
X128138396Y-110647226D01*
X128111168Y-110638150D01*
X128098333Y-110612479D01*
X128107409Y-110585251D01*
X128118968Y-110576280D01*
X128176111Y-110547709D01*
X128177921Y-110547213D01*
X128178530Y-110546605D01*
X128184423Y-110545432D01*
X128190224Y-110543844D01*
X128191040Y-110544116D01*
X128192881Y-110543750D01*
X128307166Y-110543750D01*
X128309009Y-110544116D01*
G37*
G36*
X128650821Y-110557933D02*
G01*
X128657509Y-110570948D01*
X128741659Y-110865473D01*
X128815205Y-110681609D01*
X128823186Y-110669345D01*
X128823638Y-110669151D01*
X128823832Y-110668699D01*
X128836745Y-110663533D01*
X128849565Y-110658039D01*
X128850023Y-110658222D01*
X128850481Y-110658039D01*
X128863300Y-110663533D01*
X128876214Y-110668699D01*
X128876407Y-110669151D01*
X128876860Y-110669345D01*
X128884841Y-110681609D01*
X128958387Y-110865474D01*
X129042538Y-110570948D01*
X129049225Y-110557934D01*
X129074314Y-110543996D01*
X129101911Y-110551881D01*
X129115849Y-110576969D01*
X129114652Y-110591552D01*
X129000366Y-110991552D01*
X128993678Y-111004567D01*
X128991488Y-111005783D01*
X128990501Y-111008088D01*
X128979215Y-111012601D01*
X128968590Y-111018505D01*
X128966178Y-111017815D01*
X128963851Y-111018747D01*
X128952674Y-111013957D01*
X128940992Y-111010619D01*
X128939775Y-111008429D01*
X128937472Y-111007442D01*
X128929491Y-110995178D01*
X128850023Y-110796508D01*
X128770556Y-110995177D01*
X128762575Y-111007441D01*
X128760270Y-111008428D01*
X128759054Y-111010619D01*
X128747373Y-111013956D01*
X128736196Y-111018747D01*
X128733867Y-111017815D01*
X128731457Y-111018504D01*
X128720830Y-111012600D01*
X128709547Y-111008087D01*
X128708559Y-111005783D01*
X128706368Y-111004566D01*
X128699681Y-110991552D01*
X128585395Y-110591552D01*
X128584197Y-110576969D01*
X128598135Y-110551881D01*
X128625733Y-110543995D01*
X128650821Y-110557933D01*
G37*
G36*
X127684669Y-110366899D02*
G01*
X127687524Y-110381250D01*
X127687524Y-110719287D01*
X127852078Y-110554734D01*
X127864245Y-110546605D01*
X127892945Y-110546605D01*
X127913240Y-110566900D01*
X127913240Y-110595600D01*
X127905111Y-110607767D01*
X127756680Y-110756197D01*
X127908595Y-110958750D01*
X127914922Y-110971944D01*
X127910863Y-111000356D01*
X127887901Y-111017577D01*
X127859490Y-111013518D01*
X127848595Y-111003750D01*
X127703109Y-110809769D01*
X127687524Y-110825354D01*
X127687524Y-110981250D01*
X127684669Y-110995601D01*
X127664375Y-111015895D01*
X127635673Y-111015895D01*
X127615379Y-110995601D01*
X127612524Y-110981250D01*
X127612524Y-110381250D01*
X127615379Y-110366899D01*
X127635673Y-110346605D01*
X127664375Y-110346605D01*
X127684669Y-110366899D01*
G37*
G36*
X122371998Y-110346605D02*
G01*
X122378662Y-110346605D01*
X122384493Y-110352436D01*
X122391967Y-110355924D01*
X122394244Y-110362187D01*
X122398956Y-110366899D01*
X122401811Y-110381250D01*
X122401811Y-110981250D01*
X122398956Y-110995601D01*
X122378662Y-111015895D01*
X122349960Y-111015895D01*
X122329666Y-110995601D01*
X122326811Y-110981250D01*
X122326811Y-110550283D01*
X122198293Y-110825679D01*
X122192576Y-110833470D01*
X122191967Y-110835147D01*
X122191023Y-110835587D01*
X122189637Y-110837477D01*
X122177575Y-110841862D01*
X122165957Y-110847285D01*
X122164311Y-110846686D01*
X122162665Y-110847285D01*
X122151046Y-110841862D01*
X122138985Y-110837477D01*
X122137598Y-110835587D01*
X122136655Y-110835147D01*
X122136045Y-110833470D01*
X122130329Y-110825679D01*
X122001811Y-110550283D01*
X122001811Y-110981250D01*
X121998956Y-110995601D01*
X121978662Y-111015895D01*
X121949960Y-111015895D01*
X121929666Y-110995601D01*
X121926811Y-110981250D01*
X121926811Y-110381250D01*
X121929666Y-110366899D01*
X121934377Y-110362187D01*
X121936655Y-110355924D01*
X121944128Y-110352436D01*
X121949960Y-110346605D01*
X121956624Y-110346605D01*
X121962665Y-110343786D01*
X121970417Y-110346605D01*
X121978662Y-110346605D01*
X121983373Y-110351316D01*
X121989637Y-110353594D01*
X121998293Y-110365392D01*
X122164311Y-110721144D01*
X122330329Y-110365392D01*
X122338985Y-110353594D01*
X122345248Y-110351316D01*
X122349960Y-110346605D01*
X122358205Y-110346605D01*
X122365957Y-110343786D01*
X122371998Y-110346605D01*
G37*
G36*
X125264375Y-110346605D02*
G01*
X125284669Y-110366899D01*
X125284669Y-110395601D01*
X125264375Y-110415895D01*
X125250024Y-110418750D01*
X125201734Y-110418750D01*
X125163688Y-110437771D01*
X125144667Y-110475815D01*
X125144667Y-110543750D01*
X125250024Y-110543750D01*
X125264375Y-110546605D01*
X125284669Y-110566899D01*
X125284669Y-110595601D01*
X125264375Y-110615895D01*
X125250024Y-110618750D01*
X125144667Y-110618750D01*
X125144667Y-110981250D01*
X125141812Y-110995601D01*
X125121518Y-111015895D01*
X125092816Y-111015895D01*
X125072522Y-110995601D01*
X125069667Y-110981250D01*
X125069667Y-110618750D01*
X125021452Y-110618750D01*
X125007101Y-110615895D01*
X124986807Y-110595601D01*
X124986807Y-110566899D01*
X125007101Y-110546605D01*
X125021452Y-110543750D01*
X125069667Y-110543750D01*
X125069667Y-110466964D01*
X125070033Y-110465120D01*
X125069762Y-110464306D01*
X125071348Y-110458512D01*
X125072522Y-110452613D01*
X125073130Y-110452004D01*
X125073626Y-110450194D01*
X125102197Y-110393050D01*
X125106775Y-110387151D01*
X125107409Y-110385251D01*
X125109525Y-110383608D01*
X125111169Y-110381491D01*
X125113070Y-110380857D01*
X125118968Y-110376280D01*
X125176111Y-110347709D01*
X125177921Y-110347213D01*
X125178530Y-110346605D01*
X125184423Y-110345432D01*
X125190224Y-110343844D01*
X125191040Y-110344116D01*
X125192881Y-110343750D01*
X125250024Y-110343750D01*
X125264375Y-110346605D01*
G37*
G36*
X126857711Y-110346605D02*
G01*
X126864375Y-110346605D01*
X126870206Y-110352436D01*
X126877680Y-110355924D01*
X126879957Y-110362187D01*
X126884669Y-110366899D01*
X126887524Y-110381250D01*
X126887524Y-110981250D01*
X126884669Y-110995601D01*
X126864375Y-111015895D01*
X126835673Y-111015895D01*
X126815379Y-110995601D01*
X126812524Y-110981250D01*
X126812524Y-110550283D01*
X126684006Y-110825679D01*
X126678289Y-110833470D01*
X126677680Y-110835147D01*
X126676736Y-110835587D01*
X126675350Y-110837477D01*
X126663288Y-110841862D01*
X126651670Y-110847285D01*
X126650024Y-110846686D01*
X126648378Y-110847285D01*
X126636759Y-110841862D01*
X126624698Y-110837477D01*
X126623311Y-110835587D01*
X126622368Y-110835147D01*
X126621758Y-110833470D01*
X126616042Y-110825679D01*
X126487524Y-110550283D01*
X126487524Y-110981250D01*
X126484669Y-110995601D01*
X126464375Y-111015895D01*
X126435673Y-111015895D01*
X126415379Y-110995601D01*
X126412524Y-110981250D01*
X126412524Y-110381250D01*
X126415379Y-110366899D01*
X126420090Y-110362187D01*
X126422368Y-110355924D01*
X126429841Y-110352436D01*
X126435673Y-110346605D01*
X126442337Y-110346605D01*
X126448378Y-110343786D01*
X126456130Y-110346605D01*
X126464375Y-110346605D01*
X126469086Y-110351316D01*
X126475350Y-110353594D01*
X126484006Y-110365392D01*
X126650024Y-110721144D01*
X126816042Y-110365392D01*
X126824698Y-110353594D01*
X126830961Y-110351316D01*
X126835673Y-110346605D01*
X126843918Y-110346605D01*
X126851670Y-110343786D01*
X126857711Y-110346605D01*
G37*
G36*
X124915179Y-109040179D02*
G01*
X124459821Y-109040179D01*
X124459821Y-108584821D01*
X124915179Y-108584821D01*
X124915179Y-109040179D01*
G37*
G36*
X125218750Y-108433036D02*
G01*
X125218750Y-109191964D01*
X125218750Y-109343750D01*
X124156250Y-109343750D01*
X124156250Y-109191964D01*
X124308036Y-109191964D01*
X125066964Y-109191964D01*
X125066964Y-108433036D01*
X124308036Y-108433036D01*
X124308036Y-109191964D01*
X124156250Y-109191964D01*
X124156250Y-108433036D01*
X124156250Y-108281250D01*
X125218750Y-108281250D01*
X125218750Y-108433036D01*
G37*
G36*
X126129464Y-108129464D02*
G01*
X126129464Y-108281250D01*
X125977679Y-108281250D01*
X125977679Y-108584821D01*
X126129464Y-108584821D01*
X126129464Y-108736607D01*
X126129464Y-108888393D01*
X126281250Y-108888393D01*
X126281250Y-109040179D01*
X126433036Y-109040179D01*
X126433036Y-109191964D01*
X127040179Y-109191964D01*
X127040179Y-109343750D01*
X126129464Y-109343750D01*
X126129464Y-109191964D01*
X126129464Y-109040179D01*
X125825893Y-109040179D01*
X125825893Y-109191964D01*
X125522321Y-109191964D01*
X125522321Y-109343750D01*
X125370536Y-109343750D01*
X125370536Y-109191964D01*
X125370536Y-109040179D01*
X125370536Y-108888393D01*
X125522321Y-108888393D01*
X125522321Y-109040179D01*
X125825893Y-109040179D01*
X125825893Y-108888393D01*
X125977679Y-108888393D01*
X125977679Y-108736607D01*
X125674107Y-108736607D01*
X125674107Y-108888393D01*
X125522321Y-108888393D01*
X125370536Y-108888393D01*
X125370536Y-108736607D01*
X125522321Y-108736607D01*
X125522321Y-108584821D01*
X125522321Y-108433036D01*
X125674107Y-108433036D01*
X125674107Y-108584821D01*
X125825893Y-108584821D01*
X125825893Y-108281250D01*
X125825893Y-108129464D01*
X125977679Y-108129464D01*
X125977679Y-107977679D01*
X126129464Y-107977679D01*
X126129464Y-108129464D01*
G37*
G36*
X125977679Y-109343750D02*
G01*
X125825893Y-109343750D01*
X125825893Y-109191964D01*
X125977679Y-109191964D01*
X125977679Y-109343750D01*
G37*
G36*
X127343750Y-109191964D02*
G01*
X127191964Y-109191964D01*
X127191964Y-109040179D01*
X127343750Y-109040179D01*
X127343750Y-109191964D01*
G37*
G36*
X126888393Y-109040179D02*
G01*
X126736607Y-109040179D01*
X126736607Y-108888393D01*
X126888393Y-108888393D01*
X126888393Y-109040179D01*
G37*
G36*
X126433036Y-108888393D02*
G01*
X126281250Y-108888393D01*
X126281250Y-108584821D01*
X126433036Y-108584821D01*
X126433036Y-108888393D01*
G37*
G36*
X126736607Y-108281250D02*
G01*
X126888393Y-108281250D01*
X126888393Y-108433036D01*
X127343750Y-108433036D01*
X127343750Y-108584821D01*
X127191964Y-108584821D01*
X127191964Y-108736607D01*
X127191964Y-108888393D01*
X127040179Y-108888393D01*
X127040179Y-108736607D01*
X126888393Y-108736607D01*
X126888393Y-108584821D01*
X126736607Y-108584821D01*
X126736607Y-108433036D01*
X126433036Y-108433036D01*
X126433036Y-108281250D01*
X126584821Y-108281250D01*
X126584821Y-108129464D01*
X126736607Y-108129464D01*
X126736607Y-108281250D01*
G37*
G36*
X126281250Y-108584821D02*
G01*
X126129464Y-108584821D01*
X126129464Y-108281250D01*
X126281250Y-108281250D01*
X126281250Y-108584821D01*
G37*
G36*
X125522321Y-108281250D02*
G01*
X125370536Y-108281250D01*
X125370536Y-108129464D01*
X125522321Y-108129464D01*
X125522321Y-108281250D01*
G37*
G36*
X126433036Y-108281250D02*
G01*
X126281250Y-108281250D01*
X126281250Y-107977679D01*
X126433036Y-107977679D01*
X126433036Y-108281250D01*
G37*
G36*
X127343750Y-108129464D02*
G01*
X127343750Y-108281250D01*
X127191964Y-108281250D01*
X127191964Y-108129464D01*
X127040179Y-108129464D01*
X127040179Y-107977679D01*
X127343750Y-107977679D01*
X127343750Y-108129464D01*
G37*
G36*
X124763393Y-107522321D02*
G01*
X124763393Y-107674107D01*
X124763393Y-107825893D01*
X124611607Y-107825893D01*
X124611607Y-107977679D01*
X124459821Y-107977679D01*
X124459821Y-107825893D01*
X124308036Y-107825893D01*
X124308036Y-107977679D01*
X124459821Y-107977679D01*
X124459821Y-108129464D01*
X124156250Y-108129464D01*
X124156250Y-107977679D01*
X124156250Y-107825893D01*
X124156250Y-107674107D01*
X124308036Y-107674107D01*
X124611607Y-107674107D01*
X124611607Y-107522321D01*
X124308036Y-107522321D01*
X124308036Y-107674107D01*
X124156250Y-107674107D01*
X124156250Y-107522321D01*
X124156250Y-107370536D01*
X124763393Y-107370536D01*
X124763393Y-107522321D01*
G37*
G36*
X124763393Y-108129464D02*
G01*
X124611607Y-108129464D01*
X124611607Y-107977679D01*
X124763393Y-107977679D01*
X124763393Y-108129464D01*
G37*
G36*
X125218750Y-108129464D02*
G01*
X124915179Y-108129464D01*
X124915179Y-107977679D01*
X125218750Y-107977679D01*
X125218750Y-108129464D01*
G37*
G36*
X125977679Y-107522321D02*
G01*
X125977679Y-107674107D01*
X125825893Y-107674107D01*
X125825893Y-107825893D01*
X125977679Y-107825893D01*
X125977679Y-107977679D01*
X125825893Y-107977679D01*
X125825893Y-108129464D01*
X125674107Y-108129464D01*
X125674107Y-107977679D01*
X125674107Y-107825893D01*
X125370536Y-107825893D01*
X125370536Y-107674107D01*
X125522321Y-107674107D01*
X125522321Y-107522321D01*
X125370536Y-107522321D01*
X125370536Y-107370536D01*
X125977679Y-107370536D01*
X125977679Y-107522321D01*
G37*
G36*
X126888393Y-108129464D02*
G01*
X126736607Y-108129464D01*
X126736607Y-107825893D01*
X126888393Y-107825893D01*
X126888393Y-108129464D01*
G37*
G36*
X125370536Y-107977679D02*
G01*
X125218750Y-107977679D01*
X125218750Y-107825893D01*
X125370536Y-107825893D01*
X125370536Y-107977679D01*
G37*
G36*
X127040179Y-107522321D02*
G01*
X126888393Y-107522321D01*
X126888393Y-107674107D01*
X126584821Y-107674107D01*
X126584821Y-107825893D01*
X126281250Y-107825893D01*
X126281250Y-107977679D01*
X126129464Y-107977679D01*
X126129464Y-107825893D01*
X126129464Y-107674107D01*
X126433036Y-107674107D01*
X126433036Y-107522321D01*
X126584821Y-107522321D01*
X126584821Y-107370536D01*
X127040179Y-107370536D01*
X127040179Y-107522321D01*
G37*
G36*
X125066964Y-107674107D02*
G01*
X125218750Y-107674107D01*
X125218750Y-107825893D01*
X124915179Y-107825893D01*
X124915179Y-107674107D01*
X124915179Y-107522321D01*
X125066964Y-107522321D01*
X125066964Y-107674107D01*
G37*
G36*
X127343750Y-107674107D02*
G01*
X127343750Y-107825893D01*
X126888393Y-107825893D01*
X126888393Y-107674107D01*
X127191964Y-107674107D01*
X127191964Y-107370536D01*
X127343750Y-107370536D01*
X127343750Y-107674107D01*
G37*
G36*
X125218750Y-107522321D02*
G01*
X125066964Y-107522321D01*
X125066964Y-107370536D01*
X125218750Y-107370536D01*
X125218750Y-107522321D01*
G37*
G36*
X126281250Y-107522321D02*
G01*
X126129464Y-107522321D01*
X126129464Y-107370536D01*
X126281250Y-107370536D01*
X126281250Y-107522321D01*
G37*
G36*
X126129464Y-107370536D02*
G01*
X125977679Y-107370536D01*
X125977679Y-107066964D01*
X126129464Y-107066964D01*
X126129464Y-107370536D01*
G37*
G36*
X124915179Y-106915179D02*
G01*
X124459821Y-106915179D01*
X124459821Y-106459821D01*
X124915179Y-106459821D01*
X124915179Y-106915179D01*
G37*
G36*
X125218750Y-106308036D02*
G01*
X125218750Y-107066964D01*
X125218750Y-107218750D01*
X124156250Y-107218750D01*
X124156250Y-107066964D01*
X124308036Y-107066964D01*
X125066964Y-107066964D01*
X125066964Y-106308036D01*
X124308036Y-106308036D01*
X124308036Y-107066964D01*
X124156250Y-107066964D01*
X124156250Y-106308036D01*
X124156250Y-106156250D01*
X125218750Y-106156250D01*
X125218750Y-106308036D01*
G37*
G36*
X125522321Y-107218750D02*
G01*
X125370536Y-107218750D01*
X125370536Y-107066964D01*
X125522321Y-107066964D01*
X125522321Y-107218750D01*
G37*
G36*
X125977679Y-107066964D02*
G01*
X125825893Y-107066964D01*
X125825893Y-107218750D01*
X125674107Y-107218750D01*
X125674107Y-107066964D01*
X125522321Y-107066964D01*
X125522321Y-106915179D01*
X125977679Y-106915179D01*
X125977679Y-107066964D01*
G37*
G36*
X127040179Y-106915179D02*
G01*
X126584821Y-106915179D01*
X126584821Y-106459821D01*
X127040179Y-106459821D01*
X127040179Y-106915179D01*
G37*
G36*
X127343750Y-106308036D02*
G01*
X127343750Y-107066964D01*
X127343750Y-107218750D01*
X126281250Y-107218750D01*
X126281250Y-107066964D01*
X126433036Y-107066964D01*
X127191964Y-107066964D01*
X127191964Y-106308036D01*
X126433036Y-106308036D01*
X126433036Y-107066964D01*
X126281250Y-107066964D01*
X126281250Y-106308036D01*
X126281250Y-106156250D01*
X127343750Y-106156250D01*
X127343750Y-106308036D01*
G37*
G36*
X125674107Y-106763393D02*
G01*
X125522321Y-106763393D01*
X125522321Y-106915179D01*
X125370536Y-106915179D01*
X125370536Y-106763393D01*
X125370536Y-106459821D01*
X125674107Y-106459821D01*
X125674107Y-106763393D01*
G37*
G36*
X126129464Y-106915179D02*
G01*
X125977679Y-106915179D01*
X125977679Y-106763393D01*
X126129464Y-106763393D01*
X126129464Y-106915179D01*
G37*
G36*
X125825893Y-106308036D02*
G01*
X125977679Y-106308036D01*
X125977679Y-106459821D01*
X125977679Y-106611607D01*
X125825893Y-106611607D01*
X125825893Y-106459821D01*
X125674107Y-106459821D01*
X125674107Y-106308036D01*
X125674107Y-106156250D01*
X125825893Y-106156250D01*
X125825893Y-106308036D01*
G37*
G36*
X125522321Y-106308036D02*
G01*
X125370536Y-106308036D01*
X125370536Y-106156250D01*
X125522321Y-106156250D01*
X125522321Y-106308036D01*
G37*
G36*
X126129464Y-106308036D02*
G01*
X125977679Y-106308036D01*
X125977679Y-106156250D01*
X126129464Y-106156250D01*
X126129464Y-106308036D01*
G37*
D11*
X148975071Y-103015492D02*
X148975071Y-102253492D01*
X148975071Y-102253492D02*
X149156500Y-102253492D01*
X149156500Y-102253492D02*
X149265357Y-102289778D01*
X149265357Y-102289778D02*
X149337928Y-102362349D01*
X149337928Y-102362349D02*
X149374214Y-102434921D01*
X149374214Y-102434921D02*
X149410500Y-102580064D01*
X149410500Y-102580064D02*
X149410500Y-102688921D01*
X149410500Y-102688921D02*
X149374214Y-102834064D01*
X149374214Y-102834064D02*
X149337928Y-102906635D01*
X149337928Y-102906635D02*
X149265357Y-102979207D01*
X149265357Y-102979207D02*
X149156500Y-103015492D01*
X149156500Y-103015492D02*
X148975071Y-103015492D01*
X149664500Y-102253492D02*
X150136214Y-102253492D01*
X150136214Y-102253492D02*
X149882214Y-102543778D01*
X149882214Y-102543778D02*
X149991071Y-102543778D01*
X149991071Y-102543778D02*
X150063643Y-102580064D01*
X150063643Y-102580064D02*
X150099928Y-102616349D01*
X150099928Y-102616349D02*
X150136214Y-102688921D01*
X150136214Y-102688921D02*
X150136214Y-102870349D01*
X150136214Y-102870349D02*
X150099928Y-102942921D01*
X150099928Y-102942921D02*
X150063643Y-102979207D01*
X150063643Y-102979207D02*
X149991071Y-103015492D01*
X149991071Y-103015492D02*
X149773357Y-103015492D01*
X149773357Y-103015492D02*
X149700785Y-102979207D01*
X149700785Y-102979207D02*
X149664500Y-102942921D01*
X169635911Y-105479857D02*
X168873911Y-105479857D01*
X168873911Y-105479857D02*
X168873911Y-105189571D01*
X168873911Y-105189571D02*
X168910197Y-105117000D01*
X168910197Y-105117000D02*
X168946483Y-105080714D01*
X168946483Y-105080714D02*
X169019054Y-105044428D01*
X169019054Y-105044428D02*
X169127911Y-105044428D01*
X169127911Y-105044428D02*
X169200483Y-105080714D01*
X169200483Y-105080714D02*
X169236768Y-105117000D01*
X169236768Y-105117000D02*
X169273054Y-105189571D01*
X169273054Y-105189571D02*
X169273054Y-105479857D01*
X168873911Y-104572714D02*
X168873911Y-104427571D01*
X168873911Y-104427571D02*
X168910197Y-104355000D01*
X168910197Y-104355000D02*
X168982768Y-104282428D01*
X168982768Y-104282428D02*
X169127911Y-104246143D01*
X169127911Y-104246143D02*
X169381911Y-104246143D01*
X169381911Y-104246143D02*
X169527054Y-104282428D01*
X169527054Y-104282428D02*
X169599626Y-104355000D01*
X169599626Y-104355000D02*
X169635911Y-104427571D01*
X169635911Y-104427571D02*
X169635911Y-104572714D01*
X169635911Y-104572714D02*
X169599626Y-104645286D01*
X169599626Y-104645286D02*
X169527054Y-104717857D01*
X169527054Y-104717857D02*
X169381911Y-104754143D01*
X169381911Y-104754143D02*
X169127911Y-104754143D01*
X169127911Y-104754143D02*
X168982768Y-104717857D01*
X168982768Y-104717857D02*
X168910197Y-104645286D01*
X168910197Y-104645286D02*
X168873911Y-104572714D01*
X168873911Y-103992142D02*
X169635911Y-103810714D01*
X169635911Y-103810714D02*
X169091626Y-103665571D01*
X169091626Y-103665571D02*
X169635911Y-103520428D01*
X169635911Y-103520428D02*
X168873911Y-103339000D01*
X169236768Y-103048714D02*
X169236768Y-102794714D01*
X169635911Y-102685857D02*
X169635911Y-103048714D01*
X169635911Y-103048714D02*
X168873911Y-103048714D01*
X168873911Y-103048714D02*
X168873911Y-102685857D01*
X169635911Y-101923856D02*
X169273054Y-102177856D01*
X169635911Y-102359285D02*
X168873911Y-102359285D01*
X168873911Y-102359285D02*
X168873911Y-102068999D01*
X168873911Y-102068999D02*
X168910197Y-101996428D01*
X168910197Y-101996428D02*
X168946483Y-101960142D01*
X168946483Y-101960142D02*
X169019054Y-101923856D01*
X169019054Y-101923856D02*
X169127911Y-101923856D01*
X169127911Y-101923856D02*
X169200483Y-101960142D01*
X169200483Y-101960142D02*
X169236768Y-101996428D01*
X169236768Y-101996428D02*
X169273054Y-102068999D01*
X169273054Y-102068999D02*
X169273054Y-102359285D01*
X132023000Y-92123340D02*
X131986714Y-92159626D01*
X131986714Y-92159626D02*
X131877857Y-92195911D01*
X131877857Y-92195911D02*
X131805285Y-92195911D01*
X131805285Y-92195911D02*
X131696428Y-92159626D01*
X131696428Y-92159626D02*
X131623857Y-92087054D01*
X131623857Y-92087054D02*
X131587571Y-92014483D01*
X131587571Y-92014483D02*
X131551285Y-91869340D01*
X131551285Y-91869340D02*
X131551285Y-91760483D01*
X131551285Y-91760483D02*
X131587571Y-91615340D01*
X131587571Y-91615340D02*
X131623857Y-91542768D01*
X131623857Y-91542768D02*
X131696428Y-91470197D01*
X131696428Y-91470197D02*
X131805285Y-91433911D01*
X131805285Y-91433911D02*
X131877857Y-91433911D01*
X131877857Y-91433911D02*
X131986714Y-91470197D01*
X131986714Y-91470197D02*
X132023000Y-91506483D01*
X132277000Y-91433911D02*
X132748714Y-91433911D01*
X132748714Y-91433911D02*
X132494714Y-91724197D01*
X132494714Y-91724197D02*
X132603571Y-91724197D01*
X132603571Y-91724197D02*
X132676143Y-91760483D01*
X132676143Y-91760483D02*
X132712428Y-91796768D01*
X132712428Y-91796768D02*
X132748714Y-91869340D01*
X132748714Y-91869340D02*
X132748714Y-92050768D01*
X132748714Y-92050768D02*
X132712428Y-92123340D01*
X132712428Y-92123340D02*
X132676143Y-92159626D01*
X132676143Y-92159626D02*
X132603571Y-92195911D01*
X132603571Y-92195911D02*
X132385857Y-92195911D01*
X132385857Y-92195911D02*
X132313285Y-92159626D01*
X132313285Y-92159626D02*
X132277000Y-92123340D01*
X126883143Y-104579626D02*
X126992001Y-104615911D01*
X126992001Y-104615911D02*
X127173429Y-104615911D01*
X127173429Y-104615911D02*
X127246001Y-104579626D01*
X127246001Y-104579626D02*
X127282286Y-104543340D01*
X127282286Y-104543340D02*
X127318572Y-104470768D01*
X127318572Y-104470768D02*
X127318572Y-104398197D01*
X127318572Y-104398197D02*
X127282286Y-104325626D01*
X127282286Y-104325626D02*
X127246001Y-104289340D01*
X127246001Y-104289340D02*
X127173429Y-104253054D01*
X127173429Y-104253054D02*
X127028286Y-104216768D01*
X127028286Y-104216768D02*
X126955715Y-104180483D01*
X126955715Y-104180483D02*
X126919429Y-104144197D01*
X126919429Y-104144197D02*
X126883143Y-104071626D01*
X126883143Y-104071626D02*
X126883143Y-103999054D01*
X126883143Y-103999054D02*
X126919429Y-103926483D01*
X126919429Y-103926483D02*
X126955715Y-103890197D01*
X126955715Y-103890197D02*
X127028286Y-103853911D01*
X127028286Y-103853911D02*
X127209715Y-103853911D01*
X127209715Y-103853911D02*
X127318572Y-103890197D01*
X127536286Y-103853911D02*
X127971715Y-103853911D01*
X127754000Y-104615911D02*
X127754000Y-103853911D01*
X128189428Y-104398197D02*
X128552286Y-104398197D01*
X128116857Y-104615911D02*
X128370857Y-103853911D01*
X128370857Y-103853911D02*
X128624857Y-104615911D01*
X128770000Y-103853911D02*
X129205429Y-103853911D01*
X128987714Y-104615911D02*
X128987714Y-103853911D01*
X129459428Y-103853911D02*
X129459428Y-104470768D01*
X129459428Y-104470768D02*
X129495714Y-104543340D01*
X129495714Y-104543340D02*
X129532000Y-104579626D01*
X129532000Y-104579626D02*
X129604571Y-104615911D01*
X129604571Y-104615911D02*
X129749714Y-104615911D01*
X129749714Y-104615911D02*
X129822285Y-104579626D01*
X129822285Y-104579626D02*
X129858571Y-104543340D01*
X129858571Y-104543340D02*
X129894857Y-104470768D01*
X129894857Y-104470768D02*
X129894857Y-103853911D01*
X130221428Y-104579626D02*
X130330286Y-104615911D01*
X130330286Y-104615911D02*
X130511714Y-104615911D01*
X130511714Y-104615911D02*
X130584286Y-104579626D01*
X130584286Y-104579626D02*
X130620571Y-104543340D01*
X130620571Y-104543340D02*
X130656857Y-104470768D01*
X130656857Y-104470768D02*
X130656857Y-104398197D01*
X130656857Y-104398197D02*
X130620571Y-104325626D01*
X130620571Y-104325626D02*
X130584286Y-104289340D01*
X130584286Y-104289340D02*
X130511714Y-104253054D01*
X130511714Y-104253054D02*
X130366571Y-104216768D01*
X130366571Y-104216768D02*
X130294000Y-104180483D01*
X130294000Y-104180483D02*
X130257714Y-104144197D01*
X130257714Y-104144197D02*
X130221428Y-104071626D01*
X130221428Y-104071626D02*
X130221428Y-103999054D01*
X130221428Y-103999054D02*
X130257714Y-103926483D01*
X130257714Y-103926483D02*
X130294000Y-103890197D01*
X130294000Y-103890197D02*
X130366571Y-103853911D01*
X130366571Y-103853911D02*
X130548000Y-103853911D01*
X130548000Y-103853911D02*
X130656857Y-103890197D01*
X136438000Y-87973759D02*
X136401714Y-88010045D01*
X136401714Y-88010045D02*
X136292857Y-88046330D01*
X136292857Y-88046330D02*
X136220285Y-88046330D01*
X136220285Y-88046330D02*
X136111428Y-88010045D01*
X136111428Y-88010045D02*
X136038857Y-87937473D01*
X136038857Y-87937473D02*
X136002571Y-87864902D01*
X136002571Y-87864902D02*
X135966285Y-87719759D01*
X135966285Y-87719759D02*
X135966285Y-87610902D01*
X135966285Y-87610902D02*
X136002571Y-87465759D01*
X136002571Y-87465759D02*
X136038857Y-87393187D01*
X136038857Y-87393187D02*
X136111428Y-87320616D01*
X136111428Y-87320616D02*
X136220285Y-87284330D01*
X136220285Y-87284330D02*
X136292857Y-87284330D01*
X136292857Y-87284330D02*
X136401714Y-87320616D01*
X136401714Y-87320616D02*
X136438000Y-87356902D01*
X137091143Y-87538330D02*
X137091143Y-88046330D01*
X136909714Y-87248045D02*
X136728285Y-87792330D01*
X136728285Y-87792330D02*
X137200000Y-87792330D01*
X155644428Y-90053492D02*
X155644428Y-90670349D01*
X155644428Y-90670349D02*
X155680714Y-90742921D01*
X155680714Y-90742921D02*
X155717000Y-90779207D01*
X155717000Y-90779207D02*
X155789571Y-90815492D01*
X155789571Y-90815492D02*
X155934714Y-90815492D01*
X155934714Y-90815492D02*
X156007285Y-90779207D01*
X156007285Y-90779207D02*
X156043571Y-90742921D01*
X156043571Y-90742921D02*
X156079857Y-90670349D01*
X156079857Y-90670349D02*
X156079857Y-90053492D01*
X156406428Y-90126064D02*
X156442714Y-90089778D01*
X156442714Y-90089778D02*
X156515286Y-90053492D01*
X156515286Y-90053492D02*
X156696714Y-90053492D01*
X156696714Y-90053492D02*
X156769286Y-90089778D01*
X156769286Y-90089778D02*
X156805571Y-90126064D01*
X156805571Y-90126064D02*
X156841857Y-90198635D01*
X156841857Y-90198635D02*
X156841857Y-90271207D01*
X156841857Y-90271207D02*
X156805571Y-90380064D01*
X156805571Y-90380064D02*
X156370143Y-90815492D01*
X156370143Y-90815492D02*
X156841857Y-90815492D01*
X138584428Y-113783911D02*
X138584428Y-114400768D01*
X138584428Y-114400768D02*
X138620714Y-114473340D01*
X138620714Y-114473340D02*
X138657000Y-114509626D01*
X138657000Y-114509626D02*
X138729571Y-114545911D01*
X138729571Y-114545911D02*
X138874714Y-114545911D01*
X138874714Y-114545911D02*
X138947285Y-114509626D01*
X138947285Y-114509626D02*
X138983571Y-114473340D01*
X138983571Y-114473340D02*
X139019857Y-114400768D01*
X139019857Y-114400768D02*
X139019857Y-113783911D01*
X139346428Y-114328197D02*
X139709286Y-114328197D01*
X139273857Y-114545911D02*
X139527857Y-113783911D01*
X139527857Y-113783911D02*
X139781857Y-114545911D01*
X140471286Y-114545911D02*
X140217286Y-114183054D01*
X140035857Y-114545911D02*
X140035857Y-113783911D01*
X140035857Y-113783911D02*
X140326143Y-113783911D01*
X140326143Y-113783911D02*
X140398714Y-113820197D01*
X140398714Y-113820197D02*
X140435000Y-113856483D01*
X140435000Y-113856483D02*
X140471286Y-113929054D01*
X140471286Y-113929054D02*
X140471286Y-114037911D01*
X140471286Y-114037911D02*
X140435000Y-114110483D01*
X140435000Y-114110483D02*
X140398714Y-114146768D01*
X140398714Y-114146768D02*
X140326143Y-114183054D01*
X140326143Y-114183054D02*
X140035857Y-114183054D01*
X140689000Y-113783911D02*
X141124429Y-113783911D01*
X140906714Y-114545911D02*
X140906714Y-113783911D01*
X136873000Y-108523340D02*
X136836714Y-108559626D01*
X136836714Y-108559626D02*
X136727857Y-108595911D01*
X136727857Y-108595911D02*
X136655285Y-108595911D01*
X136655285Y-108595911D02*
X136546428Y-108559626D01*
X136546428Y-108559626D02*
X136473857Y-108487054D01*
X136473857Y-108487054D02*
X136437571Y-108414483D01*
X136437571Y-108414483D02*
X136401285Y-108269340D01*
X136401285Y-108269340D02*
X136401285Y-108160483D01*
X136401285Y-108160483D02*
X136437571Y-108015340D01*
X136437571Y-108015340D02*
X136473857Y-107942768D01*
X136473857Y-107942768D02*
X136546428Y-107870197D01*
X136546428Y-107870197D02*
X136655285Y-107833911D01*
X136655285Y-107833911D02*
X136727857Y-107833911D01*
X136727857Y-107833911D02*
X136836714Y-107870197D01*
X136836714Y-107870197D02*
X136873000Y-107906483D01*
X137526143Y-107833911D02*
X137381000Y-107833911D01*
X137381000Y-107833911D02*
X137308428Y-107870197D01*
X137308428Y-107870197D02*
X137272143Y-107906483D01*
X137272143Y-107906483D02*
X137199571Y-108015340D01*
X137199571Y-108015340D02*
X137163285Y-108160483D01*
X137163285Y-108160483D02*
X137163285Y-108450768D01*
X137163285Y-108450768D02*
X137199571Y-108523340D01*
X137199571Y-108523340D02*
X137235857Y-108559626D01*
X137235857Y-108559626D02*
X137308428Y-108595911D01*
X137308428Y-108595911D02*
X137453571Y-108595911D01*
X137453571Y-108595911D02*
X137526143Y-108559626D01*
X137526143Y-108559626D02*
X137562428Y-108523340D01*
X137562428Y-108523340D02*
X137598714Y-108450768D01*
X137598714Y-108450768D02*
X137598714Y-108269340D01*
X137598714Y-108269340D02*
X137562428Y-108196768D01*
X137562428Y-108196768D02*
X137526143Y-108160483D01*
X137526143Y-108160483D02*
X137453571Y-108124197D01*
X137453571Y-108124197D02*
X137308428Y-108124197D01*
X137308428Y-108124197D02*
X137235857Y-108160483D01*
X137235857Y-108160483D02*
X137199571Y-108196768D01*
X137199571Y-108196768D02*
X137163285Y-108269340D01*
X140610143Y-90926330D02*
X140356143Y-90563473D01*
X140174714Y-90926330D02*
X140174714Y-90164330D01*
X140174714Y-90164330D02*
X140465000Y-90164330D01*
X140465000Y-90164330D02*
X140537571Y-90200616D01*
X140537571Y-90200616D02*
X140573857Y-90236902D01*
X140573857Y-90236902D02*
X140610143Y-90309473D01*
X140610143Y-90309473D02*
X140610143Y-90418330D01*
X140610143Y-90418330D02*
X140573857Y-90490902D01*
X140573857Y-90490902D02*
X140537571Y-90527187D01*
X140537571Y-90527187D02*
X140465000Y-90563473D01*
X140465000Y-90563473D02*
X140174714Y-90563473D01*
X141335857Y-90926330D02*
X140900428Y-90926330D01*
X141118143Y-90926330D02*
X141118143Y-90164330D01*
X141118143Y-90164330D02*
X141045571Y-90273187D01*
X141045571Y-90273187D02*
X140973000Y-90345759D01*
X140973000Y-90345759D02*
X140900428Y-90382045D01*
X141626142Y-90236902D02*
X141662428Y-90200616D01*
X141662428Y-90200616D02*
X141735000Y-90164330D01*
X141735000Y-90164330D02*
X141916428Y-90164330D01*
X141916428Y-90164330D02*
X141989000Y-90200616D01*
X141989000Y-90200616D02*
X142025285Y-90236902D01*
X142025285Y-90236902D02*
X142061571Y-90309473D01*
X142061571Y-90309473D02*
X142061571Y-90382045D01*
X142061571Y-90382045D02*
X142025285Y-90490902D01*
X142025285Y-90490902D02*
X141589857Y-90926330D01*
X141589857Y-90926330D02*
X142061571Y-90926330D01*
X156403000Y-87615911D02*
X156149000Y-87253054D01*
X155967571Y-87615911D02*
X155967571Y-86853911D01*
X155967571Y-86853911D02*
X156257857Y-86853911D01*
X156257857Y-86853911D02*
X156330428Y-86890197D01*
X156330428Y-86890197D02*
X156366714Y-86926483D01*
X156366714Y-86926483D02*
X156403000Y-86999054D01*
X156403000Y-86999054D02*
X156403000Y-87107911D01*
X156403000Y-87107911D02*
X156366714Y-87180483D01*
X156366714Y-87180483D02*
X156330428Y-87216768D01*
X156330428Y-87216768D02*
X156257857Y-87253054D01*
X156257857Y-87253054D02*
X155967571Y-87253054D01*
X157056143Y-87107911D02*
X157056143Y-87615911D01*
X156874714Y-86817626D02*
X156693285Y-87361911D01*
X156693285Y-87361911D02*
X157165000Y-87361911D01*
X155290143Y-106033340D02*
X155253857Y-106069626D01*
X155253857Y-106069626D02*
X155145000Y-106105911D01*
X155145000Y-106105911D02*
X155072428Y-106105911D01*
X155072428Y-106105911D02*
X154963571Y-106069626D01*
X154963571Y-106069626D02*
X154891000Y-105997054D01*
X154891000Y-105997054D02*
X154854714Y-105924483D01*
X154854714Y-105924483D02*
X154818428Y-105779340D01*
X154818428Y-105779340D02*
X154818428Y-105670483D01*
X154818428Y-105670483D02*
X154854714Y-105525340D01*
X154854714Y-105525340D02*
X154891000Y-105452768D01*
X154891000Y-105452768D02*
X154963571Y-105380197D01*
X154963571Y-105380197D02*
X155072428Y-105343911D01*
X155072428Y-105343911D02*
X155145000Y-105343911D01*
X155145000Y-105343911D02*
X155253857Y-105380197D01*
X155253857Y-105380197D02*
X155290143Y-105416483D01*
X156015857Y-106105911D02*
X155580428Y-106105911D01*
X155798143Y-106105911D02*
X155798143Y-105343911D01*
X155798143Y-105343911D02*
X155725571Y-105452768D01*
X155725571Y-105452768D02*
X155653000Y-105525340D01*
X155653000Y-105525340D02*
X155580428Y-105561626D01*
X156269857Y-105343911D02*
X156741571Y-105343911D01*
X156741571Y-105343911D02*
X156487571Y-105634197D01*
X156487571Y-105634197D02*
X156596428Y-105634197D01*
X156596428Y-105634197D02*
X156669000Y-105670483D01*
X156669000Y-105670483D02*
X156705285Y-105706768D01*
X156705285Y-105706768D02*
X156741571Y-105779340D01*
X156741571Y-105779340D02*
X156741571Y-105960768D01*
X156741571Y-105960768D02*
X156705285Y-106033340D01*
X156705285Y-106033340D02*
X156669000Y-106069626D01*
X156669000Y-106069626D02*
X156596428Y-106105911D01*
X156596428Y-106105911D02*
X156378714Y-106105911D01*
X156378714Y-106105911D02*
X156306142Y-106069626D01*
X156306142Y-106069626D02*
X156269857Y-106033340D01*
X152721000Y-98166349D02*
X152467000Y-98166349D01*
X152467000Y-98565492D02*
X152467000Y-97803492D01*
X152467000Y-97803492D02*
X152829857Y-97803492D01*
X153519286Y-98565492D02*
X153083857Y-98565492D01*
X153301572Y-98565492D02*
X153301572Y-97803492D01*
X153301572Y-97803492D02*
X153229000Y-97912349D01*
X153229000Y-97912349D02*
X153156429Y-97984921D01*
X153156429Y-97984921D02*
X153083857Y-98021207D01*
X131643340Y-102846999D02*
X131679626Y-102883285D01*
X131679626Y-102883285D02*
X131715911Y-102992142D01*
X131715911Y-102992142D02*
X131715911Y-103064714D01*
X131715911Y-103064714D02*
X131679626Y-103173571D01*
X131679626Y-103173571D02*
X131607054Y-103246142D01*
X131607054Y-103246142D02*
X131534483Y-103282428D01*
X131534483Y-103282428D02*
X131389340Y-103318714D01*
X131389340Y-103318714D02*
X131280483Y-103318714D01*
X131280483Y-103318714D02*
X131135340Y-103282428D01*
X131135340Y-103282428D02*
X131062768Y-103246142D01*
X131062768Y-103246142D02*
X130990197Y-103173571D01*
X130990197Y-103173571D02*
X130953911Y-103064714D01*
X130953911Y-103064714D02*
X130953911Y-102992142D01*
X130953911Y-102992142D02*
X130990197Y-102883285D01*
X130990197Y-102883285D02*
X131026483Y-102846999D01*
X131715911Y-102484142D02*
X131715911Y-102338999D01*
X131715911Y-102338999D02*
X131679626Y-102266428D01*
X131679626Y-102266428D02*
X131643340Y-102230142D01*
X131643340Y-102230142D02*
X131534483Y-102157571D01*
X131534483Y-102157571D02*
X131389340Y-102121285D01*
X131389340Y-102121285D02*
X131099054Y-102121285D01*
X131099054Y-102121285D02*
X131026483Y-102157571D01*
X131026483Y-102157571D02*
X130990197Y-102193857D01*
X130990197Y-102193857D02*
X130953911Y-102266428D01*
X130953911Y-102266428D02*
X130953911Y-102411571D01*
X130953911Y-102411571D02*
X130990197Y-102484142D01*
X130990197Y-102484142D02*
X131026483Y-102520428D01*
X131026483Y-102520428D02*
X131099054Y-102556714D01*
X131099054Y-102556714D02*
X131280483Y-102556714D01*
X131280483Y-102556714D02*
X131353054Y-102520428D01*
X131353054Y-102520428D02*
X131389340Y-102484142D01*
X131389340Y-102484142D02*
X131425626Y-102411571D01*
X131425626Y-102411571D02*
X131425626Y-102266428D01*
X131425626Y-102266428D02*
X131389340Y-102193857D01*
X131389340Y-102193857D02*
X131353054Y-102157571D01*
X131353054Y-102157571D02*
X131280483Y-102121285D01*
X155662858Y-82263911D02*
X156134572Y-82263911D01*
X156134572Y-82263911D02*
X155880572Y-82554197D01*
X155880572Y-82554197D02*
X155989429Y-82554197D01*
X155989429Y-82554197D02*
X156062001Y-82590483D01*
X156062001Y-82590483D02*
X156098286Y-82626768D01*
X156098286Y-82626768D02*
X156134572Y-82699340D01*
X156134572Y-82699340D02*
X156134572Y-82880768D01*
X156134572Y-82880768D02*
X156098286Y-82953340D01*
X156098286Y-82953340D02*
X156062001Y-82989626D01*
X156062001Y-82989626D02*
X155989429Y-83025911D01*
X155989429Y-83025911D02*
X155771715Y-83025911D01*
X155771715Y-83025911D02*
X155699143Y-82989626D01*
X155699143Y-82989626D02*
X155662858Y-82953340D01*
X156388572Y-82517911D02*
X156570000Y-83025911D01*
X156570000Y-83025911D02*
X156751429Y-82517911D01*
X156969143Y-82263911D02*
X157440857Y-82263911D01*
X157440857Y-82263911D02*
X157186857Y-82554197D01*
X157186857Y-82554197D02*
X157295714Y-82554197D01*
X157295714Y-82554197D02*
X157368286Y-82590483D01*
X157368286Y-82590483D02*
X157404571Y-82626768D01*
X157404571Y-82626768D02*
X157440857Y-82699340D01*
X157440857Y-82699340D02*
X157440857Y-82880768D01*
X157440857Y-82880768D02*
X157404571Y-82953340D01*
X157404571Y-82953340D02*
X157368286Y-82989626D01*
X157368286Y-82989626D02*
X157295714Y-83025911D01*
X157295714Y-83025911D02*
X157078000Y-83025911D01*
X157078000Y-83025911D02*
X157005428Y-82989626D01*
X157005428Y-82989626D02*
X156969143Y-82953340D01*
X125963340Y-95359856D02*
X125999626Y-95396142D01*
X125999626Y-95396142D02*
X126035911Y-95504999D01*
X126035911Y-95504999D02*
X126035911Y-95577571D01*
X126035911Y-95577571D02*
X125999626Y-95686428D01*
X125999626Y-95686428D02*
X125927054Y-95758999D01*
X125927054Y-95758999D02*
X125854483Y-95795285D01*
X125854483Y-95795285D02*
X125709340Y-95831571D01*
X125709340Y-95831571D02*
X125600483Y-95831571D01*
X125600483Y-95831571D02*
X125455340Y-95795285D01*
X125455340Y-95795285D02*
X125382768Y-95758999D01*
X125382768Y-95758999D02*
X125310197Y-95686428D01*
X125310197Y-95686428D02*
X125273911Y-95577571D01*
X125273911Y-95577571D02*
X125273911Y-95504999D01*
X125273911Y-95504999D02*
X125310197Y-95396142D01*
X125310197Y-95396142D02*
X125346483Y-95359856D01*
X126035911Y-94634142D02*
X126035911Y-95069571D01*
X126035911Y-94851856D02*
X125273911Y-94851856D01*
X125273911Y-94851856D02*
X125382768Y-94924428D01*
X125382768Y-94924428D02*
X125455340Y-94996999D01*
X125455340Y-94996999D02*
X125491626Y-95069571D01*
X125346483Y-94343857D02*
X125310197Y-94307571D01*
X125310197Y-94307571D02*
X125273911Y-94235000D01*
X125273911Y-94235000D02*
X125273911Y-94053571D01*
X125273911Y-94053571D02*
X125310197Y-93981000D01*
X125310197Y-93981000D02*
X125346483Y-93944714D01*
X125346483Y-93944714D02*
X125419054Y-93908428D01*
X125419054Y-93908428D02*
X125491626Y-93908428D01*
X125491626Y-93908428D02*
X125600483Y-93944714D01*
X125600483Y-93944714D02*
X126035911Y-94380142D01*
X126035911Y-94380142D02*
X126035911Y-93908428D01*
X128583000Y-88905911D02*
X128329000Y-88543054D01*
X128147571Y-88905911D02*
X128147571Y-88143911D01*
X128147571Y-88143911D02*
X128437857Y-88143911D01*
X128437857Y-88143911D02*
X128510428Y-88180197D01*
X128510428Y-88180197D02*
X128546714Y-88216483D01*
X128546714Y-88216483D02*
X128583000Y-88289054D01*
X128583000Y-88289054D02*
X128583000Y-88397911D01*
X128583000Y-88397911D02*
X128546714Y-88470483D01*
X128546714Y-88470483D02*
X128510428Y-88506768D01*
X128510428Y-88506768D02*
X128437857Y-88543054D01*
X128437857Y-88543054D02*
X128147571Y-88543054D01*
X129308714Y-88905911D02*
X128873285Y-88905911D01*
X129091000Y-88905911D02*
X129091000Y-88143911D01*
X129091000Y-88143911D02*
X129018428Y-88252768D01*
X129018428Y-88252768D02*
X128945857Y-88325340D01*
X128945857Y-88325340D02*
X128873285Y-88361626D01*
X145093000Y-114385911D02*
X144730143Y-114385911D01*
X144730143Y-114385911D02*
X144730143Y-113623911D01*
X145310714Y-113696483D02*
X145347000Y-113660197D01*
X145347000Y-113660197D02*
X145419572Y-113623911D01*
X145419572Y-113623911D02*
X145601000Y-113623911D01*
X145601000Y-113623911D02*
X145673572Y-113660197D01*
X145673572Y-113660197D02*
X145709857Y-113696483D01*
X145709857Y-113696483D02*
X145746143Y-113769054D01*
X145746143Y-113769054D02*
X145746143Y-113841626D01*
X145746143Y-113841626D02*
X145709857Y-113950483D01*
X145709857Y-113950483D02*
X145274429Y-114385911D01*
X145274429Y-114385911D02*
X145746143Y-114385911D01*
X148768000Y-96863340D02*
X148731714Y-96899626D01*
X148731714Y-96899626D02*
X148622857Y-96935911D01*
X148622857Y-96935911D02*
X148550285Y-96935911D01*
X148550285Y-96935911D02*
X148441428Y-96899626D01*
X148441428Y-96899626D02*
X148368857Y-96827054D01*
X148368857Y-96827054D02*
X148332571Y-96754483D01*
X148332571Y-96754483D02*
X148296285Y-96609340D01*
X148296285Y-96609340D02*
X148296285Y-96500483D01*
X148296285Y-96500483D02*
X148332571Y-96355340D01*
X148332571Y-96355340D02*
X148368857Y-96282768D01*
X148368857Y-96282768D02*
X148441428Y-96210197D01*
X148441428Y-96210197D02*
X148550285Y-96173911D01*
X148550285Y-96173911D02*
X148622857Y-96173911D01*
X148622857Y-96173911D02*
X148731714Y-96210197D01*
X148731714Y-96210197D02*
X148768000Y-96246483D01*
X149493714Y-96935911D02*
X149058285Y-96935911D01*
X149276000Y-96935911D02*
X149276000Y-96173911D01*
X149276000Y-96173911D02*
X149203428Y-96282768D01*
X149203428Y-96282768D02*
X149130857Y-96355340D01*
X149130857Y-96355340D02*
X149058285Y-96391626D01*
D10*
X153722857Y-113531752D02*
X153703809Y-113550800D01*
X153703809Y-113550800D02*
X153646667Y-113569847D01*
X153646667Y-113569847D02*
X153608571Y-113569847D01*
X153608571Y-113569847D02*
X153551428Y-113550800D01*
X153551428Y-113550800D02*
X153513333Y-113512704D01*
X153513333Y-113512704D02*
X153494286Y-113474609D01*
X153494286Y-113474609D02*
X153475238Y-113398419D01*
X153475238Y-113398419D02*
X153475238Y-113341276D01*
X153475238Y-113341276D02*
X153494286Y-113265085D01*
X153494286Y-113265085D02*
X153513333Y-113226990D01*
X153513333Y-113226990D02*
X153551428Y-113188895D01*
X153551428Y-113188895D02*
X153608571Y-113169847D01*
X153608571Y-113169847D02*
X153646667Y-113169847D01*
X153646667Y-113169847D02*
X153703809Y-113188895D01*
X153703809Y-113188895D02*
X153722857Y-113207942D01*
X154103809Y-113569847D02*
X153875238Y-113569847D01*
X153989524Y-113569847D02*
X153989524Y-113169847D01*
X153989524Y-113169847D02*
X153951428Y-113226990D01*
X153951428Y-113226990D02*
X153913333Y-113265085D01*
X153913333Y-113265085D02*
X153875238Y-113284133D01*
X154446666Y-113169847D02*
X154370476Y-113169847D01*
X154370476Y-113169847D02*
X154332380Y-113188895D01*
X154332380Y-113188895D02*
X154313333Y-113207942D01*
X154313333Y-113207942D02*
X154275238Y-113265085D01*
X154275238Y-113265085D02*
X154256190Y-113341276D01*
X154256190Y-113341276D02*
X154256190Y-113493657D01*
X154256190Y-113493657D02*
X154275238Y-113531752D01*
X154275238Y-113531752D02*
X154294285Y-113550800D01*
X154294285Y-113550800D02*
X154332380Y-113569847D01*
X154332380Y-113569847D02*
X154408571Y-113569847D01*
X154408571Y-113569847D02*
X154446666Y-113550800D01*
X154446666Y-113550800D02*
X154465714Y-113531752D01*
X154465714Y-113531752D02*
X154484761Y-113493657D01*
X154484761Y-113493657D02*
X154484761Y-113398419D01*
X154484761Y-113398419D02*
X154465714Y-113360323D01*
X154465714Y-113360323D02*
X154446666Y-113341276D01*
X154446666Y-113341276D02*
X154408571Y-113322228D01*
X154408571Y-113322228D02*
X154332380Y-113322228D01*
X154332380Y-113322228D02*
X154294285Y-113341276D01*
X154294285Y-113341276D02*
X154275238Y-113360323D01*
X154275238Y-113360323D02*
X154256190Y-113398419D01*
D11*
X127315857Y-85096768D02*
X127424714Y-85133054D01*
X127424714Y-85133054D02*
X127461000Y-85169340D01*
X127461000Y-85169340D02*
X127497286Y-85241911D01*
X127497286Y-85241911D02*
X127497286Y-85350768D01*
X127497286Y-85350768D02*
X127461000Y-85423340D01*
X127461000Y-85423340D02*
X127424714Y-85459626D01*
X127424714Y-85459626D02*
X127352143Y-85495911D01*
X127352143Y-85495911D02*
X127061857Y-85495911D01*
X127061857Y-85495911D02*
X127061857Y-84733911D01*
X127061857Y-84733911D02*
X127315857Y-84733911D01*
X127315857Y-84733911D02*
X127388429Y-84770197D01*
X127388429Y-84770197D02*
X127424714Y-84806483D01*
X127424714Y-84806483D02*
X127461000Y-84879054D01*
X127461000Y-84879054D02*
X127461000Y-84951626D01*
X127461000Y-84951626D02*
X127424714Y-85024197D01*
X127424714Y-85024197D02*
X127388429Y-85060483D01*
X127388429Y-85060483D02*
X127315857Y-85096768D01*
X127315857Y-85096768D02*
X127061857Y-85096768D01*
X127969000Y-84733911D02*
X128114143Y-84733911D01*
X128114143Y-84733911D02*
X128186714Y-84770197D01*
X128186714Y-84770197D02*
X128259286Y-84842768D01*
X128259286Y-84842768D02*
X128295571Y-84987911D01*
X128295571Y-84987911D02*
X128295571Y-85241911D01*
X128295571Y-85241911D02*
X128259286Y-85387054D01*
X128259286Y-85387054D02*
X128186714Y-85459626D01*
X128186714Y-85459626D02*
X128114143Y-85495911D01*
X128114143Y-85495911D02*
X127969000Y-85495911D01*
X127969000Y-85495911D02*
X127896429Y-85459626D01*
X127896429Y-85459626D02*
X127823857Y-85387054D01*
X127823857Y-85387054D02*
X127787571Y-85241911D01*
X127787571Y-85241911D02*
X127787571Y-84987911D01*
X127787571Y-84987911D02*
X127823857Y-84842768D01*
X127823857Y-84842768D02*
X127896429Y-84770197D01*
X127896429Y-84770197D02*
X127969000Y-84733911D01*
X128767286Y-84733911D02*
X128912429Y-84733911D01*
X128912429Y-84733911D02*
X128985000Y-84770197D01*
X128985000Y-84770197D02*
X129057572Y-84842768D01*
X129057572Y-84842768D02*
X129093857Y-84987911D01*
X129093857Y-84987911D02*
X129093857Y-85241911D01*
X129093857Y-85241911D02*
X129057572Y-85387054D01*
X129057572Y-85387054D02*
X128985000Y-85459626D01*
X128985000Y-85459626D02*
X128912429Y-85495911D01*
X128912429Y-85495911D02*
X128767286Y-85495911D01*
X128767286Y-85495911D02*
X128694715Y-85459626D01*
X128694715Y-85459626D02*
X128622143Y-85387054D01*
X128622143Y-85387054D02*
X128585857Y-85241911D01*
X128585857Y-85241911D02*
X128585857Y-84987911D01*
X128585857Y-84987911D02*
X128622143Y-84842768D01*
X128622143Y-84842768D02*
X128694715Y-84770197D01*
X128694715Y-84770197D02*
X128767286Y-84733911D01*
X129311572Y-84733911D02*
X129747001Y-84733911D01*
X129529286Y-85495911D02*
X129529286Y-84733911D01*
X138940857Y-99065492D02*
X138940857Y-98303492D01*
X138940857Y-98303492D02*
X139194857Y-98847778D01*
X139194857Y-98847778D02*
X139448857Y-98303492D01*
X139448857Y-98303492D02*
X139448857Y-99065492D01*
X140247143Y-98992921D02*
X140210857Y-99029207D01*
X140210857Y-99029207D02*
X140102000Y-99065492D01*
X140102000Y-99065492D02*
X140029428Y-99065492D01*
X140029428Y-99065492D02*
X139920571Y-99029207D01*
X139920571Y-99029207D02*
X139848000Y-98956635D01*
X139848000Y-98956635D02*
X139811714Y-98884064D01*
X139811714Y-98884064D02*
X139775428Y-98738921D01*
X139775428Y-98738921D02*
X139775428Y-98630064D01*
X139775428Y-98630064D02*
X139811714Y-98484921D01*
X139811714Y-98484921D02*
X139848000Y-98412349D01*
X139848000Y-98412349D02*
X139920571Y-98339778D01*
X139920571Y-98339778D02*
X140029428Y-98303492D01*
X140029428Y-98303492D02*
X140102000Y-98303492D01*
X140102000Y-98303492D02*
X140210857Y-98339778D01*
X140210857Y-98339778D02*
X140247143Y-98376064D01*
X140573714Y-98303492D02*
X140573714Y-98920349D01*
X140573714Y-98920349D02*
X140610000Y-98992921D01*
X140610000Y-98992921D02*
X140646286Y-99029207D01*
X140646286Y-99029207D02*
X140718857Y-99065492D01*
X140718857Y-99065492D02*
X140864000Y-99065492D01*
X140864000Y-99065492D02*
X140936571Y-99029207D01*
X140936571Y-99029207D02*
X140972857Y-98992921D01*
X140972857Y-98992921D02*
X141009143Y-98920349D01*
X141009143Y-98920349D02*
X141009143Y-98303492D01*
X142113000Y-108973340D02*
X142076714Y-109009626D01*
X142076714Y-109009626D02*
X141967857Y-109045911D01*
X141967857Y-109045911D02*
X141895285Y-109045911D01*
X141895285Y-109045911D02*
X141786428Y-109009626D01*
X141786428Y-109009626D02*
X141713857Y-108937054D01*
X141713857Y-108937054D02*
X141677571Y-108864483D01*
X141677571Y-108864483D02*
X141641285Y-108719340D01*
X141641285Y-108719340D02*
X141641285Y-108610483D01*
X141641285Y-108610483D02*
X141677571Y-108465340D01*
X141677571Y-108465340D02*
X141713857Y-108392768D01*
X141713857Y-108392768D02*
X141786428Y-108320197D01*
X141786428Y-108320197D02*
X141895285Y-108283911D01*
X141895285Y-108283911D02*
X141967857Y-108283911D01*
X141967857Y-108283911D02*
X142076714Y-108320197D01*
X142076714Y-108320197D02*
X142113000Y-108356483D01*
X142403285Y-108356483D02*
X142439571Y-108320197D01*
X142439571Y-108320197D02*
X142512143Y-108283911D01*
X142512143Y-108283911D02*
X142693571Y-108283911D01*
X142693571Y-108283911D02*
X142766143Y-108320197D01*
X142766143Y-108320197D02*
X142802428Y-108356483D01*
X142802428Y-108356483D02*
X142838714Y-108429054D01*
X142838714Y-108429054D02*
X142838714Y-108501626D01*
X142838714Y-108501626D02*
X142802428Y-108610483D01*
X142802428Y-108610483D02*
X142367000Y-109045911D01*
X142367000Y-109045911D02*
X142838714Y-109045911D01*
X150998340Y-112209437D02*
X151034626Y-112245723D01*
X151034626Y-112245723D02*
X151070911Y-112354580D01*
X151070911Y-112354580D02*
X151070911Y-112427152D01*
X151070911Y-112427152D02*
X151034626Y-112536009D01*
X151034626Y-112536009D02*
X150962054Y-112608580D01*
X150962054Y-112608580D02*
X150889483Y-112644866D01*
X150889483Y-112644866D02*
X150744340Y-112681152D01*
X150744340Y-112681152D02*
X150635483Y-112681152D01*
X150635483Y-112681152D02*
X150490340Y-112644866D01*
X150490340Y-112644866D02*
X150417768Y-112608580D01*
X150417768Y-112608580D02*
X150345197Y-112536009D01*
X150345197Y-112536009D02*
X150308911Y-112427152D01*
X150308911Y-112427152D02*
X150308911Y-112354580D01*
X150308911Y-112354580D02*
X150345197Y-112245723D01*
X150345197Y-112245723D02*
X150381483Y-112209437D01*
X151070911Y-111483723D02*
X151070911Y-111919152D01*
X151070911Y-111701437D02*
X150308911Y-111701437D01*
X150308911Y-111701437D02*
X150417768Y-111774009D01*
X150417768Y-111774009D02*
X150490340Y-111846580D01*
X150490340Y-111846580D02*
X150526626Y-111919152D01*
X150308911Y-110794295D02*
X150308911Y-111157152D01*
X150308911Y-111157152D02*
X150671768Y-111193438D01*
X150671768Y-111193438D02*
X150635483Y-111157152D01*
X150635483Y-111157152D02*
X150599197Y-111084581D01*
X150599197Y-111084581D02*
X150599197Y-110903152D01*
X150599197Y-110903152D02*
X150635483Y-110830581D01*
X150635483Y-110830581D02*
X150671768Y-110794295D01*
X150671768Y-110794295D02*
X150744340Y-110758009D01*
X150744340Y-110758009D02*
X150925768Y-110758009D01*
X150925768Y-110758009D02*
X150998340Y-110794295D01*
X150998340Y-110794295D02*
X151034626Y-110830581D01*
X151034626Y-110830581D02*
X151070911Y-110903152D01*
X151070911Y-110903152D02*
X151070911Y-111084581D01*
X151070911Y-111084581D02*
X151034626Y-111157152D01*
X151034626Y-111157152D02*
X150998340Y-111193438D01*
D10*
X148808571Y-113998490D02*
X148784762Y-114022300D01*
X148784762Y-114022300D02*
X148713333Y-114046109D01*
X148713333Y-114046109D02*
X148665714Y-114046109D01*
X148665714Y-114046109D02*
X148594286Y-114022300D01*
X148594286Y-114022300D02*
X148546667Y-113974680D01*
X148546667Y-113974680D02*
X148522857Y-113927061D01*
X148522857Y-113927061D02*
X148499048Y-113831823D01*
X148499048Y-113831823D02*
X148499048Y-113760395D01*
X148499048Y-113760395D02*
X148522857Y-113665157D01*
X148522857Y-113665157D02*
X148546667Y-113617538D01*
X148546667Y-113617538D02*
X148594286Y-113569919D01*
X148594286Y-113569919D02*
X148665714Y-113546109D01*
X148665714Y-113546109D02*
X148713333Y-113546109D01*
X148713333Y-113546109D02*
X148784762Y-113569919D01*
X148784762Y-113569919D02*
X148808571Y-113593728D01*
X149284762Y-114046109D02*
X148999048Y-114046109D01*
X149141905Y-114046109D02*
X149141905Y-113546109D01*
X149141905Y-113546109D02*
X149094286Y-113617538D01*
X149094286Y-113617538D02*
X149046667Y-113665157D01*
X149046667Y-113665157D02*
X148999048Y-113688966D01*
X149451428Y-113546109D02*
X149784761Y-113546109D01*
X149784761Y-113546109D02*
X149570476Y-114046109D01*
D11*
X157205500Y-117075911D02*
X156951500Y-116713054D01*
X156770071Y-117075911D02*
X156770071Y-116313911D01*
X156770071Y-116313911D02*
X157060357Y-116313911D01*
X157060357Y-116313911D02*
X157132928Y-116350197D01*
X157132928Y-116350197D02*
X157169214Y-116386483D01*
X157169214Y-116386483D02*
X157205500Y-116459054D01*
X157205500Y-116459054D02*
X157205500Y-116567911D01*
X157205500Y-116567911D02*
X157169214Y-116640483D01*
X157169214Y-116640483D02*
X157132928Y-116676768D01*
X157132928Y-116676768D02*
X157060357Y-116713054D01*
X157060357Y-116713054D02*
X156770071Y-116713054D01*
X157640928Y-116640483D02*
X157568357Y-116604197D01*
X157568357Y-116604197D02*
X157532071Y-116567911D01*
X157532071Y-116567911D02*
X157495785Y-116495340D01*
X157495785Y-116495340D02*
X157495785Y-116459054D01*
X157495785Y-116459054D02*
X157532071Y-116386483D01*
X157532071Y-116386483D02*
X157568357Y-116350197D01*
X157568357Y-116350197D02*
X157640928Y-116313911D01*
X157640928Y-116313911D02*
X157786071Y-116313911D01*
X157786071Y-116313911D02*
X157858643Y-116350197D01*
X157858643Y-116350197D02*
X157894928Y-116386483D01*
X157894928Y-116386483D02*
X157931214Y-116459054D01*
X157931214Y-116459054D02*
X157931214Y-116495340D01*
X157931214Y-116495340D02*
X157894928Y-116567911D01*
X157894928Y-116567911D02*
X157858643Y-116604197D01*
X157858643Y-116604197D02*
X157786071Y-116640483D01*
X157786071Y-116640483D02*
X157640928Y-116640483D01*
X157640928Y-116640483D02*
X157568357Y-116676768D01*
X157568357Y-116676768D02*
X157532071Y-116713054D01*
X157532071Y-116713054D02*
X157495785Y-116785626D01*
X157495785Y-116785626D02*
X157495785Y-116930768D01*
X157495785Y-116930768D02*
X157532071Y-117003340D01*
X157532071Y-117003340D02*
X157568357Y-117039626D01*
X157568357Y-117039626D02*
X157640928Y-117075911D01*
X157640928Y-117075911D02*
X157786071Y-117075911D01*
X157786071Y-117075911D02*
X157858643Y-117039626D01*
X157858643Y-117039626D02*
X157894928Y-117003340D01*
X157894928Y-117003340D02*
X157931214Y-116930768D01*
X157931214Y-116930768D02*
X157931214Y-116785626D01*
X157931214Y-116785626D02*
X157894928Y-116713054D01*
X157894928Y-116713054D02*
X157858643Y-116676768D01*
X157858643Y-116676768D02*
X157786071Y-116640483D01*
X124840143Y-100323340D02*
X124803857Y-100359626D01*
X124803857Y-100359626D02*
X124695000Y-100395911D01*
X124695000Y-100395911D02*
X124622428Y-100395911D01*
X124622428Y-100395911D02*
X124513571Y-100359626D01*
X124513571Y-100359626D02*
X124441000Y-100287054D01*
X124441000Y-100287054D02*
X124404714Y-100214483D01*
X124404714Y-100214483D02*
X124368428Y-100069340D01*
X124368428Y-100069340D02*
X124368428Y-99960483D01*
X124368428Y-99960483D02*
X124404714Y-99815340D01*
X124404714Y-99815340D02*
X124441000Y-99742768D01*
X124441000Y-99742768D02*
X124513571Y-99670197D01*
X124513571Y-99670197D02*
X124622428Y-99633911D01*
X124622428Y-99633911D02*
X124695000Y-99633911D01*
X124695000Y-99633911D02*
X124803857Y-99670197D01*
X124803857Y-99670197D02*
X124840143Y-99706483D01*
X125565857Y-100395911D02*
X125130428Y-100395911D01*
X125348143Y-100395911D02*
X125348143Y-99633911D01*
X125348143Y-99633911D02*
X125275571Y-99742768D01*
X125275571Y-99742768D02*
X125203000Y-99815340D01*
X125203000Y-99815340D02*
X125130428Y-99851626D01*
X126291571Y-100395911D02*
X125856142Y-100395911D01*
X126073857Y-100395911D02*
X126073857Y-99633911D01*
X126073857Y-99633911D02*
X126001285Y-99742768D01*
X126001285Y-99742768D02*
X125928714Y-99815340D01*
X125928714Y-99815340D02*
X125856142Y-99851626D01*
X125708054Y-97832437D02*
X126070911Y-97832437D01*
X125308911Y-98086437D02*
X125708054Y-97832437D01*
X125708054Y-97832437D02*
X125308911Y-97578437D01*
X126070911Y-96925294D02*
X126070911Y-97360723D01*
X126070911Y-97143008D02*
X125308911Y-97143008D01*
X125308911Y-97143008D02*
X125417768Y-97215580D01*
X125417768Y-97215580D02*
X125490340Y-97288151D01*
X125490340Y-97288151D02*
X125526626Y-97360723D01*
X130183000Y-93923340D02*
X130146714Y-93959626D01*
X130146714Y-93959626D02*
X130037857Y-93995911D01*
X130037857Y-93995911D02*
X129965285Y-93995911D01*
X129965285Y-93995911D02*
X129856428Y-93959626D01*
X129856428Y-93959626D02*
X129783857Y-93887054D01*
X129783857Y-93887054D02*
X129747571Y-93814483D01*
X129747571Y-93814483D02*
X129711285Y-93669340D01*
X129711285Y-93669340D02*
X129711285Y-93560483D01*
X129711285Y-93560483D02*
X129747571Y-93415340D01*
X129747571Y-93415340D02*
X129783857Y-93342768D01*
X129783857Y-93342768D02*
X129856428Y-93270197D01*
X129856428Y-93270197D02*
X129965285Y-93233911D01*
X129965285Y-93233911D02*
X130037857Y-93233911D01*
X130037857Y-93233911D02*
X130146714Y-93270197D01*
X130146714Y-93270197D02*
X130183000Y-93306483D01*
X130872428Y-93233911D02*
X130509571Y-93233911D01*
X130509571Y-93233911D02*
X130473285Y-93596768D01*
X130473285Y-93596768D02*
X130509571Y-93560483D01*
X130509571Y-93560483D02*
X130582143Y-93524197D01*
X130582143Y-93524197D02*
X130763571Y-93524197D01*
X130763571Y-93524197D02*
X130836143Y-93560483D01*
X130836143Y-93560483D02*
X130872428Y-93596768D01*
X130872428Y-93596768D02*
X130908714Y-93669340D01*
X130908714Y-93669340D02*
X130908714Y-93850768D01*
X130908714Y-93850768D02*
X130872428Y-93923340D01*
X130872428Y-93923340D02*
X130836143Y-93959626D01*
X130836143Y-93959626D02*
X130763571Y-93995911D01*
X130763571Y-93995911D02*
X130582143Y-93995911D01*
X130582143Y-93995911D02*
X130509571Y-93959626D01*
X130509571Y-93959626D02*
X130473285Y-93923340D01*
X160373000Y-112955911D02*
X160119000Y-112593054D01*
X159937571Y-112955911D02*
X159937571Y-112193911D01*
X159937571Y-112193911D02*
X160227857Y-112193911D01*
X160227857Y-112193911D02*
X160300428Y-112230197D01*
X160300428Y-112230197D02*
X160336714Y-112266483D01*
X160336714Y-112266483D02*
X160373000Y-112339054D01*
X160373000Y-112339054D02*
X160373000Y-112447911D01*
X160373000Y-112447911D02*
X160336714Y-112520483D01*
X160336714Y-112520483D02*
X160300428Y-112556768D01*
X160300428Y-112556768D02*
X160227857Y-112593054D01*
X160227857Y-112593054D02*
X159937571Y-112593054D01*
X160735857Y-112955911D02*
X160881000Y-112955911D01*
X160881000Y-112955911D02*
X160953571Y-112919626D01*
X160953571Y-112919626D02*
X160989857Y-112883340D01*
X160989857Y-112883340D02*
X161062428Y-112774483D01*
X161062428Y-112774483D02*
X161098714Y-112629340D01*
X161098714Y-112629340D02*
X161098714Y-112339054D01*
X161098714Y-112339054D02*
X161062428Y-112266483D01*
X161062428Y-112266483D02*
X161026143Y-112230197D01*
X161026143Y-112230197D02*
X160953571Y-112193911D01*
X160953571Y-112193911D02*
X160808428Y-112193911D01*
X160808428Y-112193911D02*
X160735857Y-112230197D01*
X160735857Y-112230197D02*
X160699571Y-112266483D01*
X160699571Y-112266483D02*
X160663285Y-112339054D01*
X160663285Y-112339054D02*
X160663285Y-112520483D01*
X160663285Y-112520483D02*
X160699571Y-112593054D01*
X160699571Y-112593054D02*
X160735857Y-112629340D01*
X160735857Y-112629340D02*
X160808428Y-112665626D01*
X160808428Y-112665626D02*
X160953571Y-112665626D01*
X160953571Y-112665626D02*
X161026143Y-112629340D01*
X161026143Y-112629340D02*
X161062428Y-112593054D01*
X161062428Y-112593054D02*
X161098714Y-112520483D01*
X148615857Y-81489626D02*
X148724715Y-81525911D01*
X148724715Y-81525911D02*
X148906143Y-81525911D01*
X148906143Y-81525911D02*
X148978715Y-81489626D01*
X148978715Y-81489626D02*
X149015000Y-81453340D01*
X149015000Y-81453340D02*
X149051286Y-81380768D01*
X149051286Y-81380768D02*
X149051286Y-81308197D01*
X149051286Y-81308197D02*
X149015000Y-81235626D01*
X149015000Y-81235626D02*
X148978715Y-81199340D01*
X148978715Y-81199340D02*
X148906143Y-81163054D01*
X148906143Y-81163054D02*
X148761000Y-81126768D01*
X148761000Y-81126768D02*
X148688429Y-81090483D01*
X148688429Y-81090483D02*
X148652143Y-81054197D01*
X148652143Y-81054197D02*
X148615857Y-80981626D01*
X148615857Y-80981626D02*
X148615857Y-80909054D01*
X148615857Y-80909054D02*
X148652143Y-80836483D01*
X148652143Y-80836483D02*
X148688429Y-80800197D01*
X148688429Y-80800197D02*
X148761000Y-80763911D01*
X148761000Y-80763911D02*
X148942429Y-80763911D01*
X148942429Y-80763911D02*
X149051286Y-80800197D01*
X149305286Y-80763911D02*
X149486714Y-81525911D01*
X149486714Y-81525911D02*
X149631857Y-80981626D01*
X149631857Y-80981626D02*
X149777000Y-81525911D01*
X149777000Y-81525911D02*
X149958429Y-80763911D01*
X150248714Y-81525911D02*
X150248714Y-80763911D01*
X150248714Y-80763911D02*
X150430143Y-80763911D01*
X150430143Y-80763911D02*
X150539000Y-80800197D01*
X150539000Y-80800197D02*
X150611571Y-80872768D01*
X150611571Y-80872768D02*
X150647857Y-80945340D01*
X150647857Y-80945340D02*
X150684143Y-81090483D01*
X150684143Y-81090483D02*
X150684143Y-81199340D01*
X150684143Y-81199340D02*
X150647857Y-81344483D01*
X150647857Y-81344483D02*
X150611571Y-81417054D01*
X150611571Y-81417054D02*
X150539000Y-81489626D01*
X150539000Y-81489626D02*
X150430143Y-81525911D01*
X150430143Y-81525911D02*
X150248714Y-81525911D01*
X129145911Y-101206999D02*
X129145911Y-101569856D01*
X129145911Y-101569856D02*
X128383911Y-101569856D01*
X129145911Y-100553856D02*
X129145911Y-100989285D01*
X129145911Y-100771570D02*
X128383911Y-100771570D01*
X128383911Y-100771570D02*
X128492768Y-100844142D01*
X128492768Y-100844142D02*
X128565340Y-100916713D01*
X128565340Y-100916713D02*
X128601626Y-100989285D01*
X155375911Y-97422428D02*
X154613911Y-97422428D01*
X154613911Y-97422428D02*
X154613911Y-97240999D01*
X154613911Y-97240999D02*
X154650197Y-97132142D01*
X154650197Y-97132142D02*
X154722768Y-97059571D01*
X154722768Y-97059571D02*
X154795340Y-97023285D01*
X154795340Y-97023285D02*
X154940483Y-96986999D01*
X154940483Y-96986999D02*
X155049340Y-96986999D01*
X155049340Y-96986999D02*
X155194483Y-97023285D01*
X155194483Y-97023285D02*
X155267054Y-97059571D01*
X155267054Y-97059571D02*
X155339626Y-97132142D01*
X155339626Y-97132142D02*
X155375911Y-97240999D01*
X155375911Y-97240999D02*
X155375911Y-97422428D01*
X154867911Y-96333857D02*
X155375911Y-96333857D01*
X154577626Y-96515285D02*
X155121911Y-96696714D01*
X155121911Y-96696714D02*
X155121911Y-96224999D01*
X146348000Y-92992921D02*
X146311714Y-93029207D01*
X146311714Y-93029207D02*
X146202857Y-93065492D01*
X146202857Y-93065492D02*
X146130285Y-93065492D01*
X146130285Y-93065492D02*
X146021428Y-93029207D01*
X146021428Y-93029207D02*
X145948857Y-92956635D01*
X145948857Y-92956635D02*
X145912571Y-92884064D01*
X145912571Y-92884064D02*
X145876285Y-92738921D01*
X145876285Y-92738921D02*
X145876285Y-92630064D01*
X145876285Y-92630064D02*
X145912571Y-92484921D01*
X145912571Y-92484921D02*
X145948857Y-92412349D01*
X145948857Y-92412349D02*
X146021428Y-92339778D01*
X146021428Y-92339778D02*
X146130285Y-92303492D01*
X146130285Y-92303492D02*
X146202857Y-92303492D01*
X146202857Y-92303492D02*
X146311714Y-92339778D01*
X146311714Y-92339778D02*
X146348000Y-92376064D01*
X146783428Y-92630064D02*
X146710857Y-92593778D01*
X146710857Y-92593778D02*
X146674571Y-92557492D01*
X146674571Y-92557492D02*
X146638285Y-92484921D01*
X146638285Y-92484921D02*
X146638285Y-92448635D01*
X146638285Y-92448635D02*
X146674571Y-92376064D01*
X146674571Y-92376064D02*
X146710857Y-92339778D01*
X146710857Y-92339778D02*
X146783428Y-92303492D01*
X146783428Y-92303492D02*
X146928571Y-92303492D01*
X146928571Y-92303492D02*
X147001143Y-92339778D01*
X147001143Y-92339778D02*
X147037428Y-92376064D01*
X147037428Y-92376064D02*
X147073714Y-92448635D01*
X147073714Y-92448635D02*
X147073714Y-92484921D01*
X147073714Y-92484921D02*
X147037428Y-92557492D01*
X147037428Y-92557492D02*
X147001143Y-92593778D01*
X147001143Y-92593778D02*
X146928571Y-92630064D01*
X146928571Y-92630064D02*
X146783428Y-92630064D01*
X146783428Y-92630064D02*
X146710857Y-92666349D01*
X146710857Y-92666349D02*
X146674571Y-92702635D01*
X146674571Y-92702635D02*
X146638285Y-92775207D01*
X146638285Y-92775207D02*
X146638285Y-92920349D01*
X146638285Y-92920349D02*
X146674571Y-92992921D01*
X146674571Y-92992921D02*
X146710857Y-93029207D01*
X146710857Y-93029207D02*
X146783428Y-93065492D01*
X146783428Y-93065492D02*
X146928571Y-93065492D01*
X146928571Y-93065492D02*
X147001143Y-93029207D01*
X147001143Y-93029207D02*
X147037428Y-92992921D01*
X147037428Y-92992921D02*
X147073714Y-92920349D01*
X147073714Y-92920349D02*
X147073714Y-92775207D01*
X147073714Y-92775207D02*
X147037428Y-92702635D01*
X147037428Y-92702635D02*
X147001143Y-92666349D01*
X147001143Y-92666349D02*
X146928571Y-92630064D01*
D10*
X144241752Y-106026666D02*
X144260800Y-106045714D01*
X144260800Y-106045714D02*
X144279847Y-106102856D01*
X144279847Y-106102856D02*
X144279847Y-106140952D01*
X144279847Y-106140952D02*
X144260800Y-106198095D01*
X144260800Y-106198095D02*
X144222704Y-106236190D01*
X144222704Y-106236190D02*
X144184609Y-106255237D01*
X144184609Y-106255237D02*
X144108419Y-106274285D01*
X144108419Y-106274285D02*
X144051276Y-106274285D01*
X144051276Y-106274285D02*
X143975085Y-106255237D01*
X143975085Y-106255237D02*
X143936990Y-106236190D01*
X143936990Y-106236190D02*
X143898895Y-106198095D01*
X143898895Y-106198095D02*
X143879847Y-106140952D01*
X143879847Y-106140952D02*
X143879847Y-106102856D01*
X143879847Y-106102856D02*
X143898895Y-106045714D01*
X143898895Y-106045714D02*
X143917942Y-106026666D01*
X143879847Y-105893333D02*
X143879847Y-105626666D01*
X143879847Y-105626666D02*
X144279847Y-105798095D01*
D11*
X130098000Y-106565492D02*
X129844000Y-106202635D01*
X129662571Y-106565492D02*
X129662571Y-105803492D01*
X129662571Y-105803492D02*
X129952857Y-105803492D01*
X129952857Y-105803492D02*
X130025428Y-105839778D01*
X130025428Y-105839778D02*
X130061714Y-105876064D01*
X130061714Y-105876064D02*
X130098000Y-105948635D01*
X130098000Y-105948635D02*
X130098000Y-106057492D01*
X130098000Y-106057492D02*
X130061714Y-106130064D01*
X130061714Y-106130064D02*
X130025428Y-106166349D01*
X130025428Y-106166349D02*
X129952857Y-106202635D01*
X129952857Y-106202635D02*
X129662571Y-106202635D01*
X130352000Y-105803492D02*
X130823714Y-105803492D01*
X130823714Y-105803492D02*
X130569714Y-106093778D01*
X130569714Y-106093778D02*
X130678571Y-106093778D01*
X130678571Y-106093778D02*
X130751143Y-106130064D01*
X130751143Y-106130064D02*
X130787428Y-106166349D01*
X130787428Y-106166349D02*
X130823714Y-106238921D01*
X130823714Y-106238921D02*
X130823714Y-106420349D01*
X130823714Y-106420349D02*
X130787428Y-106492921D01*
X130787428Y-106492921D02*
X130751143Y-106529207D01*
X130751143Y-106529207D02*
X130678571Y-106565492D01*
X130678571Y-106565492D02*
X130460857Y-106565492D01*
X130460857Y-106565492D02*
X130388285Y-106529207D01*
X130388285Y-106529207D02*
X130352000Y-106492921D01*
X131640143Y-99793340D02*
X131603857Y-99829626D01*
X131603857Y-99829626D02*
X131495000Y-99865911D01*
X131495000Y-99865911D02*
X131422428Y-99865911D01*
X131422428Y-99865911D02*
X131313571Y-99829626D01*
X131313571Y-99829626D02*
X131241000Y-99757054D01*
X131241000Y-99757054D02*
X131204714Y-99684483D01*
X131204714Y-99684483D02*
X131168428Y-99539340D01*
X131168428Y-99539340D02*
X131168428Y-99430483D01*
X131168428Y-99430483D02*
X131204714Y-99285340D01*
X131204714Y-99285340D02*
X131241000Y-99212768D01*
X131241000Y-99212768D02*
X131313571Y-99140197D01*
X131313571Y-99140197D02*
X131422428Y-99103911D01*
X131422428Y-99103911D02*
X131495000Y-99103911D01*
X131495000Y-99103911D02*
X131603857Y-99140197D01*
X131603857Y-99140197D02*
X131640143Y-99176483D01*
X132365857Y-99865911D02*
X131930428Y-99865911D01*
X132148143Y-99865911D02*
X132148143Y-99103911D01*
X132148143Y-99103911D02*
X132075571Y-99212768D01*
X132075571Y-99212768D02*
X132003000Y-99285340D01*
X132003000Y-99285340D02*
X131930428Y-99321626D01*
X132837571Y-99103911D02*
X132910142Y-99103911D01*
X132910142Y-99103911D02*
X132982714Y-99140197D01*
X132982714Y-99140197D02*
X133019000Y-99176483D01*
X133019000Y-99176483D02*
X133055285Y-99249054D01*
X133055285Y-99249054D02*
X133091571Y-99394197D01*
X133091571Y-99394197D02*
X133091571Y-99575626D01*
X133091571Y-99575626D02*
X133055285Y-99720768D01*
X133055285Y-99720768D02*
X133019000Y-99793340D01*
X133019000Y-99793340D02*
X132982714Y-99829626D01*
X132982714Y-99829626D02*
X132910142Y-99865911D01*
X132910142Y-99865911D02*
X132837571Y-99865911D01*
X132837571Y-99865911D02*
X132765000Y-99829626D01*
X132765000Y-99829626D02*
X132728714Y-99793340D01*
X132728714Y-99793340D02*
X132692428Y-99720768D01*
X132692428Y-99720768D02*
X132656142Y-99575626D01*
X132656142Y-99575626D02*
X132656142Y-99394197D01*
X132656142Y-99394197D02*
X132692428Y-99249054D01*
X132692428Y-99249054D02*
X132728714Y-99176483D01*
X132728714Y-99176483D02*
X132765000Y-99140197D01*
X132765000Y-99140197D02*
X132837571Y-99103911D01*
X139650143Y-87405911D02*
X139396143Y-87043054D01*
X139214714Y-87405911D02*
X139214714Y-86643911D01*
X139214714Y-86643911D02*
X139505000Y-86643911D01*
X139505000Y-86643911D02*
X139577571Y-86680197D01*
X139577571Y-86680197D02*
X139613857Y-86716483D01*
X139613857Y-86716483D02*
X139650143Y-86789054D01*
X139650143Y-86789054D02*
X139650143Y-86897911D01*
X139650143Y-86897911D02*
X139613857Y-86970483D01*
X139613857Y-86970483D02*
X139577571Y-87006768D01*
X139577571Y-87006768D02*
X139505000Y-87043054D01*
X139505000Y-87043054D02*
X139214714Y-87043054D01*
X140375857Y-87405911D02*
X139940428Y-87405911D01*
X140158143Y-87405911D02*
X140158143Y-86643911D01*
X140158143Y-86643911D02*
X140085571Y-86752768D01*
X140085571Y-86752768D02*
X140013000Y-86825340D01*
X140013000Y-86825340D02*
X139940428Y-86861626D01*
X141101571Y-87405911D02*
X140666142Y-87405911D01*
X140883857Y-87405911D02*
X140883857Y-86643911D01*
X140883857Y-86643911D02*
X140811285Y-86752768D01*
X140811285Y-86752768D02*
X140738714Y-86825340D01*
X140738714Y-86825340D02*
X140666142Y-86861626D01*
X138796143Y-81655911D02*
X138796143Y-80893911D01*
X139122714Y-80966483D02*
X139159000Y-80930197D01*
X139159000Y-80930197D02*
X139231572Y-80893911D01*
X139231572Y-80893911D02*
X139413000Y-80893911D01*
X139413000Y-80893911D02*
X139485572Y-80930197D01*
X139485572Y-80930197D02*
X139521857Y-80966483D01*
X139521857Y-80966483D02*
X139558143Y-81039054D01*
X139558143Y-81039054D02*
X139558143Y-81111626D01*
X139558143Y-81111626D02*
X139521857Y-81220483D01*
X139521857Y-81220483D02*
X139086429Y-81655911D01*
X139086429Y-81655911D02*
X139558143Y-81655911D01*
X140320143Y-81583340D02*
X140283857Y-81619626D01*
X140283857Y-81619626D02*
X140175000Y-81655911D01*
X140175000Y-81655911D02*
X140102428Y-81655911D01*
X140102428Y-81655911D02*
X139993571Y-81619626D01*
X139993571Y-81619626D02*
X139921000Y-81547054D01*
X139921000Y-81547054D02*
X139884714Y-81474483D01*
X139884714Y-81474483D02*
X139848428Y-81329340D01*
X139848428Y-81329340D02*
X139848428Y-81220483D01*
X139848428Y-81220483D02*
X139884714Y-81075340D01*
X139884714Y-81075340D02*
X139921000Y-81002768D01*
X139921000Y-81002768D02*
X139993571Y-80930197D01*
X139993571Y-80930197D02*
X140102428Y-80893911D01*
X140102428Y-80893911D02*
X140175000Y-80893911D01*
X140175000Y-80893911D02*
X140283857Y-80930197D01*
X140283857Y-80930197D02*
X140320143Y-80966483D01*
X157402428Y-101888064D02*
X157329857Y-101851778D01*
X157329857Y-101851778D02*
X157257285Y-101779207D01*
X157257285Y-101779207D02*
X157148428Y-101670349D01*
X157148428Y-101670349D02*
X157075857Y-101634064D01*
X157075857Y-101634064D02*
X157003285Y-101634064D01*
X157039571Y-101815492D02*
X156967000Y-101779207D01*
X156967000Y-101779207D02*
X156894428Y-101706635D01*
X156894428Y-101706635D02*
X156858142Y-101561492D01*
X156858142Y-101561492D02*
X156858142Y-101307492D01*
X156858142Y-101307492D02*
X156894428Y-101162349D01*
X156894428Y-101162349D02*
X156967000Y-101089778D01*
X156967000Y-101089778D02*
X157039571Y-101053492D01*
X157039571Y-101053492D02*
X157184714Y-101053492D01*
X157184714Y-101053492D02*
X157257285Y-101089778D01*
X157257285Y-101089778D02*
X157329857Y-101162349D01*
X157329857Y-101162349D02*
X157366142Y-101307492D01*
X157366142Y-101307492D02*
X157366142Y-101561492D01*
X157366142Y-101561492D02*
X157329857Y-101706635D01*
X157329857Y-101706635D02*
X157257285Y-101779207D01*
X157257285Y-101779207D02*
X157184714Y-101815492D01*
X157184714Y-101815492D02*
X157039571Y-101815492D01*
X158091857Y-101815492D02*
X157656428Y-101815492D01*
X157874143Y-101815492D02*
X157874143Y-101053492D01*
X157874143Y-101053492D02*
X157801571Y-101162349D01*
X157801571Y-101162349D02*
X157729000Y-101234921D01*
X157729000Y-101234921D02*
X157656428Y-101271207D01*
X158598000Y-112815492D02*
X158344000Y-112452635D01*
X158162571Y-112815492D02*
X158162571Y-112053492D01*
X158162571Y-112053492D02*
X158452857Y-112053492D01*
X158452857Y-112053492D02*
X158525428Y-112089778D01*
X158525428Y-112089778D02*
X158561714Y-112126064D01*
X158561714Y-112126064D02*
X158598000Y-112198635D01*
X158598000Y-112198635D02*
X158598000Y-112307492D01*
X158598000Y-112307492D02*
X158561714Y-112380064D01*
X158561714Y-112380064D02*
X158525428Y-112416349D01*
X158525428Y-112416349D02*
X158452857Y-112452635D01*
X158452857Y-112452635D02*
X158162571Y-112452635D01*
X158852000Y-112053492D02*
X159360000Y-112053492D01*
X159360000Y-112053492D02*
X159033428Y-112815492D01*
X162065911Y-110949856D02*
X161703054Y-111203856D01*
X162065911Y-111385285D02*
X161303911Y-111385285D01*
X161303911Y-111385285D02*
X161303911Y-111094999D01*
X161303911Y-111094999D02*
X161340197Y-111022428D01*
X161340197Y-111022428D02*
X161376483Y-110986142D01*
X161376483Y-110986142D02*
X161449054Y-110949856D01*
X161449054Y-110949856D02*
X161557911Y-110949856D01*
X161557911Y-110949856D02*
X161630483Y-110986142D01*
X161630483Y-110986142D02*
X161666768Y-111022428D01*
X161666768Y-111022428D02*
X161703054Y-111094999D01*
X161703054Y-111094999D02*
X161703054Y-111385285D01*
X162065911Y-110224142D02*
X162065911Y-110659571D01*
X162065911Y-110441856D02*
X161303911Y-110441856D01*
X161303911Y-110441856D02*
X161412768Y-110514428D01*
X161412768Y-110514428D02*
X161485340Y-110586999D01*
X161485340Y-110586999D02*
X161521626Y-110659571D01*
X161303911Y-109752428D02*
X161303911Y-109679857D01*
X161303911Y-109679857D02*
X161340197Y-109607285D01*
X161340197Y-109607285D02*
X161376483Y-109571000D01*
X161376483Y-109571000D02*
X161449054Y-109534714D01*
X161449054Y-109534714D02*
X161594197Y-109498428D01*
X161594197Y-109498428D02*
X161775626Y-109498428D01*
X161775626Y-109498428D02*
X161920768Y-109534714D01*
X161920768Y-109534714D02*
X161993340Y-109571000D01*
X161993340Y-109571000D02*
X162029626Y-109607285D01*
X162029626Y-109607285D02*
X162065911Y-109679857D01*
X162065911Y-109679857D02*
X162065911Y-109752428D01*
X162065911Y-109752428D02*
X162029626Y-109825000D01*
X162029626Y-109825000D02*
X161993340Y-109861285D01*
X161993340Y-109861285D02*
X161920768Y-109897571D01*
X161920768Y-109897571D02*
X161775626Y-109933857D01*
X161775626Y-109933857D02*
X161594197Y-109933857D01*
X161594197Y-109933857D02*
X161449054Y-109897571D01*
X161449054Y-109897571D02*
X161376483Y-109861285D01*
X161376483Y-109861285D02*
X161340197Y-109825000D01*
X161340197Y-109825000D02*
X161303911Y-109752428D01*
X155133000Y-109245911D02*
X154879000Y-108883054D01*
X154697571Y-109245911D02*
X154697571Y-108483911D01*
X154697571Y-108483911D02*
X154987857Y-108483911D01*
X154987857Y-108483911D02*
X155060428Y-108520197D01*
X155060428Y-108520197D02*
X155096714Y-108556483D01*
X155096714Y-108556483D02*
X155133000Y-108629054D01*
X155133000Y-108629054D02*
X155133000Y-108737911D01*
X155133000Y-108737911D02*
X155096714Y-108810483D01*
X155096714Y-108810483D02*
X155060428Y-108846768D01*
X155060428Y-108846768D02*
X154987857Y-108883054D01*
X154987857Y-108883054D02*
X154697571Y-108883054D01*
X155786143Y-108483911D02*
X155641000Y-108483911D01*
X155641000Y-108483911D02*
X155568428Y-108520197D01*
X155568428Y-108520197D02*
X155532143Y-108556483D01*
X155532143Y-108556483D02*
X155459571Y-108665340D01*
X155459571Y-108665340D02*
X155423285Y-108810483D01*
X155423285Y-108810483D02*
X155423285Y-109100768D01*
X155423285Y-109100768D02*
X155459571Y-109173340D01*
X155459571Y-109173340D02*
X155495857Y-109209626D01*
X155495857Y-109209626D02*
X155568428Y-109245911D01*
X155568428Y-109245911D02*
X155713571Y-109245911D01*
X155713571Y-109245911D02*
X155786143Y-109209626D01*
X155786143Y-109209626D02*
X155822428Y-109173340D01*
X155822428Y-109173340D02*
X155858714Y-109100768D01*
X155858714Y-109100768D02*
X155858714Y-108919340D01*
X155858714Y-108919340D02*
X155822428Y-108846768D01*
X155822428Y-108846768D02*
X155786143Y-108810483D01*
X155786143Y-108810483D02*
X155713571Y-108774197D01*
X155713571Y-108774197D02*
X155568428Y-108774197D01*
X155568428Y-108774197D02*
X155495857Y-108810483D01*
X155495857Y-108810483D02*
X155459571Y-108846768D01*
X155459571Y-108846768D02*
X155423285Y-108919340D01*
X168223911Y-93771571D02*
X168840768Y-93771571D01*
X168840768Y-93771571D02*
X168913340Y-93735285D01*
X168913340Y-93735285D02*
X168949626Y-93699000D01*
X168949626Y-93699000D02*
X168985911Y-93626428D01*
X168985911Y-93626428D02*
X168985911Y-93481285D01*
X168985911Y-93481285D02*
X168949626Y-93408714D01*
X168949626Y-93408714D02*
X168913340Y-93372428D01*
X168913340Y-93372428D02*
X168840768Y-93336142D01*
X168840768Y-93336142D02*
X168223911Y-93336142D01*
X168949626Y-93009571D02*
X168985911Y-92900714D01*
X168985911Y-92900714D02*
X168985911Y-92719285D01*
X168985911Y-92719285D02*
X168949626Y-92646714D01*
X168949626Y-92646714D02*
X168913340Y-92610428D01*
X168913340Y-92610428D02*
X168840768Y-92574142D01*
X168840768Y-92574142D02*
X168768197Y-92574142D01*
X168768197Y-92574142D02*
X168695626Y-92610428D01*
X168695626Y-92610428D02*
X168659340Y-92646714D01*
X168659340Y-92646714D02*
X168623054Y-92719285D01*
X168623054Y-92719285D02*
X168586768Y-92864428D01*
X168586768Y-92864428D02*
X168550483Y-92936999D01*
X168550483Y-92936999D02*
X168514197Y-92973285D01*
X168514197Y-92973285D02*
X168441626Y-93009571D01*
X168441626Y-93009571D02*
X168369054Y-93009571D01*
X168369054Y-93009571D02*
X168296483Y-92973285D01*
X168296483Y-92973285D02*
X168260197Y-92936999D01*
X168260197Y-92936999D02*
X168223911Y-92864428D01*
X168223911Y-92864428D02*
X168223911Y-92682999D01*
X168223911Y-92682999D02*
X168260197Y-92574142D01*
X168586768Y-91993571D02*
X168623054Y-91884714D01*
X168623054Y-91884714D02*
X168659340Y-91848428D01*
X168659340Y-91848428D02*
X168731911Y-91812142D01*
X168731911Y-91812142D02*
X168840768Y-91812142D01*
X168840768Y-91812142D02*
X168913340Y-91848428D01*
X168913340Y-91848428D02*
X168949626Y-91884714D01*
X168949626Y-91884714D02*
X168985911Y-91957285D01*
X168985911Y-91957285D02*
X168985911Y-92247571D01*
X168985911Y-92247571D02*
X168223911Y-92247571D01*
X168223911Y-92247571D02*
X168223911Y-91993571D01*
X168223911Y-91993571D02*
X168260197Y-91921000D01*
X168260197Y-91921000D02*
X168296483Y-91884714D01*
X168296483Y-91884714D02*
X168369054Y-91848428D01*
X168369054Y-91848428D02*
X168441626Y-91848428D01*
X168441626Y-91848428D02*
X168514197Y-91884714D01*
X168514197Y-91884714D02*
X168550483Y-91921000D01*
X168550483Y-91921000D02*
X168586768Y-91993571D01*
X168586768Y-91993571D02*
X168586768Y-92247571D01*
X152671768Y-104104580D02*
X152671768Y-104358580D01*
X153070911Y-104358580D02*
X152308911Y-104358580D01*
X152308911Y-104358580D02*
X152308911Y-103995723D01*
X152671768Y-103451437D02*
X152708054Y-103342580D01*
X152708054Y-103342580D02*
X152744340Y-103306294D01*
X152744340Y-103306294D02*
X152816911Y-103270008D01*
X152816911Y-103270008D02*
X152925768Y-103270008D01*
X152925768Y-103270008D02*
X152998340Y-103306294D01*
X152998340Y-103306294D02*
X153034626Y-103342580D01*
X153034626Y-103342580D02*
X153070911Y-103415151D01*
X153070911Y-103415151D02*
X153070911Y-103705437D01*
X153070911Y-103705437D02*
X152308911Y-103705437D01*
X152308911Y-103705437D02*
X152308911Y-103451437D01*
X152308911Y-103451437D02*
X152345197Y-103378866D01*
X152345197Y-103378866D02*
X152381483Y-103342580D01*
X152381483Y-103342580D02*
X152454054Y-103306294D01*
X152454054Y-103306294D02*
X152526626Y-103306294D01*
X152526626Y-103306294D02*
X152599197Y-103342580D01*
X152599197Y-103342580D02*
X152635483Y-103378866D01*
X152635483Y-103378866D02*
X152671768Y-103451437D01*
X152671768Y-103451437D02*
X152671768Y-103705437D01*
X153070911Y-102544294D02*
X153070911Y-102979723D01*
X153070911Y-102762008D02*
X152308911Y-102762008D01*
X152308911Y-102762008D02*
X152417768Y-102834580D01*
X152417768Y-102834580D02*
X152490340Y-102907151D01*
X152490340Y-102907151D02*
X152526626Y-102979723D01*
X133135911Y-98076999D02*
X132773054Y-98330999D01*
X133135911Y-98512428D02*
X132373911Y-98512428D01*
X132373911Y-98512428D02*
X132373911Y-98222142D01*
X132373911Y-98222142D02*
X132410197Y-98149571D01*
X132410197Y-98149571D02*
X132446483Y-98113285D01*
X132446483Y-98113285D02*
X132519054Y-98076999D01*
X132519054Y-98076999D02*
X132627911Y-98076999D01*
X132627911Y-98076999D02*
X132700483Y-98113285D01*
X132700483Y-98113285D02*
X132736768Y-98149571D01*
X132736768Y-98149571D02*
X132773054Y-98222142D01*
X132773054Y-98222142D02*
X132773054Y-98512428D01*
X132446483Y-97786714D02*
X132410197Y-97750428D01*
X132410197Y-97750428D02*
X132373911Y-97677857D01*
X132373911Y-97677857D02*
X132373911Y-97496428D01*
X132373911Y-97496428D02*
X132410197Y-97423857D01*
X132410197Y-97423857D02*
X132446483Y-97387571D01*
X132446483Y-97387571D02*
X132519054Y-97351285D01*
X132519054Y-97351285D02*
X132591626Y-97351285D01*
X132591626Y-97351285D02*
X132700483Y-97387571D01*
X132700483Y-97387571D02*
X133135911Y-97822999D01*
X133135911Y-97822999D02*
X133135911Y-97351285D01*
%TO.C,D3*%
D15*
X147142500Y-103510000D02*
X147142500Y-105510000D01*
X147142500Y-103510000D02*
X151152500Y-103510000D01*
X147142500Y-105510000D02*
X151152500Y-105510000D01*
%TO.C,J1*%
X159922500Y-99849581D02*
X167762500Y-99849581D01*
X159922500Y-107089581D02*
X159922500Y-99849581D01*
X166142500Y-107089581D02*
X166142500Y-99849581D01*
X167242500Y-107089581D02*
X167242500Y-99849581D01*
X167762500Y-99849581D02*
X167762500Y-104919581D01*
X167762500Y-105519581D02*
X167762500Y-107089581D01*
X167762500Y-107089581D02*
X159922500Y-107089581D01*
X167762500Y-105219581D02*
X168372500Y-104779581D01*
X168372500Y-105659581D01*
X167762500Y-105219581D01*
G36*
X168372500Y-105659581D02*
G01*
X167762500Y-105219581D01*
X168372500Y-104779581D01*
X168372500Y-105659581D01*
G37*
%TO.C,C3*%
X131715000Y-94110161D02*
X131715000Y-93829001D01*
X132735000Y-94110161D02*
X132735000Y-93829001D01*
%TO.C,STATUS*%
X130990000Y-103484581D02*
X130990000Y-104954581D01*
X130990000Y-104954581D02*
X133275000Y-104954581D01*
X133275000Y-103484581D02*
X130990000Y-103484581D01*
%TO.C,C4*%
X136572164Y-90150000D02*
X136787836Y-90150000D01*
X136572164Y-90870000D02*
X136787836Y-90870000D01*
%TO.C,U2*%
X155315000Y-91159581D02*
X157135000Y-91159581D01*
X155315000Y-91209581D02*
X155315000Y-91159581D01*
X155315000Y-94279581D02*
X155315000Y-94229581D01*
X157135000Y-91159581D02*
X157135000Y-91209581D01*
X157135000Y-94229581D02*
X157135000Y-94279581D01*
X157135000Y-94279581D02*
X155315000Y-94279581D01*
X154775000Y-91209581D02*
X154535000Y-90879581D01*
X155015000Y-90879581D01*
X154775000Y-91209581D01*
G36*
X154775000Y-91209581D02*
G01*
X154535000Y-90879581D01*
X155015000Y-90879581D01*
X154775000Y-91209581D01*
G37*
%TO.C,J4*%
X136240000Y-115109581D02*
X136240000Y-120829581D01*
X136240000Y-120829581D02*
X139725000Y-120829581D01*
X137310000Y-115109581D02*
X136240000Y-115109581D01*
X137310000Y-115409581D02*
X137310000Y-115109581D01*
X137600000Y-114819581D02*
X137100000Y-114819581D01*
X137600000Y-115119581D02*
X137600000Y-114819581D01*
X139725000Y-115409581D02*
X137310000Y-115409581D01*
X139725000Y-115409581D02*
X142140000Y-115409581D01*
X142140000Y-115109581D02*
X143210000Y-115109581D01*
X142140000Y-115409581D02*
X142140000Y-115109581D01*
X143210000Y-115109581D02*
X143210000Y-120829581D01*
X143210000Y-120829581D02*
X139725000Y-120829581D01*
%TO.C,C6*%
X137107836Y-106890000D02*
X136892164Y-106890000D01*
X137107836Y-107610000D02*
X136892164Y-107610000D01*
%TO.C,R12*%
X139133641Y-90120000D02*
X138826359Y-90120000D01*
X139133641Y-90880000D02*
X138826359Y-90880000D01*
%TO.C,R4*%
X157422742Y-85367500D02*
X157897258Y-85367500D01*
X157422742Y-86412500D02*
X157897258Y-86412500D01*
%TO.C,IC1*%
D16*
X150875000Y-110094581D02*
X150875000Y-108944581D01*
X151025000Y-107844581D02*
X153925000Y-107844581D01*
X151025000Y-108594581D02*
X151025000Y-107844581D01*
X153925000Y-107844581D02*
X153925000Y-108594581D01*
X153925000Y-108594581D02*
X151025000Y-108594581D01*
%TO.C,C13*%
D15*
X156181248Y-106559581D02*
X157603752Y-106559581D01*
X156181248Y-108379581D02*
X157603752Y-108379581D01*
%TO.C,F1*%
X153577064Y-98809581D02*
X152372936Y-98809581D01*
X153577064Y-100629581D02*
X152372936Y-100629581D01*
%TO.C,C9*%
X130865000Y-101077417D02*
X130865000Y-100861745D01*
X131585000Y-101077417D02*
X131585000Y-100861745D01*
%TO.C,D2*%
X156145000Y-83295000D02*
X156145000Y-84765000D01*
X156145000Y-84765000D02*
X158430000Y-84765000D01*
X158430000Y-83295000D02*
X156145000Y-83295000D01*
%TO.C,C12*%
X127332836Y-94359581D02*
X127117164Y-94359581D01*
X127332836Y-95079581D02*
X127117164Y-95079581D01*
%TO.C,R1*%
X128853641Y-89280000D02*
X128546359Y-89280000D01*
X128853641Y-90040000D02*
X128546359Y-90040000D01*
%TO.C,L2*%
X144682500Y-107659581D02*
X145882500Y-107659581D01*
X144682500Y-113279581D02*
X144682500Y-107659581D01*
X145882500Y-113279581D02*
X144682500Y-113279581D01*
X148902500Y-107659581D02*
X150102500Y-107659581D01*
X150102500Y-107659581D02*
X150102500Y-113279581D01*
X150102500Y-113279581D02*
X148902500Y-113279581D01*
%TO.C,C1*%
X148479420Y-94830000D02*
X148760580Y-94830000D01*
X148479420Y-95850000D02*
X148760580Y-95850000D01*
%TO.C,C16*%
X154591252Y-114430000D02*
X153168748Y-114430000D01*
X154591252Y-116250000D02*
X153168748Y-116250000D01*
%TO.C,SW1*%
X120970000Y-87769581D02*
X120970000Y-88669581D01*
X121180000Y-87569581D02*
X120970000Y-87769581D01*
X121180000Y-88869581D02*
X120970000Y-88669581D01*
X121180000Y-88869581D02*
X122470000Y-88869581D01*
X122470000Y-86119581D02*
X122470000Y-91819581D01*
X122470000Y-87569581D02*
X121180000Y-87569581D01*
X123480000Y-92419581D02*
X124270000Y-92419581D01*
X124270000Y-85519581D02*
X123480000Y-85519581D01*
X125320000Y-87369581D02*
X125320000Y-89069581D01*
X125320000Y-90369581D02*
X125320000Y-90569581D01*
%TO.C,U1*%
X134865000Y-93609581D02*
X135815000Y-93609581D01*
X134865000Y-94559581D02*
X134865000Y-93609581D01*
X134865000Y-103829581D02*
X134865000Y-102879581D01*
X135815000Y-103829581D02*
X134865000Y-103829581D01*
X144135000Y-93609581D02*
X145085000Y-93609581D01*
X145085000Y-93609581D02*
X145085000Y-94559581D01*
X145085000Y-102879581D02*
X145085000Y-103829581D01*
X145085000Y-103829581D02*
X144135000Y-103829581D01*
X134225000Y-94559581D02*
X133885000Y-94089581D01*
X134565000Y-94089581D01*
X134225000Y-94559581D01*
G36*
X134225000Y-94559581D02*
G01*
X133885000Y-94089581D01*
X134565000Y-94089581D01*
X134225000Y-94559581D01*
G37*
%TO.C,C2*%
X142609420Y-106740000D02*
X142890580Y-106740000D01*
X142609420Y-107760000D02*
X142890580Y-107760000D01*
%TO.C,C15*%
X152251920Y-111209581D02*
X152533080Y-111209581D01*
X152251920Y-112229581D02*
X152533080Y-112229581D01*
%TO.C,C17*%
X148058748Y-114420000D02*
X149481252Y-114420000D01*
X148058748Y-116240000D02*
X149481252Y-116240000D01*
%TO.C,R8*%
X158012742Y-114957500D02*
X158487258Y-114957500D01*
X158012742Y-116002500D02*
X158487258Y-116002500D01*
%TO.C,C11*%
X127222164Y-99690000D02*
X127437836Y-99690000D01*
X127222164Y-100410000D02*
X127437836Y-100410000D01*
%TO.C,Y1*%
X130385000Y-95509581D02*
X126265000Y-95509581D01*
X130385000Y-98929581D02*
X130385000Y-95509581D01*
%TO.C,C5*%
X129832836Y-94359581D02*
X129617164Y-94359581D01*
X129832836Y-95079581D02*
X129617164Y-95079581D01*
%TO.C,R9*%
X158155242Y-113197081D02*
X158629758Y-113197081D01*
X158155242Y-114242081D02*
X158629758Y-114242081D01*
%TO.C,J2*%
X146650000Y-84204581D02*
X146715000Y-84204581D01*
X146650000Y-87834581D02*
X146650000Y-84204581D01*
X146650000Y-87834581D02*
X146715000Y-87834581D01*
X146715000Y-89109581D02*
X146715000Y-87834581D01*
X153155000Y-84204581D02*
X153220000Y-84204581D01*
X153155000Y-87834581D02*
X153220000Y-87834581D01*
X153220000Y-87834581D02*
X153220000Y-84204581D01*
%TO.C,D4*%
X155530000Y-100470000D02*
X155530000Y-96460000D01*
X155530000Y-100470000D02*
X157530000Y-100470000D01*
X157530000Y-100470000D02*
X157530000Y-96460000D01*
%TO.C,C8*%
X146367164Y-93359581D02*
X146582836Y-93359581D01*
X146367164Y-94079581D02*
X146582836Y-94079581D01*
%TO.C,C7*%
X144615000Y-105111745D02*
X144615000Y-105327417D01*
X145335000Y-105111745D02*
X145335000Y-105327417D01*
%TO.C,R3*%
X132237742Y-105697081D02*
X132712258Y-105697081D01*
X132237742Y-106742081D02*
X132712258Y-106742081D01*
%TO.C,C10*%
X132115000Y-101077417D02*
X132115000Y-100861745D01*
X132835000Y-101077417D02*
X132835000Y-100861745D01*
%TO.C,R11*%
X139866359Y-87750000D02*
X140173641Y-87750000D01*
X139866359Y-88510000D02*
X140173641Y-88510000D01*
%TO.C,J3*%
X136240000Y-74609581D02*
X139725000Y-74609581D01*
X136240000Y-80329581D02*
X136240000Y-74609581D01*
X137310000Y-80029581D02*
X137310000Y-80329581D01*
X137310000Y-80329581D02*
X136240000Y-80329581D01*
X139725000Y-80029581D02*
X137310000Y-80029581D01*
X139725000Y-80029581D02*
X142140000Y-80029581D01*
X141850000Y-80319581D02*
X141850000Y-80619581D01*
X141850000Y-80619581D02*
X142350000Y-80619581D01*
X142140000Y-80029581D02*
X142140000Y-80329581D01*
X142140000Y-80329581D02*
X143210000Y-80329581D01*
X143210000Y-74609581D02*
X139725000Y-74609581D01*
X143210000Y-80329581D02*
X143210000Y-74609581D01*
%TO.C,Q1*%
X155915000Y-103209581D02*
X155965000Y-103209581D01*
X155915000Y-104729581D02*
X155915000Y-103209581D01*
X156915000Y-104729581D02*
X155915000Y-104729581D01*
X157085000Y-103209581D02*
X157865000Y-103209581D01*
X158985000Y-103209581D02*
X159035000Y-103209581D01*
X159035000Y-103209581D02*
X159035000Y-104729581D01*
X159035000Y-104729581D02*
X158035000Y-104729581D01*
X157855000Y-102669581D02*
X157525000Y-102909581D01*
X157525000Y-102429581D01*
X157855000Y-102669581D01*
G36*
X157855000Y-102669581D02*
G01*
X157525000Y-102909581D01*
X157525000Y-102429581D01*
X157855000Y-102669581D01*
G37*
%TO.C,R7*%
X158120000Y-110706839D02*
X158120000Y-110232323D01*
X159165000Y-110706839D02*
X159165000Y-110232323D01*
%TO.C,R10*%
X159952500Y-110706839D02*
X159952500Y-110232323D01*
X160997500Y-110706839D02*
X160997500Y-110232323D01*
%TO.C,R6*%
X156379758Y-109447081D02*
X155905242Y-109447081D01*
X156379758Y-110492081D02*
X155905242Y-110492081D01*
%TO.C,J5*%
D10*
X160330000Y-94219581D02*
X160330000Y-94219581D01*
X160430000Y-94219581D02*
X160430000Y-94219581D01*
D16*
X165530000Y-96849581D02*
X166985000Y-96849581D01*
X166985000Y-88989581D02*
X165530000Y-88989581D01*
X166985000Y-96849581D02*
X166985000Y-88989581D01*
D10*
X160330000Y-94219581D02*
G75*
G02*
X160430000Y-94219581I50000J0D01*
G01*
X160430000Y-94219581D02*
G75*
G02*
X160330000Y-94219581I-50000J0D01*
G01*
%TO.C,FB1*%
D15*
X153490000Y-103208329D02*
X153490000Y-103730833D01*
X154960000Y-103208329D02*
X154960000Y-103730833D01*
%TO.C,R2*%
X131370000Y-97846359D02*
X131370000Y-98153641D01*
X132130000Y-97846359D02*
X132130000Y-98153641D01*
%TD*%
M02*
