%TF.GenerationSoftware,KiCad,Pcbnew,10.0.6*%
%TF.CreationDate,2026-09-30T17:50:58+03:00*%
%TF.ProjectId,STM32F4_REV2,53544d33-3246-4345-9f52-4556322e6b69,vSETP 2026*%
%TF.SameCoordinates,Original*%
%TF.FileFunction,Copper,L4,Bot*%
%TF.FilePolarity,Positive*%
%FSLAX46Y46*%
G04 Gerber Fmt 4.6, Leading zero omitted, Abs format (unit mm)*
G04 Created by KiCad (PCBNEW 10.0.6) date 2026-09-30 17:50:58*
%MOMM*%
%LPD*%
G01*
G04 APERTURE LIST*
G04 Aperture macros list*
%AMRoundRect*
0 Rectangle with rounded corners*
0 $1 Rounding radius*
0 $2 $3 $4 $5 $6 $7 $8 $9 X,Y pos of 4 corners*
0 Add a 4 corners polygon primitive as box body*
4,1,4,$2,$3,$4,$5,$6,$7,$8,$9,$2,$3,0*
0 Add four circle primitives for the rounded corners*
1,1,$1+$1,$2,$3*
1,1,$1+$1,$4,$5*
1,1,$1+$1,$6,$7*
1,1,$1+$1,$8,$9*
0 Add four rect primitives between the rounded corners*
20,1,$1+$1,$2,$3,$4,$5,0*
20,1,$1+$1,$4,$5,$6,$7,0*
20,1,$1+$1,$6,$7,$8,$9,0*
20,1,$1+$1,$8,$9,$2,$3,0*%
G04 Aperture macros list end*
%TA.AperFunction,ComponentPad*%
%ADD10RoundRect,0.250001X0.949999X-0.949999X0.949999X0.949999X-0.949999X0.949999X-0.949999X-0.949999X0*%
%TD*%
%TA.AperFunction,ComponentPad*%
%ADD11C,2.400000*%
%TD*%
%TA.AperFunction,ComponentPad*%
%ADD12RoundRect,0.200000X-0.200000X-0.450000X0.200000X-0.450000X0.200000X0.450000X-0.200000X0.450000X0*%
%TD*%
%TA.AperFunction,ComponentPad*%
%ADD13O,0.800000X1.300000*%
%TD*%
%TA.AperFunction,ComponentPad*%
%ADD14C,0.900000*%
%TD*%
%TA.AperFunction,ComponentPad*%
%ADD15C,8.600000*%
%TD*%
%TA.AperFunction,ComponentPad*%
%ADD16RoundRect,0.200000X0.200000X0.450000X-0.200000X0.450000X-0.200000X-0.450000X0.200000X-0.450000X0*%
%TD*%
%TA.AperFunction,ComponentPad*%
%ADD17C,1.950000*%
%TD*%
%TA.AperFunction,ViaPad*%
%ADD18C,0.800000*%
%TD*%
%TA.AperFunction,ViaPad*%
%ADD19C,0.600000*%
%TD*%
%TA.AperFunction,Conductor*%
%ADD20C,0.300000*%
%TD*%
%TA.AperFunction,Conductor*%
%ADD21C,0.500000*%
%TD*%
G04 APERTURE END LIST*
D10*
%TO.P,J1,1,Pin_1_1*%
%TO.N,+12V*%
X163142500Y-105219581D03*
D11*
%TO.P,J1,2,Pin_2_2*%
%TO.N,GND*%
X163142500Y-101719581D03*
%TD*%
D12*
%TO.P,J4,1,Pin_1_1*%
%TO.N,+3.3V*%
X137850000Y-116269581D03*
D13*
%TO.P,J4,2,Pin_2_2*%
%TO.N,UART3_TX*%
X139100000Y-116269581D03*
%TO.P,J4,3,Pin_3_3*%
%TO.N,UART3_RX*%
X140350000Y-116269581D03*
%TO.P,J4,4,Pin_4_4*%
%TO.N,GND*%
X141600000Y-116269581D03*
%TD*%
D14*
%TO.P,H2,1,1_1*%
%TO.N,GND*%
X123000000Y-79500000D03*
X123944581Y-77219581D03*
X123944581Y-81780419D03*
X126225000Y-76275000D03*
D15*
X126225000Y-79500000D03*
D14*
X126225000Y-82725000D03*
X128505419Y-77219581D03*
X128505419Y-81780419D03*
X129450000Y-79500000D03*
%TD*%
%TO.P,H4,1,1_1*%
%TO.N,GND*%
X161250000Y-115969581D03*
X162194581Y-113689162D03*
X162194581Y-118250000D03*
X164475000Y-112744581D03*
D15*
X164475000Y-115969581D03*
D14*
X164475000Y-119194581D03*
X166755419Y-113689162D03*
X166755419Y-118250000D03*
X167700000Y-115969581D03*
%TD*%
%TO.P,H3,1,1_1*%
%TO.N,GND*%
X123000000Y-116219581D03*
X123944581Y-113939162D03*
X123944581Y-118500000D03*
X126225000Y-112994581D03*
D15*
X126225000Y-116219581D03*
D14*
X126225000Y-119444581D03*
X128505419Y-113939162D03*
X128505419Y-118500000D03*
X129450000Y-116219581D03*
%TD*%
D16*
%TO.P,J3,1,Pin_1_1*%
%TO.N,+3.3V*%
X141600000Y-79169581D03*
D13*
%TO.P,J3,2,Pin_2_2*%
%TO.N,I2C1_SCL*%
X140350000Y-79169581D03*
%TO.P,J3,3,Pin_3_3*%
%TO.N,I2C1_SDA*%
X139100000Y-79169581D03*
%TO.P,J3,4,Pin_4_4*%
%TO.N,GND*%
X137850000Y-79169581D03*
%TD*%
D14*
%TO.P,H1,1,1_1*%
%TO.N,GND*%
X161250000Y-79500000D03*
X162194581Y-77219581D03*
X162194581Y-81780419D03*
X164475000Y-76275000D03*
D15*
X164475000Y-79500000D03*
D14*
X164475000Y-82725000D03*
X166755419Y-77219581D03*
X166755419Y-81780419D03*
X167700000Y-79500000D03*
%TD*%
D17*
%TO.P,J5,MH1*%
%TO.N,N/C*%
X164225000Y-96219581D03*
%TO.P,J5,MH2*%
X164225000Y-89619581D03*
%TD*%
D18*
%TO.N,+3.3V*%
X127130000Y-86730000D03*
X156460000Y-115430000D03*
X146110000Y-115350000D03*
X136830000Y-116280000D03*
X155390000Y-113810000D03*
X157380000Y-116730000D03*
X149200000Y-112700000D03*
X131090000Y-94690000D03*
X141600000Y-77900000D03*
X137850000Y-115000000D03*
X136220000Y-89580000D03*
X145620000Y-112940000D03*
X139510000Y-87200000D03*
X142630000Y-79170000D03*
X145910000Y-104770000D03*
X155340000Y-116890000D03*
X158440000Y-82820000D03*
X129990000Y-99580000D03*
X147260000Y-116850000D03*
X146450000Y-87820000D03*
X137500000Y-108100000D03*
X137850000Y-117580000D03*
X132230000Y-95860000D03*
X141580000Y-80580000D03*
X147390000Y-86280000D03*
X145570000Y-111450000D03*
X146000000Y-92900000D03*
X147450000Y-89750000D03*
X147390000Y-110970000D03*
D19*
%TO.N,NRST*%
X143580000Y-98040000D03*
X148790000Y-94010000D03*
%TO.N,SWO*%
X142270000Y-88120000D03*
X136220000Y-102150000D03*
D18*
%TO.N,Net-(C11-Pad1)*%
X131020000Y-98510000D03*
X124440000Y-99270000D03*
%TO.N,GND*%
X150000000Y-94050000D03*
X152400000Y-116910000D03*
X158470000Y-87140000D03*
X160340000Y-91580000D03*
X145040000Y-106690000D03*
X160860000Y-101830000D03*
X153240000Y-114020000D03*
X152280000Y-104520000D03*
X137370000Y-89570000D03*
X159840000Y-90850000D03*
X152510000Y-110590000D03*
X136440000Y-108240000D03*
X157210000Y-107460000D03*
X161610000Y-109720000D03*
X152480000Y-108310000D03*
X129280000Y-93810000D03*
X159380000Y-108670000D03*
X127810000Y-101000000D03*
X137870000Y-77910000D03*
X160500000Y-108640000D03*
X159520000Y-107550000D03*
X149940000Y-89800000D03*
X148600000Y-89750000D03*
X148670000Y-86220000D03*
X149220000Y-115270000D03*
X150300000Y-113970000D03*
X131210000Y-99560000D03*
X150230000Y-116850000D03*
X165350000Y-101680000D03*
X150060000Y-104530000D03*
X125790000Y-96410000D03*
X133300000Y-107410000D03*
X153550000Y-115370000D03*
X125820000Y-94690000D03*
X158380000Y-106040000D03*
X159270000Y-103100000D03*
X153240000Y-87840000D03*
X158420000Y-101750000D03*
X127160000Y-91180000D03*
X153650000Y-92780000D03*
X137860000Y-80460000D03*
X132460000Y-99590000D03*
X142680000Y-116280000D03*
X143530000Y-108460000D03*
X131110000Y-93220000D03*
X130750000Y-97500000D03*
X141660000Y-117580000D03*
X136790000Y-79180000D03*
X141620000Y-115010000D03*
X147110000Y-92770000D03*
X151200000Y-102890000D03*
X159390000Y-91580000D03*
X163160000Y-99490000D03*
%TD*%
%TO.N,NRST*%
D20*
X144760000Y-98040000D02*
X148790000Y-94010000D01*
X143580000Y-98040000D02*
X144760000Y-98040000D01*
%TO.N,SWO*%
X142270000Y-96100000D02*
X136220000Y-102150000D01*
X142270000Y-88120000D02*
X142270000Y-96100000D01*
%TO.N,Net-(C11-Pad1)*%
D21*
X125200000Y-98510000D02*
X124440000Y-99270000D01*
X131020000Y-98510000D02*
X125200000Y-98510000D01*
%TD*%
M02*
