M48
; DRILL file KiCad 10.0.6 date 2026-09-30T17:51:04
; FORMAT={3:3/ absolute / metric / suppress leading zeros}
; #@! TF.CreationDate,2026-09-30T17:51:04+03:00
; #@! TF.GenerationSoftware,Kicad,Pcbnew,10.0.6
; #@! TF.FileFunction,MixedPlating,1,4
FMAT,2
METRIC,TZ
; #@! TA.AperFunction,Plated,PTH,ViaDrill
T1C0.300
; #@! TA.AperFunction,Plated,PTH,ViaDrill
T2C0.400
; #@! TA.AperFunction,Plated,PTH,ComponentDrill
T3C0.500
; #@! TA.AperFunction,Plated,PTH,ComponentDrill
T4C0.600
; #@! TA.AperFunction,Plated,PTH,ComponentDrill
T5C1.200
; #@! TA.AperFunction,Plated,PTH,ComponentDrill
T6C1.300
; #@! TA.AperFunction,Plated,PTH,ComponentDrill
T7C4.300
; #@! TA.AperFunction,NonPlated,NPTH,ComponentDrill
T8C0.900
; #@! TA.AperFunction,NonPlated,NPTH,ComponentDrill
T9C1.152
%
G90
G05
T1
X136220Y-102150
X142270Y-88120
X143580Y-98040
X148790Y-94010
T2
X124440Y-99270
X125790Y-96410
X125820Y-94690
X127130Y-86730
X127160Y-91180
X127810Y-101000
X129280Y-93810
X129990Y-99580
X130750Y-97500
X131020Y-98510
X131090Y-94690
X131110Y-93220
X131210Y-99560
X132230Y-95860
X132460Y-99590
X133300Y-107410
X136220Y-89580
X136440Y-108240
X136790Y-79180
X136830Y-116280
X137370Y-89570
X137500Y-108100
X137850Y-115000
X137850Y-117580
X137860Y-80460
X137870Y-77910
X139510Y-87200
X141580Y-80580
X141600Y-77900
X141620Y-115010
X141660Y-117580
X142630Y-79170
X142680Y-116280
X143530Y-108460
X145040Y-106690
X145570Y-111450
X145620Y-112940
X145910Y-104770
X146000Y-92900
X146110Y-115350
X146450Y-87820
X147110Y-92770
X147260Y-116850
X147390Y-86280
X147390Y-110970
X147450Y-89750
X148600Y-89750
X148670Y-86220
X149200Y-112700
X149220Y-115270
X149940Y-89800
X150000Y-94050
X150060Y-104530
X150230Y-116850
X150300Y-113970
X151200Y-102890
X152280Y-104520
X152400Y-116910
X152480Y-108310
X152510Y-110590
X153240Y-87840
X153240Y-114020
X153550Y-115370
X153650Y-92780
X155340Y-116890
X155390Y-113810
X156460Y-115430
X157210Y-107460
X157380Y-116730
X158380Y-106040
X158420Y-101750
X158440Y-82820
X158470Y-87140
X159270Y-103100
X159380Y-108670
X159390Y-91580
X159520Y-107550
X159840Y-90850
X160340Y-91580
X160500Y-108640
X160860Y-101830
X161610Y-109720
X163160Y-99490
X165350Y-101680
T3
X137850Y-79170
X137850Y-116270
X139100Y-79170
X139100Y-116270
X140350Y-79170
X140350Y-116270
X141600Y-79170
X141600Y-116270
T4
X123000Y-79500
X123000Y-116220
X123945Y-77220
X123945Y-81780
X123945Y-113939
X123945Y-118500
X126225Y-76275
X126225Y-82725
X126225Y-112995
X126225Y-119445
X128505Y-77220
X128505Y-81780
X128505Y-113939
X128505Y-118500
X129450Y-79500
X129450Y-116220
X161250Y-79500
X161250Y-115970
X162195Y-77220
X162195Y-81780
X162195Y-113689
X162195Y-118250
X164475Y-76275
X164475Y-82725
X164475Y-112745
X164475Y-119195
X166755Y-77220
X166755Y-81780
X166755Y-113689
X166755Y-118250
X167700Y-79500
X167700Y-115970
T5
X163142Y-101720
X163142Y-105220
T6
X164225Y-89620
X164225Y-96220
T7
X126225Y-79500
X126225Y-116220
X164475Y-79500
X164475Y-115970
T8
X123870Y-87470
X123870Y-90470
T9
X133250Y-79750
X133250Y-118750
X157500Y-79750
X157500Y-118750
M30
