%TF.GenerationSoftware,KiCad,Pcbnew,10.0.6*%
%TF.CreationDate,2026-09-30T17:50:58+03:00*%
%TF.ProjectId,STM32F4_REV2,53544d33-3246-4345-9f52-4556322e6b69,vSETP 2026*%
%TF.SameCoordinates,Original*%
%TF.FileFunction,Copper,L1,Top*%
%TF.FilePolarity,Positive*%
%FSLAX46Y46*%
G04 Gerber Fmt 4.6, Leading zero omitted, Abs format (unit mm)*
G04 Created by KiCad (PCBNEW 10.0.6) date 2026-09-30 17:50:58*
%MOMM*%
%LPD*%
G01*
G04 APERTURE LIST*
G04 Aperture macros list*
%AMRoundRect*
0 Rectangle with rounded corners*
0 $1 Rounding radius*
0 $2 $3 $4 $5 $6 $7 $8 $9 X,Y pos of 4 corners*
0 Add a 4 corners polygon primitive as box body*
4,1,4,$2,$3,$4,$5,$6,$7,$8,$9,$2,$3,0*
0 Add four circle primitives for the rounded corners*
1,1,$1+$1,$2,$3*
1,1,$1+$1,$4,$5*
1,1,$1+$1,$6,$7*
1,1,$1+$1,$8,$9*
0 Add four rect primitives between the rounded corners*
20,1,$1+$1,$2,$3,$4,$5,0*
20,1,$1+$1,$4,$5,$6,$7,0*
20,1,$1+$1,$6,$7,$8,$9,0*
20,1,$1+$1,$8,$9,$2,$3,0*%
G04 Aperture macros list end*
%TA.AperFunction,SMDPad,CuDef*%
%ADD10RoundRect,0.225000X-0.225000X-0.375000X0.225000X-0.375000X0.225000X0.375000X-0.225000X0.375000X0*%
%TD*%
%TA.AperFunction,ComponentPad*%
%ADD11RoundRect,0.250001X0.949999X-0.949999X0.949999X0.949999X-0.949999X0.949999X-0.949999X-0.949999X0*%
%TD*%
%TA.AperFunction,ComponentPad*%
%ADD12C,2.400000*%
%TD*%
%TA.AperFunction,SMDPad,CuDef*%
%ADD13RoundRect,0.225000X0.250000X-0.225000X0.250000X0.225000X-0.250000X0.225000X-0.250000X-0.225000X0*%
%TD*%
%TA.AperFunction,SMDPad,CuDef*%
%ADD14RoundRect,0.218750X-0.218750X-0.256250X0.218750X-0.256250X0.218750X0.256250X-0.218750X0.256250X0*%
%TD*%
%TA.AperFunction,SMDPad,CuDef*%
%ADD15RoundRect,0.140000X-0.140000X-0.170000X0.140000X-0.170000X0.140000X0.170000X-0.140000X0.170000X0*%
%TD*%
%TA.AperFunction,SMDPad,CuDef*%
%ADD16RoundRect,0.150000X-0.512500X-0.150000X0.512500X-0.150000X0.512500X0.150000X-0.512500X0.150000X0*%
%TD*%
%TA.AperFunction,ComponentPad*%
%ADD17RoundRect,0.200000X-0.200000X-0.450000X0.200000X-0.450000X0.200000X0.450000X-0.200000X0.450000X0*%
%TD*%
%TA.AperFunction,ComponentPad*%
%ADD18O,0.800000X1.300000*%
%TD*%
%TA.AperFunction,SMDPad,CuDef*%
%ADD19RoundRect,0.140000X0.140000X0.170000X-0.140000X0.170000X-0.140000X-0.170000X0.140000X-0.170000X0*%
%TD*%
%TA.AperFunction,SMDPad,CuDef*%
%ADD20RoundRect,0.135000X0.135000X0.185000X-0.135000X0.185000X-0.135000X-0.185000X0.135000X-0.185000X0*%
%TD*%
%TA.AperFunction,SMDPad,CuDef*%
%ADD21RoundRect,0.200000X-0.200000X-0.275000X0.200000X-0.275000X0.200000X0.275000X-0.200000X0.275000X0*%
%TD*%
%TA.AperFunction,SMDPad,CuDef*%
%ADD22R,0.600000X1.150000*%
%TD*%
%TA.AperFunction,SMDPad,CuDef*%
%ADD23RoundRect,0.250000X-0.325000X-0.650000X0.325000X-0.650000X0.325000X0.650000X-0.325000X0.650000X0*%
%TD*%
%TA.AperFunction,ComponentPad*%
%ADD24C,0.900000*%
%TD*%
%TA.AperFunction,ComponentPad*%
%ADD25C,8.600000*%
%TD*%
%TA.AperFunction,SMDPad,CuDef*%
%ADD26RoundRect,0.250000X0.375000X0.625000X-0.375000X0.625000X-0.375000X-0.625000X0.375000X-0.625000X0*%
%TD*%
%TA.AperFunction,SMDPad,CuDef*%
%ADD27RoundRect,0.140000X0.170000X-0.140000X0.170000X0.140000X-0.170000X0.140000X-0.170000X-0.140000X0*%
%TD*%
%TA.AperFunction,SMDPad,CuDef*%
%ADD28RoundRect,0.250000X-1.000000X0.700000X-1.000000X-0.700000X1.000000X-0.700000X1.000000X0.700000X0*%
%TD*%
%TA.AperFunction,SMDPad,CuDef*%
%ADD29RoundRect,0.225000X-0.225000X-0.250000X0.225000X-0.250000X0.225000X0.250000X-0.225000X0.250000X0*%
%TD*%
%TA.AperFunction,SMDPad,CuDef*%
%ADD30RoundRect,0.250000X0.325000X0.650000X-0.325000X0.650000X-0.325000X-0.650000X0.325000X-0.650000X0*%
%TD*%
%TA.AperFunction,SMDPad,CuDef*%
%ADD31R,0.800000X1.000000*%
%TD*%
%TA.AperFunction,SMDPad,CuDef*%
%ADD32R,1.500000X0.700000*%
%TD*%
%TA.AperFunction,SMDPad,CuDef*%
%ADD33RoundRect,0.075000X-0.700000X-0.075000X0.700000X-0.075000X0.700000X0.075000X-0.700000X0.075000X0*%
%TD*%
%TA.AperFunction,SMDPad,CuDef*%
%ADD34RoundRect,0.075000X-0.075000X-0.700000X0.075000X-0.700000X0.075000X0.700000X-0.075000X0.700000X0*%
%TD*%
%TA.AperFunction,SMDPad,CuDef*%
%ADD35RoundRect,0.250000X0.450000X0.350000X-0.450000X0.350000X-0.450000X-0.350000X0.450000X-0.350000X0*%
%TD*%
%TA.AperFunction,SMDPad,CuDef*%
%ADD36R,0.740000X2.400000*%
%TD*%
%TA.AperFunction,SMDPad,CuDef*%
%ADD37RoundRect,0.147500X-0.172500X0.147500X-0.172500X-0.147500X0.172500X-0.147500X0.172500X0.147500X0*%
%TD*%
%TA.AperFunction,SMDPad,CuDef*%
%ADD38RoundRect,0.225000X0.375000X-0.225000X0.375000X0.225000X-0.375000X0.225000X-0.375000X-0.225000X0*%
%TD*%
%TA.AperFunction,SMDPad,CuDef*%
%ADD39RoundRect,0.140000X-0.170000X0.140000X-0.170000X-0.140000X0.170000X-0.140000X0.170000X0.140000X0*%
%TD*%
%TA.AperFunction,SMDPad,CuDef*%
%ADD40RoundRect,0.135000X-0.135000X-0.185000X0.135000X-0.185000X0.135000X0.185000X-0.135000X0.185000X0*%
%TD*%
%TA.AperFunction,ComponentPad*%
%ADD41RoundRect,0.200000X0.200000X0.450000X-0.200000X0.450000X-0.200000X-0.450000X0.200000X-0.450000X0*%
%TD*%
%TA.AperFunction,SMDPad,CuDef*%
%ADD42RoundRect,0.150000X-0.150000X0.587500X-0.150000X-0.587500X0.150000X-0.587500X0.150000X0.587500X0*%
%TD*%
%TA.AperFunction,SMDPad,CuDef*%
%ADD43RoundRect,0.200000X0.275000X-0.200000X0.275000X0.200000X-0.275000X0.200000X-0.275000X-0.200000X0*%
%TD*%
%TA.AperFunction,SMDPad,CuDef*%
%ADD44RoundRect,0.200000X0.200000X0.275000X-0.200000X0.275000X-0.200000X-0.275000X0.200000X-0.275000X0*%
%TD*%
%TA.AperFunction,SMDPad,CuDef*%
%ADD45R,1.350000X0.400000*%
%TD*%
%TA.AperFunction,ComponentPad*%
%ADD46C,1.950000*%
%TD*%
%TA.AperFunction,SMDPad,CuDef*%
%ADD47R,1.400000X1.600000*%
%TD*%
%TA.AperFunction,SMDPad,CuDef*%
%ADD48R,1.900000X1.900000*%
%TD*%
%TA.AperFunction,SMDPad,CuDef*%
%ADD49RoundRect,0.250000X-0.475000X0.250000X-0.475000X-0.250000X0.475000X-0.250000X0.475000X0.250000X0*%
%TD*%
%TA.AperFunction,SMDPad,CuDef*%
%ADD50RoundRect,0.135000X-0.185000X0.135000X-0.185000X-0.135000X0.185000X-0.135000X0.185000X0.135000X0*%
%TD*%
%TA.AperFunction,ViaPad*%
%ADD51C,0.800000*%
%TD*%
%TA.AperFunction,ViaPad*%
%ADD52C,0.600000*%
%TD*%
%TA.AperFunction,Conductor*%
%ADD53C,1.000000*%
%TD*%
%TA.AperFunction,Conductor*%
%ADD54C,0.500000*%
%TD*%
%TA.AperFunction,Conductor*%
%ADD55C,0.300000*%
%TD*%
%TA.AperFunction,Conductor*%
%ADD56C,0.254000*%
%TD*%
%TA.AperFunction,Conductor*%
%ADD57C,0.261112*%
%TD*%
%TA.AperFunction,Conductor*%
%ADD58C,0.750000*%
%TD*%
G04 APERTURE END LIST*
D10*
%TO.P,D3,1,K_1*%
%TO.N,IC1_SW*%
X147852500Y-104510000D03*
%TO.P,D3,2,A_2*%
%TO.N,GND*%
X151152500Y-104510000D03*
%TD*%
D11*
%TO.P,J1,1,Pin_1_1*%
%TO.N,+12V*%
X163142500Y-105219581D03*
D12*
%TO.P,J1,2,Pin_2_2*%
%TO.N,GND*%
X163142500Y-101719581D03*
%TD*%
D13*
%TO.P,C3,1*%
%TO.N,+3.3V*%
X132225000Y-94744581D03*
%TO.P,C3,2*%
%TO.N,GND*%
X132225000Y-93194581D03*
%TD*%
D14*
%TO.P,STATUS,1,K_1*%
%TO.N,Net-(D1-K)*%
X131687500Y-104219581D03*
%TO.P,STATUS,2,A_2*%
%TO.N,LED_STATUS*%
X133262500Y-104219581D03*
%TD*%
D15*
%TO.P,C4,1*%
%TO.N,+3.3V*%
X136200000Y-90510000D03*
%TO.P,C4,2*%
%TO.N,GND*%
X137160000Y-90510000D03*
%TD*%
D16*
%TO.P,U2,1,I/O1_1*%
%TO.N,USB_D+*%
X155087500Y-91769581D03*
%TO.P,U2,2,GND_2*%
%TO.N,GND*%
X155087500Y-92719581D03*
%TO.P,U2,3,I/O2_3*%
%TO.N,USB_D-*%
X155087500Y-93669581D03*
%TO.P,U2,4,I/O2_4*%
%TO.N,USB_CONN_D-*%
X157362500Y-93669581D03*
%TO.P,U2,5,VBUS_5*%
%TO.N,+5V*%
X157362500Y-92719581D03*
%TO.P,U2,6,I/O1_6*%
%TO.N,USB_CONN_D+*%
X157362500Y-91769581D03*
%TD*%
D17*
%TO.P,J4,1,Pin_1_1*%
%TO.N,+3.3V*%
X137850000Y-116269581D03*
D18*
%TO.P,J4,2,Pin_2_2*%
%TO.N,UART3_TX*%
X139100000Y-116269581D03*
%TO.P,J4,3,Pin_3_3*%
%TO.N,UART3_RX*%
X140350000Y-116269581D03*
%TO.P,J4,4,Pin_4_4*%
%TO.N,GND*%
X141600000Y-116269581D03*
%TD*%
D19*
%TO.P,C6,1*%
%TO.N,+3.3V*%
X137480000Y-107250000D03*
%TO.P,C6,2*%
%TO.N,GND*%
X136520000Y-107250000D03*
%TD*%
D20*
%TO.P,R12,1*%
%TO.N,+3.3V*%
X139490000Y-90500000D03*
%TO.P,R12,2*%
%TO.N,I2C1_SDA*%
X138470000Y-90500000D03*
%TD*%
D21*
%TO.P,R4,1*%
%TO.N,Net-(D2-K)*%
X156835000Y-85890000D03*
%TO.P,R4,2*%
%TO.N,GND*%
X158485000Y-85890000D03*
%TD*%
D22*
%TO.P,IC1,1,BST_1*%
%TO.N,IC1_BST*%
X151525000Y-109519581D03*
%TO.P,IC1,2,GND_2*%
%TO.N,GND*%
X152475000Y-109519581D03*
%TO.P,IC1,3,FB_3*%
%TO.N,IC1_FB*%
X153425000Y-109519581D03*
%TO.P,IC1,4,EN_4*%
%TO.N,IC1_EN*%
X153425000Y-106919581D03*
%TO.P,IC1,5,IN_5*%
%TO.N,IC1_IN*%
X152475000Y-106919581D03*
%TO.P,IC1,6,SW_6*%
%TO.N,IC1_SW*%
X151525000Y-106919581D03*
%TD*%
D23*
%TO.P,C13,1*%
%TO.N,IC1_IN*%
X155417500Y-107469581D03*
%TO.P,C13,2*%
%TO.N,GND*%
X158367500Y-107469581D03*
%TD*%
D24*
%TO.P,H2,1,1_1*%
%TO.N,GND*%
X123000000Y-79500000D03*
X123944581Y-77219581D03*
X123944581Y-81780419D03*
X126225000Y-76275000D03*
D25*
X126225000Y-79500000D03*
D24*
X126225000Y-82725000D03*
X128505419Y-77219581D03*
X128505419Y-81780419D03*
X129450000Y-79500000D03*
%TD*%
D26*
%TO.P,F1,1*%
%TO.N,Net-(D4-K)*%
X154375000Y-99719581D03*
%TO.P,F1,2*%
%TO.N,Net-(F1-Pad2)*%
X151575000Y-99719581D03*
%TD*%
D27*
%TO.P,C9,1*%
%TO.N,+3.3VA*%
X131225000Y-101449581D03*
%TO.P,C9,2*%
%TO.N,GND*%
X131225000Y-100489581D03*
%TD*%
D14*
%TO.P,D2,1,K_1*%
%TO.N,Net-(D2-K)*%
X156842500Y-84030000D03*
%TO.P,D2,2,A_2*%
%TO.N,+3.3V*%
X158417500Y-84030000D03*
%TD*%
D24*
%TO.P,H4,1,1_1*%
%TO.N,GND*%
X161250000Y-115969581D03*
X162194581Y-113689162D03*
X162194581Y-118250000D03*
X164475000Y-112744581D03*
D25*
X164475000Y-115969581D03*
D24*
X164475000Y-119194581D03*
X166755419Y-113689162D03*
X166755419Y-118250000D03*
X167700000Y-115969581D03*
%TD*%
D19*
%TO.P,C12,1*%
%TO.N,HSE_IN*%
X127705000Y-94719581D03*
%TO.P,C12,2*%
%TO.N,GND*%
X126745000Y-94719581D03*
%TD*%
D20*
%TO.P,R1,1*%
%TO.N,BOOT0*%
X129210000Y-89660000D03*
%TO.P,R1,2*%
%TO.N,Net-(SW1-B)*%
X128190000Y-89660000D03*
%TD*%
D28*
%TO.P,L2,1,1_1*%
%TO.N,IC1_SW*%
X147392500Y-108419581D03*
%TO.P,L2,2,2_2*%
%TO.N,+3.3V*%
X147392500Y-112519581D03*
%TD*%
D29*
%TO.P,C1,1*%
%TO.N,Net-(U1-VCAP_2)*%
X147845000Y-95340000D03*
%TO.P,C1,2*%
%TO.N,GND*%
X149395000Y-95340000D03*
%TD*%
D30*
%TO.P,C16,1*%
%TO.N,+3.3V*%
X155355000Y-115340000D03*
%TO.P,C16,2*%
%TO.N,GND*%
X152405000Y-115340000D03*
%TD*%
D31*
%TO.P,SW1,*%
%TO.N,*%
X124980000Y-85319581D03*
X122770000Y-85319581D03*
X124980000Y-92619581D03*
X122770000Y-92619581D03*
D32*
%TO.P,SW1,1,A_1*%
%TO.N,+3.3V*%
X125630000Y-86719581D03*
%TO.P,SW1,2,B_2*%
%TO.N,Net-(SW1-B)*%
X125630000Y-89719581D03*
%TO.P,SW1,3,C_3*%
%TO.N,GND*%
X125630000Y-91219581D03*
%TD*%
D33*
%TO.P,U1,1,VBAT_1*%
%TO.N,+3.3V*%
X134300000Y-94969581D03*
%TO.P,U1,2,PC13_2*%
%TO.N,unconnected-(U1-PC13-Pad2)*%
X134300000Y-95469581D03*
%TO.P,U1,3,PC14_3*%
%TO.N,unconnected-(U1-PC14-Pad3)*%
X134300000Y-95969581D03*
%TO.P,U1,4,PC15_4*%
%TO.N,unconnected-(U1-PC15-Pad4)*%
X134300000Y-96469581D03*
%TO.P,U1,5,PH0_5*%
%TO.N,HSE_IN*%
X134300000Y-96969581D03*
%TO.P,U1,6,PH1_6*%
%TO.N,HSE_OUT*%
X134300000Y-97469581D03*
%TO.P,U1,7,NRST_7*%
%TO.N,NRST*%
X134300000Y-97969581D03*
%TO.P,U1,8,PC0_8*%
%TO.N,unconnected-(U1-PC0-Pad8)*%
X134300000Y-98469581D03*
%TO.P,U1,9,PC1_9*%
%TO.N,unconnected-(U1-PC1-Pad9)*%
X134300000Y-98969581D03*
%TO.P,U1,10,PC2_10*%
%TO.N,unconnected-(U1-PC2-Pad10)*%
X134300000Y-99469581D03*
%TO.P,U1,11,PC3_11*%
%TO.N,unconnected-(U1-PC3-Pad11)*%
X134300000Y-99969581D03*
%TO.P,U1,12,VSSA_12*%
%TO.N,GND*%
X134300000Y-100469581D03*
%TO.P,U1,13,VDDA_13*%
%TO.N,+3.3VA*%
X134300000Y-100969581D03*
%TO.P,U1,14,PA0_14*%
%TO.N,unconnected-(U1-PA0-Pad14)*%
X134300000Y-101469581D03*
%TO.P,U1,15,PA1_15*%
%TO.N,unconnected-(U1-PA1-Pad15)*%
X134300000Y-101969581D03*
%TO.P,U1,16,PA2_16*%
%TO.N,LED_STATUS*%
X134300000Y-102469581D03*
D34*
%TO.P,U1,17,PA3_17*%
%TO.N,SWO*%
X136225000Y-104394581D03*
%TO.P,U1,18,VSS_18*%
%TO.N,GND*%
X136725000Y-104394581D03*
%TO.P,U1,19,VDD_19*%
%TO.N,+3.3V*%
X137225000Y-104394581D03*
%TO.P,U1,20,PA4_20*%
%TO.N,unconnected-(U1-PA4-Pad20)*%
X137725000Y-104394581D03*
%TO.P,U1,21,PA5_21*%
%TO.N,unconnected-(U1-PA5-Pad21)*%
X138225000Y-104394581D03*
%TO.P,U1,22,PA6_22*%
%TO.N,unconnected-(U1-PA6-Pad22)*%
X138725000Y-104394581D03*
%TO.P,U1,23,PA7_23*%
%TO.N,unconnected-(U1-PA7-Pad23)*%
X139225000Y-104394581D03*
%TO.P,U1,24,PC4_24*%
%TO.N,unconnected-(U1-PC4-Pad24)*%
X139725000Y-104394581D03*
%TO.P,U1,25,PC5_25*%
%TO.N,unconnected-(U1-PC5-Pad25)*%
X140225000Y-104394581D03*
%TO.P,U1,26,PB0_26*%
%TO.N,unconnected-(U1-PB0-Pad26)*%
X140725000Y-104394581D03*
%TO.P,U1,27,PB1_27*%
%TO.N,unconnected-(U1-PB1-Pad27)*%
X141225000Y-104394581D03*
%TO.P,U1,28,PB2_28*%
%TO.N,unconnected-(U1-PB2-Pad28)*%
X141725000Y-104394581D03*
%TO.P,U1,29,PB10_29*%
%TO.N,UART3_TX*%
X142225000Y-104394581D03*
%TO.P,U1,30,PB11_30*%
%TO.N,UART3_RX*%
X142725000Y-104394581D03*
%TO.P,U1,31,VCAP_1_31*%
%TO.N,Net-(U1-VCAP_1)*%
X143225000Y-104394581D03*
%TO.P,U1,32,VDD_32*%
%TO.N,+3.3V*%
X143725000Y-104394581D03*
D33*
%TO.P,U1,33,PB12_33*%
%TO.N,unconnected-(U1-PB12-Pad33)*%
X145650000Y-102469581D03*
%TO.P,U1,34,PB13_34*%
%TO.N,unconnected-(U1-PB13-Pad34)*%
X145650000Y-101969581D03*
%TO.P,U1,35,PB14_35*%
%TO.N,unconnected-(U1-PB14-Pad35)*%
X145650000Y-101469581D03*
%TO.P,U1,36,PB15_36*%
%TO.N,unconnected-(U1-PB15-Pad36)*%
X145650000Y-100969581D03*
%TO.P,U1,37,PC6_37*%
%TO.N,unconnected-(U1-PC6-Pad37)*%
X145650000Y-100469581D03*
%TO.P,U1,38,PC7_38*%
%TO.N,unconnected-(U1-PC7-Pad38)*%
X145650000Y-99969581D03*
%TO.P,U1,39,PC8_39*%
%TO.N,unconnected-(U1-PC8-Pad39)*%
X145650000Y-99469581D03*
%TO.P,U1,40,PC9_40*%
%TO.N,unconnected-(U1-PC9-Pad40)*%
X145650000Y-98969581D03*
%TO.P,U1,41,PA8_41*%
%TO.N,unconnected-(U1-PA8-Pad41)*%
X145650000Y-98469581D03*
%TO.P,U1,42,PA9_42*%
%TO.N,unconnected-(U1-PA9-Pad42)*%
X145650000Y-97969581D03*
%TO.P,U1,43,PA10_43*%
%TO.N,unconnected-(U1-PA10-Pad43)*%
X145650000Y-97469581D03*
%TO.P,U1,44,PA11_44*%
%TO.N,USB_D-*%
X145650000Y-96969581D03*
%TO.P,U1,45,PA12_45*%
%TO.N,USB_D+*%
X145650000Y-96469581D03*
%TO.P,U1,46,PA13_46*%
%TO.N,SWDIO*%
X145650000Y-95969581D03*
%TO.P,U1,47,VCAP_2_47*%
%TO.N,Net-(U1-VCAP_2)*%
X145650000Y-95469581D03*
%TO.P,U1,48,VDD_48*%
%TO.N,+3.3V*%
X145650000Y-94969581D03*
D34*
%TO.P,U1,49,PA14_49*%
%TO.N,SWCLK*%
X143725000Y-93044581D03*
%TO.P,U1,50,PA15_50*%
%TO.N,unconnected-(U1-PA15-Pad50)*%
X143225000Y-93044581D03*
%TO.P,U1,51,PC10_51*%
%TO.N,unconnected-(U1-PC10-Pad51)*%
X142725000Y-93044581D03*
%TO.P,U1,52,PC11_52*%
%TO.N,unconnected-(U1-PC11-Pad52)*%
X142225000Y-93044581D03*
%TO.P,U1,53,PC12_53*%
%TO.N,unconnected-(U1-PC12-Pad53)*%
X141725000Y-93044581D03*
%TO.P,U1,54,PD2_54*%
%TO.N,unconnected-(U1-PD2-Pad54)*%
X141225000Y-93044581D03*
%TO.P,U1,55,PB3_55*%
%TO.N,unconnected-(U1-PB3-Pad55)*%
X140725000Y-93044581D03*
%TO.P,U1,56,PB4_56*%
%TO.N,unconnected-(U1-PB4-Pad56)*%
X140225000Y-93044581D03*
%TO.P,U1,57,PB5_57*%
%TO.N,unconnected-(U1-PB5-Pad57)*%
X139725000Y-93044581D03*
%TO.P,U1,58,PB6_58*%
%TO.N,I2C1_SCL*%
X139225000Y-93044581D03*
%TO.P,U1,59,PB7_59*%
%TO.N,I2C1_SDA*%
X138725000Y-93044581D03*
%TO.P,U1,60,BOOT0_60*%
%TO.N,BOOT0*%
X138225000Y-93044581D03*
%TO.P,U1,61,PB8_61*%
%TO.N,unconnected-(U1-PB8-Pad61)*%
X137725000Y-93044581D03*
%TO.P,U1,62,PB9_62*%
%TO.N,unconnected-(U1-PB9-Pad62)*%
X137225000Y-93044581D03*
%TO.P,U1,63,VSS_63*%
%TO.N,GND*%
X136725000Y-93044581D03*
%TO.P,U1,64,VDD_64*%
%TO.N,+3.3V*%
X136225000Y-93044581D03*
%TD*%
D29*
%TO.P,C2,1*%
%TO.N,Net-(U1-VCAP_1)*%
X141975000Y-107250000D03*
%TO.P,C2,2*%
%TO.N,GND*%
X143525000Y-107250000D03*
%TD*%
%TO.P,C15,1*%
%TO.N,IC1_BST*%
X151617500Y-111719581D03*
%TO.P,C15,2*%
%TO.N,IC1_SW*%
X153167500Y-111719581D03*
%TD*%
D23*
%TO.P,C17,1*%
%TO.N,+3.3V*%
X147295000Y-115330000D03*
%TO.P,C17,2*%
%TO.N,GND*%
X150245000Y-115330000D03*
%TD*%
D21*
%TO.P,R8,1*%
%TO.N,+3.3V*%
X157425000Y-115480000D03*
%TO.P,R8,2*%
%TO.N,IC1_FB*%
X159075000Y-115480000D03*
%TD*%
D15*
%TO.P,C11,1*%
%TO.N,Net-(C11-Pad1)*%
X126850000Y-100050000D03*
%TO.P,C11,2*%
%TO.N,GND*%
X127810000Y-100050000D03*
%TD*%
D35*
%TO.P,Y1,1,1_1*%
%TO.N,HSE_IN*%
X129425000Y-96369581D03*
%TO.P,Y1,2,G_2*%
%TO.N,GND*%
X127225000Y-96369581D03*
%TO.P,Y1,3,3_3*%
%TO.N,Net-(C11-Pad1)*%
X127225000Y-98069581D03*
%TO.P,Y1,4,G_4*%
%TO.N,GND*%
X129425000Y-98069581D03*
%TD*%
D19*
%TO.P,C5,1*%
%TO.N,+3.3V*%
X130205000Y-94719581D03*
%TO.P,C5,2*%
%TO.N,GND*%
X129245000Y-94719581D03*
%TD*%
D21*
%TO.P,R9,1*%
%TO.N,IC1_FB*%
X157567500Y-113719581D03*
%TO.P,R9,2*%
%TO.N,Net-(R10-Pad1)*%
X159217500Y-113719581D03*
%TD*%
D36*
%TO.P,J2,1,Pin_1_1*%
%TO.N,+3.3V*%
X147395000Y-87969581D03*
%TO.P,J2,2,Pin_2_2*%
%TO.N,SWDIO*%
X147395000Y-84069581D03*
%TO.P,J2,3,Pin_3_3*%
%TO.N,GND*%
X148665000Y-87969581D03*
%TO.P,J2,4,Pin_4_4*%
%TO.N,SWCLK*%
X148665000Y-84069581D03*
%TO.P,J2,5,Pin_5_5*%
%TO.N,GND*%
X149935000Y-87969581D03*
%TO.P,J2,6,Pin_6_6*%
%TO.N,SWO*%
X149935000Y-84069581D03*
%TO.P,J2,7,Pin_7_7*%
%TO.N,unconnected-(J2-Pin_7-Pad7)*%
X151205000Y-87969581D03*
%TO.P,J2,8,Pin_8_8*%
%TO.N,unconnected-(J2-Pin_8-Pad8)*%
X151205000Y-84069581D03*
%TO.P,J2,9,Pin_9_9*%
%TO.N,GND*%
X152475000Y-87969581D03*
%TO.P,J2,10,Pin_10_10*%
%TO.N,NRST*%
X152475000Y-84069581D03*
%TD*%
D37*
%TO.P,L1,1*%
%TO.N,+3.3V*%
X129975000Y-100484581D03*
%TO.P,L1,2*%
%TO.N,+3.3VA*%
X129975000Y-101454581D03*
%TD*%
D38*
%TO.P,D4,1,K_1*%
%TO.N,Net-(D4-K)*%
X156530000Y-99760000D03*
%TO.P,D4,2,A_2*%
%TO.N,+5V*%
X156530000Y-96460000D03*
%TD*%
D15*
%TO.P,C8,1*%
%TO.N,+3.3V*%
X145995000Y-93719581D03*
%TO.P,C8,2*%
%TO.N,GND*%
X146955000Y-93719581D03*
%TD*%
D39*
%TO.P,C7,1*%
%TO.N,+3.3V*%
X144975000Y-104739581D03*
%TO.P,C7,2*%
%TO.N,GND*%
X144975000Y-105699581D03*
%TD*%
D21*
%TO.P,R3,1*%
%TO.N,Net-(D1-K)*%
X131650000Y-106219581D03*
%TO.P,R3,2*%
%TO.N,GND*%
X133300000Y-106219581D03*
%TD*%
D27*
%TO.P,C10,1*%
%TO.N,+3.3VA*%
X132475000Y-101449581D03*
%TO.P,C10,2*%
%TO.N,GND*%
X132475000Y-100489581D03*
%TD*%
D40*
%TO.P,R11,1*%
%TO.N,+3.3V*%
X139510000Y-88130000D03*
%TO.P,R11,2*%
%TO.N,I2C1_SCL*%
X140530000Y-88130000D03*
%TD*%
D24*
%TO.P,H3,1,1_1*%
%TO.N,GND*%
X123000000Y-116219581D03*
X123944581Y-113939162D03*
X123944581Y-118500000D03*
X126225000Y-112994581D03*
D25*
X126225000Y-116219581D03*
D24*
X126225000Y-119444581D03*
X128505419Y-113939162D03*
X128505419Y-118500000D03*
X129450000Y-116219581D03*
%TD*%
D41*
%TO.P,J3,1,Pin_1_1*%
%TO.N,+3.3V*%
X141600000Y-79169581D03*
D18*
%TO.P,J3,2,Pin_2_2*%
%TO.N,I2C1_SCL*%
X140350000Y-79169581D03*
%TO.P,J3,3,Pin_3_3*%
%TO.N,I2C1_SDA*%
X139100000Y-79169581D03*
%TO.P,J3,4,Pin_4_4*%
%TO.N,GND*%
X137850000Y-79169581D03*
%TD*%
D42*
%TO.P,Q1,1,G_1*%
%TO.N,GND*%
X158425000Y-103032081D03*
%TO.P,Q1,2,S_2*%
%TO.N,Net-(D4-K)*%
X156525000Y-103032081D03*
%TO.P,Q1,3,D_3*%
%TO.N,+12V*%
X157475000Y-104907081D03*
%TD*%
D43*
%TO.P,R7,1*%
%TO.N,IC1_EN*%
X158642500Y-111294581D03*
%TO.P,R7,2*%
%TO.N,GND*%
X158642500Y-109644581D03*
%TD*%
%TO.P,R10,1*%
%TO.N,Net-(R10-Pad1)*%
X160475000Y-111294581D03*
%TO.P,R10,2*%
%TO.N,GND*%
X160475000Y-109644581D03*
%TD*%
D44*
%TO.P,R6,1*%
%TO.N,IC1_IN*%
X156967500Y-109969581D03*
%TO.P,R6,2*%
%TO.N,IC1_EN*%
X155317500Y-109969581D03*
%TD*%
D24*
%TO.P,H1,1,1_1*%
%TO.N,GND*%
X161250000Y-79500000D03*
X162194581Y-77219581D03*
X162194581Y-81780419D03*
X164475000Y-76275000D03*
D25*
X164475000Y-79500000D03*
D24*
X164475000Y-82725000D03*
X166755419Y-77219581D03*
X166755419Y-81780419D03*
X167700000Y-79500000D03*
%TD*%
D45*
%TO.P,J5,1,VBUS_1*%
%TO.N,+5V*%
X161550000Y-94219581D03*
%TO.P,J5,2,D-_2*%
%TO.N,USB_CONN_D-*%
X161550000Y-93569581D03*
%TO.P,J5,3,D+_3*%
%TO.N,USB_CONN_D+*%
X161550000Y-92919581D03*
%TO.P,J5,4,ID_4*%
%TO.N,unconnected-(J5-ID-Pad4)*%
X161550000Y-92269581D03*
%TO.P,J5,5,GND_5*%
%TO.N,GND*%
X161550000Y-91619581D03*
D46*
%TO.P,J5,MH1*%
%TO.N,N/C*%
X164225000Y-96219581D03*
%TO.P,J5,MH2*%
X164225000Y-89619581D03*
D47*
%TO.P,J5,MP1,Shield_MP1*%
%TO.N,unconnected-(J5-Shield-PadMP1)*%
X161775000Y-96119581D03*
%TO.P,J5,MP2*%
%TO.N,N/C*%
X161775000Y-89719581D03*
D48*
%TO.P,J5,MP3*%
X164225000Y-94119581D03*
%TO.P,J5,MP4*%
X164225000Y-91719581D03*
%TD*%
D49*
%TO.P,FB1,1*%
%TO.N,Net-(F1-Pad2)*%
X154225000Y-102519581D03*
%TO.P,FB1,2*%
%TO.N,IC1_IN*%
X154225000Y-104419581D03*
%TD*%
D50*
%TO.P,R2,1*%
%TO.N,HSE_OUT*%
X131750000Y-97490000D03*
%TO.P,R2,2*%
%TO.N,Net-(C11-Pad1)*%
X131750000Y-98510000D03*
%TD*%
D51*
%TO.N,+3.3V*%
X127130000Y-86730000D03*
X156460000Y-115430000D03*
X146110000Y-115350000D03*
X136830000Y-116280000D03*
X155390000Y-113810000D03*
X157380000Y-116730000D03*
X149200000Y-112700000D03*
X131090000Y-94690000D03*
X141600000Y-77900000D03*
X137850000Y-115000000D03*
X136220000Y-89580000D03*
X145620000Y-112940000D03*
X139510000Y-87200000D03*
X142630000Y-79170000D03*
X145910000Y-104770000D03*
X155340000Y-116890000D03*
X158440000Y-82820000D03*
X129990000Y-99580000D03*
X147260000Y-116850000D03*
X146450000Y-87820000D03*
X137500000Y-108100000D03*
X137850000Y-117580000D03*
X132230000Y-95860000D03*
X141580000Y-80580000D03*
X147390000Y-86280000D03*
X145570000Y-111450000D03*
X146000000Y-92900000D03*
X147450000Y-89750000D03*
X147390000Y-110970000D03*
D52*
%TO.N,NRST*%
X143580000Y-98040000D03*
X148790000Y-94010000D03*
%TO.N,SWO*%
X142270000Y-88120000D03*
X136220000Y-102150000D03*
D51*
%TO.N,Net-(C11-Pad1)*%
X131020000Y-98510000D03*
X124440000Y-99270000D03*
%TO.N,GND*%
X150000000Y-94050000D03*
X152400000Y-116910000D03*
X158470000Y-87140000D03*
X160340000Y-91580000D03*
X145040000Y-106690000D03*
X160860000Y-101830000D03*
X153240000Y-114020000D03*
X152280000Y-104520000D03*
X137370000Y-89570000D03*
X159840000Y-90850000D03*
X152510000Y-110590000D03*
X136440000Y-108240000D03*
X157210000Y-107460000D03*
X161610000Y-109720000D03*
X152480000Y-108310000D03*
X129280000Y-93810000D03*
X159380000Y-108670000D03*
X127810000Y-101000000D03*
X137870000Y-77910000D03*
X160500000Y-108640000D03*
X159520000Y-107550000D03*
X149940000Y-89800000D03*
X148600000Y-89750000D03*
X148670000Y-86220000D03*
X149220000Y-115270000D03*
X150300000Y-113970000D03*
X131210000Y-99560000D03*
X150230000Y-116850000D03*
X165350000Y-101680000D03*
X150060000Y-104530000D03*
X125790000Y-96410000D03*
X133300000Y-107410000D03*
X153550000Y-115370000D03*
X125820000Y-94690000D03*
X158380000Y-106040000D03*
X159270000Y-103100000D03*
X153240000Y-87840000D03*
X158420000Y-101750000D03*
X127160000Y-91180000D03*
X153650000Y-92780000D03*
X137860000Y-80460000D03*
X132460000Y-99590000D03*
X142680000Y-116280000D03*
X143530000Y-108460000D03*
X131110000Y-93220000D03*
X130750000Y-97500000D03*
X141660000Y-117580000D03*
X136790000Y-79180000D03*
X141620000Y-115010000D03*
X147110000Y-92770000D03*
X151200000Y-102890000D03*
X159390000Y-91580000D03*
X163160000Y-99490000D03*
%TD*%
%TO.N,IC1_SW*%
D53*
X147852500Y-107959581D02*
X147392500Y-108419581D01*
X151003118Y-112894581D02*
X147392500Y-109283963D01*
X152467500Y-112894581D02*
X151003118Y-112894581D01*
X147392500Y-109283963D02*
X147392500Y-108419581D01*
X147392500Y-108419581D02*
X148580419Y-108419581D01*
X150080419Y-106919581D02*
X151400000Y-106919581D01*
X153167500Y-112194581D02*
X152467500Y-112894581D01*
X147852500Y-104510000D02*
X147852500Y-107959581D01*
X148580419Y-108419581D02*
X150080419Y-106919581D01*
X153167500Y-111719581D02*
X153167500Y-112194581D01*
%TO.N,+12V*%
X162830000Y-104907081D02*
X163142500Y-105219581D01*
X157475000Y-104907081D02*
X162830000Y-104907081D01*
%TO.N,+3.3V*%
D54*
X145570000Y-111450000D02*
X146322919Y-111450000D01*
D53*
X155340000Y-116890000D02*
X155340000Y-115355000D01*
X157380000Y-115525000D02*
X157425000Y-115480000D01*
X147295000Y-115330000D02*
X147280000Y-115315000D01*
D55*
X134300000Y-94969581D02*
X132450000Y-94969581D01*
D54*
X145995000Y-93719581D02*
X145995000Y-94524581D01*
D53*
X155390000Y-113810000D02*
X155390000Y-115305000D01*
D54*
X136220000Y-90490000D02*
X136200000Y-90510000D01*
D55*
X132450000Y-94969581D02*
X132225000Y-94744581D01*
X136225000Y-90535000D02*
X136225000Y-93044581D01*
D53*
X147295000Y-112617081D02*
X147392500Y-112519581D01*
D55*
X143725000Y-104394581D02*
X144630000Y-104394581D01*
D54*
X132230000Y-95860000D02*
X132230000Y-94749581D01*
X125640419Y-86730000D02*
X125630000Y-86719581D01*
X147390000Y-86280000D02*
X147390000Y-87964581D01*
X146972081Y-112940000D02*
X147392500Y-112519581D01*
D53*
X146130000Y-115330000D02*
X146110000Y-115350000D01*
X156510000Y-115480000D02*
X156460000Y-115430000D01*
D55*
X137225000Y-105725000D02*
X137480000Y-105980000D01*
D54*
X141600419Y-79170000D02*
X141600000Y-79169581D01*
D53*
X155390000Y-115305000D02*
X155355000Y-115340000D01*
D54*
X132230000Y-94749581D02*
X132225000Y-94744581D01*
D55*
X137225000Y-104394581D02*
X137225000Y-105725000D01*
D54*
X129990000Y-100469581D02*
X129975000Y-100484581D01*
X146000000Y-92900000D02*
X146000000Y-93714581D01*
D55*
X145879581Y-104739581D02*
X145910000Y-104770000D01*
D54*
X127130000Y-86730000D02*
X125640419Y-86730000D01*
D55*
X144975000Y-104739581D02*
X145879581Y-104739581D01*
X136200000Y-90510000D02*
X136225000Y-90535000D01*
D54*
X149200000Y-112700000D02*
X147572919Y-112700000D01*
X158440000Y-84007500D02*
X158417500Y-84030000D01*
X141580000Y-79189581D02*
X141600000Y-79169581D01*
X142630000Y-79170000D02*
X141600419Y-79170000D01*
X147245419Y-87820000D02*
X147395000Y-87969581D01*
X139510000Y-87200000D02*
X139510000Y-88130000D01*
D53*
X157380000Y-116730000D02*
X157380000Y-115525000D01*
D54*
X131090000Y-94690000D02*
X130234581Y-94690000D01*
X145995000Y-94524581D02*
X145650000Y-94869581D01*
X141580000Y-80580000D02*
X141580000Y-79189581D01*
X137839581Y-116280000D02*
X137850000Y-116269581D01*
X147450000Y-89750000D02*
X147450000Y-88024581D01*
X137500000Y-108100000D02*
X137500000Y-107270000D01*
X147390000Y-87964581D02*
X147395000Y-87969581D01*
D55*
X144630000Y-104394581D02*
X144975000Y-104739581D01*
D54*
X146450000Y-87820000D02*
X147245419Y-87820000D01*
D53*
X155340000Y-115355000D02*
X155355000Y-115340000D01*
X157425000Y-115480000D02*
X156510000Y-115480000D01*
D54*
X137500000Y-107270000D02*
X137480000Y-107250000D01*
X158440000Y-82820000D02*
X158440000Y-84007500D01*
D53*
X147280000Y-110887081D02*
X147172500Y-110779581D01*
D54*
X136830000Y-116280000D02*
X137839581Y-116280000D01*
D55*
X137480000Y-105980000D02*
X137480000Y-107250000D01*
D53*
X155355000Y-115340000D02*
X156370000Y-115340000D01*
D54*
X146322919Y-111450000D02*
X147392500Y-112519581D01*
X136220000Y-89580000D02*
X136220000Y-90490000D01*
X147450000Y-88024581D02*
X147395000Y-87969581D01*
D53*
X147295000Y-115330000D02*
X147295000Y-112617081D01*
X156370000Y-115340000D02*
X156460000Y-115430000D01*
D54*
X147260000Y-116850000D02*
X147260000Y-115365000D01*
X146000000Y-93714581D02*
X145995000Y-93719581D01*
X145620000Y-112940000D02*
X146972081Y-112940000D01*
X147390000Y-112517081D02*
X147392500Y-112519581D01*
X139510000Y-88130000D02*
X139510000Y-90480000D01*
X147572919Y-112700000D02*
X147392500Y-112519581D01*
X137850000Y-117580000D02*
X137850000Y-116269581D01*
X147260000Y-115365000D02*
X147295000Y-115330000D01*
X147390000Y-110970000D02*
X147390000Y-112517081D01*
X141600000Y-77900000D02*
X141600000Y-79169581D01*
X130234581Y-94690000D02*
X130205000Y-94719581D01*
D53*
X147295000Y-115330000D02*
X146130000Y-115330000D01*
D54*
X139510000Y-90480000D02*
X139490000Y-90500000D01*
X137850000Y-115000000D02*
X137850000Y-116269581D01*
X129990000Y-99580000D02*
X129990000Y-100469581D01*
%TO.N,Net-(D1-K)*%
X131687500Y-104219581D02*
X131687500Y-106182081D01*
X131687500Y-106182081D02*
X131650000Y-106219581D01*
%TO.N,LED_STATUS*%
D56*
X134300000Y-103182081D02*
X133262500Y-104219581D01*
X134300000Y-102469581D02*
X134300000Y-103182081D01*
%TO.N,USB_CONN_D-*%
D57*
X159408419Y-93476737D02*
X158883419Y-92951737D01*
X158476608Y-92951737D02*
X158078208Y-93350137D01*
X157725000Y-93669581D02*
X157362500Y-93669581D01*
X160537499Y-93569581D02*
X160444655Y-93476737D01*
X158078208Y-93350137D02*
X158044444Y-93350137D01*
X158044444Y-93350137D02*
X157725000Y-93669581D01*
X161550000Y-93569581D02*
X160537499Y-93569581D01*
X158883419Y-92951737D02*
X158476608Y-92951737D01*
X160444655Y-93476737D02*
X159408419Y-93476737D01*
%TO.N,USB_CONN_D+*%
X160444655Y-93012425D02*
X159600743Y-93012425D01*
X159600743Y-93012425D02*
X159075743Y-92487425D01*
X160537499Y-92919581D02*
X160444655Y-93012425D01*
X159075743Y-92487425D02*
X158476608Y-92487425D01*
X158476608Y-92487425D02*
X158078208Y-92089025D01*
X158078208Y-92089025D02*
X158044444Y-92089025D01*
X158044444Y-92089025D02*
X157725000Y-91769581D01*
X157725000Y-91769581D02*
X157362500Y-91769581D01*
X161550000Y-92919581D02*
X160537499Y-92919581D01*
%TO.N,+5V*%
D54*
X156250000Y-96180000D02*
X156250000Y-93266897D01*
X156530000Y-96460000D02*
X156250000Y-96180000D01*
X156797316Y-92719581D02*
X157362500Y-92719581D01*
X156250000Y-93266897D02*
X156797316Y-92719581D01*
X161550000Y-94219581D02*
X158770419Y-94219581D01*
X158770419Y-94219581D02*
X156530000Y-96460000D01*
%TO.N,UART3_TX*%
D55*
X142225000Y-104394581D02*
X142225000Y-105272701D01*
X142225000Y-105272701D02*
X141747701Y-105750000D01*
X141747701Y-105750000D02*
X139750000Y-105750000D01*
X139100000Y-106400000D02*
X139100000Y-116269581D01*
X139750000Y-105750000D02*
X139100000Y-106400000D01*
%TO.N,UART3_RX*%
X142250000Y-106250000D02*
X141000000Y-106250000D01*
X142725000Y-104394581D02*
X142725000Y-105775000D01*
X142725000Y-105775000D02*
X142250000Y-106250000D01*
X140350000Y-106900000D02*
X140350000Y-116269581D01*
X141000000Y-106250000D02*
X140350000Y-106900000D01*
%TO.N,I2C1_SDA*%
X139100000Y-80400000D02*
X138490000Y-81010000D01*
X138725000Y-91734581D02*
X138490000Y-91499581D01*
X138490000Y-81010000D02*
X138490000Y-90480000D01*
X138490000Y-91499581D02*
X138490000Y-90520000D01*
X138490000Y-90520000D02*
X138470000Y-90500000D01*
X139100000Y-79169581D02*
X139100000Y-80400000D01*
X138725000Y-93044581D02*
X138725000Y-91734581D01*
X138490000Y-90480000D02*
X138470000Y-90500000D01*
%TO.N,Net-(D2-K)*%
D54*
X156835000Y-85890000D02*
X156835000Y-84037500D01*
X156835000Y-84037500D02*
X156842500Y-84030000D01*
%TO.N,IC1_BST*%
D58*
X151617500Y-111719581D02*
X151525000Y-111627081D01*
X151525000Y-111627081D02*
X151525000Y-109519581D01*
%TO.N,IC1_FB*%
D55*
X156067500Y-112619581D02*
X157167500Y-113719581D01*
X156067500Y-111461223D02*
X156067500Y-112619581D01*
X155050000Y-111144581D02*
X155750858Y-111144581D01*
X153425000Y-109519581D02*
X155050000Y-111144581D01*
X157167500Y-113719581D02*
X157567500Y-113719581D01*
X158977919Y-115480000D02*
X159075000Y-115480000D01*
X155750858Y-111144581D02*
X156067500Y-111461223D01*
X157567500Y-113719581D02*
X157567500Y-114069581D01*
X157567500Y-114069581D02*
X158977919Y-115480000D01*
%TO.N,IC1_EN*%
D56*
X155317500Y-109969581D02*
X153425000Y-108077081D01*
X156515500Y-111167581D02*
X155317500Y-109969581D01*
X153425000Y-108077081D02*
X153425000Y-106919581D01*
X158642500Y-111294581D02*
X158515500Y-111167581D01*
X158515500Y-111167581D02*
X156515500Y-111167581D01*
%TO.N,IC1_IN*%
D58*
X152475000Y-106919581D02*
X152475000Y-106169581D01*
D53*
X155417500Y-105612081D02*
X154225000Y-104419581D01*
D58*
X152475000Y-106169581D02*
X154225000Y-104419581D01*
D53*
X156967500Y-109019581D02*
X155417500Y-107469581D01*
X155417500Y-107469581D02*
X155417500Y-105612081D01*
X156967500Y-109969581D02*
X156967500Y-109019581D01*
%TO.N,Net-(D4-K)*%
X156489581Y-99719581D02*
X156530000Y-99760000D01*
X156525000Y-103032081D02*
X156525000Y-99765000D01*
X156525000Y-99765000D02*
X156530000Y-99760000D01*
X154375000Y-99719581D02*
X156489581Y-99719581D01*
%TO.N,Net-(F1-Pad2)*%
X151760000Y-100000000D02*
X151760000Y-100054581D01*
X151575000Y-99719581D02*
X151575000Y-99815000D01*
X151760000Y-100054581D02*
X154225000Y-102519581D01*
X151575000Y-99815000D02*
X151760000Y-100000000D01*
%TO.N,+3.3VA*%
D54*
X131225000Y-101449581D02*
X132475000Y-101449581D01*
X129975000Y-101454581D02*
X131220000Y-101454581D01*
D55*
X134300000Y-100969581D02*
X133055838Y-100969581D01*
D54*
X131220000Y-101454581D02*
X131225000Y-101449581D01*
D55*
X133055838Y-100969581D02*
X132575838Y-101449581D01*
X132575838Y-101449581D02*
X132475000Y-101449581D01*
%TO.N,HSE_IN*%
X131639215Y-96369581D02*
X129425000Y-96369581D01*
X134300000Y-96969581D02*
X132239215Y-96969581D01*
X129425000Y-96369581D02*
X129119581Y-96369581D01*
X129119581Y-96369581D02*
X127705000Y-94955000D01*
X127705000Y-94955000D02*
X127705000Y-94719581D01*
X132239215Y-96969581D02*
X131639215Y-96369581D01*
%TO.N,BOOT0*%
D56*
X138225000Y-93890173D02*
X137968592Y-94146581D01*
X134438880Y-94146581D02*
X129952299Y-89660000D01*
X138225000Y-93044581D02*
X138225000Y-93890173D01*
X137968592Y-94146581D02*
X134438880Y-94146581D01*
X129952299Y-89660000D02*
X129210000Y-89660000D01*
%TO.N,Net-(SW1-B)*%
X128229581Y-89719581D02*
X125630000Y-89719581D01*
X128190000Y-89680000D02*
X128229581Y-89719581D01*
X128190000Y-89660000D02*
X128190000Y-89680000D01*
%TO.N,Net-(U1-VCAP_2)*%
D55*
X147755000Y-95340000D02*
X147625419Y-95469581D01*
X147845000Y-95340000D02*
X147755000Y-95340000D01*
X147625419Y-95469581D02*
X145650000Y-95469581D01*
%TO.N,HSE_OUT*%
X132000000Y-97490000D02*
X131750000Y-97490000D01*
X134300000Y-97469581D02*
X132020419Y-97469581D01*
X132020419Y-97469581D02*
X132000000Y-97490000D01*
%TO.N,NRST*%
X153990000Y-88810000D02*
X153990000Y-84800000D01*
X148790000Y-94010000D02*
X153990000Y-88810000D01*
X152645419Y-84240000D02*
X152475000Y-84069581D01*
X153990000Y-84800000D02*
X153430000Y-84240000D01*
X143509581Y-97969581D02*
X143580000Y-98040000D01*
X153430000Y-84240000D02*
X152645419Y-84240000D01*
X134300000Y-97969581D02*
X143509581Y-97969581D01*
%TO.N,unconnected-(U1-PC0-Pad8)*%
X134300000Y-98469581D02*
X134500000Y-98469581D01*
%TO.N,SWO*%
X149935000Y-83069581D02*
X148885000Y-82019581D01*
X142270000Y-86217475D02*
X142270000Y-88120000D01*
X136220000Y-104389581D02*
X136225000Y-104394581D01*
X149935000Y-84069581D02*
X149935000Y-83069581D01*
X148885000Y-82019581D02*
X146467893Y-82019581D01*
X136220000Y-102150000D02*
X136220000Y-104389581D01*
X146467893Y-82019581D02*
X142270000Y-86217475D01*
%TO.N,Net-(U1-VCAP_1)*%
X143225000Y-106000000D02*
X141975000Y-107250000D01*
X143225000Y-104394581D02*
X143225000Y-106000000D01*
%TO.N,SWDIO*%
X144771880Y-95969581D02*
X144525000Y-95722701D01*
X144525000Y-86939581D02*
X147395000Y-84069581D01*
X145650000Y-95969581D02*
X144771880Y-95969581D01*
X144525000Y-95722701D02*
X144525000Y-86939581D01*
%TO.N,SWCLK*%
X148115000Y-82519581D02*
X146675000Y-82519581D01*
X146675000Y-82519581D02*
X143725000Y-85469581D01*
X143725000Y-85469581D02*
X143725000Y-93044581D01*
X148665000Y-84069581D02*
X148665000Y-83069581D01*
X148665000Y-83069581D02*
X148115000Y-82519581D01*
%TO.N,I2C1_SCL*%
X140350000Y-80350000D02*
X140350000Y-79169581D01*
X140530000Y-88130000D02*
X140530000Y-80530000D01*
X140510000Y-88150000D02*
X140530000Y-88130000D01*
X140260000Y-91479215D02*
X140270785Y-91479215D01*
X139225000Y-93044581D02*
X139225000Y-92166461D01*
X140270785Y-91479215D02*
X140510000Y-91240000D01*
X140530000Y-80530000D02*
X140350000Y-80350000D01*
X139225000Y-92166461D02*
X139471880Y-91919581D01*
X139819634Y-91919581D02*
X140260000Y-91479215D01*
X140510000Y-91240000D02*
X140510000Y-88150000D01*
X139471880Y-91919581D02*
X139819634Y-91919581D01*
%TO.N,Net-(C11-Pad1)*%
D54*
X131750000Y-98510000D02*
X131020000Y-98510000D01*
X126840000Y-100060000D02*
X126850000Y-100050000D01*
X125230000Y-100060000D02*
X126840000Y-100060000D01*
X126850000Y-98444581D02*
X127225000Y-98069581D01*
X126850000Y-100050000D02*
X126850000Y-98444581D01*
X124440000Y-99270000D02*
X125230000Y-100060000D01*
%TO.N,Net-(R10-Pad1)*%
X160475000Y-111294581D02*
X160475000Y-112462081D01*
X160475000Y-112462081D02*
X159217500Y-113719581D01*
%TO.N,GND*%
D53*
X153550000Y-115370000D02*
X153550000Y-114330000D01*
D54*
X159840000Y-90850000D02*
X159840000Y-91130000D01*
X150230000Y-116850000D02*
X150230000Y-115345000D01*
X152510000Y-110590000D02*
X152510000Y-109554581D01*
X158380000Y-106410000D02*
X159520000Y-107550000D01*
X148670000Y-86220000D02*
X148670000Y-87964581D01*
X163182081Y-101680000D02*
X163142500Y-101719581D01*
X141660000Y-117300000D02*
X142680000Y-116280000D01*
X158960000Y-101750000D02*
X159270000Y-102060000D01*
X142680000Y-116280000D02*
X142680000Y-116070000D01*
X160860000Y-101830000D02*
X163032081Y-101830000D01*
X159380000Y-108670000D02*
X160470000Y-108670000D01*
X158380000Y-107457081D02*
X158367500Y-107469581D01*
X143530000Y-108460000D02*
X143530000Y-107255000D01*
X148600000Y-88034581D02*
X148665000Y-87969581D01*
X127184581Y-96410000D02*
X127225000Y-96369581D01*
X127810000Y-100050000D02*
X127810000Y-99684581D01*
D53*
X150255000Y-115340000D02*
X150245000Y-115330000D01*
D54*
X131210000Y-99560000D02*
X131210000Y-100474581D01*
X159840000Y-90850000D02*
X159840000Y-91080000D01*
D53*
X152280000Y-104520000D02*
X151162500Y-104520000D01*
D55*
X136725000Y-105815000D02*
X136520000Y-106020000D01*
D54*
X129994581Y-97500000D02*
X129425000Y-98069581D01*
X137860000Y-79179581D02*
X137850000Y-79169581D01*
X161610000Y-109720000D02*
X160550419Y-109720000D01*
X148665000Y-87969581D02*
X149935000Y-87969581D01*
X150300000Y-115275000D02*
X150245000Y-115330000D01*
D53*
X152400000Y-116910000D02*
X152400000Y-115345000D01*
D54*
X161510419Y-91580000D02*
X161550000Y-91619581D01*
X147110000Y-92770000D02*
X147110000Y-93564581D01*
X155027081Y-92780000D02*
X155087500Y-92719581D01*
X150230000Y-115345000D02*
X150245000Y-115330000D01*
X143530000Y-107255000D02*
X143525000Y-107250000D01*
X133300000Y-107410000D02*
X133300000Y-106219581D01*
D55*
X136520000Y-106020000D02*
X136520000Y-107250000D01*
D54*
X149935000Y-87969581D02*
X149935000Y-86769581D01*
X149940000Y-89800000D02*
X149940000Y-87974581D01*
X159520000Y-107550000D02*
X158447919Y-107550000D01*
X158380000Y-106040000D02*
X158380000Y-106290000D01*
X160500000Y-109619581D02*
X160475000Y-109644581D01*
X132460000Y-100474581D02*
X132475000Y-100489581D01*
X149890000Y-89750000D02*
X149940000Y-89800000D01*
X152025000Y-86319581D02*
X152475000Y-86769581D01*
X127810000Y-99684581D02*
X129425000Y-98069581D01*
X149395000Y-94655000D02*
X149395000Y-95340000D01*
X149935000Y-86769581D02*
X150385000Y-86319581D01*
X137870000Y-79149581D02*
X137850000Y-79169581D01*
X137870000Y-77910000D02*
X137870000Y-79149581D01*
D53*
X153550000Y-114330000D02*
X153240000Y-114020000D01*
D54*
X161580000Y-109720000D02*
X160500000Y-108640000D01*
X160500000Y-108640000D02*
X160500000Y-109619581D01*
D53*
X152400000Y-116910000D02*
X152400000Y-116520000D01*
D54*
X152604581Y-87840000D02*
X152475000Y-87969581D01*
D53*
X152280000Y-103970000D02*
X151200000Y-102890000D01*
D54*
X145040000Y-105764581D02*
X144975000Y-105699581D01*
X145040000Y-106690000D02*
X145040000Y-105764581D01*
D55*
X132495000Y-100469581D02*
X132475000Y-100489581D01*
D54*
X158380000Y-106040000D02*
X158380000Y-107457081D01*
X163160000Y-99490000D02*
X163160000Y-101702081D01*
X158447919Y-107550000D02*
X158367500Y-107469581D01*
X132199581Y-93220000D02*
X132225000Y-93194581D01*
D53*
X151162500Y-104520000D02*
X151152500Y-104510000D01*
X152435000Y-115370000D02*
X152405000Y-115340000D01*
D54*
X157210000Y-107460000D02*
X158357919Y-107460000D01*
X131110000Y-93220000D02*
X132199581Y-93220000D01*
D53*
X150060000Y-104530000D02*
X150060000Y-104030000D01*
D54*
X147110000Y-93564581D02*
X146955000Y-93719581D01*
X159270000Y-103100000D02*
X158492919Y-103100000D01*
X141610419Y-116280000D02*
X141600000Y-116269581D01*
X158420000Y-103027081D02*
X158425000Y-103032081D01*
X127160000Y-91180000D02*
X125669581Y-91180000D01*
D55*
X137205000Y-91686461D02*
X136725000Y-92166461D01*
D54*
X165350000Y-101680000D02*
X163160000Y-99490000D01*
D53*
X152400000Y-115345000D02*
X152405000Y-115340000D01*
D54*
X158357919Y-107460000D02*
X158367500Y-107469581D01*
D53*
X151200000Y-104462500D02*
X151152500Y-104510000D01*
D54*
X159380000Y-108907081D02*
X158642500Y-109644581D01*
X129280000Y-94684581D02*
X129245000Y-94719581D01*
D53*
X151200000Y-102890000D02*
X151200000Y-104462500D01*
D54*
X132460000Y-99590000D02*
X132460000Y-100474581D01*
X125669581Y-91180000D02*
X125630000Y-91219581D01*
X163032081Y-101830000D02*
X163142500Y-101719581D01*
X152475000Y-86769581D02*
X152475000Y-87969581D01*
X127810000Y-101000000D02*
X127810000Y-100050000D01*
X149220000Y-115270000D02*
X150185000Y-115270000D01*
X129280000Y-93810000D02*
X129280000Y-94684581D01*
X158492919Y-103100000D02*
X158425000Y-103032081D01*
X131210000Y-100474581D02*
X131225000Y-100489581D01*
X148600000Y-89750000D02*
X149890000Y-89750000D01*
X141660000Y-117580000D02*
X141660000Y-117300000D01*
X160550419Y-109720000D02*
X160475000Y-109644581D01*
X158380000Y-106040000D02*
X158380000Y-106410000D01*
X150385000Y-86319581D02*
X152025000Y-86319581D01*
X165350000Y-101680000D02*
X163182081Y-101680000D01*
X158470000Y-87140000D02*
X158470000Y-85905000D01*
D53*
X152405000Y-115340000D02*
X150255000Y-115340000D01*
D54*
X158420000Y-101750000D02*
X158420000Y-103027081D01*
X136440000Y-107330000D02*
X136520000Y-107250000D01*
X152480000Y-109514581D02*
X152475000Y-109519581D01*
X150300000Y-114190000D02*
X149220000Y-115270000D01*
X126715419Y-94690000D02*
X126745000Y-94719581D01*
X137839581Y-79180000D02*
X137850000Y-79169581D01*
X159270000Y-102060000D02*
X159270000Y-103100000D01*
X149940000Y-87974581D02*
X149935000Y-87969581D01*
X137370000Y-89570000D02*
X137370000Y-90300000D01*
X141660000Y-116329581D02*
X141600000Y-116269581D01*
D53*
X153550000Y-115370000D02*
X152435000Y-115370000D01*
D54*
X142680000Y-116070000D02*
X141620000Y-115010000D01*
X159840000Y-91130000D02*
X159390000Y-91580000D01*
X159840000Y-91080000D02*
X160340000Y-91580000D01*
X153650000Y-92780000D02*
X155027081Y-92780000D01*
D53*
X151132500Y-104530000D02*
X151152500Y-104510000D01*
D54*
X148600000Y-89750000D02*
X148600000Y-88034581D01*
D53*
X152400000Y-116520000D02*
X153550000Y-115370000D01*
D54*
X160340000Y-91580000D02*
X161510419Y-91580000D01*
X152480000Y-108310000D02*
X152480000Y-109514581D01*
X137370000Y-90300000D02*
X137160000Y-90510000D01*
X136440000Y-108240000D02*
X136440000Y-107330000D01*
X141620000Y-115010000D02*
X141620000Y-116249581D01*
D55*
X126745000Y-94719581D02*
X126745000Y-95889581D01*
D54*
X150230000Y-116280000D02*
X149220000Y-115270000D01*
X150000000Y-94050000D02*
X149395000Y-94655000D01*
D55*
X134300000Y-100469581D02*
X132495000Y-100469581D01*
D54*
X160860000Y-101790000D02*
X163160000Y-99490000D01*
D53*
X153240000Y-114505000D02*
X152405000Y-115340000D01*
X153240000Y-114020000D02*
X153240000Y-114505000D01*
D54*
X159390000Y-91580000D02*
X160340000Y-91580000D01*
X141660000Y-117580000D02*
X141660000Y-116329581D01*
X125820000Y-94690000D02*
X126715419Y-94690000D01*
X158377081Y-107460000D02*
X158380000Y-107457081D01*
X160860000Y-101830000D02*
X160860000Y-101790000D01*
X152510000Y-109554581D02*
X152475000Y-109519581D01*
D55*
X136725000Y-92166461D02*
X136725000Y-93044581D01*
D54*
X158420000Y-101750000D02*
X158960000Y-101750000D01*
X159380000Y-108670000D02*
X159380000Y-108907081D01*
D55*
X136725000Y-104394581D02*
X136725000Y-105815000D01*
D54*
X160470000Y-108670000D02*
X160500000Y-108640000D01*
X141620000Y-116249581D02*
X141600000Y-116269581D01*
X137860000Y-80460000D02*
X137860000Y-79179581D01*
X150185000Y-115270000D02*
X150245000Y-115330000D01*
D53*
X150060000Y-104530000D02*
X151132500Y-104530000D01*
D54*
X150300000Y-113970000D02*
X150300000Y-115275000D01*
X153240000Y-87840000D02*
X152604581Y-87840000D01*
X157210000Y-107460000D02*
X158377081Y-107460000D01*
X130750000Y-97500000D02*
X129994581Y-97500000D01*
X150230000Y-116850000D02*
X150230000Y-116280000D01*
X125790000Y-96410000D02*
X127184581Y-96410000D01*
D55*
X137205000Y-90555000D02*
X137205000Y-91686461D01*
X126745000Y-95889581D02*
X127225000Y-96369581D01*
D54*
X161610000Y-109720000D02*
X161580000Y-109720000D01*
D53*
X150060000Y-104030000D02*
X151200000Y-102890000D01*
D54*
X158380000Y-106290000D02*
X157210000Y-107460000D01*
X136790000Y-79180000D02*
X137839581Y-79180000D01*
D53*
X152280000Y-104520000D02*
X152280000Y-103970000D01*
D54*
X148670000Y-87964581D02*
X148665000Y-87969581D01*
X142680000Y-116280000D02*
X141610419Y-116280000D01*
X150300000Y-113970000D02*
X150300000Y-114190000D01*
X158470000Y-85905000D02*
X158485000Y-85890000D01*
X163160000Y-101702081D02*
X163142500Y-101719581D01*
D55*
X137160000Y-90510000D02*
X137205000Y-90555000D01*
%TO.N,USB_D+*%
D57*
X149514485Y-96487425D02*
X150175556Y-95826354D01*
X150175556Y-95106126D02*
X153512101Y-91769581D01*
X146830345Y-96487425D02*
X149514485Y-96487425D01*
X150175556Y-95826354D02*
X150175556Y-95106126D01*
X153512101Y-91769581D02*
X155087500Y-91769581D01*
X146812501Y-96469581D02*
X146830345Y-96487425D01*
X145650000Y-96469581D02*
X146812501Y-96469581D01*
%TO.N,USB_D-*%
X154093330Y-93670000D02*
X154093749Y-93669581D01*
X150639848Y-95298470D02*
X152268318Y-93670000D01*
X152268318Y-93670000D02*
X154093330Y-93670000D01*
X146830345Y-96951737D02*
X149706781Y-96951737D01*
X150639848Y-96018670D02*
X150639848Y-95298470D01*
X145650000Y-96969581D02*
X146812501Y-96969581D01*
X146812501Y-96969581D02*
X146830345Y-96951737D01*
X154093749Y-93669581D02*
X155087500Y-93669581D01*
X149706781Y-96951737D02*
X150639848Y-96018670D01*
%TD*%
M02*
