%TF.GenerationSoftware,KiCad,Pcbnew,10.0.6*%
%TF.CreationDate,2026-09-30T17:50:58+03:00*%
%TF.ProjectId,STM32F4_REV2,53544d33-3246-4345-9f52-4556322e6b69,vSETP 2026*%
%TF.SameCoordinates,Original*%
%TF.FileFunction,Copper,L2,Inr*%
%TF.FilePolarity,Positive*%
%FSLAX46Y46*%
G04 Gerber Fmt 4.6, Leading zero omitted, Abs format (unit mm)*
G04 Created by KiCad (PCBNEW 10.0.6) date 2026-09-30 17:50:58*
%MOMM*%
%LPD*%
G01*
G04 APERTURE LIST*
G04 Aperture macros list*
%AMRoundRect*
0 Rectangle with rounded corners*
0 $1 Rounding radius*
0 $2 $3 $4 $5 $6 $7 $8 $9 X,Y pos of 4 corners*
0 Add a 4 corners polygon primitive as box body*
4,1,4,$2,$3,$4,$5,$6,$7,$8,$9,$2,$3,0*
0 Add four circle primitives for the rounded corners*
1,1,$1+$1,$2,$3*
1,1,$1+$1,$4,$5*
1,1,$1+$1,$6,$7*
1,1,$1+$1,$8,$9*
0 Add four rect primitives between the rounded corners*
20,1,$1+$1,$2,$3,$4,$5,0*
20,1,$1+$1,$4,$5,$6,$7,0*
20,1,$1+$1,$6,$7,$8,$9,0*
20,1,$1+$1,$8,$9,$2,$3,0*%
G04 Aperture macros list end*
%TA.AperFunction,ComponentPad*%
%ADD10RoundRect,0.250001X0.949999X-0.949999X0.949999X0.949999X-0.949999X0.949999X-0.949999X-0.949999X0*%
%TD*%
%TA.AperFunction,ComponentPad*%
%ADD11C,2.400000*%
%TD*%
%TA.AperFunction,ComponentPad*%
%ADD12RoundRect,0.200000X-0.200000X-0.450000X0.200000X-0.450000X0.200000X0.450000X-0.200000X0.450000X0*%
%TD*%
%TA.AperFunction,ComponentPad*%
%ADD13O,0.800000X1.300000*%
%TD*%
%TA.AperFunction,ComponentPad*%
%ADD14C,0.900000*%
%TD*%
%TA.AperFunction,ComponentPad*%
%ADD15C,8.600000*%
%TD*%
%TA.AperFunction,ComponentPad*%
%ADD16RoundRect,0.200000X0.200000X0.450000X-0.200000X0.450000X-0.200000X-0.450000X0.200000X-0.450000X0*%
%TD*%
%TA.AperFunction,ComponentPad*%
%ADD17C,1.950000*%
%TD*%
%TA.AperFunction,ViaPad*%
%ADD18C,0.800000*%
%TD*%
%TA.AperFunction,ViaPad*%
%ADD19C,0.600000*%
%TD*%
G04 APERTURE END LIST*
D10*
%TO.N,+12V*%
%TO.C,J1*%
X163142500Y-105219581D03*
D11*
%TO.N,GND*%
X163142500Y-101719581D03*
%TD*%
D12*
%TO.N,+3.3V*%
%TO.C,J4*%
X137850000Y-116269581D03*
D13*
%TO.N,UART3_TX*%
X139100000Y-116269581D03*
%TO.N,UART3_RX*%
X140350000Y-116269581D03*
%TO.N,GND*%
X141600000Y-116269581D03*
%TD*%
D14*
%TO.N,GND*%
%TO.C,H2*%
X123000000Y-79500000D03*
X123944581Y-77219581D03*
X123944581Y-81780419D03*
X126225000Y-76275000D03*
D15*
X126225000Y-79500000D03*
D14*
X126225000Y-82725000D03*
X128505419Y-77219581D03*
X128505419Y-81780419D03*
X129450000Y-79500000D03*
%TD*%
%TO.N,GND*%
%TO.C,H4*%
X161250000Y-115969581D03*
X162194581Y-113689162D03*
X162194581Y-118250000D03*
X164475000Y-112744581D03*
D15*
X164475000Y-115969581D03*
D14*
X164475000Y-119194581D03*
X166755419Y-113689162D03*
X166755419Y-118250000D03*
X167700000Y-115969581D03*
%TD*%
%TO.N,GND*%
%TO.C,H3*%
X123000000Y-116219581D03*
X123944581Y-113939162D03*
X123944581Y-118500000D03*
X126225000Y-112994581D03*
D15*
X126225000Y-116219581D03*
D14*
X126225000Y-119444581D03*
X128505419Y-113939162D03*
X128505419Y-118500000D03*
X129450000Y-116219581D03*
%TD*%
D16*
%TO.N,+3.3V*%
%TO.C,J3*%
X141600000Y-79169581D03*
D13*
%TO.N,I2C1_SCL*%
X140350000Y-79169581D03*
%TO.N,I2C1_SDA*%
X139100000Y-79169581D03*
%TO.N,GND*%
X137850000Y-79169581D03*
%TD*%
D14*
%TO.N,GND*%
%TO.C,H1*%
X161250000Y-79500000D03*
X162194581Y-77219581D03*
X162194581Y-81780419D03*
X164475000Y-76275000D03*
D15*
X164475000Y-79500000D03*
D14*
X164475000Y-82725000D03*
X166755419Y-77219581D03*
X166755419Y-81780419D03*
X167700000Y-79500000D03*
%TD*%
D17*
%TO.N,N/C*%
%TO.C,J5*%
X164225000Y-96219581D03*
X164225000Y-89619581D03*
%TD*%
D18*
%TO.N,+3.3V*%
X127130000Y-86730000D03*
X156460000Y-115430000D03*
X146110000Y-115350000D03*
X136830000Y-116280000D03*
X155390000Y-113810000D03*
X157380000Y-116730000D03*
X149200000Y-112700000D03*
X131090000Y-94690000D03*
X141600000Y-77900000D03*
X137850000Y-115000000D03*
X136220000Y-89580000D03*
X145620000Y-112940000D03*
X139510000Y-87200000D03*
X142630000Y-79170000D03*
X145910000Y-104770000D03*
X155340000Y-116890000D03*
X158440000Y-82820000D03*
X129990000Y-99580000D03*
X147260000Y-116850000D03*
X146450000Y-87820000D03*
X137500000Y-108100000D03*
X137850000Y-117580000D03*
X132230000Y-95860000D03*
X141580000Y-80580000D03*
X147390000Y-86280000D03*
X145570000Y-111450000D03*
X146000000Y-92900000D03*
X147450000Y-89750000D03*
X147390000Y-110970000D03*
D19*
%TO.N,NRST*%
X143580000Y-98040000D03*
X148790000Y-94010000D03*
%TO.N,SWO*%
X142270000Y-88120000D03*
X136220000Y-102150000D03*
D18*
%TO.N,Net-(C11-Pad1)*%
X131020000Y-98510000D03*
X124440000Y-99270000D03*
%TO.N,GND*%
X150000000Y-94050000D03*
X152400000Y-116910000D03*
X158470000Y-87140000D03*
X160340000Y-91580000D03*
X145040000Y-106690000D03*
X160860000Y-101830000D03*
X153240000Y-114020000D03*
X152280000Y-104520000D03*
X137370000Y-89570000D03*
X159840000Y-90850000D03*
X152510000Y-110590000D03*
X136440000Y-108240000D03*
X157210000Y-107460000D03*
X161610000Y-109720000D03*
X152480000Y-108310000D03*
X129280000Y-93810000D03*
X159380000Y-108670000D03*
X127810000Y-101000000D03*
X137870000Y-77910000D03*
X160500000Y-108640000D03*
X159520000Y-107550000D03*
X149940000Y-89800000D03*
X148600000Y-89750000D03*
X148670000Y-86220000D03*
X149220000Y-115270000D03*
X150300000Y-113970000D03*
X131210000Y-99560000D03*
X150230000Y-116850000D03*
X165350000Y-101680000D03*
X150060000Y-104530000D03*
X125790000Y-96410000D03*
X133300000Y-107410000D03*
X153550000Y-115370000D03*
X125820000Y-94690000D03*
X158380000Y-106040000D03*
X159270000Y-103100000D03*
X153240000Y-87840000D03*
X158420000Y-101750000D03*
X127160000Y-91180000D03*
X153650000Y-92780000D03*
X137860000Y-80460000D03*
X132460000Y-99590000D03*
X142680000Y-116280000D03*
X143530000Y-108460000D03*
X131110000Y-93220000D03*
X130750000Y-97500000D03*
X141660000Y-117580000D03*
X136790000Y-79180000D03*
X141620000Y-115010000D03*
X147110000Y-92770000D03*
X151200000Y-102890000D03*
X159390000Y-91580000D03*
X163160000Y-99490000D03*
%TD*%
%TA.AperFunction,Conductor*%
%TO.N,GND*%
G36*
X164477562Y-74224186D02*
G01*
X164903061Y-74241785D01*
X164913234Y-74242628D01*
X165333307Y-74294990D01*
X165343387Y-74296672D01*
X165757689Y-74383542D01*
X165767597Y-74386051D01*
X166173312Y-74506838D01*
X166182980Y-74510157D01*
X166469026Y-74621773D01*
X166577318Y-74664029D01*
X166586703Y-74668146D01*
X166966963Y-74854044D01*
X166975977Y-74858921D01*
X167339619Y-75075605D01*
X167348198Y-75081211D01*
X167692683Y-75327167D01*
X167700765Y-75333458D01*
X168023766Y-75607027D01*
X168031306Y-75613968D01*
X168330612Y-75913274D01*
X168337553Y-75920814D01*
X168611122Y-76243815D01*
X168617417Y-76251903D01*
X168863369Y-76596382D01*
X168868975Y-76604961D01*
X169085659Y-76968603D01*
X169090536Y-76977617D01*
X169276434Y-77357877D01*
X169280551Y-77367262D01*
X169434418Y-77761588D01*
X169437746Y-77771281D01*
X169558525Y-78176970D01*
X169561041Y-78186905D01*
X169647905Y-78601179D01*
X169649592Y-78611288D01*
X169701950Y-79031325D01*
X169702796Y-79041539D01*
X169720394Y-79467018D01*
X169720500Y-79472142D01*
X169720500Y-115967019D01*
X169720394Y-115972143D01*
X169702796Y-116397622D01*
X169701950Y-116407836D01*
X169649592Y-116827873D01*
X169647905Y-116837982D01*
X169561041Y-117252256D01*
X169558525Y-117262191D01*
X169437746Y-117667880D01*
X169434418Y-117677573D01*
X169280551Y-118071899D01*
X169276434Y-118081284D01*
X169090536Y-118461544D01*
X169085659Y-118470558D01*
X168868975Y-118834200D01*
X168863369Y-118842779D01*
X168617417Y-119187258D01*
X168611122Y-119195346D01*
X168337553Y-119518347D01*
X168330612Y-119525887D01*
X168031306Y-119825193D01*
X168023766Y-119832134D01*
X167700765Y-120105703D01*
X167692677Y-120111998D01*
X167348198Y-120357950D01*
X167339619Y-120363556D01*
X166975977Y-120580240D01*
X166966963Y-120585117D01*
X166586703Y-120771015D01*
X166577318Y-120775132D01*
X166182992Y-120928999D01*
X166173299Y-120932327D01*
X165767610Y-121053106D01*
X165757675Y-121055622D01*
X165343401Y-121142486D01*
X165333292Y-121144173D01*
X164913255Y-121196531D01*
X164903041Y-121197377D01*
X164477561Y-121214975D01*
X164472437Y-121215081D01*
X164422059Y-121215081D01*
X164418008Y-121215447D01*
X126227853Y-121465056D01*
X126221919Y-121464953D01*
X125796958Y-121447377D01*
X125786744Y-121446531D01*
X125366707Y-121394173D01*
X125356598Y-121392486D01*
X124942324Y-121305622D01*
X124932389Y-121303106D01*
X124526700Y-121182327D01*
X124517007Y-121178999D01*
X124122681Y-121025132D01*
X124113296Y-121021015D01*
X123733036Y-120835117D01*
X123724022Y-120830240D01*
X123360380Y-120613556D01*
X123351801Y-120607950D01*
X123007322Y-120361998D01*
X122999234Y-120355703D01*
X122676233Y-120082134D01*
X122668693Y-120075193D01*
X122369387Y-119775887D01*
X122362446Y-119768347D01*
X122199959Y-119576500D01*
X122088873Y-119445341D01*
X122082582Y-119437258D01*
X122069600Y-119419076D01*
X121836630Y-119092779D01*
X121831024Y-119084200D01*
X121617570Y-118725979D01*
X121617568Y-118725976D01*
X121614338Y-118720555D01*
X121609463Y-118711544D01*
X121588465Y-118668592D01*
X132423500Y-118668592D01*
X132423500Y-118831407D01*
X132455259Y-118991073D01*
X132455262Y-118991082D01*
X132517562Y-119141490D01*
X132517563Y-119141492D01*
X132608015Y-119276862D01*
X132608018Y-119276866D01*
X132723133Y-119391981D01*
X132723137Y-119391984D01*
X132858505Y-119482435D01*
X132858506Y-119482435D01*
X132858507Y-119482436D01*
X132858509Y-119482437D01*
X132945205Y-119518347D01*
X133008919Y-119544738D01*
X133008921Y-119544738D01*
X133008926Y-119544740D01*
X133168592Y-119576499D01*
X133168595Y-119576500D01*
X133168597Y-119576500D01*
X133331405Y-119576500D01*
X133331406Y-119576499D01*
X133384629Y-119565912D01*
X133491073Y-119544740D01*
X133491076Y-119544738D01*
X133491081Y-119544738D01*
X133641495Y-119482435D01*
X133776863Y-119391984D01*
X133891984Y-119276863D01*
X133982435Y-119141495D01*
X134044738Y-118991081D01*
X134076500Y-118831403D01*
X134076500Y-118668597D01*
X134076500Y-118668594D01*
X134076499Y-118668592D01*
X156673500Y-118668592D01*
X156673500Y-118831407D01*
X156705259Y-118991073D01*
X156705262Y-118991082D01*
X156767562Y-119141490D01*
X156767563Y-119141492D01*
X156858015Y-119276862D01*
X156858018Y-119276866D01*
X156973133Y-119391981D01*
X156973137Y-119391984D01*
X157108505Y-119482435D01*
X157108506Y-119482435D01*
X157108507Y-119482436D01*
X157108509Y-119482437D01*
X157195205Y-119518347D01*
X157258919Y-119544738D01*
X157258921Y-119544738D01*
X157258926Y-119544740D01*
X157418592Y-119576499D01*
X157418595Y-119576500D01*
X157418597Y-119576500D01*
X157581405Y-119576500D01*
X157581406Y-119576499D01*
X157634629Y-119565912D01*
X157741073Y-119544740D01*
X157741076Y-119544738D01*
X157741081Y-119544738D01*
X157891495Y-119482435D01*
X158026863Y-119391984D01*
X158141984Y-119276863D01*
X158232435Y-119141495D01*
X158294738Y-118991081D01*
X158326500Y-118831403D01*
X158326500Y-118668597D01*
X158326500Y-118668594D01*
X158326499Y-118668592D01*
X158294740Y-118508926D01*
X158294737Y-118508917D01*
X158282966Y-118480500D01*
X158240517Y-118378016D01*
X158232437Y-118358509D01*
X158232436Y-118358507D01*
X158141984Y-118223137D01*
X158141981Y-118223133D01*
X158026866Y-118108018D01*
X158026862Y-118108015D01*
X157891492Y-118017563D01*
X157891490Y-118017562D01*
X157741082Y-117955262D01*
X157741073Y-117955259D01*
X157581406Y-117923500D01*
X157581403Y-117923500D01*
X157418597Y-117923500D01*
X157418594Y-117923500D01*
X157258926Y-117955259D01*
X157258917Y-117955262D01*
X157108509Y-118017562D01*
X157108507Y-118017563D01*
X156973137Y-118108015D01*
X156973133Y-118108018D01*
X156858018Y-118223133D01*
X156858015Y-118223137D01*
X156767563Y-118358507D01*
X156767562Y-118358509D01*
X156705262Y-118508917D01*
X156705259Y-118508926D01*
X156673500Y-118668592D01*
X134076499Y-118668592D01*
X134044740Y-118508926D01*
X134044737Y-118508917D01*
X134032966Y-118480500D01*
X133990517Y-118378016D01*
X133982437Y-118358509D01*
X133982436Y-118358507D01*
X133891984Y-118223137D01*
X133891981Y-118223133D01*
X133776866Y-118108018D01*
X133776862Y-118108015D01*
X133641492Y-118017563D01*
X133641490Y-118017562D01*
X133491082Y-117955262D01*
X133491073Y-117955259D01*
X133331406Y-117923500D01*
X133331403Y-117923500D01*
X133168597Y-117923500D01*
X133168594Y-117923500D01*
X133008926Y-117955259D01*
X133008917Y-117955262D01*
X132858509Y-118017562D01*
X132858507Y-118017563D01*
X132723137Y-118108015D01*
X132723133Y-118108018D01*
X132608018Y-118223133D01*
X132608015Y-118223137D01*
X132517563Y-118358507D01*
X132517562Y-118358509D01*
X132455262Y-118508917D01*
X132455259Y-118508926D01*
X132423500Y-118668592D01*
X121588465Y-118668592D01*
X121423565Y-118331284D01*
X121419448Y-118321899D01*
X121335991Y-118108018D01*
X121265576Y-117927561D01*
X121262257Y-117917893D01*
X121141470Y-117512178D01*
X121138961Y-117502270D01*
X121052091Y-117087968D01*
X121050409Y-117077888D01*
X120998047Y-116657815D01*
X120997204Y-116647642D01*
X120979606Y-116222143D01*
X120979500Y-116217019D01*
X120979500Y-116191304D01*
X135929500Y-116191304D01*
X135929500Y-116368695D01*
X135964103Y-116542658D01*
X135964106Y-116542667D01*
X136031983Y-116706540D01*
X136031990Y-116706553D01*
X136130535Y-116854034D01*
X136130538Y-116854038D01*
X136255961Y-116979461D01*
X136255965Y-116979464D01*
X136403446Y-117078009D01*
X136403459Y-117078016D01*
X136487116Y-117112667D01*
X136567334Y-117145894D01*
X136567336Y-117145894D01*
X136567341Y-117145896D01*
X136741304Y-117180499D01*
X136741307Y-117180500D01*
X136860229Y-117180500D01*
X136927268Y-117200185D01*
X136973023Y-117252989D01*
X136982967Y-117322147D01*
X136981846Y-117328691D01*
X136949500Y-117491304D01*
X136949500Y-117668695D01*
X136984103Y-117842658D01*
X136984106Y-117842667D01*
X137051983Y-118006540D01*
X137051990Y-118006553D01*
X137150535Y-118154034D01*
X137150538Y-118154038D01*
X137275961Y-118279461D01*
X137275965Y-118279464D01*
X137423446Y-118378009D01*
X137423459Y-118378016D01*
X137546363Y-118428923D01*
X137587334Y-118445894D01*
X137587336Y-118445894D01*
X137587341Y-118445896D01*
X137761304Y-118480499D01*
X137761307Y-118480500D01*
X137761309Y-118480500D01*
X137938693Y-118480500D01*
X137938694Y-118480499D01*
X138033989Y-118461544D01*
X138112658Y-118445896D01*
X138112661Y-118445894D01*
X138112666Y-118445894D01*
X138276547Y-118378013D01*
X138424035Y-118279464D01*
X138549464Y-118154035D01*
X138648013Y-118006547D01*
X138715894Y-117842666D01*
X138750500Y-117668691D01*
X138750500Y-117519297D01*
X138770185Y-117452258D01*
X138822989Y-117406503D01*
X138892147Y-117396559D01*
X138898692Y-117397680D01*
X139011306Y-117420081D01*
X139011309Y-117420081D01*
X139188693Y-117420081D01*
X139188694Y-117420080D01*
X139256952Y-117406503D01*
X139362658Y-117385477D01*
X139362661Y-117385475D01*
X139362666Y-117385475D01*
X139526547Y-117317594D01*
X139656109Y-117231023D01*
X139722786Y-117210145D01*
X139790166Y-117228629D01*
X139793891Y-117231023D01*
X139923453Y-117317594D01*
X139923455Y-117317595D01*
X139923459Y-117317597D01*
X140046363Y-117368504D01*
X140087334Y-117385475D01*
X140087336Y-117385475D01*
X140087341Y-117385477D01*
X140261304Y-117420080D01*
X140261307Y-117420081D01*
X140261309Y-117420081D01*
X140438693Y-117420081D01*
X140438694Y-117420080D01*
X140506952Y-117406503D01*
X140612658Y-117385477D01*
X140612661Y-117385475D01*
X140612666Y-117385475D01*
X140776547Y-117317594D01*
X140776552Y-117317590D01*
X140776555Y-117317589D01*
X140866820Y-117257275D01*
X140906558Y-117230722D01*
X140973234Y-117209844D01*
X141040615Y-117228328D01*
X141044340Y-117230722D01*
X141173684Y-117317147D01*
X141173697Y-117317154D01*
X141224999Y-117338404D01*
X141225000Y-117338404D01*
X141975000Y-117338404D01*
X142026302Y-117317154D01*
X142026320Y-117317144D01*
X142173712Y-117218660D01*
X142173720Y-117218654D01*
X142299073Y-117093301D01*
X142299076Y-117093297D01*
X142397566Y-116945897D01*
X142397571Y-116945888D01*
X142465413Y-116782101D01*
X142465415Y-116782093D01*
X142492768Y-116644581D01*
X141975000Y-116644581D01*
X141975000Y-117338404D01*
X141225000Y-117338404D01*
X141225000Y-116748679D01*
X141226635Y-116728608D01*
X141226971Y-116726559D01*
X141250500Y-116608272D01*
X141250500Y-116219853D01*
X141350000Y-116219853D01*
X141350000Y-116319309D01*
X141388060Y-116411195D01*
X141458386Y-116481521D01*
X141550272Y-116519581D01*
X141649728Y-116519581D01*
X141741614Y-116481521D01*
X141811940Y-116411195D01*
X141850000Y-116319309D01*
X141850000Y-116219853D01*
X141811940Y-116127967D01*
X141741614Y-116057641D01*
X141649728Y-116019581D01*
X141550272Y-116019581D01*
X141458386Y-116057641D01*
X141388060Y-116127967D01*
X141350000Y-116219853D01*
X141250500Y-116219853D01*
X141250500Y-115930890D01*
X141250500Y-115930887D01*
X141243278Y-115894581D01*
X141975000Y-115894581D01*
X142492769Y-115894581D01*
X142492768Y-115894580D01*
X142465415Y-115757068D01*
X142465413Y-115757060D01*
X142397571Y-115593273D01*
X142397566Y-115593264D01*
X142299076Y-115445864D01*
X142299073Y-115445860D01*
X142173720Y-115320507D01*
X142173712Y-115320501D01*
X142085117Y-115261304D01*
X145209500Y-115261304D01*
X145209500Y-115438695D01*
X145244103Y-115612658D01*
X145244106Y-115612667D01*
X145311983Y-115776540D01*
X145311990Y-115776553D01*
X145410535Y-115924034D01*
X145410538Y-115924038D01*
X145535961Y-116049461D01*
X145535965Y-116049464D01*
X145683446Y-116148009D01*
X145683459Y-116148016D01*
X145787968Y-116191304D01*
X145847334Y-116215894D01*
X145847336Y-116215894D01*
X145847341Y-116215896D01*
X146021304Y-116250499D01*
X146021307Y-116250500D01*
X146021309Y-116250500D01*
X146198693Y-116250500D01*
X146342010Y-116221992D01*
X146411602Y-116228219D01*
X146466779Y-116271082D01*
X146490024Y-116336972D01*
X146473956Y-116404969D01*
X146469307Y-116412496D01*
X146461990Y-116423447D01*
X146461983Y-116423459D01*
X146394106Y-116587332D01*
X146394103Y-116587341D01*
X146359500Y-116761304D01*
X146359500Y-116938695D01*
X146394103Y-117112658D01*
X146394106Y-117112667D01*
X146461983Y-117276540D01*
X146461990Y-117276553D01*
X146560535Y-117424034D01*
X146560538Y-117424038D01*
X146685961Y-117549461D01*
X146685965Y-117549464D01*
X146833446Y-117648009D01*
X146833459Y-117648016D01*
X146930030Y-117688016D01*
X146997334Y-117715894D01*
X146997336Y-117715894D01*
X146997341Y-117715896D01*
X147171304Y-117750499D01*
X147171307Y-117750500D01*
X147171309Y-117750500D01*
X147348693Y-117750500D01*
X147348694Y-117750499D01*
X147406682Y-117738964D01*
X147522658Y-117715896D01*
X147522661Y-117715894D01*
X147522666Y-117715894D01*
X147686547Y-117648013D01*
X147834035Y-117549464D01*
X147959464Y-117424035D01*
X148058013Y-117276547D01*
X148125894Y-117112666D01*
X148129684Y-117093616D01*
X148159021Y-116946128D01*
X148160500Y-116938691D01*
X148160500Y-116801304D01*
X154439500Y-116801304D01*
X154439500Y-116978695D01*
X154474103Y-117152658D01*
X154474106Y-117152667D01*
X154541983Y-117316540D01*
X154541990Y-117316553D01*
X154640535Y-117464034D01*
X154640538Y-117464038D01*
X154765961Y-117589461D01*
X154765965Y-117589464D01*
X154913446Y-117688009D01*
X154913459Y-117688016D01*
X154980764Y-117715894D01*
X155077334Y-117755894D01*
X155077336Y-117755894D01*
X155077341Y-117755896D01*
X155251304Y-117790499D01*
X155251307Y-117790500D01*
X155251309Y-117790500D01*
X155428693Y-117790500D01*
X155428694Y-117790499D01*
X155486682Y-117778964D01*
X155602658Y-117755896D01*
X155602661Y-117755894D01*
X155602666Y-117755894D01*
X155766547Y-117688013D01*
X155914035Y-117589464D01*
X156039464Y-117464035D01*
X156138013Y-117316547D01*
X156205894Y-117152666D01*
X156207242Y-117145893D01*
X156240499Y-116978695D01*
X156240500Y-116978693D01*
X156240500Y-116880361D01*
X156240500Y-116801309D01*
X156221649Y-116706540D01*
X156205896Y-116627341D01*
X156205893Y-116627332D01*
X156145827Y-116482317D01*
X156138358Y-116412848D01*
X156169634Y-116350369D01*
X156229723Y-116314717D01*
X156284578Y-116313248D01*
X156329076Y-116322099D01*
X156371307Y-116330500D01*
X156390229Y-116330500D01*
X156457268Y-116350185D01*
X156503023Y-116402989D01*
X156512967Y-116472147D01*
X156511846Y-116478691D01*
X156479500Y-116641304D01*
X156479500Y-116641309D01*
X156479500Y-116818691D01*
X156487672Y-116859778D01*
X156487673Y-116859781D01*
X156514103Y-116992658D01*
X156514106Y-116992667D01*
X156581983Y-117156540D01*
X156581990Y-117156553D01*
X156680535Y-117304034D01*
X156680538Y-117304038D01*
X156805961Y-117429461D01*
X156805965Y-117429464D01*
X156953446Y-117528009D01*
X156953459Y-117528016D01*
X157076363Y-117578923D01*
X157117334Y-117595894D01*
X157117336Y-117595894D01*
X157117341Y-117595896D01*
X157291304Y-117630499D01*
X157291307Y-117630500D01*
X157291309Y-117630500D01*
X157468693Y-117630500D01*
X157468694Y-117630499D01*
X157526682Y-117618964D01*
X157642658Y-117595896D01*
X157642661Y-117595894D01*
X157642666Y-117595894D01*
X157806547Y-117528013D01*
X157954035Y-117429464D01*
X158079464Y-117304035D01*
X158178013Y-117156547D01*
X158245894Y-116992666D01*
X158248674Y-116978693D01*
X158277661Y-116832962D01*
X158280500Y-116818691D01*
X158280500Y-116641309D01*
X158280500Y-116641306D01*
X158280499Y-116641304D01*
X158245896Y-116467341D01*
X158245893Y-116467332D01*
X158244283Y-116463446D01*
X158191897Y-116336972D01*
X158178016Y-116303459D01*
X158178009Y-116303446D01*
X158079464Y-116155965D01*
X158079461Y-116155961D01*
X157954038Y-116030538D01*
X157954034Y-116030535D01*
X157806553Y-115931990D01*
X157806540Y-115931983D01*
X157642667Y-115864106D01*
X157642658Y-115864103D01*
X157468694Y-115829500D01*
X157468691Y-115829500D01*
X157449771Y-115829500D01*
X157382732Y-115809815D01*
X157336977Y-115757011D01*
X157327033Y-115687853D01*
X157328154Y-115681309D01*
X157360499Y-115518695D01*
X157360500Y-115518693D01*
X157360500Y-115341306D01*
X157360499Y-115341304D01*
X157325896Y-115167341D01*
X157325893Y-115167332D01*
X157258016Y-115003459D01*
X157258009Y-115003446D01*
X157159464Y-114855965D01*
X157159461Y-114855961D01*
X157034038Y-114730538D01*
X157034034Y-114730535D01*
X156886553Y-114631990D01*
X156886540Y-114631983D01*
X156722667Y-114564106D01*
X156722658Y-114564103D01*
X156548694Y-114529500D01*
X156548691Y-114529500D01*
X156371309Y-114529500D01*
X156371304Y-114529500D01*
X156227777Y-114558049D01*
X156158185Y-114551822D01*
X156103008Y-114508958D01*
X156079764Y-114443069D01*
X156095832Y-114375072D01*
X156100476Y-114367553D01*
X156188013Y-114236547D01*
X156255894Y-114072666D01*
X156290500Y-113898691D01*
X156290500Y-113721309D01*
X156290500Y-113721306D01*
X156290499Y-113721304D01*
X156255896Y-113547341D01*
X156255893Y-113547332D01*
X156188016Y-113383459D01*
X156188009Y-113383446D01*
X156089464Y-113235965D01*
X156089461Y-113235961D01*
X155964038Y-113110538D01*
X155964034Y-113110535D01*
X155816553Y-113011990D01*
X155816540Y-113011983D01*
X155652667Y-112944106D01*
X155652658Y-112944103D01*
X155478694Y-112909500D01*
X155478691Y-112909500D01*
X155301309Y-112909500D01*
X155301306Y-112909500D01*
X155127341Y-112944103D01*
X155127332Y-112944106D01*
X154963459Y-113011983D01*
X154963446Y-113011990D01*
X154815965Y-113110535D01*
X154815961Y-113110538D01*
X154690538Y-113235961D01*
X154690535Y-113235965D01*
X154591990Y-113383446D01*
X154591983Y-113383459D01*
X154524106Y-113547332D01*
X154524103Y-113547341D01*
X154489500Y-113721304D01*
X154489500Y-113898695D01*
X154524103Y-114072658D01*
X154524106Y-114072667D01*
X154591983Y-114236540D01*
X154591990Y-114236553D01*
X154690535Y-114384034D01*
X154690538Y-114384038D01*
X154815961Y-114509461D01*
X154815965Y-114509464D01*
X154963446Y-114608009D01*
X154963459Y-114608016D01*
X155086363Y-114658923D01*
X155127334Y-114675894D01*
X155127336Y-114675894D01*
X155127341Y-114675896D01*
X155301304Y-114710499D01*
X155301307Y-114710500D01*
X155301309Y-114710500D01*
X155478693Y-114710500D01*
X155622221Y-114681950D01*
X155691813Y-114688177D01*
X155746990Y-114731040D01*
X155770235Y-114796930D01*
X155754167Y-114864927D01*
X155749515Y-114872458D01*
X155661990Y-115003446D01*
X155661983Y-115003459D01*
X155594106Y-115167332D01*
X155594103Y-115167341D01*
X155559500Y-115341304D01*
X155559500Y-115518695D01*
X155594103Y-115692658D01*
X155594105Y-115692664D01*
X155594106Y-115692666D01*
X155650784Y-115829500D01*
X155654173Y-115837682D01*
X155661641Y-115907152D01*
X155630365Y-115969631D01*
X155570276Y-116005283D01*
X155515420Y-116006751D01*
X155428694Y-115989500D01*
X155428691Y-115989500D01*
X155251309Y-115989500D01*
X155251306Y-115989500D01*
X155077341Y-116024103D01*
X155077332Y-116024106D01*
X154913459Y-116091983D01*
X154913446Y-116091990D01*
X154765965Y-116190535D01*
X154765961Y-116190538D01*
X154640538Y-116315961D01*
X154640535Y-116315965D01*
X154541990Y-116463446D01*
X154541983Y-116463459D01*
X154474106Y-116627332D01*
X154474103Y-116627341D01*
X154439500Y-116801304D01*
X148160500Y-116801304D01*
X148160500Y-116761309D01*
X148160500Y-116761306D01*
X148160499Y-116761304D01*
X148125896Y-116587341D01*
X148125893Y-116587332D01*
X148058016Y-116423459D01*
X148058009Y-116423446D01*
X147959464Y-116275965D01*
X147959461Y-116275961D01*
X147834038Y-116150538D01*
X147834034Y-116150535D01*
X147686553Y-116051990D01*
X147686540Y-116051983D01*
X147522667Y-115984106D01*
X147522658Y-115984103D01*
X147348694Y-115949500D01*
X147348691Y-115949500D01*
X147171309Y-115949500D01*
X147171304Y-115949500D01*
X147027988Y-115978007D01*
X146958396Y-115971780D01*
X146903219Y-115928916D01*
X146879975Y-115863027D01*
X146896043Y-115795030D01*
X146900697Y-115787496D01*
X146908010Y-115776551D01*
X146908013Y-115776547D01*
X146975894Y-115612666D01*
X146979754Y-115593264D01*
X147010499Y-115438695D01*
X147010500Y-115438693D01*
X147010500Y-115261306D01*
X147010499Y-115261304D01*
X146975896Y-115087341D01*
X146975893Y-115087332D01*
X146908016Y-114923459D01*
X146908009Y-114923446D01*
X146809464Y-114775965D01*
X146809461Y-114775961D01*
X146684038Y-114650538D01*
X146684034Y-114650535D01*
X146536553Y-114551990D01*
X146536540Y-114551983D01*
X146372667Y-114484106D01*
X146372658Y-114484103D01*
X146198694Y-114449500D01*
X146198691Y-114449500D01*
X146021309Y-114449500D01*
X146021306Y-114449500D01*
X145847341Y-114484103D01*
X145847332Y-114484106D01*
X145683459Y-114551983D01*
X145683446Y-114551990D01*
X145535965Y-114650535D01*
X145535961Y-114650538D01*
X145410538Y-114775961D01*
X145410535Y-114775965D01*
X145311990Y-114923446D01*
X145311983Y-114923459D01*
X145244106Y-115087332D01*
X145244103Y-115087341D01*
X145209500Y-115261304D01*
X142085117Y-115261304D01*
X142026314Y-115222013D01*
X141975000Y-115200757D01*
X141975000Y-115894581D01*
X141243278Y-115894581D01*
X141227383Y-115814673D01*
X141225000Y-115790481D01*
X141225000Y-115200757D01*
X141173689Y-115222011D01*
X141044339Y-115308440D01*
X140977661Y-115329317D01*
X140910281Y-115310832D01*
X140906558Y-115308439D01*
X140776552Y-115221571D01*
X140776540Y-115221564D01*
X140612667Y-115153687D01*
X140612658Y-115153684D01*
X140438694Y-115119081D01*
X140438691Y-115119081D01*
X140261309Y-115119081D01*
X140261306Y-115119081D01*
X140087341Y-115153684D01*
X140087332Y-115153687D01*
X139923459Y-115221564D01*
X139923446Y-115221571D01*
X139793891Y-115308138D01*
X139727213Y-115329016D01*
X139659833Y-115310531D01*
X139656109Y-115308138D01*
X139526553Y-115221571D01*
X139526540Y-115221564D01*
X139362667Y-115153687D01*
X139362658Y-115153684D01*
X139188694Y-115119081D01*
X139188691Y-115119081D01*
X139011309Y-115119081D01*
X139011304Y-115119081D01*
X138898691Y-115141481D01*
X138829099Y-115135254D01*
X138773922Y-115092390D01*
X138750678Y-115026501D01*
X138750500Y-115019864D01*
X138750500Y-114911306D01*
X138750499Y-114911304D01*
X138715896Y-114737341D01*
X138715893Y-114737332D01*
X138648016Y-114573459D01*
X138648009Y-114573446D01*
X138549464Y-114425965D01*
X138549461Y-114425961D01*
X138424038Y-114300538D01*
X138424034Y-114300535D01*
X138276553Y-114201990D01*
X138276540Y-114201983D01*
X138112667Y-114134106D01*
X138112658Y-114134103D01*
X137938694Y-114099500D01*
X137938691Y-114099500D01*
X137761309Y-114099500D01*
X137761306Y-114099500D01*
X137587341Y-114134103D01*
X137587332Y-114134106D01*
X137423459Y-114201983D01*
X137423446Y-114201990D01*
X137275965Y-114300535D01*
X137275961Y-114300538D01*
X137150538Y-114425961D01*
X137150535Y-114425965D01*
X137051990Y-114573446D01*
X137051983Y-114573459D01*
X136984106Y-114737332D01*
X136984103Y-114737341D01*
X136949500Y-114911304D01*
X136949500Y-115088695D01*
X136977868Y-115231309D01*
X136971641Y-115300900D01*
X136928778Y-115356078D01*
X136862888Y-115379322D01*
X136856251Y-115379500D01*
X136741306Y-115379500D01*
X136567341Y-115414103D01*
X136567332Y-115414106D01*
X136403459Y-115481983D01*
X136403446Y-115481990D01*
X136255965Y-115580535D01*
X136255961Y-115580538D01*
X136130538Y-115705961D01*
X136130535Y-115705965D01*
X136031990Y-115853446D01*
X136031983Y-115853459D01*
X135964106Y-116017332D01*
X135964103Y-116017341D01*
X135929500Y-116191304D01*
X120979500Y-116191304D01*
X120979500Y-111361304D01*
X144669500Y-111361304D01*
X144669500Y-111538695D01*
X144704103Y-111712658D01*
X144704106Y-111712667D01*
X144771983Y-111876540D01*
X144771990Y-111876553D01*
X144870535Y-112024034D01*
X144870538Y-112024038D01*
X144978819Y-112132319D01*
X145012304Y-112193642D01*
X145007320Y-112263334D01*
X144978819Y-112307681D01*
X144920538Y-112365961D01*
X144920535Y-112365965D01*
X144821990Y-112513446D01*
X144821983Y-112513459D01*
X144754106Y-112677332D01*
X144754103Y-112677341D01*
X144719500Y-112851304D01*
X144719500Y-113028695D01*
X144754103Y-113202658D01*
X144754106Y-113202667D01*
X144821983Y-113366540D01*
X144821990Y-113366553D01*
X144920535Y-113514034D01*
X144920538Y-113514038D01*
X145045961Y-113639461D01*
X145045965Y-113639464D01*
X145193446Y-113738009D01*
X145193459Y-113738016D01*
X145316363Y-113788923D01*
X145357334Y-113805894D01*
X145357336Y-113805894D01*
X145357341Y-113805896D01*
X145531304Y-113840499D01*
X145531307Y-113840500D01*
X145531309Y-113840500D01*
X145708693Y-113840500D01*
X145708694Y-113840499D01*
X145766682Y-113828964D01*
X145882658Y-113805896D01*
X145882661Y-113805894D01*
X145882666Y-113805894D01*
X146046547Y-113738013D01*
X146194035Y-113639464D01*
X146319464Y-113514035D01*
X146418013Y-113366547D01*
X146485894Y-113202666D01*
X146501037Y-113126540D01*
X146520499Y-113028695D01*
X146520500Y-113028693D01*
X146520500Y-112851306D01*
X146520499Y-112851304D01*
X146485896Y-112677341D01*
X146485894Y-112677336D01*
X146485894Y-112677334D01*
X146458544Y-112611304D01*
X148299500Y-112611304D01*
X148299500Y-112788695D01*
X148334103Y-112962658D01*
X148334106Y-112962667D01*
X148401983Y-113126540D01*
X148401990Y-113126553D01*
X148500535Y-113274034D01*
X148500538Y-113274038D01*
X148625961Y-113399461D01*
X148625965Y-113399464D01*
X148773446Y-113498009D01*
X148773459Y-113498016D01*
X148892521Y-113547332D01*
X148937334Y-113565894D01*
X148937336Y-113565894D01*
X148937341Y-113565896D01*
X149111304Y-113600499D01*
X149111307Y-113600500D01*
X149111309Y-113600500D01*
X149288693Y-113600500D01*
X149288694Y-113600499D01*
X149346682Y-113588964D01*
X149462658Y-113565896D01*
X149462661Y-113565894D01*
X149462666Y-113565894D01*
X149626547Y-113498013D01*
X149774035Y-113399464D01*
X149899464Y-113274035D01*
X149998013Y-113126547D01*
X150065894Y-112962666D01*
X150069587Y-112944103D01*
X150100499Y-112788695D01*
X150100500Y-112788693D01*
X150100500Y-112611306D01*
X150100499Y-112611304D01*
X150065896Y-112437341D01*
X150065893Y-112437332D01*
X149998016Y-112273459D01*
X149998009Y-112273446D01*
X149899464Y-112125965D01*
X149899461Y-112125961D01*
X149774038Y-112000538D01*
X149774034Y-112000535D01*
X149626553Y-111901990D01*
X149626540Y-111901983D01*
X149462667Y-111834106D01*
X149462658Y-111834103D01*
X149288694Y-111799500D01*
X149288691Y-111799500D01*
X149111309Y-111799500D01*
X149111306Y-111799500D01*
X148937341Y-111834103D01*
X148937332Y-111834106D01*
X148773459Y-111901983D01*
X148773446Y-111901990D01*
X148625965Y-112000535D01*
X148625961Y-112000538D01*
X148500538Y-112125961D01*
X148500535Y-112125965D01*
X148401990Y-112273446D01*
X148401983Y-112273459D01*
X148334106Y-112437332D01*
X148334103Y-112437341D01*
X148299500Y-112611304D01*
X146458544Y-112611304D01*
X146418013Y-112513453D01*
X146418011Y-112513450D01*
X146418009Y-112513446D01*
X146319464Y-112365965D01*
X146319461Y-112365961D01*
X146211181Y-112257681D01*
X146177696Y-112196358D01*
X146182680Y-112126666D01*
X146211181Y-112082319D01*
X146269461Y-112024038D01*
X146269464Y-112024035D01*
X146368013Y-111876547D01*
X146435894Y-111712666D01*
X146444488Y-111669464D01*
X146461755Y-111582656D01*
X146494140Y-111520745D01*
X146554855Y-111486171D01*
X146624625Y-111489910D01*
X146681297Y-111530777D01*
X146686475Y-111537957D01*
X146690537Y-111544037D01*
X146815961Y-111669461D01*
X146815965Y-111669464D01*
X146963446Y-111768009D01*
X146963459Y-111768016D01*
X147039470Y-111799500D01*
X147127334Y-111835894D01*
X147127336Y-111835894D01*
X147127341Y-111835896D01*
X147301304Y-111870499D01*
X147301307Y-111870500D01*
X147301309Y-111870500D01*
X147478693Y-111870500D01*
X147478694Y-111870499D01*
X147536682Y-111858964D01*
X147652658Y-111835896D01*
X147652661Y-111835894D01*
X147652666Y-111835894D01*
X147816547Y-111768013D01*
X147964035Y-111669464D01*
X148089464Y-111544035D01*
X148188013Y-111396547D01*
X148255894Y-111232666D01*
X148290500Y-111058691D01*
X148290500Y-110881309D01*
X148290500Y-110881306D01*
X148290499Y-110881304D01*
X148255896Y-110707341D01*
X148255893Y-110707332D01*
X148188016Y-110543459D01*
X148188009Y-110543446D01*
X148089464Y-110395965D01*
X148089461Y-110395961D01*
X147964038Y-110270538D01*
X147964034Y-110270535D01*
X147816553Y-110171990D01*
X147816540Y-110171983D01*
X147652667Y-110104106D01*
X147652658Y-110104103D01*
X147478694Y-110069500D01*
X147478691Y-110069500D01*
X147301309Y-110069500D01*
X147301306Y-110069500D01*
X147127341Y-110104103D01*
X147127332Y-110104106D01*
X146963459Y-110171983D01*
X146963446Y-110171990D01*
X146815965Y-110270535D01*
X146815961Y-110270538D01*
X146690538Y-110395961D01*
X146690535Y-110395965D01*
X146591990Y-110543446D01*
X146591983Y-110543459D01*
X146524106Y-110707332D01*
X146524104Y-110707340D01*
X146498244Y-110837344D01*
X146465859Y-110899255D01*
X146405143Y-110933829D01*
X146335373Y-110930088D01*
X146278701Y-110889222D01*
X146273523Y-110882039D01*
X146269466Y-110875967D01*
X146269461Y-110875961D01*
X146144038Y-110750538D01*
X146144034Y-110750535D01*
X145996553Y-110651990D01*
X145996540Y-110651983D01*
X145832667Y-110584106D01*
X145832658Y-110584103D01*
X145658694Y-110549500D01*
X145658691Y-110549500D01*
X145481309Y-110549500D01*
X145481306Y-110549500D01*
X145307341Y-110584103D01*
X145307332Y-110584106D01*
X145143459Y-110651983D01*
X145143446Y-110651990D01*
X144995965Y-110750535D01*
X144995961Y-110750538D01*
X144870538Y-110875961D01*
X144870535Y-110875965D01*
X144771990Y-111023446D01*
X144771983Y-111023459D01*
X144704106Y-111187332D01*
X144704103Y-111187341D01*
X144669500Y-111361304D01*
X120979500Y-111361304D01*
X120979500Y-108011304D01*
X136599500Y-108011304D01*
X136599500Y-108188695D01*
X136634103Y-108362658D01*
X136634106Y-108362667D01*
X136701983Y-108526540D01*
X136701990Y-108526553D01*
X136800535Y-108674034D01*
X136800538Y-108674038D01*
X136925961Y-108799461D01*
X136925965Y-108799464D01*
X137073446Y-108898009D01*
X137073459Y-108898016D01*
X137196363Y-108948923D01*
X137237334Y-108965894D01*
X137237336Y-108965894D01*
X137237341Y-108965896D01*
X137411304Y-109000499D01*
X137411307Y-109000500D01*
X137411309Y-109000500D01*
X137588693Y-109000500D01*
X137588694Y-109000499D01*
X137646682Y-108988964D01*
X137762658Y-108965896D01*
X137762661Y-108965894D01*
X137762666Y-108965894D01*
X137926547Y-108898013D01*
X138074035Y-108799464D01*
X138199464Y-108674035D01*
X138298013Y-108526547D01*
X138365894Y-108362666D01*
X138400500Y-108188691D01*
X138400500Y-108011309D01*
X138400500Y-108011306D01*
X138400499Y-108011304D01*
X138365896Y-107837341D01*
X138365893Y-107837332D01*
X138298016Y-107673459D01*
X138298009Y-107673446D01*
X138199464Y-107525965D01*
X138199461Y-107525961D01*
X138074038Y-107400538D01*
X138074034Y-107400535D01*
X137926553Y-107301990D01*
X137926540Y-107301983D01*
X137762667Y-107234106D01*
X137762658Y-107234103D01*
X137588694Y-107199500D01*
X137588691Y-107199500D01*
X137411309Y-107199500D01*
X137411306Y-107199500D01*
X137237341Y-107234103D01*
X137237332Y-107234106D01*
X137073459Y-107301983D01*
X137073446Y-107301990D01*
X136925965Y-107400535D01*
X136925961Y-107400538D01*
X136800538Y-107525961D01*
X136800535Y-107525965D01*
X136701990Y-107673446D01*
X136701983Y-107673459D01*
X136634106Y-107837332D01*
X136634103Y-107837341D01*
X136599500Y-108011304D01*
X120979500Y-108011304D01*
X120979500Y-104681304D01*
X145009500Y-104681304D01*
X145009500Y-104858695D01*
X145044103Y-105032658D01*
X145044106Y-105032667D01*
X145111983Y-105196540D01*
X145111990Y-105196553D01*
X145210535Y-105344034D01*
X145210538Y-105344038D01*
X145335961Y-105469461D01*
X145335965Y-105469464D01*
X145483446Y-105568009D01*
X145483459Y-105568016D01*
X145606363Y-105618923D01*
X145647334Y-105635894D01*
X145647336Y-105635894D01*
X145647341Y-105635896D01*
X145821304Y-105670499D01*
X145821307Y-105670500D01*
X145821309Y-105670500D01*
X145998693Y-105670500D01*
X145998694Y-105670499D01*
X146056682Y-105658964D01*
X146172658Y-105635896D01*
X146172661Y-105635894D01*
X146172666Y-105635894D01*
X146336547Y-105568013D01*
X146484035Y-105469464D01*
X146609464Y-105344035D01*
X146708013Y-105196547D01*
X146775894Y-105032666D01*
X146810500Y-104858691D01*
X146810500Y-104681309D01*
X146810500Y-104681306D01*
X146810499Y-104681304D01*
X146775896Y-104507341D01*
X146775893Y-104507332D01*
X146708016Y-104343459D01*
X146708012Y-104343452D01*
X146669161Y-104285308D01*
X146669160Y-104285306D01*
X146625233Y-104219565D01*
X161442000Y-104219565D01*
X161442000Y-106219596D01*
X161452500Y-106322376D01*
X161452501Y-106322377D01*
X161507686Y-106488916D01*
X161507687Y-106488918D01*
X161599786Y-106638232D01*
X161599789Y-106638236D01*
X161723844Y-106762291D01*
X161723848Y-106762294D01*
X161873162Y-106854393D01*
X161873164Y-106854394D01*
X161873166Y-106854395D01*
X162039703Y-106909580D01*
X162142492Y-106920081D01*
X162142497Y-106920081D01*
X164142503Y-106920081D01*
X164142508Y-106920081D01*
X164245297Y-106909580D01*
X164411834Y-106854395D01*
X164561155Y-106762292D01*
X164685211Y-106638236D01*
X164777314Y-106488915D01*
X164832499Y-106322378D01*
X164843000Y-106219589D01*
X164843000Y-104219573D01*
X164832499Y-104116784D01*
X164777314Y-103950247D01*
X164727508Y-103869500D01*
X164685213Y-103800929D01*
X164685210Y-103800925D01*
X164561155Y-103676870D01*
X164561151Y-103676867D01*
X164411837Y-103584768D01*
X164411835Y-103584767D01*
X164328565Y-103557174D01*
X164245297Y-103529582D01*
X164245295Y-103529581D01*
X164142515Y-103519081D01*
X164142508Y-103519081D01*
X163863826Y-103519081D01*
X163796787Y-103499396D01*
X163751032Y-103446592D01*
X163741088Y-103377434D01*
X163770113Y-103313878D01*
X163816373Y-103280520D01*
X163896002Y-103247535D01*
X163896013Y-103247530D01*
X164050770Y-103158181D01*
X163212170Y-102319581D01*
X163221491Y-102319581D01*
X163374091Y-102278692D01*
X163510908Y-102199700D01*
X163622619Y-102087989D01*
X163701611Y-101951172D01*
X163742500Y-101798572D01*
X163742500Y-101789251D01*
X164581100Y-102627851D01*
X164670449Y-102473094D01*
X164670454Y-102473083D01*
X164755736Y-102267199D01*
X164813411Y-102051948D01*
X164813414Y-102051935D01*
X164842500Y-101831005D01*
X164842500Y-101608156D01*
X164813414Y-101387226D01*
X164813411Y-101387213D01*
X164755736Y-101171962D01*
X164670458Y-100966083D01*
X164670455Y-100966078D01*
X164581100Y-100811309D01*
X164581100Y-100811308D01*
X163742500Y-101649909D01*
X163742500Y-101640590D01*
X163701611Y-101487990D01*
X163622619Y-101351173D01*
X163510908Y-101239462D01*
X163374091Y-101160470D01*
X163221491Y-101119581D01*
X163212171Y-101119581D01*
X164050771Y-100280979D01*
X163896002Y-100191625D01*
X163895997Y-100191622D01*
X163690118Y-100106344D01*
X163474867Y-100048669D01*
X163474854Y-100048666D01*
X163253925Y-100019581D01*
X163031075Y-100019581D01*
X162810145Y-100048666D01*
X162810132Y-100048669D01*
X162594881Y-100106344D01*
X162389002Y-100191622D01*
X162388997Y-100191625D01*
X162234228Y-100280979D01*
X163072830Y-101119581D01*
X163063509Y-101119581D01*
X162910909Y-101160470D01*
X162774092Y-101239462D01*
X162662381Y-101351173D01*
X162583389Y-101487990D01*
X162542500Y-101640590D01*
X162542500Y-101649910D01*
X161703898Y-100811309D01*
X161614544Y-100966078D01*
X161614541Y-100966083D01*
X161529263Y-101171962D01*
X161471588Y-101387213D01*
X161471585Y-101387226D01*
X161442500Y-101608156D01*
X161442500Y-101831005D01*
X161471585Y-102051935D01*
X161471588Y-102051948D01*
X161529263Y-102267199D01*
X161614541Y-102473078D01*
X161614544Y-102473083D01*
X161703898Y-102627851D01*
X162542500Y-101789250D01*
X162542500Y-101798572D01*
X162583389Y-101951172D01*
X162662381Y-102087989D01*
X162774092Y-102199700D01*
X162910909Y-102278692D01*
X163063509Y-102319581D01*
X163072830Y-102319581D01*
X162234227Y-103158181D01*
X162388997Y-103247536D01*
X162389002Y-103247539D01*
X162468625Y-103280520D01*
X162523028Y-103324361D01*
X162545093Y-103390656D01*
X162527814Y-103458355D01*
X162476676Y-103505965D01*
X162421172Y-103519081D01*
X162142484Y-103519081D01*
X162039704Y-103529581D01*
X162039703Y-103529582D01*
X161873164Y-103584767D01*
X161873162Y-103584768D01*
X161723848Y-103676867D01*
X161723844Y-103676870D01*
X161599789Y-103800925D01*
X161599786Y-103800929D01*
X161507687Y-103950243D01*
X161507686Y-103950245D01*
X161452501Y-104116784D01*
X161452500Y-104116785D01*
X161442000Y-104219565D01*
X146625233Y-104219565D01*
X146609464Y-104195965D01*
X146609461Y-104195961D01*
X146484038Y-104070538D01*
X146484034Y-104070535D01*
X146336553Y-103971990D01*
X146336540Y-103971983D01*
X146172667Y-103904106D01*
X146172658Y-103904103D01*
X145998694Y-103869500D01*
X145998691Y-103869500D01*
X145821309Y-103869500D01*
X145821306Y-103869500D01*
X145647341Y-103904103D01*
X145647332Y-103904106D01*
X145483459Y-103971983D01*
X145483446Y-103971990D01*
X145335965Y-104070535D01*
X145335961Y-104070538D01*
X145210538Y-104195961D01*
X145210535Y-104195965D01*
X145111990Y-104343446D01*
X145111983Y-104343459D01*
X145044106Y-104507332D01*
X145044103Y-104507341D01*
X145009500Y-104681304D01*
X120979500Y-104681304D01*
X120979500Y-102071153D01*
X135419500Y-102071153D01*
X135419500Y-102228846D01*
X135450261Y-102383489D01*
X135450264Y-102383501D01*
X135510602Y-102529172D01*
X135510609Y-102529185D01*
X135598210Y-102660288D01*
X135598213Y-102660292D01*
X135709707Y-102771786D01*
X135709711Y-102771789D01*
X135840814Y-102859390D01*
X135840827Y-102859397D01*
X135986498Y-102919735D01*
X135986503Y-102919737D01*
X136141153Y-102950499D01*
X136141156Y-102950500D01*
X136141158Y-102950500D01*
X136298844Y-102950500D01*
X136298845Y-102950499D01*
X136453497Y-102919737D01*
X136599179Y-102859394D01*
X136730289Y-102771789D01*
X136841789Y-102660289D01*
X136929394Y-102529179D01*
X136989737Y-102383497D01*
X137020500Y-102228842D01*
X137020500Y-102071158D01*
X137020500Y-102071155D01*
X137020499Y-102071153D01*
X136989738Y-101916510D01*
X136989737Y-101916503D01*
X136940889Y-101798572D01*
X136929397Y-101770827D01*
X136929390Y-101770814D01*
X136864025Y-101672989D01*
X136841789Y-101639711D01*
X136841786Y-101639707D01*
X136730292Y-101528213D01*
X136730288Y-101528210D01*
X136599185Y-101440609D01*
X136599172Y-101440602D01*
X136453501Y-101380264D01*
X136453489Y-101380261D01*
X136298845Y-101349500D01*
X136298842Y-101349500D01*
X136141158Y-101349500D01*
X136141155Y-101349500D01*
X135986510Y-101380261D01*
X135986498Y-101380264D01*
X135840827Y-101440602D01*
X135840814Y-101440609D01*
X135709711Y-101528210D01*
X135709707Y-101528213D01*
X135598213Y-101639707D01*
X135598210Y-101639711D01*
X135510609Y-101770814D01*
X135510602Y-101770827D01*
X135450264Y-101916498D01*
X135450261Y-101916510D01*
X135419500Y-102071153D01*
X120979500Y-102071153D01*
X120979500Y-99181304D01*
X123539500Y-99181304D01*
X123539500Y-99358695D01*
X123574103Y-99532658D01*
X123574106Y-99532667D01*
X123641983Y-99696540D01*
X123641990Y-99696553D01*
X123740535Y-99844034D01*
X123740538Y-99844038D01*
X123865961Y-99969461D01*
X123865965Y-99969464D01*
X124013446Y-100068009D01*
X124013459Y-100068016D01*
X124105993Y-100106344D01*
X124177334Y-100135894D01*
X124177336Y-100135894D01*
X124177341Y-100135896D01*
X124351304Y-100170499D01*
X124351307Y-100170500D01*
X124351309Y-100170500D01*
X124528693Y-100170500D01*
X124528694Y-100170499D01*
X124611471Y-100154034D01*
X124702658Y-100135896D01*
X124702661Y-100135894D01*
X124702666Y-100135894D01*
X124866547Y-100068013D01*
X125014035Y-99969464D01*
X125139464Y-99844035D01*
X125238013Y-99696547D01*
X125305894Y-99532666D01*
X125311374Y-99505115D01*
X125314121Y-99491304D01*
X129089500Y-99491304D01*
X129089500Y-99668695D01*
X129124103Y-99842658D01*
X129124106Y-99842667D01*
X129191983Y-100006540D01*
X129191990Y-100006553D01*
X129290535Y-100154034D01*
X129290538Y-100154038D01*
X129415961Y-100279461D01*
X129415965Y-100279464D01*
X129563446Y-100378009D01*
X129563459Y-100378016D01*
X129686363Y-100428923D01*
X129727334Y-100445894D01*
X129727336Y-100445894D01*
X129727341Y-100445896D01*
X129901304Y-100480499D01*
X129901307Y-100480500D01*
X129901309Y-100480500D01*
X130078693Y-100480500D01*
X130078694Y-100480499D01*
X130136682Y-100468964D01*
X130252658Y-100445896D01*
X130252661Y-100445894D01*
X130252666Y-100445894D01*
X130416547Y-100378013D01*
X130564035Y-100279464D01*
X130564038Y-100279461D01*
X130605761Y-100237739D01*
X130689461Y-100154038D01*
X130689464Y-100154035D01*
X130788013Y-100006547D01*
X130855894Y-99842666D01*
X130890500Y-99668691D01*
X130890500Y-99534500D01*
X130910185Y-99467461D01*
X130962989Y-99421706D01*
X131014500Y-99410500D01*
X131108693Y-99410500D01*
X131108694Y-99410499D01*
X131167918Y-99398719D01*
X131282658Y-99375896D01*
X131282661Y-99375894D01*
X131282666Y-99375894D01*
X131446547Y-99308013D01*
X131594035Y-99209464D01*
X131719464Y-99084035D01*
X131818013Y-98936547D01*
X131885894Y-98772666D01*
X131897543Y-98714106D01*
X131920499Y-98598695D01*
X131920500Y-98598693D01*
X131920500Y-98421306D01*
X131920499Y-98421304D01*
X131885896Y-98247341D01*
X131885893Y-98247332D01*
X131818016Y-98083459D01*
X131818012Y-98083452D01*
X131778259Y-98023958D01*
X131778258Y-98023956D01*
X131736294Y-97961153D01*
X142779500Y-97961153D01*
X142779500Y-98118846D01*
X142810261Y-98273489D01*
X142810264Y-98273501D01*
X142870602Y-98419172D01*
X142870609Y-98419185D01*
X142958210Y-98550288D01*
X142958213Y-98550292D01*
X143069707Y-98661786D01*
X143069711Y-98661789D01*
X143200814Y-98749390D01*
X143200827Y-98749397D01*
X143279515Y-98781990D01*
X143346503Y-98809737D01*
X143501153Y-98840499D01*
X143501156Y-98840500D01*
X143501158Y-98840500D01*
X143658844Y-98840500D01*
X143658845Y-98840499D01*
X143813497Y-98809737D01*
X143959179Y-98749394D01*
X144090289Y-98661789D01*
X144201789Y-98550289D01*
X144289394Y-98419179D01*
X144349737Y-98273497D01*
X144380500Y-98118842D01*
X144380500Y-97961158D01*
X144380500Y-97961155D01*
X144380499Y-97961153D01*
X144375488Y-97935961D01*
X144349737Y-97806503D01*
X144310589Y-97711990D01*
X144289397Y-97660827D01*
X144289390Y-97660814D01*
X144201789Y-97529711D01*
X144201786Y-97529707D01*
X144090292Y-97418213D01*
X144090288Y-97418210D01*
X143959185Y-97330609D01*
X143959172Y-97330602D01*
X143813501Y-97270264D01*
X143813489Y-97270261D01*
X143658845Y-97239500D01*
X143658842Y-97239500D01*
X143501158Y-97239500D01*
X143501155Y-97239500D01*
X143346510Y-97270261D01*
X143346498Y-97270264D01*
X143200827Y-97330602D01*
X143200814Y-97330609D01*
X143069711Y-97418210D01*
X143069707Y-97418213D01*
X142958213Y-97529707D01*
X142958210Y-97529711D01*
X142870609Y-97660814D01*
X142870602Y-97660827D01*
X142810264Y-97806498D01*
X142810261Y-97806510D01*
X142779500Y-97961153D01*
X131736294Y-97961153D01*
X131719464Y-97935965D01*
X131719461Y-97935961D01*
X131594038Y-97810538D01*
X131594034Y-97810535D01*
X131446553Y-97711990D01*
X131446540Y-97711983D01*
X131282667Y-97644106D01*
X131282658Y-97644103D01*
X131108694Y-97609500D01*
X131108691Y-97609500D01*
X130931309Y-97609500D01*
X130931306Y-97609500D01*
X130757341Y-97644103D01*
X130757332Y-97644106D01*
X130593459Y-97711983D01*
X130593446Y-97711990D01*
X130445965Y-97810535D01*
X130445961Y-97810538D01*
X130320538Y-97935961D01*
X130320535Y-97935965D01*
X130221990Y-98083446D01*
X130221983Y-98083459D01*
X130154106Y-98247332D01*
X130154103Y-98247341D01*
X130119500Y-98421304D01*
X130119500Y-98555500D01*
X130099815Y-98622539D01*
X130047011Y-98668294D01*
X129995500Y-98679500D01*
X129901306Y-98679500D01*
X129727341Y-98714103D01*
X129727332Y-98714106D01*
X129563459Y-98781983D01*
X129563446Y-98781990D01*
X129415965Y-98880535D01*
X129415961Y-98880538D01*
X129290538Y-99005961D01*
X129290535Y-99005965D01*
X129191990Y-99153446D01*
X129191983Y-99153459D01*
X129124106Y-99317332D01*
X129124103Y-99317341D01*
X129089500Y-99491304D01*
X125314121Y-99491304D01*
X125320145Y-99461025D01*
X125320145Y-99461024D01*
X125340499Y-99358695D01*
X125340500Y-99358693D01*
X125340500Y-99181306D01*
X125340499Y-99181304D01*
X125305896Y-99007341D01*
X125305893Y-99007332D01*
X125238016Y-98843459D01*
X125238009Y-98843446D01*
X125139464Y-98695965D01*
X125139461Y-98695961D01*
X125014038Y-98570538D01*
X125014034Y-98570535D01*
X124866553Y-98471990D01*
X124866540Y-98471983D01*
X124702667Y-98404106D01*
X124702658Y-98404103D01*
X124528694Y-98369500D01*
X124528691Y-98369500D01*
X124351309Y-98369500D01*
X124351306Y-98369500D01*
X124177341Y-98404103D01*
X124177332Y-98404106D01*
X124013459Y-98471983D01*
X124013446Y-98471990D01*
X123865965Y-98570535D01*
X123865961Y-98570538D01*
X123740538Y-98695961D01*
X123740535Y-98695965D01*
X123641990Y-98843446D01*
X123641983Y-98843459D01*
X123574106Y-99007332D01*
X123574103Y-99007341D01*
X123539500Y-99181304D01*
X120979500Y-99181304D01*
X120979500Y-94601304D01*
X130189500Y-94601304D01*
X130189500Y-94778695D01*
X130224103Y-94952658D01*
X130224106Y-94952667D01*
X130291983Y-95116540D01*
X130291990Y-95116553D01*
X130390535Y-95264034D01*
X130390538Y-95264038D01*
X130515961Y-95389461D01*
X130515965Y-95389464D01*
X130663446Y-95488009D01*
X130663459Y-95488016D01*
X130786363Y-95538923D01*
X130827334Y-95555894D01*
X130827336Y-95555894D01*
X130827341Y-95555896D01*
X131001304Y-95590499D01*
X131001307Y-95590500D01*
X131001309Y-95590500D01*
X131178692Y-95590500D01*
X131191144Y-95588023D01*
X131260736Y-95594250D01*
X131315914Y-95637112D01*
X131339159Y-95703001D01*
X131336954Y-95733831D01*
X131329500Y-95771304D01*
X131329500Y-95948695D01*
X131364103Y-96122658D01*
X131364106Y-96122667D01*
X131431983Y-96286540D01*
X131431990Y-96286553D01*
X131530535Y-96434034D01*
X131530538Y-96434038D01*
X131655961Y-96559461D01*
X131655965Y-96559464D01*
X131803446Y-96658009D01*
X131803459Y-96658016D01*
X131926363Y-96708923D01*
X131967334Y-96725894D01*
X131967336Y-96725894D01*
X131967341Y-96725896D01*
X132141304Y-96760499D01*
X132141307Y-96760500D01*
X132141309Y-96760500D01*
X132318693Y-96760500D01*
X132318694Y-96760499D01*
X132376682Y-96748964D01*
X132492658Y-96725896D01*
X132492661Y-96725894D01*
X132492666Y-96725894D01*
X132656547Y-96658013D01*
X132804035Y-96559464D01*
X132929464Y-96434035D01*
X133028013Y-96286547D01*
X133095894Y-96122666D01*
X133099716Y-96103451D01*
X162749500Y-96103451D01*
X162749500Y-96335710D01*
X162785831Y-96565095D01*
X162857601Y-96785981D01*
X162963039Y-96992912D01*
X163099551Y-97180805D01*
X163263776Y-97345030D01*
X163451669Y-97481542D01*
X163546198Y-97529707D01*
X163658599Y-97586979D01*
X163658601Y-97586979D01*
X163658604Y-97586981D01*
X163879486Y-97658750D01*
X163997668Y-97677467D01*
X164108871Y-97695081D01*
X164108876Y-97695081D01*
X164341129Y-97695081D01*
X164442502Y-97679024D01*
X164570514Y-97658750D01*
X164791396Y-97586981D01*
X164998331Y-97481542D01*
X165186224Y-97345030D01*
X165350449Y-97180805D01*
X165486961Y-96992912D01*
X165592400Y-96785977D01*
X165664169Y-96565095D01*
X165684927Y-96434034D01*
X165700500Y-96335710D01*
X165700500Y-96103451D01*
X165681232Y-95981803D01*
X165664169Y-95874067D01*
X165592400Y-95653185D01*
X165592398Y-95653182D01*
X165592398Y-95653180D01*
X165486960Y-95446249D01*
X165477658Y-95433446D01*
X165350449Y-95258357D01*
X165186224Y-95094132D01*
X164998331Y-94957620D01*
X164988593Y-94952658D01*
X164791400Y-94852182D01*
X164570514Y-94780412D01*
X164341129Y-94744081D01*
X164341124Y-94744081D01*
X164108876Y-94744081D01*
X164108871Y-94744081D01*
X163879485Y-94780412D01*
X163658599Y-94852182D01*
X163451668Y-94957620D01*
X163263773Y-95094134D01*
X163099553Y-95258354D01*
X162963039Y-95446249D01*
X162857601Y-95653180D01*
X162785831Y-95874066D01*
X162749500Y-96103451D01*
X133099716Y-96103451D01*
X133105497Y-96074393D01*
X133105497Y-96074392D01*
X133130499Y-95948695D01*
X133130500Y-95948693D01*
X133130500Y-95771306D01*
X133130499Y-95771304D01*
X133095896Y-95597341D01*
X133095893Y-95597332D01*
X133094616Y-95594250D01*
X133072805Y-95541591D01*
X133028016Y-95433459D01*
X133028009Y-95433446D01*
X132929464Y-95285965D01*
X132929461Y-95285961D01*
X132804038Y-95160538D01*
X132804034Y-95160535D01*
X132656553Y-95061990D01*
X132656540Y-95061983D01*
X132492667Y-94994106D01*
X132492658Y-94994103D01*
X132318694Y-94959500D01*
X132318691Y-94959500D01*
X132141309Y-94959500D01*
X132141308Y-94959500D01*
X132128847Y-94961978D01*
X132059256Y-94955747D01*
X132004081Y-94912881D01*
X131980839Y-94846990D01*
X131983044Y-94816172D01*
X131990500Y-94778691D01*
X131990500Y-94601309D01*
X131990500Y-94601306D01*
X131990499Y-94601304D01*
X131955896Y-94427341D01*
X131955893Y-94427332D01*
X131888016Y-94263459D01*
X131888009Y-94263446D01*
X131789464Y-94115965D01*
X131789461Y-94115961D01*
X131664038Y-93990538D01*
X131664034Y-93990535D01*
X131575164Y-93931153D01*
X147989500Y-93931153D01*
X147989500Y-94088846D01*
X148020261Y-94243489D01*
X148020264Y-94243501D01*
X148080602Y-94389172D01*
X148080609Y-94389185D01*
X148168210Y-94520288D01*
X148168213Y-94520292D01*
X148279707Y-94631786D01*
X148279711Y-94631789D01*
X148410814Y-94719390D01*
X148410827Y-94719397D01*
X148553975Y-94778690D01*
X148556503Y-94779737D01*
X148711153Y-94810499D01*
X148711156Y-94810500D01*
X148711158Y-94810500D01*
X148868844Y-94810500D01*
X148868845Y-94810499D01*
X149023497Y-94779737D01*
X149169179Y-94719394D01*
X149300289Y-94631789D01*
X149411789Y-94520289D01*
X149499394Y-94389179D01*
X149559737Y-94243497D01*
X149590500Y-94088842D01*
X149590500Y-93931158D01*
X149590500Y-93931155D01*
X149590499Y-93931153D01*
X149582708Y-93891987D01*
X149559737Y-93776503D01*
X149559735Y-93776498D01*
X149499397Y-93630827D01*
X149499390Y-93630814D01*
X149411789Y-93499711D01*
X149411786Y-93499707D01*
X149300292Y-93388213D01*
X149300288Y-93388210D01*
X149169185Y-93300609D01*
X149169172Y-93300602D01*
X149023501Y-93240264D01*
X149023489Y-93240261D01*
X148868845Y-93209500D01*
X148868842Y-93209500D01*
X148711158Y-93209500D01*
X148711155Y-93209500D01*
X148556510Y-93240261D01*
X148556498Y-93240264D01*
X148410827Y-93300602D01*
X148410814Y-93300609D01*
X148279711Y-93388210D01*
X148279707Y-93388213D01*
X148168213Y-93499707D01*
X148168210Y-93499711D01*
X148080609Y-93630814D01*
X148080602Y-93630827D01*
X148020264Y-93776498D01*
X148020261Y-93776510D01*
X147989500Y-93931153D01*
X131575164Y-93931153D01*
X131516553Y-93891990D01*
X131516540Y-93891983D01*
X131352667Y-93824106D01*
X131352658Y-93824103D01*
X131178694Y-93789500D01*
X131178691Y-93789500D01*
X131001309Y-93789500D01*
X131001306Y-93789500D01*
X130827341Y-93824103D01*
X130827332Y-93824106D01*
X130663459Y-93891983D01*
X130663446Y-93891990D01*
X130515965Y-93990535D01*
X130515961Y-93990538D01*
X130390538Y-94115961D01*
X130390535Y-94115965D01*
X130291990Y-94263446D01*
X130291983Y-94263459D01*
X130224106Y-94427332D01*
X130224103Y-94427341D01*
X130189500Y-94601304D01*
X120979500Y-94601304D01*
X120979500Y-92811304D01*
X145099500Y-92811304D01*
X145099500Y-92988695D01*
X145134103Y-93162658D01*
X145134106Y-93162667D01*
X145201983Y-93326540D01*
X145201990Y-93326553D01*
X145300535Y-93474034D01*
X145300538Y-93474038D01*
X145425961Y-93599461D01*
X145425965Y-93599464D01*
X145573446Y-93698009D01*
X145573459Y-93698016D01*
X145696363Y-93748923D01*
X145737334Y-93765894D01*
X145737336Y-93765894D01*
X145737341Y-93765896D01*
X145911304Y-93800499D01*
X145911307Y-93800500D01*
X145911309Y-93800500D01*
X146088693Y-93800500D01*
X146088694Y-93800499D01*
X146146682Y-93788964D01*
X146262658Y-93765896D01*
X146262661Y-93765894D01*
X146262666Y-93765894D01*
X146426547Y-93698013D01*
X146574035Y-93599464D01*
X146699464Y-93474035D01*
X146798013Y-93326547D01*
X146865894Y-93162666D01*
X146900500Y-92988691D01*
X146900500Y-92811309D01*
X146900500Y-92811306D01*
X146900499Y-92811304D01*
X146865896Y-92637341D01*
X146865893Y-92637332D01*
X146798016Y-92473459D01*
X146798009Y-92473446D01*
X146699464Y-92325965D01*
X146699461Y-92325961D01*
X146574038Y-92200538D01*
X146574034Y-92200535D01*
X146426553Y-92101990D01*
X146426540Y-92101983D01*
X146262667Y-92034106D01*
X146262658Y-92034103D01*
X146088694Y-91999500D01*
X146088691Y-91999500D01*
X145911309Y-91999500D01*
X145911306Y-91999500D01*
X145737341Y-92034103D01*
X145737332Y-92034106D01*
X145573459Y-92101983D01*
X145573446Y-92101990D01*
X145425965Y-92200535D01*
X145425961Y-92200538D01*
X145300538Y-92325961D01*
X145300535Y-92325965D01*
X145201990Y-92473446D01*
X145201983Y-92473459D01*
X145134106Y-92637332D01*
X145134103Y-92637341D01*
X145099500Y-92811304D01*
X120979500Y-92811304D01*
X120979500Y-90538576D01*
X123169499Y-90538576D01*
X123196418Y-90673903D01*
X123196421Y-90673913D01*
X123249221Y-90801385D01*
X123249228Y-90801398D01*
X123325885Y-90916122D01*
X123325888Y-90916126D01*
X123423454Y-91013692D01*
X123423458Y-91013695D01*
X123538182Y-91090352D01*
X123538195Y-91090359D01*
X123665667Y-91143159D01*
X123665672Y-91143161D01*
X123665676Y-91143161D01*
X123665677Y-91143162D01*
X123801004Y-91170081D01*
X123801007Y-91170081D01*
X123938995Y-91170081D01*
X124030041Y-91151970D01*
X124074328Y-91143161D01*
X124201811Y-91090356D01*
X124316542Y-91013695D01*
X124414114Y-90916123D01*
X124490775Y-90801392D01*
X124543580Y-90673909D01*
X124568622Y-90548016D01*
X124570500Y-90538576D01*
X124570500Y-90400585D01*
X124543581Y-90265258D01*
X124543580Y-90265257D01*
X124543580Y-90265253D01*
X124510743Y-90185977D01*
X124490778Y-90137776D01*
X124490771Y-90137763D01*
X124414114Y-90023039D01*
X124414111Y-90023035D01*
X124316545Y-89925469D01*
X124316541Y-89925466D01*
X124201817Y-89848809D01*
X124201804Y-89848802D01*
X124074332Y-89796002D01*
X124074322Y-89795999D01*
X123938995Y-89769081D01*
X123938993Y-89769081D01*
X123801007Y-89769081D01*
X123801005Y-89769081D01*
X123665677Y-89795999D01*
X123665667Y-89796002D01*
X123538195Y-89848802D01*
X123538182Y-89848809D01*
X123423458Y-89925466D01*
X123423454Y-89925469D01*
X123325888Y-90023035D01*
X123325885Y-90023039D01*
X123249228Y-90137763D01*
X123249221Y-90137776D01*
X123196421Y-90265248D01*
X123196418Y-90265258D01*
X123169500Y-90400585D01*
X123169500Y-90400588D01*
X123169500Y-90538574D01*
X123169500Y-90538576D01*
X123169499Y-90538576D01*
X120979500Y-90538576D01*
X120979500Y-89491304D01*
X135319500Y-89491304D01*
X135319500Y-89668695D01*
X135354103Y-89842658D01*
X135354106Y-89842667D01*
X135421983Y-90006540D01*
X135421990Y-90006553D01*
X135520535Y-90154034D01*
X135520538Y-90154038D01*
X135645961Y-90279461D01*
X135645965Y-90279464D01*
X135793446Y-90378009D01*
X135793459Y-90378016D01*
X135847947Y-90400585D01*
X135957334Y-90445894D01*
X135957336Y-90445894D01*
X135957341Y-90445896D01*
X136131304Y-90480499D01*
X136131307Y-90480500D01*
X136131309Y-90480500D01*
X136308693Y-90480500D01*
X136308694Y-90480499D01*
X136366682Y-90468964D01*
X136482658Y-90445896D01*
X136482661Y-90445894D01*
X136482666Y-90445894D01*
X136646547Y-90378013D01*
X136794035Y-90279464D01*
X136919464Y-90154035D01*
X137018013Y-90006547D01*
X137085894Y-89842666D01*
X137086685Y-89838693D01*
X137120499Y-89668695D01*
X137120500Y-89668693D01*
X137120500Y-89661304D01*
X146549500Y-89661304D01*
X146549500Y-89838695D01*
X146584103Y-90012658D01*
X146584106Y-90012667D01*
X146651983Y-90176540D01*
X146651990Y-90176553D01*
X146750535Y-90324034D01*
X146750538Y-90324038D01*
X146875961Y-90449461D01*
X146875965Y-90449464D01*
X147023446Y-90548009D01*
X147023459Y-90548016D01*
X147146363Y-90598923D01*
X147187334Y-90615894D01*
X147187336Y-90615894D01*
X147187341Y-90615896D01*
X147361304Y-90650499D01*
X147361307Y-90650500D01*
X147361309Y-90650500D01*
X147538693Y-90650500D01*
X147538694Y-90650499D01*
X147596682Y-90638964D01*
X147712658Y-90615896D01*
X147712661Y-90615894D01*
X147712666Y-90615894D01*
X147876547Y-90548013D01*
X148024035Y-90449464D01*
X148149464Y-90324035D01*
X148248013Y-90176547D01*
X148315894Y-90012666D01*
X148317112Y-90006547D01*
X148350499Y-89838695D01*
X148350500Y-89838693D01*
X148350500Y-89661306D01*
X148322944Y-89522777D01*
X148319100Y-89503451D01*
X162749500Y-89503451D01*
X162749500Y-89735710D01*
X162785831Y-89965095D01*
X162857601Y-90185981D01*
X162955449Y-90378016D01*
X162963039Y-90392912D01*
X163099551Y-90580805D01*
X163263776Y-90745030D01*
X163451669Y-90881542D01*
X163519536Y-90916122D01*
X163658599Y-90986979D01*
X163658601Y-90986979D01*
X163658604Y-90986981D01*
X163879486Y-91058750D01*
X163997668Y-91077467D01*
X164108871Y-91095081D01*
X164108876Y-91095081D01*
X164341129Y-91095081D01*
X164442502Y-91079024D01*
X164570514Y-91058750D01*
X164791396Y-90986981D01*
X164998331Y-90881542D01*
X165186224Y-90745030D01*
X165350449Y-90580805D01*
X165486961Y-90392912D01*
X165592400Y-90185977D01*
X165664169Y-89965095D01*
X165690950Y-89796002D01*
X165700500Y-89735710D01*
X165700500Y-89503451D01*
X165681232Y-89381803D01*
X165664169Y-89274067D01*
X165592400Y-89053185D01*
X165592398Y-89053182D01*
X165592398Y-89053180D01*
X165509118Y-88889735D01*
X165486961Y-88846250D01*
X165350449Y-88658357D01*
X165186224Y-88494132D01*
X164998331Y-88357620D01*
X164990239Y-88353497D01*
X164791400Y-88252182D01*
X164570514Y-88180412D01*
X164341129Y-88144081D01*
X164341124Y-88144081D01*
X164108876Y-88144081D01*
X164108871Y-88144081D01*
X163879485Y-88180412D01*
X163658599Y-88252182D01*
X163451668Y-88357620D01*
X163263773Y-88494134D01*
X163099553Y-88658354D01*
X162963039Y-88846249D01*
X162857601Y-89053180D01*
X162785831Y-89274066D01*
X162749500Y-89503451D01*
X148319100Y-89503451D01*
X148315894Y-89487334D01*
X148298923Y-89446363D01*
X148248016Y-89323459D01*
X148248009Y-89323446D01*
X148149464Y-89175965D01*
X148149461Y-89175961D01*
X148024038Y-89050538D01*
X148024034Y-89050535D01*
X147876553Y-88951990D01*
X147876540Y-88951983D01*
X147712667Y-88884106D01*
X147712658Y-88884103D01*
X147538694Y-88849500D01*
X147538691Y-88849500D01*
X147361309Y-88849500D01*
X147361306Y-88849500D01*
X147187341Y-88884103D01*
X147187332Y-88884106D01*
X147023459Y-88951983D01*
X147023446Y-88951990D01*
X146875965Y-89050535D01*
X146875961Y-89050538D01*
X146750538Y-89175961D01*
X146750535Y-89175965D01*
X146651990Y-89323446D01*
X146651983Y-89323459D01*
X146584106Y-89487332D01*
X146584103Y-89487341D01*
X146549500Y-89661304D01*
X137120500Y-89661304D01*
X137120500Y-89491306D01*
X137120499Y-89491304D01*
X137085896Y-89317341D01*
X137085893Y-89317332D01*
X137018016Y-89153459D01*
X137018009Y-89153446D01*
X136919464Y-89005965D01*
X136919461Y-89005961D01*
X136794038Y-88880538D01*
X136794034Y-88880535D01*
X136646553Y-88781990D01*
X136646540Y-88781983D01*
X136482667Y-88714106D01*
X136482658Y-88714103D01*
X136308694Y-88679500D01*
X136308691Y-88679500D01*
X136131309Y-88679500D01*
X136131306Y-88679500D01*
X135957341Y-88714103D01*
X135957332Y-88714106D01*
X135793459Y-88781983D01*
X135793446Y-88781990D01*
X135645965Y-88880535D01*
X135645961Y-88880538D01*
X135520538Y-89005961D01*
X135520535Y-89005965D01*
X135421990Y-89153446D01*
X135421983Y-89153459D01*
X135354106Y-89317332D01*
X135354103Y-89317341D01*
X135319500Y-89491304D01*
X120979500Y-89491304D01*
X120979500Y-87538576D01*
X123169499Y-87538576D01*
X123196418Y-87673903D01*
X123196421Y-87673913D01*
X123249221Y-87801385D01*
X123249228Y-87801398D01*
X123325885Y-87916122D01*
X123325888Y-87916126D01*
X123423454Y-88013692D01*
X123423458Y-88013695D01*
X123538182Y-88090352D01*
X123538195Y-88090359D01*
X123665667Y-88143159D01*
X123665672Y-88143161D01*
X123665676Y-88143161D01*
X123665677Y-88143162D01*
X123801004Y-88170081D01*
X123801007Y-88170081D01*
X123938995Y-88170081D01*
X124030041Y-88151970D01*
X124074328Y-88143161D01*
X124201811Y-88090356D01*
X124316542Y-88013695D01*
X124414114Y-87916123D01*
X124490775Y-87801392D01*
X124543580Y-87673909D01*
X124559098Y-87595894D01*
X124570500Y-87538576D01*
X124570500Y-87400585D01*
X124543581Y-87265258D01*
X124543580Y-87265257D01*
X124543580Y-87265253D01*
X124513504Y-87192643D01*
X124490778Y-87137776D01*
X124490771Y-87137763D01*
X124414114Y-87023039D01*
X124414111Y-87023035D01*
X124316545Y-86925469D01*
X124316541Y-86925466D01*
X124201817Y-86848809D01*
X124201804Y-86848802D01*
X124074332Y-86796002D01*
X124074322Y-86795999D01*
X123938995Y-86769081D01*
X123938993Y-86769081D01*
X123801007Y-86769081D01*
X123801005Y-86769081D01*
X123665677Y-86795999D01*
X123665667Y-86796002D01*
X123538195Y-86848802D01*
X123538182Y-86848809D01*
X123423458Y-86925466D01*
X123423454Y-86925469D01*
X123325888Y-87023035D01*
X123325885Y-87023039D01*
X123249228Y-87137763D01*
X123249221Y-87137776D01*
X123196421Y-87265248D01*
X123196418Y-87265258D01*
X123169500Y-87400585D01*
X123169500Y-87400588D01*
X123169500Y-87538574D01*
X123169500Y-87538576D01*
X123169499Y-87538576D01*
X120979500Y-87538576D01*
X120979500Y-86641304D01*
X126229500Y-86641304D01*
X126229500Y-86818695D01*
X126264103Y-86992658D01*
X126264106Y-86992667D01*
X126331983Y-87156540D01*
X126331990Y-87156553D01*
X126430535Y-87304034D01*
X126430538Y-87304038D01*
X126555961Y-87429461D01*
X126555965Y-87429464D01*
X126703446Y-87528009D01*
X126703459Y-87528016D01*
X126826363Y-87578923D01*
X126867334Y-87595894D01*
X126867336Y-87595894D01*
X126867341Y-87595896D01*
X127041304Y-87630499D01*
X127041307Y-87630500D01*
X127041309Y-87630500D01*
X127218693Y-87630500D01*
X127218694Y-87630499D01*
X127276682Y-87618964D01*
X127392658Y-87595896D01*
X127392661Y-87595894D01*
X127392666Y-87595894D01*
X127556547Y-87528013D01*
X127704035Y-87429464D01*
X127829464Y-87304035D01*
X127928013Y-87156547D01*
X127946753Y-87111304D01*
X138609500Y-87111304D01*
X138609500Y-87288695D01*
X138644103Y-87462658D01*
X138644106Y-87462667D01*
X138711983Y-87626540D01*
X138711990Y-87626553D01*
X138810535Y-87774034D01*
X138810538Y-87774038D01*
X138935961Y-87899461D01*
X138935965Y-87899464D01*
X139083446Y-87998009D01*
X139083459Y-87998016D01*
X139187603Y-88041153D01*
X139247334Y-88065894D01*
X139247336Y-88065894D01*
X139247341Y-88065896D01*
X139421304Y-88100499D01*
X139421307Y-88100500D01*
X139421309Y-88100500D01*
X139598693Y-88100500D01*
X139598694Y-88100499D01*
X139656682Y-88088964D01*
X139772658Y-88065896D01*
X139772661Y-88065894D01*
X139772666Y-88065894D01*
X139832397Y-88041153D01*
X141469500Y-88041153D01*
X141469500Y-88198846D01*
X141500261Y-88353489D01*
X141500264Y-88353501D01*
X141560602Y-88499172D01*
X141560609Y-88499185D01*
X141648210Y-88630288D01*
X141648213Y-88630292D01*
X141759707Y-88741786D01*
X141759711Y-88741789D01*
X141890814Y-88829390D01*
X141890827Y-88829397D01*
X142014294Y-88880538D01*
X142036503Y-88889737D01*
X142191153Y-88920499D01*
X142191156Y-88920500D01*
X142191158Y-88920500D01*
X142348844Y-88920500D01*
X142348845Y-88920499D01*
X142503497Y-88889737D01*
X142649179Y-88829394D01*
X142780289Y-88741789D01*
X142891789Y-88630289D01*
X142979394Y-88499179D01*
X143039737Y-88353497D01*
X143070500Y-88198842D01*
X143070500Y-88041158D01*
X143070500Y-88041155D01*
X143070499Y-88041153D01*
X143045629Y-87916123D01*
X143039737Y-87886503D01*
X143004483Y-87801392D01*
X142992597Y-87772695D01*
X142992585Y-87772668D01*
X142979394Y-87740821D01*
X142979390Y-87740814D01*
X142973036Y-87731304D01*
X145549500Y-87731304D01*
X145549500Y-87908695D01*
X145584103Y-88082658D01*
X145584106Y-88082667D01*
X145651983Y-88246540D01*
X145651990Y-88246553D01*
X145750535Y-88394034D01*
X145750538Y-88394038D01*
X145875961Y-88519461D01*
X145875965Y-88519464D01*
X146023446Y-88618009D01*
X146023459Y-88618016D01*
X146053097Y-88630292D01*
X146187334Y-88685894D01*
X146187336Y-88685894D01*
X146187341Y-88685896D01*
X146361304Y-88720499D01*
X146361307Y-88720500D01*
X146361309Y-88720500D01*
X146538693Y-88720500D01*
X146538694Y-88720499D01*
X146596682Y-88708964D01*
X146712658Y-88685896D01*
X146712661Y-88685894D01*
X146712666Y-88685894D01*
X146876547Y-88618013D01*
X147024035Y-88519464D01*
X147149464Y-88394035D01*
X147248013Y-88246547D01*
X147315894Y-88082666D01*
X147319231Y-88065894D01*
X147349021Y-87916126D01*
X147350500Y-87908691D01*
X147350500Y-87731309D01*
X147350500Y-87731306D01*
X147350499Y-87731304D01*
X147315896Y-87557341D01*
X147315893Y-87557332D01*
X147248016Y-87393459D01*
X147248010Y-87393448D01*
X147234608Y-87373390D01*
X147213731Y-87306712D01*
X147232216Y-87239332D01*
X147284195Y-87192643D01*
X147337711Y-87180500D01*
X147478693Y-87180500D01*
X147478694Y-87180499D01*
X147536682Y-87168964D01*
X147652658Y-87145896D01*
X147652661Y-87145894D01*
X147652666Y-87145894D01*
X147816547Y-87078013D01*
X147964035Y-86979464D01*
X148089464Y-86854035D01*
X148188013Y-86706547D01*
X148255894Y-86542666D01*
X148264275Y-86500535D01*
X148290499Y-86368695D01*
X148290500Y-86368693D01*
X148290500Y-86191306D01*
X148290499Y-86191304D01*
X148255896Y-86017341D01*
X148255893Y-86017332D01*
X148188016Y-85853459D01*
X148188009Y-85853446D01*
X148089464Y-85705965D01*
X148089461Y-85705961D01*
X147964038Y-85580538D01*
X147964034Y-85580535D01*
X147816553Y-85481990D01*
X147816540Y-85481983D01*
X147652667Y-85414106D01*
X147652658Y-85414103D01*
X147478694Y-85379500D01*
X147478691Y-85379500D01*
X147301309Y-85379500D01*
X147301306Y-85379500D01*
X147127341Y-85414103D01*
X147127332Y-85414106D01*
X146963459Y-85481983D01*
X146963446Y-85481990D01*
X146815965Y-85580535D01*
X146815961Y-85580538D01*
X146690538Y-85705961D01*
X146690535Y-85705965D01*
X146591990Y-85853446D01*
X146591983Y-85853459D01*
X146524106Y-86017332D01*
X146524103Y-86017341D01*
X146489500Y-86191304D01*
X146489500Y-86368695D01*
X146524103Y-86542658D01*
X146524106Y-86542667D01*
X146591983Y-86706540D01*
X146591989Y-86706551D01*
X146605392Y-86726610D01*
X146626269Y-86793288D01*
X146607784Y-86860668D01*
X146555805Y-86907357D01*
X146502289Y-86919500D01*
X146361306Y-86919500D01*
X146187341Y-86954103D01*
X146187332Y-86954106D01*
X146023459Y-87021983D01*
X146023446Y-87021990D01*
X145875965Y-87120535D01*
X145875961Y-87120538D01*
X145750538Y-87245961D01*
X145750535Y-87245965D01*
X145651990Y-87393446D01*
X145651983Y-87393459D01*
X145584106Y-87557332D01*
X145584103Y-87557341D01*
X145549500Y-87731304D01*
X142973036Y-87731304D01*
X142891789Y-87609711D01*
X142891786Y-87609707D01*
X142780292Y-87498213D01*
X142780288Y-87498210D01*
X142649185Y-87410609D01*
X142649172Y-87410602D01*
X142503501Y-87350264D01*
X142503489Y-87350261D01*
X142348845Y-87319500D01*
X142348842Y-87319500D01*
X142191158Y-87319500D01*
X142191155Y-87319500D01*
X142036510Y-87350261D01*
X142036498Y-87350264D01*
X141890827Y-87410602D01*
X141890814Y-87410609D01*
X141759711Y-87498210D01*
X141759707Y-87498213D01*
X141648213Y-87609707D01*
X141648210Y-87609711D01*
X141560609Y-87740814D01*
X141560602Y-87740827D01*
X141500264Y-87886498D01*
X141500261Y-87886510D01*
X141469500Y-88041153D01*
X139832397Y-88041153D01*
X139936547Y-87998013D01*
X140084035Y-87899464D01*
X140209464Y-87774035D01*
X140308013Y-87626547D01*
X140375894Y-87462666D01*
X140382499Y-87429464D01*
X140410499Y-87288695D01*
X140410500Y-87288693D01*
X140410500Y-87111306D01*
X140410499Y-87111304D01*
X140375896Y-86937341D01*
X140375893Y-86937332D01*
X140370978Y-86925467D01*
X140341391Y-86854035D01*
X140308016Y-86773459D01*
X140308009Y-86773446D01*
X140209464Y-86625965D01*
X140209461Y-86625961D01*
X140084038Y-86500538D01*
X140084034Y-86500535D01*
X139936553Y-86401990D01*
X139936540Y-86401983D01*
X139772667Y-86334106D01*
X139772658Y-86334103D01*
X139598694Y-86299500D01*
X139598691Y-86299500D01*
X139421309Y-86299500D01*
X139421306Y-86299500D01*
X139247341Y-86334103D01*
X139247332Y-86334106D01*
X139083459Y-86401983D01*
X139083446Y-86401990D01*
X138935965Y-86500535D01*
X138935961Y-86500538D01*
X138810538Y-86625961D01*
X138810535Y-86625965D01*
X138711990Y-86773446D01*
X138711983Y-86773459D01*
X138644106Y-86937332D01*
X138644103Y-86937341D01*
X138609500Y-87111304D01*
X127946753Y-87111304D01*
X127995894Y-86992666D01*
X128006901Y-86937334D01*
X128024510Y-86848806D01*
X128030500Y-86818691D01*
X128030500Y-86641309D01*
X128030500Y-86641306D01*
X128030499Y-86641304D01*
X127995896Y-86467341D01*
X127995893Y-86467332D01*
X127928016Y-86303459D01*
X127928009Y-86303446D01*
X127829464Y-86155965D01*
X127829461Y-86155961D01*
X127704038Y-86030538D01*
X127704034Y-86030535D01*
X127556553Y-85931990D01*
X127556540Y-85931983D01*
X127392667Y-85864106D01*
X127392658Y-85864103D01*
X127218694Y-85829500D01*
X127218691Y-85829500D01*
X127041309Y-85829500D01*
X127041306Y-85829500D01*
X126867341Y-85864103D01*
X126867332Y-85864106D01*
X126703459Y-85931983D01*
X126703446Y-85931990D01*
X126555965Y-86030535D01*
X126555961Y-86030538D01*
X126430538Y-86155961D01*
X126430535Y-86155965D01*
X126331990Y-86303446D01*
X126331983Y-86303459D01*
X126264106Y-86467332D01*
X126264103Y-86467341D01*
X126229500Y-86641304D01*
X120979500Y-86641304D01*
X120979500Y-82731304D01*
X157539500Y-82731304D01*
X157539500Y-82908695D01*
X157574103Y-83082658D01*
X157574106Y-83082667D01*
X157641983Y-83246540D01*
X157641990Y-83246553D01*
X157740535Y-83394034D01*
X157740538Y-83394038D01*
X157865961Y-83519461D01*
X157865965Y-83519464D01*
X158013446Y-83618009D01*
X158013459Y-83618016D01*
X158136363Y-83668923D01*
X158177334Y-83685894D01*
X158177336Y-83685894D01*
X158177341Y-83685896D01*
X158351304Y-83720499D01*
X158351307Y-83720500D01*
X158351309Y-83720500D01*
X158528693Y-83720500D01*
X158528694Y-83720499D01*
X158586682Y-83708964D01*
X158702658Y-83685896D01*
X158702661Y-83685894D01*
X158702666Y-83685894D01*
X158866547Y-83618013D01*
X159014035Y-83519464D01*
X159139464Y-83394035D01*
X159238013Y-83246547D01*
X159305894Y-83082666D01*
X159340500Y-82908691D01*
X159340500Y-82731309D01*
X159340500Y-82731306D01*
X159340499Y-82731304D01*
X159305896Y-82557341D01*
X159305893Y-82557332D01*
X159238016Y-82393459D01*
X159238009Y-82393446D01*
X159139464Y-82245965D01*
X159139461Y-82245961D01*
X159014038Y-82120538D01*
X159014034Y-82120535D01*
X158866553Y-82021990D01*
X158866540Y-82021983D01*
X158702667Y-81954106D01*
X158702658Y-81954103D01*
X158528694Y-81919500D01*
X158528691Y-81919500D01*
X158351309Y-81919500D01*
X158351306Y-81919500D01*
X158177341Y-81954103D01*
X158177332Y-81954106D01*
X158013459Y-82021983D01*
X158013446Y-82021990D01*
X157865965Y-82120535D01*
X157865961Y-82120538D01*
X157740538Y-82245961D01*
X157740535Y-82245965D01*
X157641990Y-82393446D01*
X157641983Y-82393459D01*
X157574106Y-82557332D01*
X157574103Y-82557341D01*
X157539500Y-82731304D01*
X120979500Y-82731304D01*
X120979500Y-79668592D01*
X132423500Y-79668592D01*
X132423500Y-79831407D01*
X132455259Y-79991073D01*
X132455262Y-79991082D01*
X132517562Y-80141490D01*
X132517563Y-80141492D01*
X132608015Y-80276862D01*
X132608018Y-80276866D01*
X132723133Y-80391981D01*
X132723137Y-80391984D01*
X132858505Y-80482435D01*
X132858506Y-80482435D01*
X132858507Y-80482436D01*
X132858509Y-80482437D01*
X132958781Y-80523970D01*
X133008919Y-80544738D01*
X133008921Y-80544738D01*
X133008926Y-80544740D01*
X133168592Y-80576499D01*
X133168595Y-80576500D01*
X133168597Y-80576500D01*
X133331405Y-80576500D01*
X133331406Y-80576499D01*
X133384629Y-80565912D01*
X133491073Y-80544740D01*
X133491076Y-80544738D01*
X133491081Y-80544738D01*
X133641495Y-80482435D01*
X133776863Y-80391984D01*
X133891984Y-80276863D01*
X133982435Y-80141495D01*
X134044738Y-79991081D01*
X134049328Y-79968009D01*
X134076499Y-79831407D01*
X134076500Y-79831405D01*
X134076500Y-79668594D01*
X134051832Y-79544581D01*
X136957231Y-79544581D01*
X136984584Y-79682093D01*
X136984586Y-79682101D01*
X137052428Y-79845888D01*
X137052433Y-79845897D01*
X137150923Y-79993297D01*
X137150926Y-79993301D01*
X137276279Y-80118654D01*
X137276287Y-80118660D01*
X137423679Y-80217144D01*
X137423697Y-80217154D01*
X137474999Y-80238404D01*
X137475000Y-80238404D01*
X137475000Y-79544581D01*
X136957231Y-79544581D01*
X134051832Y-79544581D01*
X134050014Y-79535443D01*
X134050013Y-79535442D01*
X134044738Y-79508919D01*
X134044471Y-79508274D01*
X138199499Y-79508274D01*
X138222617Y-79624487D01*
X138225000Y-79648679D01*
X138225000Y-80238404D01*
X138276302Y-80217154D01*
X138276315Y-80217147D01*
X138405659Y-80130722D01*
X138472336Y-80109844D01*
X138539716Y-80128328D01*
X138543434Y-80130717D01*
X138673453Y-80217594D01*
X138673455Y-80217595D01*
X138673459Y-80217597D01*
X138796363Y-80268504D01*
X138837334Y-80285475D01*
X138837336Y-80285475D01*
X138837341Y-80285477D01*
X139011304Y-80320080D01*
X139011307Y-80320081D01*
X139011309Y-80320081D01*
X139188693Y-80320081D01*
X139188694Y-80320080D01*
X139261562Y-80305586D01*
X139362658Y-80285477D01*
X139362661Y-80285475D01*
X139362666Y-80285475D01*
X139526547Y-80217594D01*
X139632296Y-80146933D01*
X139656109Y-80131023D01*
X139722786Y-80110145D01*
X139790166Y-80128629D01*
X139793891Y-80131023D01*
X139827460Y-80153453D01*
X139923453Y-80217594D01*
X139923455Y-80217595D01*
X139923459Y-80217597D01*
X140046363Y-80268504D01*
X140087334Y-80285475D01*
X140087336Y-80285475D01*
X140087341Y-80285477D01*
X140261304Y-80320080D01*
X140261307Y-80320081D01*
X140261309Y-80320081D01*
X140438693Y-80320081D01*
X140542868Y-80299359D01*
X140612460Y-80305586D01*
X140667637Y-80348449D01*
X140690882Y-80414339D01*
X140688678Y-80445166D01*
X140679500Y-80491309D01*
X140679500Y-80668695D01*
X140714103Y-80842658D01*
X140714106Y-80842667D01*
X140781983Y-81006540D01*
X140781990Y-81006553D01*
X140880535Y-81154034D01*
X140880538Y-81154038D01*
X141005961Y-81279461D01*
X141005965Y-81279464D01*
X141153446Y-81378009D01*
X141153459Y-81378016D01*
X141276363Y-81428923D01*
X141317334Y-81445894D01*
X141317336Y-81445894D01*
X141317341Y-81445896D01*
X141491304Y-81480499D01*
X141491307Y-81480500D01*
X141491309Y-81480500D01*
X141668693Y-81480500D01*
X141668694Y-81480499D01*
X141726682Y-81468964D01*
X141842658Y-81445896D01*
X141842661Y-81445894D01*
X141842666Y-81445894D01*
X142006547Y-81378013D01*
X142154035Y-81279464D01*
X142279464Y-81154035D01*
X142378013Y-81006547D01*
X142445894Y-80842666D01*
X142480500Y-80668691D01*
X142480500Y-80491309D01*
X142480500Y-80491306D01*
X142480499Y-80491304D01*
X142445896Y-80317341D01*
X142445894Y-80317336D01*
X142445894Y-80317334D01*
X142414414Y-80241335D01*
X142406946Y-80171868D01*
X142438221Y-80109389D01*
X142498310Y-80073737D01*
X142535217Y-80070932D01*
X142535217Y-80070500D01*
X142540912Y-80070500D01*
X142541136Y-80070483D01*
X142541309Y-80070500D01*
X142718693Y-80070500D01*
X142718694Y-80070499D01*
X142797791Y-80054766D01*
X142892658Y-80035896D01*
X142892661Y-80035894D01*
X142892666Y-80035894D01*
X143056547Y-79968013D01*
X143204035Y-79869464D01*
X143329464Y-79744035D01*
X143379874Y-79668592D01*
X156673500Y-79668592D01*
X156673500Y-79831407D01*
X156705259Y-79991073D01*
X156705262Y-79991082D01*
X156767562Y-80141490D01*
X156767563Y-80141492D01*
X156858015Y-80276862D01*
X156858018Y-80276866D01*
X156973133Y-80391981D01*
X156973137Y-80391984D01*
X157108505Y-80482435D01*
X157108506Y-80482435D01*
X157108507Y-80482436D01*
X157108509Y-80482437D01*
X157208781Y-80523970D01*
X157258919Y-80544738D01*
X157258921Y-80544738D01*
X157258926Y-80544740D01*
X157418592Y-80576499D01*
X157418595Y-80576500D01*
X157418597Y-80576500D01*
X157581405Y-80576500D01*
X157581406Y-80576499D01*
X157634629Y-80565912D01*
X157741073Y-80544740D01*
X157741076Y-80544738D01*
X157741081Y-80544738D01*
X157891495Y-80482435D01*
X158026863Y-80391984D01*
X158141984Y-80276863D01*
X158232435Y-80141495D01*
X158294738Y-79991081D01*
X158299328Y-79968009D01*
X158326499Y-79831407D01*
X158326500Y-79831405D01*
X158326500Y-79668594D01*
X158326499Y-79668592D01*
X158294740Y-79508926D01*
X158294737Y-79508918D01*
X158257475Y-79418958D01*
X158232437Y-79358509D01*
X158232436Y-79358507D01*
X158141984Y-79223137D01*
X158141981Y-79223133D01*
X158026866Y-79108018D01*
X158026862Y-79108015D01*
X157891492Y-79017563D01*
X157891490Y-79017562D01*
X157741082Y-78955262D01*
X157741073Y-78955259D01*
X157581406Y-78923500D01*
X157581403Y-78923500D01*
X157418597Y-78923500D01*
X157418594Y-78923500D01*
X157258926Y-78955259D01*
X157258917Y-78955262D01*
X157108509Y-79017562D01*
X157108507Y-79017563D01*
X156973137Y-79108015D01*
X156973133Y-79108018D01*
X156858018Y-79223133D01*
X156858015Y-79223137D01*
X156767563Y-79358507D01*
X156767562Y-79358509D01*
X156705262Y-79508917D01*
X156705259Y-79508926D01*
X156673500Y-79668592D01*
X143379874Y-79668592D01*
X143428013Y-79596547D01*
X143495894Y-79432666D01*
X143506068Y-79381521D01*
X143530499Y-79258695D01*
X143530500Y-79258693D01*
X143530500Y-79081306D01*
X143530499Y-79081304D01*
X143495896Y-78907341D01*
X143495893Y-78907332D01*
X143428016Y-78743459D01*
X143428009Y-78743446D01*
X143329464Y-78595965D01*
X143329461Y-78595961D01*
X143204038Y-78470538D01*
X143204034Y-78470535D01*
X143056553Y-78371990D01*
X143056540Y-78371983D01*
X142892667Y-78304106D01*
X142892658Y-78304103D01*
X142718694Y-78269500D01*
X142718691Y-78269500D01*
X142595738Y-78269500D01*
X142528699Y-78249815D01*
X142482944Y-78197011D01*
X142473000Y-78127853D01*
X142474121Y-78121309D01*
X142500499Y-77988695D01*
X142500500Y-77988693D01*
X142500500Y-77811306D01*
X142500499Y-77811304D01*
X142465896Y-77637341D01*
X142465893Y-77637332D01*
X142398016Y-77473459D01*
X142398009Y-77473446D01*
X142299464Y-77325965D01*
X142299461Y-77325961D01*
X142174038Y-77200538D01*
X142174034Y-77200535D01*
X142026553Y-77101990D01*
X142026540Y-77101983D01*
X141862667Y-77034106D01*
X141862658Y-77034103D01*
X141688694Y-76999500D01*
X141688691Y-76999500D01*
X141511309Y-76999500D01*
X141511306Y-76999500D01*
X141337341Y-77034103D01*
X141337332Y-77034106D01*
X141173459Y-77101983D01*
X141173446Y-77101990D01*
X141025965Y-77200535D01*
X141025961Y-77200538D01*
X140900538Y-77325961D01*
X140900535Y-77325965D01*
X140801990Y-77473446D01*
X140801983Y-77473459D01*
X140734106Y-77637332D01*
X140734103Y-77637341D01*
X140699500Y-77811304D01*
X140699500Y-77919864D01*
X140679815Y-77986903D01*
X140627011Y-78032658D01*
X140557853Y-78042602D01*
X140551309Y-78041481D01*
X140438695Y-78019081D01*
X140438691Y-78019081D01*
X140261309Y-78019081D01*
X140261306Y-78019081D01*
X140087341Y-78053684D01*
X140087332Y-78053687D01*
X139923459Y-78121564D01*
X139923446Y-78121571D01*
X139793891Y-78208138D01*
X139727213Y-78229016D01*
X139659833Y-78210531D01*
X139656109Y-78208138D01*
X139526553Y-78121571D01*
X139526540Y-78121564D01*
X139362667Y-78053687D01*
X139362658Y-78053684D01*
X139188694Y-78019081D01*
X139188691Y-78019081D01*
X139011309Y-78019081D01*
X139011306Y-78019081D01*
X138837341Y-78053684D01*
X138837332Y-78053687D01*
X138673459Y-78121564D01*
X138673446Y-78121571D01*
X138543441Y-78208439D01*
X138476764Y-78229317D01*
X138409383Y-78210833D01*
X138405660Y-78208439D01*
X138276314Y-78122013D01*
X138225000Y-78100757D01*
X138225000Y-78690481D01*
X138222909Y-78711704D01*
X138222824Y-78713609D01*
X138222723Y-78714137D01*
X138199500Y-78830890D01*
X138199500Y-79508272D01*
X138199500Y-79508274D01*
X138199499Y-79508274D01*
X134044471Y-79508274D01*
X134007475Y-79418958D01*
X133982437Y-79358509D01*
X133982436Y-79358507D01*
X133891984Y-79223137D01*
X133891981Y-79223133D01*
X133788701Y-79119853D01*
X137600000Y-79119853D01*
X137600000Y-79219309D01*
X137638060Y-79311195D01*
X137708386Y-79381521D01*
X137800272Y-79419581D01*
X137899728Y-79419581D01*
X137991614Y-79381521D01*
X138061940Y-79311195D01*
X138100000Y-79219309D01*
X138100000Y-79119853D01*
X138061940Y-79027967D01*
X137991614Y-78957641D01*
X137899728Y-78919581D01*
X137800272Y-78919581D01*
X137708386Y-78957641D01*
X137638060Y-79027967D01*
X137600000Y-79119853D01*
X133788701Y-79119853D01*
X133776866Y-79108018D01*
X133776862Y-79108015D01*
X133641492Y-79017563D01*
X133641490Y-79017562D01*
X133491082Y-78955262D01*
X133491073Y-78955259D01*
X133462257Y-78949528D01*
X133331406Y-78923500D01*
X133331403Y-78923500D01*
X133168597Y-78923500D01*
X133168594Y-78923500D01*
X133008926Y-78955259D01*
X133008917Y-78955262D01*
X132858509Y-79017562D01*
X132858507Y-79017563D01*
X132723137Y-79108015D01*
X132723133Y-79108018D01*
X132608018Y-79223133D01*
X132608015Y-79223137D01*
X132517563Y-79358507D01*
X132517562Y-79358509D01*
X132455262Y-79508917D01*
X132455259Y-79508926D01*
X132423500Y-79668592D01*
X120979500Y-79668592D01*
X120979500Y-79472142D01*
X120979606Y-79467018D01*
X120988851Y-79243486D01*
X120997204Y-79041517D01*
X120998047Y-79031348D01*
X121027560Y-78794580D01*
X136957231Y-78794580D01*
X136957231Y-78794581D01*
X137475000Y-78794581D01*
X137475000Y-78100757D01*
X137423685Y-78122013D01*
X137276287Y-78220501D01*
X137276279Y-78220507D01*
X137150926Y-78345860D01*
X137150923Y-78345864D01*
X137052433Y-78493264D01*
X137052428Y-78493273D01*
X136984586Y-78657060D01*
X136984584Y-78657068D01*
X136957231Y-78794580D01*
X121027560Y-78794580D01*
X121050410Y-78611269D01*
X121052090Y-78601197D01*
X121138962Y-78186885D01*
X121141469Y-78176989D01*
X121262259Y-77771260D01*
X121265574Y-77761608D01*
X121419449Y-77367258D01*
X121423565Y-77357877D01*
X121439168Y-77325961D01*
X121609467Y-76977609D01*
X121614340Y-76968603D01*
X121831030Y-76604951D01*
X121836623Y-76596391D01*
X122082595Y-76251885D01*
X122088863Y-76243831D01*
X122362456Y-75920802D01*
X122369375Y-75913286D01*
X122668705Y-75613956D01*
X122676221Y-75607037D01*
X122999250Y-75333444D01*
X123007304Y-75327176D01*
X123351810Y-75081204D01*
X123360370Y-75075611D01*
X123724030Y-74858916D01*
X123733028Y-74854048D01*
X124113299Y-74668144D01*
X124122681Y-74664029D01*
X124517027Y-74510155D01*
X124526679Y-74506840D01*
X124932408Y-74386050D01*
X124942304Y-74383543D01*
X125356616Y-74296671D01*
X125366688Y-74294991D01*
X125786767Y-74242628D01*
X125796936Y-74241785D01*
X126222437Y-74224186D01*
X126227561Y-74224081D01*
X126269875Y-74224081D01*
X164430125Y-74224081D01*
X164472439Y-74224081D01*
X164477562Y-74224186D01*
G37*
%TD.AperFunction*%
%TD*%
M02*
